<svg width="230" height="33" viewBox="0 0 230 33" fill="none" xmlns="http://www.w3.org/2000/svg">
<path d="M75.8009 22L79.6168 11.4312H80.9425V13.2842H80.4445L77.5294 22H75.8009ZM77.6393 19.1436L78.1007 17.8252H82.9127L83.3742 19.1436H77.6393ZM83.4767 22L80.569 13.2842V11.4312H81.3966L85.2052 22H83.4767ZM87.6339 22V20.6597H90.8273C91.5695 20.6597 92.131 20.5107 92.5118 20.2129C92.8927 19.915 93.0831 19.4829 93.0831 18.9165V18.9019C93.0831 18.521 92.9952 18.2036 92.8195 17.9497C92.6437 17.6958 92.38 17.5054 92.0284 17.3784C91.6818 17.2466 91.2496 17.1807 90.7321 17.1807H87.6339V15.9282H90.4025C91.13 15.9282 91.6793 15.7964 92.0504 15.5327C92.4215 15.2642 92.6071 14.8735 92.6071 14.3608V14.3462C92.6071 13.8481 92.4386 13.4624 92.1017 13.189C91.7648 12.9106 91.2911 12.7715 90.6808 12.7715H87.6339V11.4312H91.069C91.7282 11.4312 92.2946 11.5386 92.7682 11.7534C93.2467 11.9683 93.6129 12.2734 93.8668 12.6689C94.1207 13.0596 94.2477 13.5234 94.2477 14.0605V14.0752C94.2477 14.4463 94.1647 14.793 93.9987 15.1152C93.8326 15.4326 93.6105 15.7012 93.3322 15.9209C93.0538 16.1406 92.7389 16.2798 92.3873 16.3384V16.4629C92.8658 16.5117 93.2833 16.6509 93.6398 16.8804C93.9962 17.1099 94.2745 17.4077 94.4747 17.7739C94.6749 18.1353 94.775 18.5454 94.775 19.0044V19.019C94.775 19.6343 94.6285 20.1665 94.3356 20.6157C94.0475 21.0601 93.6349 21.4019 93.0978 21.6411C92.5607 21.8804 91.9161 22 91.1642 22H87.6339ZM86.8136 22V11.4312H88.4542V22H86.8136ZM101.151 22.2563C100.126 22.2563 99.2447 22.0317 98.5074 21.5825C97.7701 21.1284 97.2037 20.4863 96.8082 19.6562C96.4127 18.8262 96.215 17.8472 96.215 16.7192V16.7046C96.215 15.5669 96.4151 14.5854 96.8155 13.7603C97.2159 12.9351 97.7848 12.2979 98.5221 11.8486C99.2643 11.3994 100.141 11.1748 101.151 11.1748C102.167 11.1748 103.044 11.3994 103.781 11.8486C104.518 12.2979 105.085 12.9375 105.48 13.7676C105.88 14.5928 106.081 15.5718 106.081 16.7046V16.7192C106.081 17.8472 105.883 18.8262 105.487 19.6562C105.092 20.4814 104.523 21.1211 103.781 21.5752C103.044 22.0293 102.167 22.2563 101.151 22.2563ZM101.151 20.7988C101.816 20.7988 102.392 20.6304 102.88 20.2935C103.368 19.9565 103.744 19.4829 104.008 18.8726C104.272 18.2573 104.403 17.5396 104.403 16.7192V16.7046C104.403 15.8745 104.272 15.1543 104.008 14.5439C103.744 13.9336 103.368 13.4624 102.88 13.1304C102.392 12.7983 101.816 12.6323 101.151 12.6323C100.487 12.6323 99.9112 12.7983 99.423 13.1304C98.9396 13.4624 98.5636 13.9336 98.295 14.5439C98.0265 15.1543 97.8922 15.8745 97.8922 16.7046V16.7192C97.8922 17.5396 98.0216 18.2573 98.2804 18.8726C98.5441 19.4829 98.9176 19.9565 99.401 20.2935C99.8893 20.6304 100.473 20.7988 101.151 20.7988ZM112.347 22.2563C111.463 22.2563 110.702 22.0928 110.062 21.7656C109.422 21.4385 108.929 20.9844 108.583 20.4033C108.236 19.8174 108.063 19.1362 108.063 18.3599V11.4312H109.711V18.2354C109.711 18.7432 109.813 19.1899 110.018 19.5757C110.228 19.9614 110.528 20.2617 110.919 20.4766C111.315 20.6914 111.791 20.7988 112.347 20.7988C112.909 20.7988 113.385 20.6914 113.775 20.4766C114.166 20.2617 114.464 19.9614 114.669 19.5757C114.874 19.1899 114.977 18.7432 114.977 18.2354V11.4312H116.625V18.3599C116.625 19.1362 116.451 19.8174 116.105 20.4033C115.763 20.9844 115.272 21.4385 114.632 21.7656C113.998 22.0928 113.236 22.2563 112.347 22.2563ZM121.719 22V12.8521H118.394V11.4312H126.685V12.8521H123.36V22H121.719ZM136.589 22.2563C135.705 22.2563 134.943 22.0928 134.304 21.7656C133.664 21.4385 133.171 20.9844 132.824 20.4033C132.478 19.8174 132.304 19.1362 132.304 18.3599V11.4312H133.952V18.2354C133.952 18.7432 134.055 19.1899 134.26 19.5757C134.47 19.9614 134.77 20.2617 135.161 20.4766C135.556 20.6914 136.032 20.7988 136.589 20.7988C137.15 20.7988 137.626 20.6914 138.017 20.4766C138.408 20.2617 138.706 19.9614 138.911 19.5757C139.116 19.1899 139.218 18.7432 139.218 18.2354V11.4312H140.866V18.3599C140.866 19.1362 140.693 19.8174 140.346 20.4033C140.004 20.9844 139.514 21.4385 138.874 21.7656C138.239 22.0928 137.478 22.2563 136.589 22.2563ZM146.854 22.2563C146.059 22.2563 145.365 22.1318 144.774 21.8828C144.184 21.6289 143.717 21.2773 143.375 20.8281C143.034 20.3789 142.838 19.8589 142.79 19.2681L142.782 19.1729H144.401L144.408 19.2534C144.442 19.5708 144.567 19.8467 144.782 20.0811C145.001 20.3154 145.294 20.4985 145.661 20.6304C146.032 20.7622 146.454 20.8281 146.928 20.8281C147.372 20.8281 147.768 20.7573 148.114 20.6157C148.461 20.4741 148.732 20.2788 148.927 20.0298C149.127 19.7808 149.228 19.4951 149.228 19.1729V19.1655C149.228 18.7603 149.074 18.4233 148.766 18.1548C148.459 17.8862 147.956 17.6763 147.257 17.5249L146.1 17.2832C145.031 17.0537 144.252 16.6899 143.764 16.1919C143.275 15.689 143.031 15.0469 143.031 14.2656V14.2583C143.036 13.6479 143.2 13.1108 143.522 12.647C143.849 12.1831 144.301 11.8218 144.877 11.563C145.453 11.3042 146.115 11.1748 146.862 11.1748C147.609 11.1748 148.261 11.3042 148.817 11.563C149.379 11.8169 149.821 12.1636 150.143 12.603C150.47 13.0425 150.653 13.5381 150.692 14.0898L150.7 14.1851H149.096L149.081 14.0898C149.037 13.8018 148.917 13.5454 148.722 13.3208C148.532 13.0962 148.275 12.9204 147.953 12.7935C147.636 12.6616 147.265 12.5981 146.84 12.603C146.43 12.603 146.063 12.6665 145.741 12.7935C145.419 12.9155 145.163 13.0938 144.972 13.3281C144.787 13.5625 144.694 13.8457 144.694 14.1777V14.1851C144.694 14.5757 144.843 14.9028 145.141 15.1665C145.443 15.4253 145.934 15.6279 146.613 15.7744L147.77 16.0308C148.507 16.187 149.105 16.3945 149.564 16.6533C150.023 16.9121 150.358 17.2319 150.568 17.6128C150.783 17.9888 150.89 18.438 150.89 18.9604V18.9678C150.89 19.6416 150.724 20.2251 150.392 20.7183C150.065 21.2065 149.599 21.585 148.993 21.8535C148.388 22.1221 147.675 22.2563 146.854 22.2563Z" fill="#ABABB1" fill-opacity="0.93"/>
</svg>
