<svg width="230" height="33" viewBox="0 0 230 33" fill="none" xmlns="http://www.w3.org/2000/svg">
<path d="M71.4606 22.2563C70.4841 22.2563 69.6369 22.0317 68.9191 21.5825C68.2062 21.1333 67.6569 20.4961 67.2712 19.6709C66.8854 18.8457 66.6925 17.8643 66.6925 16.7266V16.7119C66.6925 15.5693 66.8854 14.5854 67.2712 13.7603C67.6569 12.9351 68.2062 12.2979 68.9191 11.8486C69.632 11.3994 70.4792 11.1748 71.4606 11.1748C72.237 11.1748 72.9377 11.3286 73.5627 11.6362C74.1925 11.939 74.7077 12.3589 75.1081 12.896C75.5133 13.4331 75.7599 14.0508 75.8478 14.749V14.793H74.2145L74.2072 14.7637C74.1095 14.3291 73.9313 13.9531 73.6725 13.6357C73.4137 13.3184 73.0964 13.0718 72.7204 12.896C72.3444 12.7202 71.9245 12.6323 71.4606 12.6323C70.8307 12.6323 70.2839 12.7983 69.82 13.1304C69.361 13.4624 69.0046 13.9336 68.7507 14.5439C68.5016 15.1494 68.3771 15.8721 68.3771 16.7119V16.7266C68.3771 17.5566 68.5016 18.2769 68.7507 18.8872C69.0046 19.4976 69.361 19.9688 69.82 20.3008C70.2839 20.6328 70.8332 20.7988 71.4679 20.7988C71.9318 20.7988 72.3517 20.7207 72.7277 20.5645C73.1086 20.4082 73.4259 20.186 73.6799 19.8979C73.9338 19.605 74.1071 19.2607 74.1999 18.8652L74.2145 18.8359H75.8551L75.8478 18.8726C75.7453 19.5513 75.4963 20.1445 75.1007 20.6523C74.7052 21.1602 74.1974 21.5557 73.5773 21.8389C72.9572 22.1172 72.2516 22.2563 71.4606 22.2563ZM82.2829 22.2563C81.2575 22.2563 80.3761 22.0317 79.6388 21.5825C78.9015 21.1284 78.3351 20.4863 77.9396 19.6562C77.5441 18.8262 77.3463 17.8472 77.3463 16.7192V16.7046C77.3463 15.5669 77.5465 14.5854 77.9469 13.7603C78.3473 12.9351 78.9162 12.2979 79.6535 11.8486C80.3957 11.3994 81.2721 11.1748 82.2829 11.1748C83.2985 11.1748 84.1749 11.3994 84.9123 11.8486C85.6496 12.2979 86.216 12.9375 86.6115 13.7676C87.0119 14.5928 87.2121 15.5718 87.2121 16.7046V16.7192C87.2121 17.8472 87.0143 18.8262 86.6188 19.6562C86.2233 20.4814 85.6544 21.1211 84.9123 21.5752C84.1749 22.0293 83.2985 22.2563 82.2829 22.2563ZM82.2829 20.7988C82.9469 20.7988 83.5231 20.6304 84.0114 20.2935C84.4997 19.9565 84.8756 19.4829 85.1393 18.8726C85.403 18.2573 85.5348 17.5396 85.5348 16.7192V16.7046C85.5348 15.8745 85.403 15.1543 85.1393 14.5439C84.8756 13.9336 84.4997 13.4624 84.0114 13.1304C83.5231 12.7983 82.9469 12.6323 82.2829 12.6323C81.6188 12.6323 81.0426 12.7983 80.5543 13.1304C80.0709 13.4624 79.695 13.9336 79.4264 14.5439C79.1579 15.1543 79.0236 15.8745 79.0236 16.7046V16.7192C79.0236 17.5396 79.153 18.2573 79.4118 18.8726C79.6754 19.4829 80.049 19.9565 80.5324 20.2935C81.0207 20.6304 81.6041 20.7988 82.2829 20.7988ZM89.2086 22V11.4312H90.6954L96.5255 19.6855L95.4049 19.1069H96.2325V11.4312H97.8366V22H96.3497L90.5123 13.7529L91.6403 14.3315H90.8053V22H89.2086ZM102.939 22V12.8521H99.6134V11.4312H107.904V12.8521H104.579V22H102.939ZM107.667 22L111.483 11.4312H112.809V13.2842H112.311L109.396 22H107.667ZM109.505 19.1436L109.967 17.8252H114.779L115.24 19.1436H109.505ZM115.343 22L112.435 13.2842V11.4312H113.263L117.071 22H115.343ZM122.518 22.2563C121.541 22.2563 120.694 22.0317 119.976 21.5825C119.263 21.1333 118.714 20.4961 118.328 19.6709C117.942 18.8457 117.75 17.8643 117.75 16.7266V16.7119C117.75 15.5693 117.942 14.5854 118.328 13.7603C118.714 12.9351 119.263 12.2979 119.976 11.8486C120.689 11.3994 121.536 11.1748 122.518 11.1748C123.294 11.1748 123.995 11.3286 124.62 11.6362C125.25 11.939 125.765 12.3589 126.165 12.896C126.57 13.4331 126.817 14.0508 126.905 14.749V14.793H125.272L125.264 14.7637C125.167 14.3291 124.988 13.9531 124.73 13.6357C124.471 13.3184 124.153 13.0718 123.777 12.896C123.401 12.7202 122.982 12.6323 122.518 12.6323C121.888 12.6323 121.341 12.7983 120.877 13.1304C120.418 13.4624 120.062 13.9336 119.808 14.5439C119.559 15.1494 119.434 15.8721 119.434 16.7119V16.7266C119.434 17.5566 119.559 18.2769 119.808 18.8872C120.062 19.4976 120.418 19.9688 120.877 20.3008C121.341 20.6328 121.89 20.7988 122.525 20.7988C122.989 20.7988 123.409 20.7207 123.785 20.5645C124.166 20.4082 124.483 20.186 124.737 19.8979C124.991 19.605 125.164 19.2607 125.257 18.8652L125.272 18.8359H126.912L126.905 18.8726C126.802 19.5513 126.553 20.1445 126.158 20.6523C125.762 21.1602 125.254 21.5557 124.634 21.8389C124.014 22.1172 123.309 22.2563 122.518 22.2563ZM131.209 22V12.8521H127.883V11.4312H136.174V12.8521H132.849V22H131.209ZM146.078 22.2563C145.194 22.2563 144.433 22.0928 143.793 21.7656C143.153 21.4385 142.66 20.9844 142.313 20.4033C141.967 19.8174 141.793 19.1362 141.793 18.3599V11.4312H143.441V18.2354C143.441 18.7432 143.544 19.1899 143.749 19.5757C143.959 19.9614 144.259 20.2617 144.65 20.4766C145.045 20.6914 145.521 20.7988 146.078 20.7988C146.64 20.7988 147.116 20.6914 147.506 20.4766C147.897 20.2617 148.195 19.9614 148.4 19.5757C148.605 19.1899 148.708 18.7432 148.708 18.2354V11.4312H150.355V18.3599C150.355 19.1362 150.182 19.8174 149.835 20.4033C149.494 20.9844 149.003 21.4385 148.363 21.7656C147.729 22.0928 146.967 22.2563 146.078 22.2563ZM156.344 22.2563C155.548 22.2563 154.854 22.1318 154.264 21.8828C153.673 21.6289 153.207 21.2773 152.865 20.8281C152.523 20.3789 152.328 19.8589 152.279 19.2681L152.271 19.1729H153.89L153.897 19.2534C153.932 19.5708 154.056 19.8467 154.271 20.0811C154.491 20.3154 154.784 20.4985 155.15 20.6304C155.521 20.7622 155.943 20.8281 156.417 20.8281C156.861 20.8281 157.257 20.7573 157.604 20.6157C157.95 20.4741 158.221 20.2788 158.416 20.0298C158.617 19.7808 158.717 19.4951 158.717 19.1729V19.1655C158.717 18.7603 158.563 18.4233 158.255 18.1548C157.948 17.8862 157.445 17.6763 156.747 17.5249L155.589 17.2832C154.52 17.0537 153.741 16.6899 153.253 16.1919C152.765 15.689 152.52 15.0469 152.52 14.2656V14.2583C152.525 13.6479 152.689 13.1108 153.011 12.647C153.338 12.1831 153.79 11.8218 154.366 11.563C154.942 11.3042 155.604 11.1748 156.351 11.1748C157.098 11.1748 157.75 11.3042 158.307 11.563C158.868 11.8169 159.31 12.1636 159.632 12.603C159.959 13.0425 160.143 13.5381 160.182 14.0898L160.189 14.1851H158.585L158.57 14.0898C158.526 13.8018 158.407 13.5454 158.211 13.3208C158.021 13.0962 157.765 12.9204 157.442 12.7935C157.125 12.6616 156.754 12.5981 156.329 12.603C155.919 12.603 155.553 12.6665 155.23 12.7935C154.908 12.9155 154.652 13.0938 154.461 13.3281C154.276 13.5625 154.183 13.8457 154.183 14.1777V14.1851C154.183 14.5757 154.332 14.9028 154.63 15.1665C154.933 15.4253 155.423 15.6279 156.102 15.7744L157.259 16.0308C157.997 16.187 158.595 16.3945 159.054 16.6533C159.513 16.9121 159.847 17.2319 160.057 17.6128C160.272 17.9888 160.379 18.438 160.379 18.9604V18.9678C160.379 19.6416 160.213 20.2251 159.881 20.7183C159.554 21.2065 159.088 21.585 158.482 21.8535C157.877 22.1221 157.164 22.2563 156.344 22.2563Z" fill="#ABABB1" fill-opacity="0.93"/>
</svg>
