<svg width="230" height="33" viewBox="0 0 230 33" fill="none" xmlns="http://www.w3.org/2000/svg">
<path d="M79.6557 22V11.4312H83.4716C84.5214 11.4312 85.4174 11.6387 86.1596 12.0537C86.9017 12.4688 87.4682 13.0669 87.8588 13.8481C88.2543 14.6294 88.452 15.5742 88.452 16.6826V16.6973C88.452 17.8154 88.2543 18.77 87.8588 19.561C87.4682 20.3521 86.9017 20.9575 86.1596 21.3774C85.4223 21.7925 84.5263 22 83.4716 22H79.6557ZM81.2963 20.5791H83.2885C84.0258 20.5791 84.6532 20.4277 85.1708 20.125C85.6932 19.8223 86.0888 19.3828 86.3573 18.8066C86.6307 18.2305 86.7675 17.5347 86.7675 16.7192V16.7046C86.7675 15.894 86.6283 15.2007 86.35 14.6245C86.0765 14.0483 85.681 13.6089 85.1635 13.3062C84.6459 13.0034 84.0209 12.8521 83.2885 12.8521H81.2963V20.5791ZM94.9457 22.2563C93.9203 22.2563 93.0389 22.0317 92.3016 21.5825C91.5643 21.1284 90.9979 20.4863 90.6024 19.6562C90.2069 18.8262 90.0091 17.8472 90.0091 16.7192V16.7046C90.0091 15.5669 90.2093 14.5854 90.6097 13.7603C91.0101 12.9351 91.579 12.2979 92.3163 11.8486C93.0585 11.3994 93.9349 11.1748 94.9457 11.1748C95.9613 11.1748 96.8378 11.3994 97.5751 11.8486C98.3124 12.2979 98.8788 12.9375 99.2743 13.7676C99.6747 14.5928 99.8749 15.5718 99.8749 16.7046V16.7192C99.8749 17.8472 99.6771 18.8262 99.2816 19.6562C98.8861 20.4814 98.3173 21.1211 97.5751 21.5752C96.8378 22.0293 95.9613 22.2563 94.9457 22.2563ZM94.9457 20.7988C95.6097 20.7988 96.1859 20.6304 96.6742 20.2935C97.1625 19.9565 97.5384 19.4829 97.8021 18.8726C98.0658 18.2573 98.1976 17.5396 98.1976 16.7192V16.7046C98.1976 15.8745 98.0658 15.1543 97.8021 14.5439C97.5384 13.9336 97.1625 13.4624 96.6742 13.1304C96.1859 12.7983 95.6097 12.6323 94.9457 12.6323C94.2816 12.6323 93.7054 12.7983 93.2172 13.1304C92.7338 13.4624 92.3578 13.9336 92.0892 14.5439C91.8207 15.1543 91.6864 15.8745 91.6864 16.7046V16.7192C91.6864 17.5396 91.8158 18.2573 92.0746 18.8726C92.3382 19.4829 92.7118 19.9565 93.1952 20.2935C93.6835 20.6304 94.267 20.7988 94.9457 20.7988ZM101.871 22V11.4312H103.768L107.13 19.854H107.255L110.617 11.4312H112.514V22H111.012V14.251H110.199L111.913 11.7241L107.797 22H106.581L102.472 11.7241L104.179 14.251H103.373V22H101.871ZM114.115 22L117.93 11.4312H119.256V13.2842H118.758L115.843 22H114.115ZM115.953 19.1436L116.414 17.8252H121.226L121.688 19.1436H115.953ZM121.79 22L118.883 13.2842V11.4312H119.71L123.519 22H121.79ZM125.127 22V11.4312H126.768V22H125.127ZM129.189 22V11.4312H130.676L136.506 19.6855L135.386 19.1069H136.213V11.4312H137.817V22H136.33L130.493 13.7529L131.621 14.3315H130.786V22H129.189ZM143.813 22.2563C143.017 22.2563 142.324 22.1318 141.733 21.8828C141.142 21.6289 140.676 21.2773 140.334 20.8281C139.992 20.3789 139.797 19.8589 139.748 19.2681L139.74 19.1729H141.359L141.366 19.2534C141.401 19.5708 141.525 19.8467 141.74 20.0811C141.96 20.3154 142.253 20.4985 142.619 20.6304C142.99 20.7622 143.412 20.8281 143.886 20.8281C144.33 20.8281 144.726 20.7573 145.073 20.6157C145.419 20.4741 145.69 20.2788 145.886 20.0298C146.086 19.7808 146.186 19.4951 146.186 19.1729V19.1655C146.186 18.7603 146.032 18.4233 145.724 18.1548C145.417 17.8862 144.914 17.6763 144.216 17.5249L143.058 17.2832C141.989 17.0537 141.21 16.6899 140.722 16.1919C140.234 15.689 139.99 15.0469 139.99 14.2656V14.2583C139.994 13.6479 140.158 13.1108 140.48 12.647C140.807 12.1831 141.259 11.8218 141.835 11.563C142.411 11.3042 143.073 11.1748 143.82 11.1748C144.567 11.1748 145.219 11.3042 145.776 11.563C146.337 11.8169 146.779 12.1636 147.101 12.603C147.428 13.0425 147.612 13.5381 147.651 14.0898L147.658 14.1851H146.054L146.039 14.0898C145.995 13.8018 145.876 13.5454 145.68 13.3208C145.49 13.0962 145.234 12.9204 144.911 12.7935C144.594 12.6616 144.223 12.5981 143.798 12.603C143.388 12.603 143.022 12.6665 142.699 12.7935C142.377 12.9155 142.121 13.0938 141.93 13.3281C141.745 13.5625 141.652 13.8457 141.652 14.1777V14.1851C141.652 14.5757 141.801 14.9028 142.099 15.1665C142.402 15.4253 142.892 15.6279 143.571 15.7744L144.728 16.0308C145.466 16.187 146.064 16.3945 146.523 16.6533C146.982 16.9121 147.316 17.2319 147.526 17.6128C147.741 17.9888 147.848 18.438 147.848 18.9604V18.9678C147.848 19.6416 147.682 20.2251 147.35 20.7183C147.023 21.2065 146.557 21.585 145.951 21.8535C145.346 22.1221 144.633 22.2563 143.813 22.2563Z" fill="#ABABB1" fill-opacity="0.93"/>
</svg>
