<svg width="230" height="33" viewBox="0 0 230 33" fill="none" xmlns="http://www.w3.org/2000/svg">
<path d="M85.7882 22V11.4312H92.4972V12.8521H87.4288V15.9355H92.2262V17.2979H87.4288V20.5791H92.4972V22H85.7882ZM97.5846 22L93.8273 11.4312H95.6144L98.4342 20.0151H98.5587L101.379 11.4312H103.173L99.4083 22H97.5846ZM104.781 22V11.4312H111.49V12.8521H106.422V15.9355H111.219V17.2979H106.422V20.5791H111.49V22H104.781ZM113.633 22V11.4312H115.12L120.95 19.6855L119.83 19.1069H120.657V11.4312H122.261V22H120.774L114.937 13.7529L116.065 14.3315H115.23V22H113.633ZM127.363 22V12.8521H124.038V11.4312H132.329V12.8521H129.004V22H127.363ZM137.68 22.2563C136.884 22.2563 136.191 22.1318 135.6 21.8828C135.009 21.6289 134.543 21.2773 134.201 20.8281C133.859 20.3789 133.664 19.8589 133.615 19.2681L133.608 19.1729H135.227L135.234 19.2534C135.268 19.5708 135.393 19.8467 135.607 20.0811C135.827 20.3154 136.12 20.4985 136.486 20.6304C136.857 20.7622 137.28 20.8281 137.753 20.8281C138.198 20.8281 138.593 20.7573 138.94 20.6157C139.287 20.4741 139.558 20.2788 139.753 20.0298C139.953 19.7808 140.053 19.4951 140.053 19.1729V19.1655C140.053 18.7603 139.899 18.4233 139.592 18.1548C139.284 17.8862 138.781 17.6763 138.083 17.5249L136.926 17.2832C135.856 17.0537 135.078 16.6899 134.589 16.1919C134.101 15.689 133.857 15.0469 133.857 14.2656V14.2583C133.862 13.6479 134.025 13.1108 134.348 12.647C134.675 12.1831 135.126 11.8218 135.703 11.563C136.279 11.3042 136.94 11.1748 137.688 11.1748C138.435 11.1748 139.086 11.3042 139.643 11.563C140.205 11.8169 140.647 12.1636 140.969 12.603C141.296 13.0425 141.479 13.5381 141.518 14.0898L141.525 14.1851H139.921L139.907 14.0898C139.863 13.8018 139.743 13.5454 139.548 13.3208C139.357 13.0962 139.101 12.9204 138.779 12.7935C138.461 12.6616 138.09 12.5981 137.666 12.603C137.255 12.603 136.889 12.6665 136.567 12.7935C136.245 12.9155 135.988 13.0938 135.798 13.3281C135.612 13.5625 135.52 13.8457 135.52 14.1777V14.1851C135.52 14.5757 135.668 14.9028 135.966 15.1665C136.269 15.4253 136.76 15.6279 137.439 15.7744L138.596 16.0308C139.333 16.187 139.931 16.3945 140.39 16.6533C140.849 16.9121 141.184 17.2319 141.394 17.6128C141.608 17.9888 141.716 18.438 141.716 18.9604V18.9678C141.716 19.6416 141.55 20.2251 141.218 20.7183C140.891 21.2065 140.424 21.585 139.819 21.8535C139.213 22.1221 138.501 22.2563 137.68 22.2563Z" fill="#ABABB1" fill-opacity="0.93"/>
</svg>
