<svg width="230" height="33" viewBox="0 0 230 33" fill="none" xmlns="http://www.w3.org/2000/svg">
<path d="M76.9874 18.3892V17.0122H79.8732C80.5861 17.0122 81.1378 16.8291 81.5285 16.4629C81.924 16.0918 82.1217 15.5791 82.1217 14.9248V14.9102C82.1217 14.2461 81.924 13.731 81.5285 13.3647C81.1378 12.9985 80.5861 12.8154 79.8732 12.8154H76.9874V11.4312H80.2833C80.9767 11.4312 81.5846 11.5776 82.1071 11.8706C82.6344 12.1587 83.047 12.564 83.3449 13.0864C83.6427 13.604 83.7916 14.207 83.7916 14.8955V14.9102C83.7916 15.5986 83.6427 16.2065 83.3449 16.7339C83.047 17.2563 82.6344 17.6641 82.1071 17.957C81.5846 18.2451 80.9767 18.3892 80.2833 18.3892H76.9874ZM76.1671 22V11.4312H77.8078V22H76.1671ZM85.6783 22V11.4312H89.8458C90.5685 11.4312 91.1935 11.5654 91.7208 11.834C92.2482 12.0977 92.6534 12.4712 92.9366 12.9546C93.2247 13.4331 93.3688 13.9995 93.3688 14.6538V14.6685C93.3688 15.3813 93.1881 16.0088 92.8268 16.5508C92.4655 17.0879 91.9625 17.4663 91.318 17.686L93.6837 22H91.7867L89.6334 17.9351C89.6188 17.9351 89.6041 17.9351 89.5895 17.9351C89.5748 17.9351 89.5602 17.9351 89.5455 17.9351H87.319V22H85.6783ZM87.319 16.6021H89.6847C90.3146 16.6021 90.8029 16.4385 91.1495 16.1113C91.4962 15.7793 91.6696 15.313 91.6696 14.7124V14.6978C91.6696 14.1118 91.4889 13.6504 91.1276 13.3135C90.7711 12.9766 90.2731 12.8081 89.6334 12.8081H87.319V16.6021ZM99.9869 22.2563C98.9615 22.2563 98.0802 22.0317 97.3429 21.5825C96.6056 21.1284 96.0392 20.4863 95.6437 19.6562C95.2482 18.8262 95.0504 17.8472 95.0504 16.7192V16.7046C95.0504 15.5669 95.2506 14.5854 95.651 13.7603C96.0514 12.9351 96.6202 12.2979 97.3575 11.8486C98.0997 11.3994 98.9762 11.1748 99.9869 11.1748C101.003 11.1748 101.879 11.3994 102.616 11.8486C103.354 12.2979 103.92 12.9375 104.316 13.7676C104.716 14.5928 104.916 15.5718 104.916 16.7046V16.7192C104.916 17.8472 104.718 18.8262 104.323 19.6562C103.927 20.4814 103.359 21.1211 102.616 21.5752C101.879 22.0293 101.003 22.2563 99.9869 22.2563ZM99.9869 20.7988C100.651 20.7988 101.227 20.6304 101.715 20.2935C102.204 19.9565 102.58 19.4829 102.843 18.8726C103.107 18.2573 103.239 17.5396 103.239 16.7192V16.7046C103.239 15.8745 103.107 15.1543 102.843 14.5439C102.58 13.9336 102.204 13.4624 101.715 13.1304C101.227 12.7983 100.651 12.6323 99.9869 12.6323C99.3229 12.6323 98.7467 12.7983 98.2584 13.1304C97.775 13.4624 97.399 13.9336 97.1305 14.5439C96.8619 15.1543 96.7276 15.8745 96.7276 16.7046V16.7192C96.7276 17.5396 96.857 18.2573 97.1158 18.8726C97.3795 19.4829 97.753 19.9565 98.2364 20.2935C98.7247 20.6304 99.3082 20.7988 99.9869 20.7988ZM109.381 22.2563C108.893 22.2563 108.456 22.1855 108.07 22.0439C107.684 21.9072 107.357 21.7095 107.088 21.4507C106.82 21.1919 106.61 20.8867 106.459 20.5352C106.307 20.1836 106.219 19.7979 106.195 19.3779L106.188 19.29H107.814V19.3486C107.838 19.6172 107.911 19.8613 108.033 20.0811C108.155 20.2959 108.326 20.4668 108.546 20.5938C108.771 20.7207 109.046 20.7842 109.374 20.7842C109.916 20.7842 110.328 20.6279 110.611 20.3154C110.895 19.998 111.036 19.5366 111.036 18.9312V11.4312H112.684V18.9458C112.684 19.6392 112.552 20.2324 112.289 20.7256C112.03 21.2188 111.654 21.5972 111.161 21.8608C110.672 22.1245 110.079 22.2563 109.381 22.2563ZM115.106 22V11.4312H121.815V12.8521H116.746V15.9355H121.544V17.2979H116.746V20.5791H121.815V22H115.106ZM128.294 22.2563C127.317 22.2563 126.47 22.0317 125.752 21.5825C125.039 21.1333 124.49 20.4961 124.104 19.6709C123.718 18.8457 123.525 17.8643 123.525 16.7266V16.7119C123.525 15.5693 123.718 14.5854 124.104 13.7603C124.49 12.9351 125.039 12.2979 125.752 11.8486C126.465 11.3994 127.312 11.1748 128.294 11.1748C129.07 11.1748 129.771 11.3286 130.396 11.6362C131.025 11.939 131.541 12.3589 131.941 12.896C132.346 13.4331 132.593 14.0508 132.681 14.749V14.793H131.047L131.04 14.7637C130.942 14.3291 130.764 13.9531 130.505 13.6357C130.247 13.3184 129.929 13.0718 129.553 12.896C129.177 12.7202 128.757 12.6323 128.294 12.6323C127.664 12.6323 127.117 12.7983 126.653 13.1304C126.194 13.4624 125.837 13.9336 125.584 14.5439C125.335 15.1494 125.21 15.8721 125.21 16.7119V16.7266C125.21 17.5566 125.335 18.2769 125.584 18.8872C125.837 19.4976 126.194 19.9688 126.653 20.3008C127.117 20.6328 127.666 20.7988 128.301 20.7988C128.765 20.7988 129.185 20.7207 129.561 20.5645C129.941 20.4082 130.259 20.186 130.513 19.8979C130.767 19.605 130.94 19.2607 131.033 18.8652L131.047 18.8359H132.688L132.681 18.8726C132.578 19.5513 132.329 20.1445 131.934 20.6523C131.538 21.1602 131.03 21.5557 130.41 21.8389C129.79 22.1172 129.085 22.2563 128.294 22.2563ZM136.984 22V12.8521H133.659V11.4312H141.95V12.8521H138.625V22H136.984ZM147.301 22.2563C146.505 22.2563 145.812 22.1318 145.221 21.8828C144.63 21.6289 144.164 21.2773 143.822 20.8281C143.48 20.3789 143.285 19.8589 143.236 19.2681L143.229 19.1729H144.848L144.855 19.2534C144.889 19.5708 145.014 19.8467 145.229 20.0811C145.448 20.3154 145.741 20.4985 146.107 20.6304C146.479 20.7622 146.901 20.8281 147.375 20.8281C147.819 20.8281 148.214 20.7573 148.561 20.6157C148.908 20.4741 149.179 20.2788 149.374 20.0298C149.574 19.7808 149.674 19.4951 149.674 19.1729V19.1655C149.674 18.7603 149.521 18.4233 149.213 18.1548C148.905 17.8862 148.402 17.6763 147.704 17.5249L146.547 17.2832C145.478 17.0537 144.699 16.6899 144.21 16.1919C143.722 15.689 143.478 15.0469 143.478 14.2656V14.2583C143.483 13.6479 143.646 13.1108 143.969 12.647C144.296 12.1831 144.748 11.8218 145.324 11.563C145.9 11.3042 146.562 11.1748 147.309 11.1748C148.056 11.1748 148.708 11.3042 149.264 11.563C149.826 11.8169 150.268 12.1636 150.59 12.603C150.917 13.0425 151.1 13.5381 151.139 14.0898L151.146 14.1851H149.542L149.528 14.0898C149.484 13.8018 149.364 13.5454 149.169 13.3208C148.979 13.0962 148.722 12.9204 148.4 12.7935C148.083 12.6616 147.711 12.5981 147.287 12.603C146.876 12.603 146.51 12.6665 146.188 12.7935C145.866 12.9155 145.609 13.0938 145.419 13.3281C145.233 13.5625 145.141 13.8457 145.141 14.1777V14.1851C145.141 14.5757 145.29 14.9028 145.587 15.1665C145.89 15.4253 146.381 15.6279 147.06 15.7744L148.217 16.0308C148.954 16.187 149.552 16.3945 150.011 16.6533C150.47 16.9121 150.805 17.2319 151.015 17.6128C151.229 17.9888 151.337 18.438 151.337 18.9604V18.9678C151.337 19.6416 151.171 20.2251 150.839 20.7183C150.512 21.2065 150.045 21.585 149.44 21.8535C148.834 22.1221 148.122 22.2563 147.301 22.2563Z" fill="#ABABB1" fill-opacity="0.93"/>
</svg>
