<svg width="572" height="189" viewBox="0 0 572 189" fill="none" xmlns="http://www.w3.org/2000/svg">
<g filter="url(#filter0_d_218_439)">
<path d="M84.5547 0.679688L87.1201 10.8965H87.1211L88.1797 14.6543C82.7657 16.0716 78.6973 22.1289 78.6973 29.3857C78.6974 37.6943 84.0308 44.4295 90.6104 44.4297C92.5887 44.4297 94.4538 43.8197 96.0957 42.7422L111.779 98.3916H112.435L142.459 1.55664L142.565 1.21387L142.924 1.20508L176.328 0.301758L176.709 0.291992L176.82 0.655273L212.984 119.014V0.301758H241.782V45.915L268.65 0.546875L268.796 0.301758H304.298L303.85 1.05664L262.428 70.8965L275.659 91.1699H303.054L331.442 0.652344L331.552 0.301758H365.7L365.805 0.663086L391.863 91.1699H432.575L399.253 43.5137L399.163 43.3848V18.3926L399.258 18.2607L412.106 0.508789L412.256 0.301758H468.842V35.6025H429.845L463.373 81.7471L463.424 81.8174L463.448 81.8994L465.316 88.2188L465.337 88.2881V107.485L465.234 107.619L450.985 126.274L450.9 126.386L450.771 126.437L445.397 128.543L445.31 128.577H370.789L370.684 128.217L366.584 114.135H334.992L335.177 113.496L344.287 81.9033L344.391 81.541H356.26L348.356 52.4531H347.48L325.859 128.215L325.756 128.577H261.554L261.408 128.331L242.398 96.0811H241.782V128.577H182.771L182.648 128.254L178.099 116.241H146.241L146.429 115.601L156.473 81.2988L156.578 80.9395H168.672L160.313 51.5498H159.203L138.28 128.209L138.18 128.577H88.8262L88.7266 128.207L84.8545 113.834H52.5576L52.7568 113.187L62.5684 81.293L62.6768 80.9395H75.0078L67.1006 51.5498H65.3037L45.7764 128.2L45.6787 128.588L45.2793 128.577L10.9404 127.675L10.2793 127.657L10.4756 127.026L49.4873 1.55566L49.5928 1.21387L49.9512 1.20508L84.0566 0.301758L84.457 0.291016L84.5547 0.679688Z" fill="#FFFDFD"/>
<path d="M502.479 44.832H531.146V0H559.944V82.3691C559.702 82.3505 559.457 82.3408 559.211 82.3408C552.631 82.3408 547.297 89.077 547.297 97.3857C547.297 105.694 552.631 112.43 559.211 112.43C559.457 112.43 559.702 112.419 559.944 112.4V128.275H531.146V83.1426H502.479V128.275H474.615V0H502.479V44.832Z" fill="white"/>
<ellipse cx="90.61" cy="29.3847" rx="8.64319" ry="10.832" fill="white"/>
<ellipse cx="559.212" cy="97.3847" rx="8.64319" ry="10.832" fill="white"/>
</g>
<path d="M13.045 177V151.8H23.773C25.213 151.8 26.533 152.16 27.733 152.88C28.957 153.576 29.929 154.536 30.649 155.76C31.369 156.96 31.729 158.316 31.729 159.828C31.729 161.196 31.369 162.468 30.649 163.644C29.929 164.82 28.969 165.768 27.769 166.488C26.569 167.184 25.237 167.532 23.773 167.532H16.933V177H13.045ZM28.021 177L21.613 165.624L25.609 164.724L32.737 177.036L28.021 177ZM16.933 163.788H24.133C24.829 163.788 25.453 163.62 26.005 163.284C26.557 162.924 26.989 162.444 27.301 161.844C27.613 161.22 27.769 160.536 27.769 159.792C27.769 158.952 27.565 158.22 27.157 157.596C26.773 156.948 26.221 156.444 25.501 156.084C24.805 155.724 24.013 155.544 23.125 155.544H16.933V163.788ZM54.6362 177V151.8H70.5122V155.544H58.5242V173.256H70.5122V177H54.6362ZM56.4002 165.948V162.204H68.5322V165.948H56.4002ZM101.085 177.36C99.7175 177.36 98.4455 177.18 97.2695 176.82C96.1175 176.46 95.0615 175.92 94.1015 175.2C93.1655 174.456 92.3255 173.544 91.5815 172.464L94.2455 169.404C95.4215 171.084 96.5495 172.248 97.6295 172.896C98.7095 173.544 99.9935 173.868 101.481 173.868C102.393 173.868 103.221 173.724 103.965 173.436C104.709 173.148 105.297 172.752 105.729 172.248C106.161 171.744 106.377 171.168 106.377 170.52C106.377 170.088 106.305 169.68 106.161 169.296C106.017 168.912 105.789 168.564 105.477 168.252C105.189 167.94 104.805 167.652 104.325 167.388C103.869 167.124 103.329 166.896 102.705 166.704C102.081 166.488 101.361 166.308 100.545 166.164C99.2495 165.9 98.1215 165.552 97.1615 165.12C96.2015 164.688 95.3975 164.148 94.7495 163.5C94.1015 162.852 93.6215 162.12 93.3095 161.304C92.9975 160.464 92.8415 159.528 92.8415 158.496C92.8415 157.488 93.0575 156.552 93.4895 155.688C93.9455 154.824 94.5575 154.08 95.3255 153.456C96.1175 152.808 97.0415 152.316 98.0975 151.98C99.1535 151.62 100.293 151.44 101.517 151.44C102.813 151.44 104.001 151.608 105.081 151.944C106.161 152.28 107.121 152.784 107.961 153.456C108.801 154.104 109.497 154.908 110.049 155.868L107.313 158.568C106.833 157.776 106.293 157.116 105.693 156.588C105.093 156.036 104.433 155.628 103.713 155.364C102.993 155.076 102.225 154.932 101.409 154.932C100.473 154.932 99.6575 155.076 98.9615 155.364C98.2655 155.652 97.7135 156.06 97.3055 156.588C96.9215 157.092 96.7295 157.692 96.7295 158.388C96.7295 158.892 96.8255 159.36 97.0175 159.792C97.2095 160.2 97.4975 160.572 97.8815 160.908C98.2895 161.22 98.8295 161.508 99.5015 161.772C100.173 162.012 100.977 162.228 101.913 162.42C103.233 162.708 104.409 163.08 105.441 163.536C106.473 163.968 107.349 164.484 108.069 165.084C108.789 165.684 109.329 166.356 109.689 167.1C110.073 167.844 110.265 168.648 110.265 169.512C110.265 171.12 109.893 172.512 109.149 173.688C108.405 174.864 107.349 175.776 105.981 176.424C104.613 177.048 102.981 177.36 101.085 177.36ZM132.334 177V151.8H148.21V155.544H136.222V173.256H148.21V177H132.334ZM134.098 165.948V162.204H146.23V165.948H134.098ZM168.38 177L178.136 151.8H182.096L191.78 177H187.64L181.88 161.808C181.808 161.64 181.664 161.232 181.448 160.584C181.256 159.936 181.028 159.216 180.764 158.424C180.5 157.632 180.26 156.912 180.044 156.264C179.828 155.592 179.684 155.16 179.612 154.968L180.44 154.932C180.296 155.34 180.116 155.856 179.9 156.48C179.708 157.104 179.492 157.764 179.252 158.46C179.036 159.156 178.82 159.816 178.604 160.44C178.388 161.04 178.208 161.544 178.064 161.952L172.34 177H168.38ZM172.7 170.736L174.14 166.992H185.588L187.244 170.736H172.7ZM212.775 177V151.8H223.503C224.943 151.8 226.263 152.16 227.463 152.88C228.687 153.576 229.659 154.536 230.379 155.76C231.099 156.96 231.459 158.316 231.459 159.828C231.459 161.196 231.099 162.468 230.379 163.644C229.659 164.82 228.699 165.768 227.499 166.488C226.299 167.184 224.967 167.532 223.503 167.532H216.663V177H212.775ZM227.751 177L221.343 165.624L225.339 164.724L232.467 177.036L227.751 177ZM216.663 163.788H223.863C224.559 163.788 225.183 163.62 225.735 163.284C226.287 162.924 226.719 162.444 227.031 161.844C227.343 161.22 227.499 160.536 227.499 159.792C227.499 158.952 227.295 158.22 226.887 157.596C226.503 156.948 225.951 156.444 225.231 156.084C224.535 155.724 223.743 155.544 222.855 155.544H216.663V163.788ZM264.238 177.36C262.486 177.36 260.878 177.048 259.414 176.424C257.95 175.8 256.678 174.912 255.598 173.76C254.518 172.584 253.678 171.204 253.078 169.62C252.502 168.036 252.214 166.296 252.214 164.4C252.214 162.6 252.526 160.932 253.15 159.396C253.798 157.836 254.686 156.468 255.814 155.292C256.942 154.116 258.25 153.204 259.738 152.556C261.226 151.908 262.834 151.584 264.562 151.584C265.786 151.584 266.974 151.776 268.126 152.16C269.302 152.52 270.358 153.036 271.294 153.708C272.254 154.356 273.034 155.1 273.634 155.94L271.042 158.64C270.346 157.944 269.638 157.368 268.918 156.912C268.222 156.432 267.502 156.072 266.758 155.832C266.038 155.592 265.306 155.472 264.562 155.472C263.386 155.472 262.282 155.7 261.25 156.156C260.242 156.588 259.354 157.2 258.586 157.992C257.842 158.784 257.254 159.732 256.822 160.836C256.39 161.916 256.174 163.104 256.174 164.4C256.174 165.768 256.378 167.016 256.786 168.144C257.218 169.248 257.818 170.196 258.586 170.988C259.354 171.78 260.266 172.392 261.322 172.824C262.402 173.232 263.59 173.436 264.886 173.436C265.678 173.436 266.458 173.328 267.226 173.112C267.994 172.896 268.714 172.584 269.386 172.176C270.058 171.768 270.67 171.288 271.222 170.736L273.166 173.904C272.614 174.552 271.858 175.14 270.898 175.668C269.962 176.196 268.906 176.616 267.73 176.928C266.578 177.216 265.414 177.36 264.238 177.36ZM311.46 177V151.8H315.348V177H311.46ZM295.008 177V151.8H298.896V177H295.008ZM296.7 166.308V162.564H313.188V166.308H296.7ZM365.604 177V151.8H369.492V173.256H381.3V177H365.604ZM401.087 177L410.843 151.8H414.803L424.487 177H420.347L414.587 161.808C414.515 161.64 414.371 161.232 414.155 160.584C413.963 159.936 413.735 159.216 413.471 158.424C413.207 157.632 412.967 156.912 412.751 156.264C412.535 155.592 412.391 155.16 412.319 154.968L413.147 154.932C413.003 155.34 412.823 155.856 412.607 156.48C412.415 157.104 412.199 157.764 411.959 158.46C411.743 159.156 411.527 159.816 411.311 160.44C411.095 161.04 410.915 161.544 410.771 161.952L405.047 177H401.087ZM405.407 170.736L406.847 166.992H418.295L419.951 170.736H405.407ZM445.482 177V151.8H455.994C457.602 151.8 458.958 152.04 460.062 152.52C461.166 153 461.994 153.72 462.546 154.68C463.122 155.616 463.41 156.768 463.41 158.136C463.41 159.504 463.026 160.668 462.258 161.628C461.514 162.588 460.47 163.248 459.126 163.608V162.888C460.254 163.128 461.238 163.56 462.078 164.184C462.918 164.784 463.566 165.54 464.022 166.452C464.502 167.364 464.742 168.408 464.742 169.584C464.742 170.784 464.55 171.852 464.166 172.788C463.806 173.7 463.254 174.468 462.51 175.092C461.79 175.716 460.914 176.196 459.882 176.532C458.85 176.844 457.674 177 456.354 177H445.482ZM449.37 173.256H456.138C457.122 173.256 457.95 173.112 458.622 172.824C459.318 172.536 459.846 172.116 460.206 171.564C460.59 170.988 460.782 170.304 460.782 169.512C460.782 168.768 460.578 168.132 460.17 167.604C459.786 167.076 459.234 166.68 458.514 166.416C457.794 166.128 456.942 165.984 455.958 165.984H449.37V173.256ZM449.37 162.24H455.778C456.498 162.24 457.134 162.096 457.686 161.808C458.262 161.52 458.706 161.124 459.018 160.62C459.354 160.116 459.522 159.54 459.522 158.892C459.522 157.812 459.162 156.984 458.442 156.408C457.722 155.832 456.69 155.544 455.346 155.544H449.37V162.24ZM494.322 177.36C492.954 177.36 491.682 177.18 490.506 176.82C489.354 176.46 488.298 175.92 487.338 175.2C486.402 174.456 485.562 173.544 484.818 172.464L487.482 169.404C488.658 171.084 489.786 172.248 490.866 172.896C491.946 173.544 493.23 173.868 494.718 173.868C495.63 173.868 496.458 173.724 497.202 173.436C497.946 173.148 498.534 172.752 498.966 172.248C499.398 171.744 499.614 171.168 499.614 170.52C499.614 170.088 499.542 169.68 499.398 169.296C499.254 168.912 499.026 168.564 498.714 168.252C498.426 167.94 498.042 167.652 497.562 167.388C497.106 167.124 496.566 166.896 495.942 166.704C495.318 166.488 494.598 166.308 493.782 166.164C492.486 165.9 491.358 165.552 490.398 165.12C489.438 164.688 488.634 164.148 487.986 163.5C487.338 162.852 486.858 162.12 486.546 161.304C486.234 160.464 486.078 159.528 486.078 158.496C486.078 157.488 486.294 156.552 486.726 155.688C487.182 154.824 487.794 154.08 488.562 153.456C489.354 152.808 490.278 152.316 491.334 151.98C492.39 151.62 493.53 151.44 494.754 151.44C496.05 151.44 497.238 151.608 498.318 151.944C499.398 152.28 500.358 152.784 501.198 153.456C502.038 154.104 502.734 154.908 503.286 155.868L500.55 158.568C500.07 157.776 499.53 157.116 498.93 156.588C498.33 156.036 497.67 155.628 496.95 155.364C496.23 155.076 495.462 154.932 494.646 154.932C493.71 154.932 492.894 155.076 492.198 155.364C491.502 155.652 490.95 156.06 490.542 156.588C490.158 157.092 489.966 157.692 489.966 158.388C489.966 158.892 490.062 159.36 490.254 159.792C490.446 160.2 490.734 160.572 491.118 160.908C491.526 161.22 492.066 161.508 492.738 161.772C493.41 162.012 494.214 162.228 495.15 162.42C496.47 162.708 497.646 163.08 498.678 163.536C499.71 163.968 500.586 164.484 501.306 165.084C502.026 165.684 502.566 166.356 502.926 167.1C503.31 167.844 503.502 168.648 503.502 169.512C503.502 171.12 503.13 172.512 502.386 173.688C501.642 174.864 500.586 175.776 499.218 176.424C497.85 177.048 496.218 177.36 494.322 177.36Z" fill="white"/>
<defs>
<filter id="filter0_d_218_439" x="6.2793" y="0" width="565.576" height="136.588" filterUnits="userSpaceOnUse" color-interpolation-filters="sRGB">
<feFlood flood-opacity="0" result="BackgroundImageFix"/>
<feColorMatrix in="SourceAlpha" type="matrix" values="0 0 0 0 0 0 0 0 0 0 0 0 0 0 0 0 0 0 127 0" result="hardAlpha"/>
<feOffset dy="4"/>
<feGaussianBlur stdDeviation="2"/>
<feComposite in2="hardAlpha" operator="out"/>
<feColorMatrix type="matrix" values="0 0 0 0 0 0 0 0 0 0 0 0 0 0 0 0 0 0 0.25 0"/>
<feBlend mode="normal" in2="BackgroundImageFix" result="effect1_dropShadow_218_439"/>
<feBlend mode="normal" in="SourceGraphic" in2="effect1_dropShadow_218_439" result="shape"/>
</filter>
</defs>
</svg>
