<svg width="385" height="48" viewBox="0 0 385 48" fill="none" xmlns="http://www.w3.org/2000/svg">
<path d="M8.82701 47V36.12H19.451C21.8403 36.12 23.9097 35.6933 25.659 34.84C27.4083 33.944 28.7523 32.6 29.691 30.808C30.6297 29.016 31.099 26.7973 31.099 24.152C31.099 21.5067 30.6083 19.3093 29.627 17.56C28.6883 15.8107 27.3443 14.5093 25.595 13.656C23.8883 12.76 21.8403 12.312 19.451 12.312H8.18701V1.432H19.451C23.035 1.432 26.3203 1.96533 29.307 3.032C32.3363 4.09866 34.9603 5.63466 37.179 7.64C39.3977 9.64533 41.1043 12.056 42.299 14.872C43.5363 17.6453 44.155 20.76 44.155 24.216C44.155 27.672 43.5363 30.808 42.299 33.624C41.1043 36.3973 39.3977 38.7867 37.179 40.792C34.9603 42.7973 32.3577 44.3333 29.371 45.4C26.3843 46.4667 23.1203 47 19.579 47H8.82701ZM0.251006 47V1.432H13.051V47H0.251006ZM84.704 47.896C81.12 47.896 77.8133 47.2987 74.784 46.104C71.7973 44.9093 69.1733 43.2453 66.912 41.112C64.6933 38.9787 62.9653 36.4613 61.728 33.56C60.4907 30.6587 59.872 27.5227 59.872 24.152C59.872 20.7387 60.4693 17.6027 61.664 14.744C62.9013 11.8853 64.6293 9.38933 66.848 7.256C69.0667 5.12267 71.6693 3.48 74.656 2.328C77.6853 1.13333 80.992 0.535999 84.576 0.535999C88.16 0.535999 91.4453 1.13333 94.432 2.328C97.4613 3.48 100.085 5.12267 102.304 7.256C104.523 9.38933 106.229 11.9067 107.424 14.808C108.661 17.6667 109.28 20.8027 109.28 24.216C109.28 27.5867 108.661 30.7227 107.424 33.624C106.229 36.4827 104.523 39 102.304 41.176C100.085 43.3093 97.4827 44.9733 94.496 46.168C91.5093 47.32 88.2453 47.896 84.704 47.896ZM84.576 36.632C86.9653 36.632 89.0347 36.12 90.784 35.096C92.5333 34.072 93.8773 32.6213 94.816 30.744C95.7547 28.8667 96.224 26.6693 96.224 24.152C96.224 22.2747 95.9467 20.5893 95.392 19.096C94.88 17.56 94.112 16.2587 93.088 15.192C92.064 14.0827 90.8267 13.2507 89.376 12.696C87.968 12.0987 86.368 11.8 84.576 11.8C82.1867 11.8 80.1173 12.312 78.368 13.336C76.6187 14.3173 75.2747 15.7467 74.336 17.624C73.3973 19.4587 72.928 21.6347 72.928 24.152C72.928 26.072 73.184 27.8 73.696 29.336C74.2507 30.872 75.04 32.1947 76.064 33.304C77.088 34.3707 78.304 35.2027 79.712 35.8C81.1627 36.3547 82.784 36.632 84.576 36.632ZM127.351 47V1.432H136.631L153.591 26.264H149.559L166.455 1.432H175.735V47H163.063V22.424L164.919 22.936L155.639 36.248H147.447L138.231 22.936L140.023 22.424V47H127.351ZM192.697 47L210.041 1.432H223.097L240.249 47H226.937L214.201 8.28H218.809L205.753 47H192.697ZM203.961 39.32V29.336H229.433V39.32H203.961ZM256.701 47V1.432H269.501V47H256.701ZM289.876 47V1.432H298.836L302.676 11.032V47H289.876ZM321.236 47L294.804 13.784L298.836 1.432L325.268 34.648L321.236 47ZM321.236 47L318.036 36.888V1.432H330.836V47H321.236ZM365.021 47.768C361.138 47.768 357.746 47.2133 354.845 46.104C351.986 44.952 349.341 43.1387 346.909 40.664L354.909 32.664C356.573 34.2427 358.322 35.4587 360.157 36.312C361.992 37.1227 363.954 37.528 366.045 37.528C367.794 37.528 369.117 37.272 370.013 36.76C370.909 36.2053 371.357 35.4587 371.357 34.52C371.357 33.5813 370.973 32.8133 370.205 32.216C369.437 31.576 368.413 31.0213 367.133 30.552C365.896 30.04 364.509 29.528 362.973 29.016C361.48 28.504 359.986 27.8853 358.493 27.16C357 26.4347 355.613 25.56 354.333 24.536C353.096 23.4693 352.093 22.168 351.325 20.632C350.557 19.0533 350.173 17.1333 350.173 14.872C350.173 11.928 350.877 9.38933 352.285 7.256C353.693 5.12267 355.677 3.50133 358.237 2.392C360.797 1.24 363.805 0.663998 367.261 0.663998C370.674 0.663998 373.832 1.21866 376.733 2.328C379.677 3.39466 382.109 4.93066 384.029 6.936L375.965 14.936C374.557 13.5707 373.149 12.568 371.741 11.928C370.333 11.2453 368.797 10.904 367.133 10.904C365.81 10.904 364.744 11.1173 363.933 11.544C363.165 11.9707 362.781 12.6107 362.781 13.464C362.781 14.36 363.165 15.1067 363.933 15.704C364.701 16.2587 365.704 16.7707 366.941 17.24C368.221 17.7093 369.608 18.2 371.101 18.712C372.637 19.224 374.152 19.8427 375.645 20.568C377.138 21.2507 378.504 22.1467 379.741 23.256C381.021 24.3227 382.045 25.6667 382.813 27.288C383.581 28.9093 383.965 30.872 383.965 33.176C383.965 37.8267 382.301 41.432 378.973 43.992C375.688 46.5093 371.037 47.768 365.021 47.768Z" fill="white"/>
</svg>
