<svg width="747" height="43" viewBox="0 0 747 43" fill="none" xmlns="http://www.w3.org/2000/svg">
<path d="M4.94 16L0.48 2H2.78L5.48 10.76C5.56 10.9733 5.63333 11.2267 5.7 11.52C5.76667 11.8 5.82667 12.0867 5.88 12.38C5.93333 12.6733 5.98 12.9467 6.02 13.2C6.07333 13.4533 6.12 13.66 6.16 13.82L5.58 13.8C5.78 13.0933 5.93333 12.5467 6.04 12.16C6.16 11.7733 6.25333 11.48 6.32 11.28C6.38667 11.0667 6.44667 10.8867 6.5 10.74L9.02 4.42H10.96L13.4 10.74C13.5333 11.06 13.6467 11.38 13.74 11.7C13.8467 12.0067 13.94 12.32 14.02 12.64C14.1 12.9467 14.1867 13.2733 14.28 13.62L13.76 13.76C13.8267 13.4 13.8733 13.12 13.9 12.92C13.94 12.7067 13.9733 12.5333 14 12.4C14.0267 12.2667 14.0533 12.14 14.08 12.02C14.1067 11.8867 14.1467 11.72 14.2 11.52C14.2667 11.32 14.3533 11.0467 14.46 10.7L17.12 2H19.44L14.98 16H13.48L9.78 7.24L9.96 7.32L6.4 16H4.94ZM31.9741 16.2C30.9474 16.2 30.0274 15.9667 29.2141 15.5C28.4141 15.02 27.7807 14.3733 27.3141 13.56C26.8474 12.7333 26.6141 11.7933 26.6141 10.74C26.6141 9.68667 26.8474 8.75333 27.3141 7.94C27.7807 7.11333 28.4141 6.46667 29.2141 6C30.0274 5.52 30.9474 5.28 31.9741 5.28C32.9874 5.28 33.8941 5.52 34.6941 6C35.5074 6.46667 36.1474 7.11333 36.6141 7.94C37.0807 8.75333 37.3141 9.68667 37.3141 10.74C37.3141 11.7933 37.0807 12.7333 36.6141 13.56C36.1474 14.3733 35.5074 15.02 34.6941 15.5C33.8941 15.9667 32.9874 16.2 31.9741 16.2ZM31.9741 14.32C32.6007 14.32 33.1607 14.1667 33.6541 13.86C34.1474 13.54 34.5341 13.1133 34.8141 12.58C35.0941 12.0333 35.2274 11.42 35.2141 10.74C35.2274 10.0467 35.0941 9.43333 34.8141 8.9C34.5341 8.35333 34.1474 7.92667 33.6541 7.62C33.1607 7.31333 32.6007 7.16 31.9741 7.16C31.3474 7.16 30.7807 7.32 30.2741 7.64C29.7807 7.94667 29.3941 8.37333 29.1141 8.92C28.8341 9.45333 28.7007 10.06 28.7141 10.74C28.7007 11.42 28.8341 12.0333 29.1141 12.58C29.3941 13.1133 29.7807 13.54 30.2741 13.86C30.7807 14.1667 31.3474 14.32 31.9741 14.32ZM45.9587 16V5.5H48.0387V8.8L47.8387 8C47.9854 7.49333 48.2321 7.03333 48.5787 6.62C48.9387 6.20667 49.3454 5.88 49.7987 5.64C50.2654 5.4 50.7454 5.28 51.2387 5.28C51.4654 5.28 51.6787 5.3 51.8787 5.34C52.0921 5.38 52.2587 5.42667 52.3787 5.48L51.8387 7.72C51.6787 7.65333 51.4987 7.6 51.2987 7.56C51.1121 7.50667 50.9254 7.48 50.7387 7.48C50.3787 7.48 50.0321 7.55333 49.6987 7.7C49.3787 7.83333 49.0921 8.02667 48.8387 8.28C48.5987 8.52 48.4054 8.80667 48.2587 9.14C48.1121 9.46 48.0387 9.81333 48.0387 10.2V16H45.9587ZM62.3052 12.72L62.2052 10.48L67.2252 5.5H70.0052L62.3052 12.72ZM60.4252 16V1.2H62.4852V16H60.4252ZM67.5052 16L63.5452 11.38L65.0052 10.04L70.1452 16H67.5052ZM81.5947 16.2C80.7147 16.2 79.9214 16.0467 79.2147 15.74C78.508 15.4333 77.9214 14.98 77.4547 14.38L78.8547 13.18C79.2547 13.6467 79.688 13.9867 80.1547 14.2C80.6347 14.4 81.1747 14.5 81.7747 14.5C82.0147 14.5 82.2347 14.4733 82.4347 14.42C82.648 14.3533 82.828 14.26 82.9747 14.14C83.1347 14.02 83.2547 13.88 83.3347 13.72C83.4147 13.5467 83.4547 13.36 83.4547 13.16C83.4547 12.8133 83.328 12.5333 83.0747 12.32C82.9414 12.2267 82.728 12.1267 82.4347 12.02C82.1547 11.9 81.788 11.78 81.3347 11.66C80.5614 11.46 79.928 11.2333 79.4347 10.98C78.9414 10.7267 78.5614 10.44 78.2947 10.12C78.0947 9.86667 77.948 9.59333 77.8547 9.3C77.7614 8.99333 77.7147 8.66 77.7147 8.3C77.7147 7.86 77.808 7.46 77.9947 7.1C78.1947 6.72667 78.4614 6.40667 78.7947 6.14C79.1414 5.86 79.5414 5.64667 79.9947 5.5C80.4614 5.35333 80.9547 5.28 81.4747 5.28C81.968 5.28 82.4547 5.34667 82.9347 5.48C83.428 5.61333 83.8814 5.80667 84.2947 6.06C84.708 6.31333 85.0547 6.61333 85.3347 6.96L84.1547 8.26C83.9014 8.00667 83.6214 7.78667 83.3147 7.6C83.0214 7.4 82.7214 7.24667 82.4147 7.14C82.108 7.03333 81.828 6.98 81.5747 6.98C81.2947 6.98 81.0414 7.00667 80.8147 7.06C80.588 7.11333 80.3947 7.19333 80.2347 7.3C80.088 7.40667 79.9747 7.54 79.8947 7.7C79.8147 7.86 79.7747 8.04 79.7747 8.24C79.788 8.41333 79.828 8.58 79.8947 8.74C79.9747 8.88667 80.0814 9.01333 80.2147 9.12C80.3614 9.22667 80.5814 9.34 80.8747 9.46C81.168 9.58 81.5414 9.69333 81.9947 9.8C82.6614 9.97333 83.208 10.1667 83.6347 10.38C84.0747 10.58 84.4214 10.8133 84.6747 11.08C84.9414 11.3333 85.128 11.6267 85.2347 11.96C85.3414 12.2933 85.3947 12.6667 85.3947 13.08C85.3947 13.68 85.2214 14.22 84.8747 14.7C84.5414 15.1667 84.088 15.5333 83.5147 15.8C82.9414 16.0667 82.3014 16.2 81.5947 16.2ZM110.79 16.2C109.764 16.2 108.844 15.9667 108.03 15.5C107.23 15.02 106.597 14.3733 106.13 13.56C105.664 12.7333 105.43 11.7933 105.43 10.74C105.43 9.68667 105.664 8.75333 106.13 7.94C106.597 7.11333 107.23 6.46667 108.03 6C108.844 5.52 109.764 5.28 110.79 5.28C111.804 5.28 112.71 5.52 113.51 6C114.324 6.46667 114.964 7.11333 115.43 7.94C115.897 8.75333 116.13 9.68667 116.13 10.74C116.13 11.7933 115.897 12.7333 115.43 13.56C114.964 14.3733 114.324 15.02 113.51 15.5C112.71 15.9667 111.804 16.2 110.79 16.2ZM110.79 14.32C111.417 14.32 111.977 14.1667 112.47 13.86C112.964 13.54 113.35 13.1133 113.63 12.58C113.91 12.0333 114.044 11.42 114.03 10.74C114.044 10.0467 113.91 9.43333 113.63 8.9C113.35 8.35333 112.964 7.92667 112.47 7.62C111.977 7.31333 111.417 7.16 110.79 7.16C110.164 7.16 109.597 7.32 109.09 7.64C108.597 7.94667 108.21 8.37333 107.93 8.92C107.65 9.45333 107.517 10.06 107.53 10.74C107.517 11.42 107.65 12.0333 107.93 12.58C108.21 13.1133 108.597 13.54 109.09 13.86C109.597 14.1667 110.164 14.32 110.79 14.32ZM124.775 16V5.5H126.835V7.66L126.475 7.9C126.608 7.43333 126.868 7.00667 127.255 6.62C127.642 6.22 128.102 5.9 128.635 5.66C129.168 5.40667 129.715 5.28 130.275 5.28C131.075 5.28 131.742 5.44 132.275 5.76C132.808 6.06667 133.208 6.54 133.475 7.18C133.742 7.82 133.875 8.62667 133.875 9.6V16H131.815V9.74C131.815 9.14 131.735 8.64667 131.575 8.26C131.415 7.86 131.168 7.57333 130.835 7.4C130.502 7.21333 130.088 7.13333 129.595 7.16C129.195 7.16 128.828 7.22667 128.495 7.36C128.162 7.48 127.868 7.65333 127.615 7.88C127.375 8.10667 127.182 8.37333 127.035 8.68C126.902 8.97333 126.835 9.29333 126.835 9.64V16H125.815C125.642 16 125.468 16 125.295 16C125.122 16 124.948 16 124.775 16ZM155.035 16V5.5H157.115V7.74L156.735 7.98C156.842 7.63333 157.008 7.3 157.235 6.98C157.475 6.66 157.762 6.38 158.095 6.14C158.442 5.88667 158.808 5.68667 159.195 5.54C159.595 5.39333 160.002 5.32 160.415 5.32C161.015 5.32 161.542 5.42 161.995 5.62C162.448 5.82 162.822 6.12 163.115 6.52C163.408 6.92 163.622 7.42 163.755 8.02L163.435 7.94L163.575 7.6C163.722 7.29333 163.922 7.00667 164.175 6.74C164.442 6.46 164.742 6.21333 165.075 6C165.408 5.78667 165.762 5.62 166.135 5.5C166.508 5.38 166.875 5.32 167.235 5.32C168.022 5.32 168.668 5.48 169.175 5.8C169.695 6.12 170.082 6.60667 170.335 7.26C170.602 7.91333 170.735 8.72667 170.735 9.7V16H168.655V9.82C168.655 9.22 168.575 8.73333 168.415 8.36C168.268 7.97333 168.042 7.68667 167.735 7.5C167.428 7.31333 167.035 7.22 166.555 7.22C166.182 7.22 165.828 7.28667 165.495 7.42C165.175 7.54 164.895 7.71333 164.655 7.94C164.415 8.16667 164.228 8.43333 164.095 8.74C163.962 9.03333 163.895 9.36 163.895 9.72V16H161.815V9.78C161.815 9.23333 161.735 8.77333 161.575 8.4C161.415 8.01333 161.182 7.72 160.875 7.52C160.568 7.32 160.195 7.22 159.755 7.22C159.382 7.22 159.035 7.28667 158.715 7.42C158.395 7.54 158.115 7.71333 157.875 7.94C157.635 8.15333 157.448 8.41333 157.315 8.72C157.182 9.01333 157.115 9.33333 157.115 9.68V16H155.035ZM183.933 16.2C183.066 16.2 182.273 15.96 181.553 15.48C180.846 15 180.28 14.3467 179.853 13.52C179.426 12.6933 179.213 11.76 179.213 10.72C179.213 9.66667 179.426 8.73333 179.853 7.92C180.293 7.09333 180.88 6.44667 181.613 5.98C182.36 5.51333 183.193 5.28 184.113 5.28C184.66 5.28 185.16 5.36 185.613 5.52C186.066 5.68 186.46 5.90667 186.793 6.2C187.14 6.48 187.42 6.80667 187.633 7.18C187.86 7.55333 188 7.95333 188.053 8.38L187.593 8.22V5.5H189.673V16H187.593V13.5L188.073 13.36C187.993 13.72 187.826 14.0733 187.573 14.42C187.333 14.7533 187.02 15.0533 186.633 15.32C186.26 15.5867 185.84 15.8 185.373 15.96C184.92 16.12 184.44 16.2 183.933 16.2ZM184.473 14.3C185.1 14.3 185.653 14.1467 186.133 13.84C186.613 13.5333 186.986 13.1133 187.253 12.58C187.533 12.0333 187.673 11.4133 187.673 10.72C187.673 10.04 187.533 9.43333 187.253 8.9C186.986 8.36667 186.613 7.94667 186.133 7.64C185.653 7.33333 185.1 7.18 184.473 7.18C183.86 7.18 183.313 7.33333 182.833 7.64C182.366 7.94667 181.993 8.36667 181.713 8.9C181.446 9.43333 181.313 10.04 181.313 10.72C181.313 11.4133 181.446 12.0333 181.713 12.58C181.993 13.1133 182.366 13.5333 182.833 13.84C183.313 14.1467 183.86 14.3 184.473 14.3ZM203.409 16.2C202.436 16.2 201.563 15.96 200.789 15.48C200.029 15 199.423 14.3467 198.969 13.52C198.529 12.6933 198.309 11.7667 198.309 10.74C198.309 9.71333 198.529 8.78667 198.969 7.96C199.423 7.13333 200.029 6.48 200.789 6C201.563 5.52 202.436 5.28 203.409 5.28C204.343 5.28 205.189 5.47333 205.949 5.86C206.723 6.23333 207.309 6.74667 207.709 7.4L206.569 8.8C206.356 8.49333 206.083 8.21333 205.749 7.96C205.416 7.70667 205.063 7.50667 204.689 7.36C204.316 7.21333 203.956 7.14 203.609 7.14C202.969 7.14 202.396 7.3 201.889 7.62C201.396 7.92667 201.003 8.35333 200.709 8.9C200.416 9.44667 200.269 10.06 200.269 10.74C200.269 11.42 200.423 12.0333 200.729 12.58C201.036 13.1133 201.443 13.54 201.949 13.86C202.456 14.18 203.016 14.34 203.629 14.34C203.989 14.34 204.336 14.28 204.669 14.16C205.016 14.04 205.349 13.86 205.669 13.62C205.989 13.38 206.289 13.0867 206.569 12.74L207.709 14.14C207.283 14.74 206.669 15.2333 205.869 15.62C205.083 16.0067 204.263 16.2 203.409 16.2ZM216.053 16V1.2H218.113V7.66L217.753 7.9C217.886 7.43333 218.146 7.00667 218.533 6.62C218.919 6.22 219.379 5.9 219.913 5.66C220.446 5.40667 220.993 5.28 221.553 5.28C222.353 5.28 223.019 5.44 223.553 5.76C224.086 6.06667 224.486 6.54 224.753 7.18C225.019 7.82 225.153 8.62667 225.153 9.6V16H223.093V9.74C223.093 9.14 223.013 8.64667 222.853 8.26C222.693 7.86 222.446 7.57333 222.113 7.4C221.779 7.21333 221.366 7.13333 220.873 7.16C220.473 7.16 220.106 7.22667 219.773 7.36C219.439 7.48 219.146 7.65333 218.893 7.88C218.653 8.10667 218.459 8.37333 218.313 8.68C218.179 8.97333 218.113 9.29333 218.113 9.64V16H217.093C216.919 16 216.746 16 216.573 16C216.399 16 216.226 16 216.053 16ZM234.687 16V5.5H236.747V16H234.687ZM235.687 3.18C235.247 3.18 234.907 3.06667 234.667 2.84C234.427 2.61333 234.307 2.29333 234.307 1.88C234.307 1.49333 234.427 1.18 234.667 0.94C234.92 0.699999 235.26 0.579999 235.687 0.579999C236.127 0.579999 236.467 0.693333 236.707 0.92C236.947 1.14667 237.067 1.46667 237.067 1.88C237.067 2.26667 236.94 2.58 236.687 2.82C236.447 3.06 236.114 3.18 235.687 3.18ZM246.313 16V5.5H248.373V7.66L248.013 7.9C248.147 7.43333 248.407 7.00667 248.793 6.62C249.18 6.22 249.64 5.9 250.173 5.66C250.707 5.40667 251.253 5.28 251.813 5.28C252.613 5.28 253.28 5.44 253.813 5.76C254.347 6.06667 254.747 6.54 255.013 7.18C255.28 7.82 255.413 8.62667 255.413 9.6V16H253.353V9.74C253.353 9.14 253.273 8.64667 253.113 8.26C252.953 7.86 252.707 7.57333 252.373 7.4C252.04 7.21333 251.627 7.13333 251.133 7.16C250.733 7.16 250.367 7.22667 250.033 7.36C249.7 7.48 249.407 7.65333 249.153 7.88C248.913 8.10667 248.72 8.37333 248.573 8.68C248.44 8.97333 248.373 9.29333 248.373 9.64V16H247.353C247.18 16 247.007 16 246.833 16C246.66 16 246.487 16 246.313 16ZM269.508 16.2C268.428 16.2 267.468 15.9733 266.628 15.52C265.801 15.0533 265.148 14.42 264.668 13.62C264.201 12.82 263.968 11.9 263.968 10.86C263.968 10.0333 264.101 9.28 264.368 8.6C264.635 7.92 265.001 7.33333 265.468 6.84C265.948 6.33333 266.515 5.94667 267.168 5.68C267.835 5.4 268.555 5.26 269.328 5.26C270.008 5.26 270.641 5.39333 271.228 5.66C271.815 5.91333 272.321 6.26667 272.748 6.72C273.188 7.17333 273.521 7.71333 273.748 8.34C273.988 8.95333 274.101 9.62667 274.088 10.36L274.068 11.24H265.488L265.028 9.6H272.288L271.988 9.94V9.46C271.948 9.02 271.801 8.62667 271.548 8.28C271.295 7.93333 270.975 7.66 270.588 7.46C270.201 7.26 269.781 7.16 269.328 7.16C268.608 7.16 268.001 7.3 267.508 7.58C267.015 7.84667 266.641 8.24667 266.388 8.78C266.135 9.3 266.008 9.94667 266.008 10.72C266.008 11.4533 266.161 12.0933 266.468 12.64C266.775 13.1733 267.208 13.5867 267.768 13.88C268.328 14.1733 268.975 14.32 269.708 14.32C270.228 14.32 270.708 14.2333 271.148 14.06C271.601 13.8867 272.088 13.5733 272.608 13.12L273.648 14.58C273.328 14.9 272.935 15.18 272.468 15.42C272.015 15.66 271.528 15.8533 271.008 16C270.501 16.1333 270.001 16.2 269.508 16.2ZM294.772 16V1.2H296.832V16H294.772ZM310.856 16.2C309.776 16.2 308.816 15.9733 307.976 15.52C307.15 15.0533 306.496 14.42 306.016 13.62C305.55 12.82 305.316 11.9 305.316 10.86C305.316 10.0333 305.45 9.28 305.716 8.6C305.983 7.92 306.35 7.33333 306.816 6.84C307.296 6.33333 307.863 5.94667 308.516 5.68C309.183 5.4 309.903 5.26 310.676 5.26C311.356 5.26 311.99 5.39333 312.576 5.66C313.163 5.91333 313.67 6.26667 314.096 6.72C314.536 7.17333 314.87 7.71333 315.096 8.34C315.336 8.95333 315.45 9.62667 315.436 10.36L315.416 11.24H306.836L306.376 9.6H313.636L313.336 9.94V9.46C313.296 9.02 313.15 8.62667 312.896 8.28C312.643 7.93333 312.323 7.66 311.936 7.46C311.55 7.26 311.13 7.16 310.676 7.16C309.956 7.16 309.35 7.3 308.856 7.58C308.363 7.84667 307.99 8.24667 307.736 8.78C307.483 9.3 307.356 9.94667 307.356 10.72C307.356 11.4533 307.51 12.0933 307.816 12.64C308.123 13.1733 308.556 13.5867 309.116 13.88C309.676 14.1733 310.323 14.32 311.056 14.32C311.576 14.32 312.056 14.2333 312.496 14.06C312.95 13.8867 313.436 13.5733 313.956 13.12L314.996 14.58C314.676 14.9 314.283 15.18 313.816 15.42C313.363 15.66 312.876 15.8533 312.356 16C311.85 16.1333 311.35 16.2 310.856 16.2ZM328.115 16.2C327.248 16.2 326.455 15.96 325.735 15.48C325.028 15 324.462 14.3467 324.035 13.52C323.608 12.6933 323.395 11.76 323.395 10.72C323.395 9.66667 323.608 8.73333 324.035 7.92C324.475 7.09333 325.062 6.44667 325.795 5.98C326.542 5.51333 327.375 5.28 328.295 5.28C328.842 5.28 329.342 5.36 329.795 5.52C330.248 5.68 330.642 5.90667 330.975 6.2C331.322 6.48 331.602 6.80667 331.815 7.18C332.042 7.55333 332.182 7.95333 332.235 8.38L331.775 8.22V5.5H333.855V16H331.775V13.5L332.255 13.36C332.175 13.72 332.008 14.0733 331.755 14.42C331.515 14.7533 331.202 15.0533 330.815 15.32C330.442 15.5867 330.022 15.8 329.555 15.96C329.102 16.12 328.622 16.2 328.115 16.2ZM328.655 14.3C329.282 14.3 329.835 14.1467 330.315 13.84C330.795 13.5333 331.168 13.1133 331.435 12.58C331.715 12.0333 331.855 11.4133 331.855 10.72C331.855 10.04 331.715 9.43333 331.435 8.9C331.168 8.36667 330.795 7.94667 330.315 7.64C329.835 7.33333 329.282 7.18 328.655 7.18C328.042 7.18 327.495 7.33333 327.015 7.64C326.548 7.94667 326.175 8.36667 325.895 8.9C325.628 9.43333 325.495 10.04 325.495 10.72C325.495 11.4133 325.628 12.0333 325.895 12.58C326.175 13.1133 326.548 13.5333 327.015 13.84C327.495 14.1467 328.042 14.3 328.655 14.3ZM343.131 16V5.5H345.211V8.8L345.011 8C345.158 7.49333 345.405 7.03333 345.751 6.62C346.111 6.20667 346.518 5.88 346.971 5.64C347.438 5.4 347.918 5.28 348.411 5.28C348.638 5.28 348.851 5.3 349.051 5.34C349.265 5.38 349.431 5.42667 349.551 5.48L349.011 7.72C348.851 7.65333 348.671 7.6 348.471 7.56C348.285 7.50667 348.098 7.48 347.911 7.48C347.551 7.48 347.205 7.55333 346.871 7.7C346.551 7.83333 346.265 8.02667 346.011 8.28C345.771 8.52 345.578 8.80667 345.431 9.14C345.285 9.46 345.211 9.81333 345.211 10.2V16H343.131ZM357.598 16V5.5H359.658V7.66L359.298 7.9C359.431 7.43333 359.691 7.00667 360.078 6.62C360.464 6.22 360.924 5.9 361.458 5.66C361.991 5.40667 362.538 5.28 363.098 5.28C363.898 5.28 364.564 5.44 365.098 5.76C365.631 6.06667 366.031 6.54 366.298 7.18C366.564 7.82 366.698 8.62667 366.698 9.6V16H364.638V9.74C364.638 9.14 364.558 8.64667 364.398 8.26C364.238 7.86 363.991 7.57333 363.658 7.4C363.324 7.21333 362.911 7.13333 362.418 7.16C362.018 7.16 361.651 7.22667 361.318 7.36C360.984 7.48 360.691 7.65333 360.438 7.88C360.198 8.10667 360.004 8.37333 359.858 8.68C359.724 8.97333 359.658 9.29333 359.658 9.64V16H358.638C358.464 16 358.291 16 358.118 16C357.944 16 357.771 16 357.598 16ZM376.232 16V5.5H378.292V16H376.232ZM377.232 3.18C376.792 3.18 376.452 3.06667 376.212 2.84C375.972 2.61333 375.852 2.29333 375.852 1.88C375.852 1.49333 375.972 1.18 376.212 0.94C376.466 0.699999 376.806 0.579999 377.232 0.579999C377.672 0.579999 378.012 0.693333 378.252 0.92C378.492 1.14667 378.612 1.46667 378.612 1.88C378.612 2.26667 378.486 2.58 378.232 2.82C377.992 3.06 377.659 3.18 377.232 3.18ZM387.859 16V5.5H389.919V7.66L389.559 7.9C389.692 7.43333 389.952 7.00667 390.339 6.62C390.725 6.22 391.185 5.9 391.719 5.66C392.252 5.40667 392.799 5.28 393.359 5.28C394.159 5.28 394.825 5.44 395.359 5.76C395.892 6.06667 396.292 6.54 396.559 7.18C396.825 7.82 396.959 8.62667 396.959 9.6V16H394.899V9.74C394.899 9.14 394.819 8.64667 394.659 8.26C394.499 7.86 394.252 7.57333 393.919 7.4C393.585 7.21333 393.172 7.13333 392.679 7.16C392.279 7.16 391.912 7.22667 391.579 7.36C391.245 7.48 390.952 7.65333 390.699 7.88C390.459 8.10667 390.265 8.37333 390.119 8.68C389.985 8.97333 389.919 9.29333 389.919 9.64V16H388.899C388.725 16 388.552 16 388.379 16C388.205 16 388.032 16 387.859 16ZM410.853 20.6C410.107 20.6 409.36 20.48 408.613 20.24C407.88 20.0133 407.287 19.7133 406.833 19.34L407.593 17.74C407.86 17.94 408.173 18.1133 408.533 18.26C408.893 18.42 409.273 18.54 409.673 18.62C410.073 18.7133 410.467 18.76 410.853 18.76C411.587 18.76 412.2 18.64 412.693 18.4C413.187 18.16 413.56 17.8067 413.813 17.34C414.067 16.8733 414.193 16.2933 414.193 15.6V13.58L414.413 13.72C414.347 14.1333 414.127 14.5333 413.753 14.92C413.393 15.2933 412.94 15.6 412.393 15.84C411.847 16.08 411.287 16.2 410.713 16.2C409.713 16.2 408.82 15.9667 408.033 15.5C407.26 15.02 406.647 14.3733 406.193 13.56C405.74 12.7333 405.513 11.7933 405.513 10.74C405.513 9.68667 405.733 8.75333 406.173 7.94C406.627 7.11333 407.24 6.46667 408.013 6C408.8 5.52 409.68 5.28 410.653 5.28C411.053 5.28 411.44 5.33333 411.813 5.44C412.187 5.53333 412.533 5.67333 412.853 5.86C413.173 6.03333 413.46 6.22667 413.713 6.44C413.967 6.65333 414.173 6.88 414.333 7.12C414.493 7.36 414.593 7.58667 414.633 7.8L414.193 7.96V5.5H416.253V15.36C416.253 16.2 416.127 16.94 415.873 17.58C415.633 18.2333 415.28 18.78 414.813 19.22C414.347 19.6733 413.78 20.0133 413.113 20.24C412.447 20.48 411.693 20.6 410.853 20.6ZM410.933 14.3C411.587 14.3 412.167 14.1467 412.673 13.84C413.18 13.5333 413.573 13.1133 413.853 12.58C414.133 12.0467 414.273 11.4333 414.273 10.74C414.273 10.0467 414.127 9.43333 413.833 8.9C413.553 8.35333 413.16 7.92667 412.653 7.62C412.16 7.31333 411.587 7.16 410.933 7.16C410.293 7.16 409.72 7.32 409.213 7.64C408.72 7.94667 408.327 8.37333 408.033 8.92C407.753 9.45333 407.613 10.06 407.613 10.74C407.613 11.42 407.753 12.0333 408.033 12.58C408.327 13.1133 408.72 13.5333 409.213 13.84C409.72 14.1467 410.293 14.3 410.933 14.3ZM425.803 19.58L425.043 18.66C425.51 18.3933 425.89 18.0867 426.183 17.74C426.476 17.3933 426.623 17.0933 426.623 16.84C426.623 16.7067 426.59 16.5733 426.523 16.44C426.456 16.32 426.316 16.1467 426.103 15.92C425.836 15.6667 425.663 15.4533 425.583 15.28C425.503 15.1067 425.463 14.92 425.463 14.72C425.463 14.4 425.576 14.1467 425.803 13.96C426.03 13.76 426.323 13.66 426.683 13.66C427.016 13.66 427.316 13.76 427.583 13.96C427.863 14.1467 428.076 14.4133 428.223 14.76C428.383 15.0933 428.463 15.48 428.463 15.92C428.463 16.32 428.396 16.7067 428.263 17.08C428.13 17.4533 427.943 17.8 427.703 18.12C427.463 18.44 427.183 18.7267 426.863 18.98C426.543 19.2333 426.19 19.4333 425.803 19.58ZM453.6 16.2C452.64 16.2 451.78 15.9667 451.02 15.5C450.274 15.02 449.68 14.3733 449.24 13.56C448.8 12.7333 448.58 11.7933 448.58 10.74C448.58 9.68667 448.794 8.75333 449.22 7.94C449.66 7.11333 450.254 6.46667 451 6C451.747 5.52 452.594 5.28 453.54 5.28C454.06 5.28 454.56 5.36667 455.04 5.54C455.534 5.7 455.974 5.92667 456.36 6.22C456.747 6.5 457.047 6.81333 457.26 7.16C457.487 7.49333 457.6 7.83333 457.6 8.18L457 8.22V1.2H459.06V16H457V13.5H457.4C457.4 13.82 457.294 14.14 457.08 14.46C456.867 14.7667 456.58 15.0533 456.22 15.32C455.874 15.5867 455.467 15.8 455 15.96C454.547 16.12 454.08 16.2 453.6 16.2ZM453.88 14.42C454.507 14.42 455.06 14.26 455.54 13.94C456.02 13.62 456.394 13.1867 456.66 12.64C456.94 12.08 457.08 11.4467 457.08 10.74C457.08 10.0333 456.94 9.40667 456.66 8.86C456.394 8.3 456.02 7.86 455.54 7.54C455.06 7.22 454.507 7.06 453.88 7.06C453.254 7.06 452.7 7.22 452.22 7.54C451.74 7.86 451.36 8.3 451.08 8.86C450.814 9.40667 450.68 10.0333 450.68 10.74C450.68 11.4467 450.814 12.08 451.08 12.64C451.36 13.1867 451.74 13.62 452.22 13.94C452.7 14.26 453.254 14.42 453.88 14.42ZM472.336 16.2C471.47 16.2 470.676 15.96 469.956 15.48C469.25 15 468.683 14.3467 468.256 13.52C467.83 12.6933 467.616 11.76 467.616 10.72C467.616 9.66667 467.83 8.73333 468.256 7.92C468.696 7.09333 469.283 6.44667 470.016 5.98C470.763 5.51333 471.596 5.28 472.516 5.28C473.063 5.28 473.563 5.36 474.016 5.52C474.47 5.68 474.863 5.90667 475.196 6.2C475.543 6.48 475.823 6.80667 476.036 7.18C476.263 7.55333 476.403 7.95333 476.456 8.38L475.996 8.22V5.5H478.076V16H475.996V13.5L476.476 13.36C476.396 13.72 476.23 14.0733 475.976 14.42C475.736 14.7533 475.423 15.0533 475.036 15.32C474.663 15.5867 474.243 15.8 473.776 15.96C473.323 16.12 472.843 16.2 472.336 16.2ZM472.876 14.3C473.503 14.3 474.056 14.1467 474.536 13.84C475.016 13.5333 475.39 13.1133 475.656 12.58C475.936 12.0333 476.076 11.4133 476.076 10.72C476.076 10.04 475.936 9.43333 475.656 8.9C475.39 8.36667 475.016 7.94667 474.536 7.64C474.056 7.33333 473.503 7.18 472.876 7.18C472.263 7.18 471.716 7.33333 471.236 7.64C470.77 7.94667 470.396 8.36667 470.116 8.9C469.85 9.43333 469.716 10.04 469.716 10.72C469.716 11.4133 469.85 12.0333 470.116 12.58C470.396 13.1133 470.77 13.5333 471.236 13.84C471.716 14.1467 472.263 14.3 472.876 14.3ZM488.653 16V2.82H490.713V16H488.653ZM486.473 7.5V5.5H493.153V7.5H486.473ZM505.371 16.2C504.504 16.2 503.711 15.96 502.991 15.48C502.284 15 501.717 14.3467 501.291 13.52C500.864 12.6933 500.651 11.76 500.651 10.72C500.651 9.66667 500.864 8.73333 501.291 7.92C501.731 7.09333 502.317 6.44667 503.051 5.98C503.797 5.51333 504.631 5.28 505.551 5.28C506.097 5.28 506.597 5.36 507.051 5.52C507.504 5.68 507.897 5.90667 508.231 6.2C508.577 6.48 508.857 6.80667 509.071 7.18C509.297 7.55333 509.437 7.95333 509.491 8.38L509.031 8.22V5.5H511.111V16H509.031V13.5L509.511 13.36C509.431 13.72 509.264 14.0733 509.011 14.42C508.771 14.7533 508.457 15.0533 508.071 15.32C507.697 15.5867 507.277 15.8 506.811 15.96C506.357 16.12 505.877 16.2 505.371 16.2ZM505.911 14.3C506.537 14.3 507.091 14.1467 507.571 13.84C508.051 13.5333 508.424 13.1133 508.691 12.58C508.971 12.0333 509.111 11.4133 509.111 10.72C509.111 10.04 508.971 9.43333 508.691 8.9C508.424 8.36667 508.051 7.94667 507.571 7.64C507.091 7.33333 506.537 7.18 505.911 7.18C505.297 7.18 504.751 7.33333 504.271 7.64C503.804 7.94667 503.431 8.36667 503.151 8.9C502.884 9.43333 502.751 10.04 502.751 10.72C502.751 11.4133 502.884 12.0333 503.151 12.58C503.431 13.1133 503.804 13.5333 504.271 13.84C504.751 14.1467 505.297 14.3 505.911 14.3ZM535.892 16.2C535.012 16.2 534.219 16.0467 533.512 15.74C532.806 15.4333 532.219 14.98 531.752 14.38L533.152 13.18C533.552 13.6467 533.986 13.9867 534.452 14.2C534.932 14.4 535.472 14.5 536.072 14.5C536.312 14.5 536.532 14.4733 536.732 14.42C536.946 14.3533 537.126 14.26 537.272 14.14C537.432 14.02 537.552 13.88 537.632 13.72C537.712 13.5467 537.752 13.36 537.752 13.16C537.752 12.8133 537.626 12.5333 537.372 12.32C537.239 12.2267 537.026 12.1267 536.732 12.02C536.452 11.9 536.086 11.78 535.632 11.66C534.859 11.46 534.226 11.2333 533.732 10.98C533.239 10.7267 532.859 10.44 532.592 10.12C532.392 9.86667 532.246 9.59333 532.152 9.3C532.059 8.99333 532.012 8.66 532.012 8.3C532.012 7.86 532.106 7.46 532.292 7.1C532.492 6.72667 532.759 6.40667 533.092 6.14C533.439 5.86 533.839 5.64667 534.292 5.5C534.759 5.35333 535.252 5.28 535.772 5.28C536.266 5.28 536.752 5.34667 537.232 5.48C537.726 5.61333 538.179 5.80667 538.592 6.06C539.006 6.31333 539.352 6.61333 539.632 6.96L538.452 8.26C538.199 8.00667 537.919 7.78667 537.612 7.6C537.319 7.4 537.019 7.24667 536.712 7.14C536.406 7.03333 536.126 6.98 535.872 6.98C535.592 6.98 535.339 7.00667 535.112 7.06C534.886 7.11333 534.692 7.19333 534.532 7.3C534.386 7.40667 534.272 7.54 534.192 7.7C534.112 7.86 534.072 8.04 534.072 8.24C534.086 8.41333 534.126 8.58 534.192 8.74C534.272 8.88667 534.379 9.01333 534.512 9.12C534.659 9.22667 534.879 9.34 535.172 9.46C535.466 9.58 535.839 9.69333 536.292 9.8C536.959 9.97333 537.506 10.1667 537.932 10.38C538.372 10.58 538.719 10.8133 538.972 11.08C539.239 11.3333 539.426 11.6267 539.532 11.96C539.639 12.2933 539.692 12.6667 539.692 13.08C539.692 13.68 539.519 14.22 539.172 14.7C538.839 15.1667 538.386 15.5333 537.812 15.8C537.239 16.0667 536.599 16.2 535.892 16.2ZM552.823 16.2C551.849 16.2 550.976 15.96 550.203 15.48C549.443 15 548.836 14.3467 548.383 13.52C547.943 12.6933 547.723 11.7667 547.723 10.74C547.723 9.71333 547.943 8.78667 548.383 7.96C548.836 7.13333 549.443 6.48 550.203 6C550.976 5.52 551.849 5.28 552.823 5.28C553.756 5.28 554.603 5.47333 555.363 5.86C556.136 6.23333 556.723 6.74667 557.123 7.4L555.983 8.8C555.769 8.49333 555.496 8.21333 555.163 7.96C554.829 7.70667 554.476 7.50667 554.103 7.36C553.729 7.21333 553.369 7.14 553.023 7.14C552.383 7.14 551.809 7.3 551.303 7.62C550.809 7.92667 550.416 8.35333 550.123 8.9C549.829 9.44667 549.683 10.06 549.683 10.74C549.683 11.42 549.836 12.0333 550.143 12.58C550.449 13.1133 550.856 13.54 551.363 13.86C551.869 14.18 552.429 14.34 553.043 14.34C553.403 14.34 553.749 14.28 554.083 14.16C554.429 14.04 554.763 13.86 555.083 13.62C555.403 13.38 555.703 13.0867 555.983 12.74L557.123 14.14C556.696 14.74 556.083 15.2333 555.283 15.62C554.496 16.0067 553.676 16.2 552.823 16.2ZM565.806 16V5.5H567.866V16H565.806ZM566.806 3.18C566.366 3.18 566.026 3.06667 565.786 2.84C565.546 2.61333 565.426 2.29333 565.426 1.88C565.426 1.49333 565.546 1.18 565.786 0.94C566.039 0.699999 566.379 0.579999 566.806 0.579999C567.246 0.579999 567.586 0.693333 567.826 0.92C568.066 1.14667 568.186 1.46667 568.186 1.88C568.186 2.26667 568.059 2.58 567.806 2.82C567.566 3.06 567.232 3.18 566.806 3.18ZM582.332 16.2C581.252 16.2 580.292 15.9733 579.452 15.52C578.626 15.0533 577.972 14.42 577.492 13.62C577.026 12.82 576.792 11.9 576.792 10.86C576.792 10.0333 576.926 9.28 577.192 8.6C577.459 7.92 577.826 7.33333 578.292 6.84C578.772 6.33333 579.339 5.94667 579.992 5.68C580.659 5.4 581.379 5.26 582.152 5.26C582.832 5.26 583.466 5.39333 584.052 5.66C584.639 5.91333 585.146 6.26667 585.572 6.72C586.012 7.17333 586.346 7.71333 586.572 8.34C586.812 8.95333 586.926 9.62667 586.912 10.36L586.892 11.24H578.312L577.852 9.6H585.112L584.812 9.94V9.46C584.772 9.02 584.626 8.62667 584.372 8.28C584.119 7.93333 583.799 7.66 583.412 7.46C583.026 7.26 582.606 7.16 582.152 7.16C581.432 7.16 580.826 7.3 580.332 7.58C579.839 7.84667 579.466 8.24667 579.212 8.78C578.959 9.3 578.832 9.94667 578.832 10.72C578.832 11.4533 578.986 12.0933 579.292 12.64C579.599 13.1733 580.032 13.5867 580.592 13.88C581.152 14.1733 581.799 14.32 582.532 14.32C583.052 14.32 583.532 14.2333 583.972 14.06C584.426 13.8867 584.912 13.5733 585.432 13.12L586.472 14.58C586.152 14.9 585.759 15.18 585.292 15.42C584.839 15.66 584.352 15.8533 583.832 16C583.326 16.1333 582.826 16.2 582.332 16.2ZM595.551 16V5.5H597.611V7.66L597.251 7.9C597.384 7.43333 597.644 7.00667 598.031 6.62C598.418 6.22 598.878 5.9 599.411 5.66C599.944 5.40667 600.491 5.28 601.051 5.28C601.851 5.28 602.518 5.44 603.051 5.76C603.584 6.06667 603.984 6.54 604.251 7.18C604.518 7.82 604.651 8.62667 604.651 9.6V16H602.591V9.74C602.591 9.14 602.511 8.64667 602.351 8.26C602.191 7.86 601.944 7.57333 601.611 7.4C601.278 7.21333 600.864 7.13333 600.371 7.16C599.971 7.16 599.604 7.22667 599.271 7.36C598.938 7.48 598.644 7.65333 598.391 7.88C598.151 8.10667 597.958 8.37333 597.811 8.68C597.678 8.97333 597.611 9.29333 597.611 9.64V16H596.591C596.418 16 596.244 16 596.071 16C595.898 16 595.724 16 595.551 16ZM618.305 16.2C617.332 16.2 616.459 15.96 615.685 15.48C614.925 15 614.319 14.3467 613.865 13.52C613.425 12.6933 613.205 11.7667 613.205 10.74C613.205 9.71333 613.425 8.78667 613.865 7.96C614.319 7.13333 614.925 6.48 615.685 6C616.459 5.52 617.332 5.28 618.305 5.28C619.239 5.28 620.085 5.47333 620.845 5.86C621.619 6.23333 622.205 6.74667 622.605 7.4L621.465 8.8C621.252 8.49333 620.979 8.21333 620.645 7.96C620.312 7.70667 619.959 7.50667 619.585 7.36C619.212 7.21333 618.852 7.14 618.505 7.14C617.865 7.14 617.292 7.3 616.785 7.62C616.292 7.92667 615.899 8.35333 615.605 8.9C615.312 9.44667 615.165 10.06 615.165 10.74C615.165 11.42 615.319 12.0333 615.625 12.58C615.932 13.1133 616.339 13.54 616.845 13.86C617.352 14.18 617.912 14.34 618.525 14.34C618.885 14.34 619.232 14.28 619.565 14.16C619.912 14.04 620.245 13.86 620.565 13.62C620.885 13.38 621.185 13.0867 621.465 12.74L622.605 14.14C622.179 14.74 621.565 15.2333 620.765 15.62C619.979 16.0067 619.159 16.2 618.305 16.2ZM635.849 16.2C634.769 16.2 633.809 15.9733 632.969 15.52C632.142 15.0533 631.489 14.42 631.009 13.62C630.542 12.82 630.309 11.9 630.309 10.86C630.309 10.0333 630.442 9.28 630.709 8.6C630.975 7.92 631.342 7.33333 631.809 6.84C632.289 6.33333 632.855 5.94667 633.509 5.68C634.175 5.4 634.895 5.26 635.669 5.26C636.349 5.26 636.982 5.39333 637.569 5.66C638.155 5.91333 638.662 6.26667 639.089 6.72C639.529 7.17333 639.862 7.71333 640.089 8.34C640.329 8.95333 640.442 9.62667 640.429 10.36L640.409 11.24H631.829L631.369 9.6H638.629L638.329 9.94V9.46C638.289 9.02 638.142 8.62667 637.889 8.28C637.635 7.93333 637.315 7.66 636.929 7.46C636.542 7.26 636.122 7.16 635.669 7.16C634.949 7.16 634.342 7.3 633.849 7.58C633.355 7.84667 632.982 8.24667 632.729 8.78C632.475 9.3 632.349 9.94667 632.349 10.72C632.349 11.4533 632.502 12.0933 632.809 12.64C633.115 13.1733 633.549 13.5867 634.109 13.88C634.669 14.1733 635.315 14.32 636.049 14.32C636.569 14.32 637.049 14.2333 637.489 14.06C637.942 13.8867 638.429 13.5733 638.949 13.12L639.989 14.58C639.669 14.9 639.275 15.18 638.809 15.42C638.355 15.66 637.869 15.8533 637.349 16C636.842 16.1333 636.342 16.2 635.849 16.2ZM649.387 19.58L648.627 18.66C649.094 18.3933 649.474 18.0867 649.767 17.74C650.061 17.3933 650.207 17.0933 650.207 16.84C650.207 16.7067 650.174 16.5733 650.107 16.44C650.041 16.32 649.901 16.1467 649.687 15.92C649.421 15.6667 649.247 15.4533 649.167 15.28C649.087 15.1067 649.047 14.92 649.047 14.72C649.047 14.4 649.161 14.1467 649.387 13.96C649.614 13.76 649.907 13.66 650.267 13.66C650.601 13.66 650.901 13.76 651.167 13.96C651.447 14.1467 651.661 14.4133 651.807 14.76C651.967 15.0933 652.047 15.48 652.047 15.92C652.047 16.32 651.981 16.7067 651.847 17.08C651.714 17.4533 651.527 17.8 651.287 18.12C651.047 18.44 650.767 18.7267 650.447 18.98C650.127 19.2333 649.774 19.4333 649.387 19.58ZM676.845 16.2C675.978 16.2 675.185 15.96 674.465 15.48C673.758 15 673.192 14.3467 672.765 13.52C672.338 12.6933 672.125 11.76 672.125 10.72C672.125 9.66667 672.338 8.73333 672.765 7.92C673.205 7.09333 673.792 6.44667 674.525 5.98C675.272 5.51333 676.105 5.28 677.025 5.28C677.572 5.28 678.072 5.36 678.525 5.52C678.978 5.68 679.372 5.90667 679.705 6.2C680.052 6.48 680.332 6.80667 680.545 7.18C680.772 7.55333 680.912 7.95333 680.965 8.38L680.505 8.22V5.5H682.585V16H680.505V13.5L680.985 13.36C680.905 13.72 680.738 14.0733 680.485 14.42C680.245 14.7533 679.932 15.0533 679.545 15.32C679.172 15.5867 678.752 15.8 678.285 15.96C677.832 16.12 677.352 16.2 676.845 16.2ZM677.385 14.3C678.012 14.3 678.565 14.1467 679.045 13.84C679.525 13.5333 679.898 13.1133 680.165 12.58C680.445 12.0333 680.585 11.4133 680.585 10.72C680.585 10.04 680.445 9.43333 680.165 8.9C679.898 8.36667 679.525 7.94667 679.045 7.64C678.565 7.33333 678.012 7.18 677.385 7.18C676.772 7.18 676.225 7.33333 675.745 7.64C675.278 7.94667 674.905 8.36667 674.625 8.9C674.358 9.43333 674.225 10.04 674.225 10.72C674.225 11.4133 674.358 12.0333 674.625 12.58C674.905 13.1133 675.278 13.5333 675.745 13.84C676.225 14.1467 676.772 14.3 677.385 14.3ZM691.861 16V5.5H693.921V7.66L693.561 7.9C693.694 7.43333 693.954 7.00667 694.341 6.62C694.728 6.22 695.188 5.9 695.721 5.66C696.254 5.40667 696.801 5.28 697.361 5.28C698.161 5.28 698.828 5.44 699.361 5.76C699.894 6.06667 700.294 6.54 700.561 7.18C700.828 7.82 700.961 8.62667 700.961 9.6V16H698.901V9.74C698.901 9.14 698.821 8.64667 698.661 8.26C698.501 7.86 698.254 7.57333 697.921 7.4C697.588 7.21333 697.174 7.13333 696.681 7.16C696.281 7.16 695.914 7.22667 695.581 7.36C695.248 7.48 694.954 7.65333 694.701 7.88C694.461 8.10667 694.268 8.37333 694.121 8.68C693.988 8.97333 693.921 9.29333 693.921 9.64V16H692.901C692.728 16 692.554 16 692.381 16C692.208 16 692.034 16 691.861 16ZM714.536 16.2C713.576 16.2 712.716 15.9667 711.956 15.5C711.209 15.02 710.616 14.3733 710.176 13.56C709.736 12.7333 709.516 11.7933 709.516 10.74C709.516 9.68667 709.729 8.75333 710.156 7.94C710.596 7.11333 711.189 6.46667 711.936 6C712.682 5.52 713.529 5.28 714.476 5.28C714.996 5.28 715.496 5.36667 715.976 5.54C716.469 5.7 716.909 5.92667 717.296 6.22C717.682 6.5 717.982 6.81333 718.196 7.16C718.422 7.49333 718.536 7.83333 718.536 8.18L717.936 8.22V1.2H719.996V16H717.936V13.5H718.336C718.336 13.82 718.229 14.14 718.016 14.46C717.802 14.7667 717.516 15.0533 717.156 15.32C716.809 15.5867 716.402 15.8 715.936 15.96C715.482 16.12 715.016 16.2 714.536 16.2ZM714.816 14.42C715.442 14.42 715.996 14.26 716.476 13.94C716.956 13.62 717.329 13.1867 717.596 12.64C717.876 12.08 718.016 11.4467 718.016 10.74C718.016 10.0333 717.876 9.40667 717.596 8.86C717.329 8.3 716.956 7.86 716.476 7.54C715.996 7.22 715.442 7.06 714.816 7.06C714.189 7.06 713.636 7.22 713.156 7.54C712.676 7.86 712.296 8.3 712.016 8.86C711.749 9.40667 711.616 10.0333 711.616 10.74C711.616 11.4467 711.749 12.08 712.016 12.64C712.296 13.1867 712.676 13.62 713.156 13.94C713.636 14.26 714.189 14.42 714.816 14.42ZM1.78 38V27.5H3.84V38H1.78ZM2.78 25.18C2.34 25.18 2 25.0667 1.76 24.84C1.52 24.6133 1.4 24.2933 1.4 23.88C1.4 23.4933 1.52 23.18 1.76 22.94C2.01333 22.7 2.35333 22.58 2.78 22.58C3.22 22.58 3.56 22.6933 3.8 22.92C4.04 23.1467 4.16 23.4667 4.16 23.88C4.16 24.2667 4.03333 24.58 3.78 24.82C3.54 25.06 3.20667 25.18 2.78 25.18ZM13.4064 38V27.5H15.4664V29.66L15.1064 29.9C15.2397 29.4333 15.4997 29.0067 15.8864 28.62C16.2731 28.22 16.7331 27.9 17.2664 27.66C17.7997 27.4067 18.3464 27.28 18.9064 27.28C19.7064 27.28 20.3731 27.44 20.9064 27.76C21.4397 28.0667 21.8397 28.54 22.1064 29.18C22.3731 29.82 22.5064 30.6267 22.5064 31.6V38H20.4464V31.74C20.4464 31.14 20.3664 30.6467 20.2064 30.26C20.0464 29.86 19.7997 29.5733 19.4664 29.4C19.1331 29.2133 18.7197 29.1333 18.2264 29.16C17.8264 29.16 17.4597 29.2267 17.1264 29.36C16.7931 29.48 16.4997 29.6533 16.2464 29.88C16.0064 30.1067 15.8131 30.3733 15.6664 30.68C15.5331 30.9733 15.4664 31.2933 15.4664 31.64V38H14.4464C14.2731 38 14.0997 38 13.9264 38C13.7531 38 13.5797 38 13.4064 38ZM33.0009 38V24.82H35.0609V38H33.0009ZM30.8209 29.5V27.5H37.5009V29.5H30.8209ZM50.5791 38.2C49.4991 38.2 48.5391 37.9733 47.6991 37.52C46.8724 37.0533 46.2191 36.42 45.7391 35.62C45.2724 34.82 45.0391 33.9 45.0391 32.86C45.0391 32.0333 45.1724 31.28 45.4391 30.6C45.7057 29.92 46.0724 29.3333 46.5391 28.84C47.0191 28.3333 47.5857 27.9467 48.2391 27.68C48.9057 27.4 49.6257 27.26 50.3991 27.26C51.0791 27.26 51.7124 27.3933 52.2991 27.66C52.8857 27.9133 53.3924 28.2667 53.8191 28.72C54.2591 29.1733 54.5924 29.7133 54.8191 30.34C55.0591 30.9533 55.1724 31.6267 55.1591 32.36L55.1391 33.24H46.5591L46.0991 31.6H53.3591L53.0591 31.94V31.46C53.0191 31.02 52.8724 30.6267 52.6191 30.28C52.3657 29.9333 52.0457 29.66 51.6591 29.46C51.2724 29.26 50.8524 29.16 50.3991 29.16C49.6791 29.16 49.0724 29.3 48.5791 29.58C48.0857 29.8467 47.7124 30.2467 47.4591 30.78C47.2057 31.3 47.0791 31.9467 47.0791 32.72C47.0791 33.4533 47.2324 34.0933 47.5391 34.64C47.8457 35.1733 48.2791 35.5867 48.8391 35.88C49.3991 36.1733 50.0457 36.32 50.7791 36.32C51.2991 36.32 51.7791 36.2333 52.2191 36.06C52.6724 35.8867 53.1591 35.5733 53.6791 35.12L54.7191 36.58C54.3991 36.9 54.0057 37.18 53.5391 37.42C53.0857 37.66 52.5991 37.8533 52.0791 38C51.5724 38.1333 51.0724 38.2 50.5791 38.2ZM63.8378 38V23.2H65.8978V38H63.8378ZM75.2573 38V23.2H77.3173V38H75.2573ZM86.9769 38V27.5H89.0369V38H86.9769ZM87.9769 25.18C87.5369 25.18 87.1969 25.0667 86.9569 24.84C86.7169 24.6133 86.5969 24.2933 86.5969 23.88C86.5969 23.4933 86.7169 23.18 86.9569 22.94C87.2102 22.7 87.5502 22.58 87.9769 22.58C88.4169 22.58 88.7569 22.6933 88.9969 22.92C89.2369 23.1467 89.3569 23.4667 89.3569 23.88C89.3569 24.2667 89.2302 24.58 88.9769 24.82C88.7369 25.06 88.4035 25.18 87.9769 25.18ZM103.303 42.6C102.557 42.6 101.81 42.48 101.063 42.24C100.33 42.0133 99.7366 41.7133 99.2833 41.34L100.043 39.74C100.31 39.94 100.623 40.1133 100.983 40.26C101.343 40.42 101.723 40.54 102.123 40.62C102.523 40.7133 102.917 40.76 103.303 40.76C104.037 40.76 104.65 40.64 105.143 40.4C105.637 40.16 106.01 39.8067 106.263 39.34C106.517 38.8733 106.643 38.2933 106.643 37.6V35.58L106.863 35.72C106.797 36.1333 106.577 36.5333 106.203 36.92C105.843 37.2933 105.39 37.6 104.843 37.84C104.297 38.08 103.737 38.2 103.163 38.2C102.163 38.2 101.27 37.9667 100.483 37.5C99.71 37.02 99.0966 36.3733 98.6433 35.56C98.19 34.7333 97.9633 33.7933 97.9633 32.74C97.9633 31.6867 98.1833 30.7533 98.6233 29.94C99.0766 29.1133 99.69 28.4667 100.463 28C101.25 27.52 102.13 27.28 103.103 27.28C103.503 27.28 103.89 27.3333 104.263 27.44C104.637 27.5333 104.983 27.6733 105.303 27.86C105.623 28.0333 105.91 28.2267 106.163 28.44C106.417 28.6533 106.623 28.88 106.783 29.12C106.943 29.36 107.043 29.5867 107.083 29.8L106.643 29.96V27.5H108.703V37.36C108.703 38.2 108.577 38.94 108.323 39.58C108.083 40.2333 107.73 40.78 107.263 41.22C106.797 41.6733 106.23 42.0133 105.563 42.24C104.897 42.48 104.143 42.6 103.303 42.6ZM103.383 36.3C104.037 36.3 104.617 36.1467 105.123 35.84C105.63 35.5333 106.023 35.1133 106.303 34.58C106.583 34.0467 106.723 33.4333 106.723 32.74C106.723 32.0467 106.577 31.4333 106.283 30.9C106.003 30.3533 105.61 29.9267 105.103 29.62C104.61 29.3133 104.037 29.16 103.383 29.16C102.743 29.16 102.17 29.32 101.663 29.64C101.17 29.9467 100.777 30.3733 100.483 30.92C100.203 31.4533 100.063 32.06 100.063 32.74C100.063 33.42 100.203 34.0333 100.483 34.58C100.777 35.1133 101.17 35.5333 101.663 35.84C102.17 36.1467 102.743 36.3 103.383 36.3ZM122.892 38.2C121.812 38.2 120.852 37.9733 120.012 37.52C119.185 37.0533 118.532 36.42 118.052 35.62C117.585 34.82 117.352 33.9 117.352 32.86C117.352 32.0333 117.485 31.28 117.752 30.6C118.018 29.92 118.385 29.3333 118.852 28.84C119.332 28.3333 119.898 27.9467 120.552 27.68C121.218 27.4 121.938 27.26 122.712 27.26C123.392 27.26 124.025 27.3933 124.612 27.66C125.198 27.9133 125.705 28.2667 126.132 28.72C126.572 29.1733 126.905 29.7133 127.132 30.34C127.372 30.9533 127.485 31.6267 127.472 32.36L127.452 33.24H118.872L118.412 31.6H125.672L125.372 31.94V31.46C125.332 31.02 125.185 30.6267 124.932 30.28C124.678 29.9333 124.358 29.66 123.972 29.46C123.585 29.26 123.165 29.16 122.712 29.16C121.992 29.16 121.385 29.3 120.892 29.58C120.398 29.8467 120.025 30.2467 119.772 30.78C119.518 31.3 119.392 31.9467 119.392 32.72C119.392 33.4533 119.545 34.0933 119.852 34.64C120.158 35.1733 120.592 35.5867 121.152 35.88C121.712 36.1733 122.358 36.32 123.092 36.32C123.612 36.32 124.092 36.2333 124.532 36.06C124.985 35.8867 125.472 35.5733 125.992 35.12L127.032 36.58C126.712 36.9 126.318 37.18 125.852 37.42C125.398 37.66 124.912 37.8533 124.392 38C123.885 38.1333 123.385 38.2 122.892 38.2ZM136.11 38V27.5H138.17V29.66L137.81 29.9C137.944 29.4333 138.204 29.0067 138.59 28.62C138.977 28.22 139.437 27.9 139.97 27.66C140.504 27.4067 141.05 27.28 141.61 27.28C142.41 27.28 143.077 27.44 143.61 27.76C144.144 28.0667 144.544 28.54 144.81 29.18C145.077 29.82 145.21 30.6267 145.21 31.6V38H143.15V31.74C143.15 31.14 143.07 30.6467 142.91 30.26C142.75 29.86 142.504 29.5733 142.17 29.4C141.837 29.2133 141.424 29.1333 140.93 29.16C140.53 29.16 140.164 29.2267 139.83 29.36C139.497 29.48 139.204 29.6533 138.95 29.88C138.71 30.1067 138.517 30.3733 138.37 30.68C138.237 30.9733 138.17 31.2933 138.17 31.64V38H137.15C136.977 38 136.804 38 136.63 38C136.457 38 136.284 38 136.11 38ZM155.705 38V24.82H157.765V38H155.705ZM153.525 29.5V27.5H160.205V29.5H153.525ZM183.986 38.2C183.106 38.2 182.313 38.0467 181.606 37.74C180.899 37.4333 180.313 36.98 179.846 36.38L181.246 35.18C181.646 35.6467 182.079 35.9867 182.546 36.2C183.026 36.4 183.566 36.5 184.166 36.5C184.406 36.5 184.626 36.4733 184.826 36.42C185.039 36.3533 185.219 36.26 185.366 36.14C185.526 36.02 185.646 35.88 185.726 35.72C185.806 35.5467 185.846 35.36 185.846 35.16C185.846 34.8133 185.719 34.5333 185.466 34.32C185.333 34.2267 185.119 34.1267 184.826 34.02C184.546 33.9 184.179 33.78 183.726 33.66C182.953 33.46 182.319 33.2333 181.826 32.98C181.333 32.7267 180.953 32.44 180.686 32.12C180.486 31.8667 180.339 31.5933 180.246 31.3C180.153 30.9933 180.106 30.66 180.106 30.3C180.106 29.86 180.199 29.46 180.386 29.1C180.586 28.7267 180.853 28.4067 181.186 28.14C181.533 27.86 181.933 27.6467 182.386 27.5C182.853 27.3533 183.346 27.28 183.866 27.28C184.359 27.28 184.846 27.3467 185.326 27.48C185.819 27.6133 186.273 27.8067 186.686 28.06C187.099 28.3133 187.446 28.6133 187.726 28.96L186.546 30.26C186.293 30.0067 186.013 29.7867 185.706 29.6C185.413 29.4 185.113 29.2467 184.806 29.14C184.499 29.0333 184.219 28.98 183.966 28.98C183.686 28.98 183.433 29.0067 183.206 29.06C182.979 29.1133 182.786 29.1933 182.626 29.3C182.479 29.4067 182.366 29.54 182.286 29.7C182.206 29.86 182.166 30.04 182.166 30.24C182.179 30.4133 182.219 30.58 182.286 30.74C182.366 30.8867 182.473 31.0133 182.606 31.12C182.753 31.2267 182.973 31.34 183.266 31.46C183.559 31.58 183.933 31.6933 184.386 31.8C185.053 31.9733 185.599 32.1667 186.026 32.38C186.466 32.58 186.813 32.8133 187.066 33.08C187.333 33.3333 187.519 33.6267 187.626 33.96C187.733 34.2933 187.786 34.6667 187.786 35.08C187.786 35.68 187.613 36.22 187.266 36.7C186.933 37.1667 186.479 37.5333 185.906 37.8C185.333 38.0667 184.693 38.2 183.986 38.2ZM198.216 42.6L200.336 37.7L200.356 39.34L195.116 27.5H197.516L200.796 35.22C200.863 35.3533 200.943 35.56 201.036 35.84C201.13 36.1067 201.21 36.3733 201.276 36.64L200.756 36.76C200.863 36.48 200.963 36.2 201.056 35.92C201.163 35.64 201.263 35.36 201.356 35.08L204.096 27.5H206.536L202.216 38L200.436 42.6H198.216ZM217.782 38.2C216.902 38.2 216.109 38.0467 215.402 37.74C214.696 37.4333 214.109 36.98 213.642 36.38L215.042 35.18C215.442 35.6467 215.876 35.9867 216.342 36.2C216.822 36.4 217.362 36.5 217.962 36.5C218.202 36.5 218.422 36.4733 218.622 36.42C218.836 36.3533 219.016 36.26 219.162 36.14C219.322 36.02 219.442 35.88 219.522 35.72C219.602 35.5467 219.642 35.36 219.642 35.16C219.642 34.8133 219.516 34.5333 219.262 34.32C219.129 34.2267 218.916 34.1267 218.622 34.02C218.342 33.9 217.976 33.78 217.522 33.66C216.749 33.46 216.116 33.2333 215.622 32.98C215.129 32.7267 214.749 32.44 214.482 32.12C214.282 31.8667 214.136 31.5933 214.042 31.3C213.949 30.9933 213.902 30.66 213.902 30.3C213.902 29.86 213.996 29.46 214.182 29.1C214.382 28.7267 214.649 28.4067 214.982 28.14C215.329 27.86 215.729 27.6467 216.182 27.5C216.649 27.3533 217.142 27.28 217.662 27.28C218.156 27.28 218.642 27.3467 219.122 27.48C219.616 27.6133 220.069 27.8067 220.482 28.06C220.896 28.3133 221.242 28.6133 221.522 28.96L220.342 30.26C220.089 30.0067 219.809 29.7867 219.502 29.6C219.209 29.4 218.909 29.2467 218.602 29.14C218.296 29.0333 218.016 28.98 217.762 28.98C217.482 28.98 217.229 29.0067 217.002 29.06C216.776 29.1133 216.582 29.1933 216.422 29.3C216.276 29.4067 216.162 29.54 216.082 29.7C216.002 29.86 215.962 30.04 215.962 30.24C215.976 30.4133 216.016 30.58 216.082 30.74C216.162 30.8867 216.269 31.0133 216.402 31.12C216.549 31.2267 216.769 31.34 217.062 31.46C217.356 31.58 217.729 31.6933 218.182 31.8C218.849 31.9733 219.396 32.1667 219.822 32.38C220.262 32.58 220.609 32.8133 220.862 33.08C221.129 33.3333 221.316 33.6267 221.422 33.96C221.529 34.2933 221.582 34.6667 221.582 35.08C221.582 35.68 221.409 36.22 221.062 36.7C220.729 37.1667 220.276 37.5333 219.702 37.8C219.129 38.0667 218.489 38.2 217.782 38.2ZM231.553 38V24.82H233.613V38H231.553ZM229.373 29.5V27.5H236.053V29.5H229.373ZM249.131 38.2C248.051 38.2 247.091 37.9733 246.251 37.52C245.424 37.0533 244.771 36.42 244.291 35.62C243.824 34.82 243.591 33.9 243.591 32.86C243.591 32.0333 243.724 31.28 243.991 30.6C244.257 29.92 244.624 29.3333 245.091 28.84C245.571 28.3333 246.137 27.9467 246.791 27.68C247.457 27.4 248.177 27.26 248.951 27.26C249.631 27.26 250.264 27.3933 250.851 27.66C251.437 27.9133 251.944 28.2667 252.371 28.72C252.811 29.1733 253.144 29.7133 253.371 30.34C253.611 30.9533 253.724 31.6267 253.711 32.36L253.691 33.24H245.111L244.651 31.6H251.911L251.611 31.94V31.46C251.571 31.02 251.424 30.6267 251.171 30.28C250.917 29.9333 250.597 29.66 250.211 29.46C249.824 29.26 249.404 29.16 248.951 29.16C248.231 29.16 247.624 29.3 247.131 29.58C246.637 29.8467 246.264 30.2467 246.011 30.78C245.757 31.3 245.631 31.9467 245.631 32.72C245.631 33.4533 245.784 34.0933 246.091 34.64C246.397 35.1733 246.831 35.5867 247.391 35.88C247.951 36.1733 248.597 36.32 249.331 36.32C249.851 36.32 250.331 36.2333 250.771 36.06C251.224 35.8867 251.711 35.5733 252.231 35.12L253.271 36.58C252.951 36.9 252.557 37.18 252.091 37.42C251.637 37.66 251.151 37.8533 250.631 38C250.124 38.1333 249.624 38.2 249.131 38.2ZM262.309 38V27.5H264.389V29.74L264.009 29.98C264.116 29.6333 264.283 29.3 264.509 28.98C264.749 28.66 265.036 28.38 265.369 28.14C265.716 27.8867 266.083 27.6867 266.469 27.54C266.869 27.3933 267.276 27.32 267.689 27.32C268.289 27.32 268.816 27.42 269.269 27.62C269.723 27.82 270.096 28.12 270.389 28.52C270.683 28.92 270.896 29.42 271.029 30.02L270.709 29.94L270.849 29.6C270.996 29.2933 271.196 29.0067 271.449 28.74C271.716 28.46 272.016 28.2133 272.349 28C272.683 27.7867 273.036 27.62 273.409 27.5C273.783 27.38 274.149 27.32 274.509 27.32C275.296 27.32 275.943 27.48 276.449 27.8C276.969 28.12 277.356 28.6067 277.609 29.26C277.876 29.9133 278.009 30.7267 278.009 31.7V38H275.929V31.82C275.929 31.22 275.849 30.7333 275.689 30.36C275.543 29.9733 275.316 29.6867 275.009 29.5C274.703 29.3133 274.309 29.22 273.829 29.22C273.456 29.22 273.103 29.2867 272.769 29.42C272.449 29.54 272.169 29.7133 271.929 29.94C271.689 30.1667 271.503 30.4333 271.369 30.74C271.236 31.0333 271.169 31.36 271.169 31.72V38H269.089V31.78C269.089 31.2333 269.009 30.7733 268.849 30.4C268.689 30.0133 268.456 29.72 268.149 29.52C267.843 29.32 267.469 29.22 267.029 29.22C266.656 29.22 266.309 29.2867 265.989 29.42C265.669 29.54 265.389 29.7133 265.149 29.94C264.909 30.1533 264.723 30.4133 264.589 30.72C264.456 31.0133 264.389 31.3333 264.389 31.68V38H262.309ZM290.667 38.2C289.787 38.2 288.994 38.0467 288.287 37.74C287.581 37.4333 286.994 36.98 286.527 36.38L287.927 35.18C288.327 35.6467 288.761 35.9867 289.227 36.2C289.707 36.4 290.247 36.5 290.847 36.5C291.087 36.5 291.307 36.4733 291.507 36.42C291.721 36.3533 291.901 36.26 292.047 36.14C292.207 36.02 292.327 35.88 292.407 35.72C292.487 35.5467 292.527 35.36 292.527 35.16C292.527 34.8133 292.401 34.5333 292.147 34.32C292.014 34.2267 291.801 34.1267 291.507 34.02C291.227 33.9 290.861 33.78 290.407 33.66C289.634 33.46 289.001 33.2333 288.507 32.98C288.014 32.7267 287.634 32.44 287.367 32.12C287.167 31.8667 287.021 31.5933 286.927 31.3C286.834 30.9933 286.787 30.66 286.787 30.3C286.787 29.86 286.881 29.46 287.067 29.1C287.267 28.7267 287.534 28.4067 287.867 28.14C288.214 27.86 288.614 27.6467 289.067 27.5C289.534 27.3533 290.027 27.28 290.547 27.28C291.041 27.28 291.527 27.3467 292.007 27.48C292.501 27.6133 292.954 27.8067 293.367 28.06C293.781 28.3133 294.127 28.6133 294.407 28.96L293.227 30.26C292.974 30.0067 292.694 29.7867 292.387 29.6C292.094 29.4 291.794 29.2467 291.487 29.14C291.181 29.0333 290.901 28.98 290.647 28.98C290.367 28.98 290.114 29.0067 289.887 29.06C289.661 29.1133 289.467 29.1933 289.307 29.3C289.161 29.4067 289.047 29.54 288.967 29.7C288.887 29.86 288.847 30.04 288.847 30.24C288.861 30.4133 288.901 30.58 288.967 30.74C289.047 30.8867 289.154 31.0133 289.287 31.12C289.434 31.2267 289.654 31.34 289.947 31.46C290.241 31.58 290.614 31.6933 291.067 31.8C291.734 31.9733 292.281 32.1667 292.707 32.38C293.147 32.58 293.494 32.8133 293.747 33.08C294.014 33.3333 294.201 33.6267 294.307 33.96C294.414 34.2933 294.467 34.6667 294.467 35.08C294.467 35.68 294.294 36.22 293.947 36.7C293.614 37.1667 293.161 37.5333 292.587 37.8C292.014 38.0667 291.374 38.2 290.667 38.2ZM316.283 38V26.32C316.283 25.72 316.416 25.1867 316.683 24.72C316.95 24.2533 317.316 23.8867 317.783 23.62C318.25 23.3533 318.79 23.22 319.403 23.22C319.83 23.22 320.23 23.3 320.603 23.46C320.976 23.62 321.276 23.8333 321.503 24.1L320.803 25.68C320.63 25.52 320.436 25.3933 320.223 25.3C320.023 25.1933 319.83 25.14 319.643 25.14C319.363 25.14 319.123 25.1867 318.923 25.28C318.736 25.36 318.596 25.4933 318.503 25.68C318.41 25.8533 318.363 26.0667 318.363 26.32V38H317.323C317.15 38 316.976 38 316.803 38C316.63 38 316.456 38 316.283 38ZM314.603 29.58V27.68H320.843V29.58H314.603ZM333.724 38.2C332.697 38.2 331.777 37.9667 330.964 37.5C330.164 37.02 329.531 36.3733 329.064 35.56C328.597 34.7333 328.364 33.7933 328.364 32.74C328.364 31.6867 328.597 30.7533 329.064 29.94C329.531 29.1133 330.164 28.4667 330.964 28C331.777 27.52 332.697 27.28 333.724 27.28C334.737 27.28 335.644 27.52 336.444 28C337.257 28.4667 337.897 29.1133 338.364 29.94C338.831 30.7533 339.064 31.6867 339.064 32.74C339.064 33.7933 338.831 34.7333 338.364 35.56C337.897 36.3733 337.257 37.02 336.444 37.5C335.644 37.9667 334.737 38.2 333.724 38.2ZM333.724 36.32C334.351 36.32 334.911 36.1667 335.404 35.86C335.897 35.54 336.284 35.1133 336.564 34.58C336.844 34.0333 336.977 33.42 336.964 32.74C336.977 32.0467 336.844 31.4333 336.564 30.9C336.284 30.3533 335.897 29.9267 335.404 29.62C334.911 29.3133 334.351 29.16 333.724 29.16C333.097 29.16 332.531 29.32 332.024 29.64C331.531 29.9467 331.144 30.3733 330.864 30.92C330.584 31.4533 330.451 32.06 330.464 32.74C330.451 33.42 330.584 34.0333 330.864 34.58C331.144 35.1133 331.531 35.54 332.024 35.86C332.531 36.1667 333.097 36.32 333.724 36.32ZM347.709 38V27.5H349.789V30.8L349.589 30C349.735 29.4933 349.982 29.0333 350.329 28.62C350.689 28.2067 351.095 27.88 351.549 27.64C352.015 27.4 352.495 27.28 352.989 27.28C353.215 27.28 353.429 27.3 353.629 27.34C353.842 27.38 354.009 27.4267 354.129 27.48L353.589 29.72C353.429 29.6533 353.249 29.6 353.049 29.56C352.862 29.5067 352.675 29.48 352.489 29.48C352.129 29.48 351.782 29.5533 351.449 29.7C351.129 29.8333 350.842 30.0267 350.589 30.28C350.349 30.52 350.155 30.8067 350.009 31.14C349.862 31.46 349.789 31.8133 349.789 32.2V38H347.709ZM374.181 38V27.5H376.261V30.8L376.061 30C376.207 29.4933 376.454 29.0333 376.801 28.62C377.161 28.2067 377.567 27.88 378.021 27.64C378.487 27.4 378.967 27.28 379.461 27.28C379.687 27.28 379.901 27.3 380.101 27.34C380.314 27.38 380.481 27.4267 380.601 27.48L380.061 29.72C379.901 29.6533 379.721 29.6 379.521 29.56C379.334 29.5067 379.147 29.48 378.961 29.48C378.601 29.48 378.254 29.5533 377.921 29.7C377.601 29.8333 377.314 30.0267 377.061 30.28C376.821 30.52 376.627 30.8067 376.481 31.14C376.334 31.46 376.261 31.8133 376.261 32.2V38H374.181ZM393.098 38.2C392.018 38.2 391.058 37.9733 390.218 37.52C389.391 37.0533 388.738 36.42 388.258 35.62C387.791 34.82 387.558 33.9 387.558 32.86C387.558 32.0333 387.691 31.28 387.958 30.6C388.224 29.92 388.591 29.3333 389.058 28.84C389.538 28.3333 390.104 27.9467 390.758 27.68C391.424 27.4 392.144 27.26 392.918 27.26C393.598 27.26 394.231 27.3933 394.818 27.66C395.404 27.9133 395.911 28.2667 396.338 28.72C396.778 29.1733 397.111 29.7133 397.338 30.34C397.578 30.9533 397.691 31.6267 397.678 32.36L397.658 33.24H389.078L388.618 31.6H395.878L395.578 31.94V31.46C395.538 31.02 395.391 30.6267 395.138 30.28C394.884 29.9333 394.564 29.66 394.178 29.46C393.791 29.26 393.371 29.16 392.918 29.16C392.198 29.16 391.591 29.3 391.098 29.58C390.604 29.8467 390.231 30.2467 389.978 30.78C389.724 31.3 389.598 31.9467 389.598 32.72C389.598 33.4533 389.751 34.0933 390.058 34.64C390.364 35.1733 390.798 35.5867 391.358 35.88C391.918 36.1733 392.564 36.32 393.298 36.32C393.818 36.32 394.298 36.2333 394.738 36.06C395.191 35.8867 395.678 35.5733 396.198 35.12L397.238 36.58C396.918 36.9 396.524 37.18 396.058 37.42C395.604 37.66 395.118 37.8533 394.598 38C394.091 38.1333 393.591 38.2 393.098 38.2ZM410.357 38.2C409.49 38.2 408.697 37.96 407.977 37.48C407.27 37 406.703 36.3467 406.277 35.52C405.85 34.6933 405.637 33.76 405.637 32.72C405.637 31.6667 405.85 30.7333 406.277 29.92C406.717 29.0933 407.303 28.4467 408.037 27.98C408.783 27.5133 409.617 27.28 410.537 27.28C411.083 27.28 411.583 27.36 412.037 27.52C412.49 27.68 412.883 27.9067 413.217 28.2C413.563 28.48 413.843 28.8067 414.057 29.18C414.283 29.5533 414.423 29.9533 414.477 30.38L414.017 30.22V27.5H416.097V38H414.017V35.5L414.497 35.36C414.417 35.72 414.25 36.0733 413.997 36.42C413.757 36.7533 413.443 37.0533 413.057 37.32C412.683 37.5867 412.263 37.8 411.797 37.96C411.343 38.12 410.863 38.2 410.357 38.2ZM410.897 36.3C411.523 36.3 412.077 36.1467 412.557 35.84C413.037 35.5333 413.41 35.1133 413.677 34.58C413.957 34.0333 414.097 33.4133 414.097 32.72C414.097 32.04 413.957 31.4333 413.677 30.9C413.41 30.3667 413.037 29.9467 412.557 29.64C412.077 29.3333 411.523 29.18 410.897 29.18C410.283 29.18 409.737 29.3333 409.257 29.64C408.79 29.9467 408.417 30.3667 408.137 30.9C407.87 31.4333 407.737 32.04 407.737 32.72C407.737 33.4133 407.87 34.0333 408.137 34.58C408.417 35.1133 408.79 35.5333 409.257 35.84C409.737 36.1467 410.283 36.3 410.897 36.3ZM425.413 38V23.2H427.473V38H425.413ZM436.412 33.3V31.26H442.172V33.3H436.412ZM453.643 38L450.063 27.5L452.143 27.48L454.703 35.34L454.243 35.3L457.023 29.16H458.263L461.063 35.32L460.523 35.36L463.103 27.5H465.183L461.643 38H460.223L457.303 31.32L457.763 31.38L455.043 38H453.643ZM477.887 38.2C476.86 38.2 475.94 37.9667 475.127 37.5C474.327 37.02 473.693 36.3733 473.227 35.56C472.76 34.7333 472.527 33.7933 472.527 32.74C472.527 31.6867 472.76 30.7533 473.227 29.94C473.693 29.1133 474.327 28.4667 475.127 28C475.94 27.52 476.86 27.28 477.887 27.28C478.9 27.28 479.807 27.52 480.607 28C481.42 28.4667 482.06 29.1133 482.527 29.94C482.993 30.7533 483.227 31.6867 483.227 32.74C483.227 33.7933 482.993 34.7333 482.527 35.56C482.06 36.3733 481.42 37.02 480.607 37.5C479.807 37.9667 478.9 38.2 477.887 38.2ZM477.887 36.32C478.513 36.32 479.073 36.1667 479.567 35.86C480.06 35.54 480.447 35.1133 480.727 34.58C481.007 34.0333 481.14 33.42 481.127 32.74C481.14 32.0467 481.007 31.4333 480.727 30.9C480.447 30.3533 480.06 29.9267 479.567 29.62C479.073 29.3133 478.513 29.16 477.887 29.16C477.26 29.16 476.693 29.32 476.187 29.64C475.693 29.9467 475.307 30.3733 475.027 30.92C474.747 31.4533 474.613 32.06 474.627 32.74C474.613 33.42 474.747 34.0333 475.027 34.58C475.307 35.1133 475.693 35.54 476.187 35.86C476.693 36.1667 477.26 36.32 477.887 36.32ZM491.871 38V27.5H493.951V30.8L493.751 30C493.898 29.4933 494.145 29.0333 494.491 28.62C494.851 28.2067 495.258 27.88 495.711 27.64C496.178 27.4 496.658 27.28 497.151 27.28C497.378 27.28 497.591 27.3 497.791 27.34C498.005 27.38 498.171 27.4267 498.291 27.48L497.751 29.72C497.591 29.6533 497.411 29.6 497.211 29.56C497.025 29.5067 496.838 29.48 496.651 29.48C496.291 29.48 495.945 29.5533 495.611 29.7C495.291 29.8333 495.005 30.0267 494.751 30.28C494.511 30.52 494.318 30.8067 494.171 31.14C494.025 31.46 493.951 31.8133 493.951 32.2V38H491.871ZM506.378 38V23.2H508.438V38H506.378ZM521.942 38.2C520.982 38.2 520.122 37.9667 519.362 37.5C518.615 37.02 518.022 36.3733 517.582 35.56C517.142 34.7333 516.922 33.7933 516.922 32.74C516.922 31.6867 517.135 30.7533 517.562 29.94C518.002 29.1133 518.595 28.4667 519.342 28C520.089 27.52 520.935 27.28 521.882 27.28C522.402 27.28 522.902 27.3667 523.382 27.54C523.875 27.7 524.315 27.9267 524.702 28.22C525.089 28.5 525.389 28.8133 525.602 29.16C525.829 29.4933 525.942 29.8333 525.942 30.18L525.342 30.22V23.2H527.402V38H525.342V35.5H525.742C525.742 35.82 525.635 36.14 525.422 36.46C525.209 36.7667 524.922 37.0533 524.562 37.32C524.215 37.5867 523.809 37.8 523.342 37.96C522.889 38.12 522.422 38.2 521.942 38.2ZM522.222 36.42C522.849 36.42 523.402 36.26 523.882 35.94C524.362 35.62 524.735 35.1867 525.002 34.64C525.282 34.08 525.422 33.4467 525.422 32.74C525.422 32.0333 525.282 31.4067 525.002 30.86C524.735 30.3 524.362 29.86 523.882 29.54C523.402 29.22 522.849 29.06 522.222 29.06C521.595 29.06 521.042 29.22 520.562 29.54C520.082 29.86 519.702 30.3 519.422 30.86C519.155 31.4067 519.022 32.0333 519.022 32.74C519.022 33.4467 519.155 34.08 519.422 34.64C519.702 35.1867 520.082 35.62 520.562 35.94C521.042 36.26 521.595 36.42 522.222 36.42ZM552.683 38.2C551.816 38.2 551.023 37.96 550.303 37.48C549.596 37 549.03 36.3467 548.603 35.52C548.176 34.6933 547.963 33.76 547.963 32.72C547.963 31.6667 548.176 30.7333 548.603 29.92C549.043 29.0933 549.63 28.4467 550.363 27.98C551.11 27.5133 551.943 27.28 552.863 27.28C553.41 27.28 553.91 27.36 554.363 27.52C554.816 27.68 555.21 27.9067 555.543 28.2C555.89 28.48 556.17 28.8067 556.383 29.18C556.61 29.5533 556.75 29.9533 556.803 30.38L556.343 30.22V27.5H558.423V38H556.343V35.5L556.823 35.36C556.743 35.72 556.576 36.0733 556.323 36.42C556.083 36.7533 555.77 37.0533 555.383 37.32C555.01 37.5867 554.59 37.8 554.123 37.96C553.67 38.12 553.19 38.2 552.683 38.2ZM553.223 36.3C553.85 36.3 554.403 36.1467 554.883 35.84C555.363 35.5333 555.736 35.1133 556.003 34.58C556.283 34.0333 556.423 33.4133 556.423 32.72C556.423 32.04 556.283 31.4333 556.003 30.9C555.736 30.3667 555.363 29.9467 554.883 29.64C554.403 29.3333 553.85 29.18 553.223 29.18C552.61 29.18 552.063 29.3333 551.583 29.64C551.116 29.9467 550.743 30.3667 550.463 30.9C550.196 31.4333 550.063 32.04 550.063 32.72C550.063 33.4133 550.196 34.0333 550.463 34.58C550.743 35.1133 551.116 35.5333 551.583 35.84C552.063 36.1467 552.61 36.3 553.223 36.3ZM567.699 42.4V27.5H569.779V29.9L569.459 29.72C569.539 29.32 569.766 28.94 570.139 28.58C570.513 28.2067 570.966 27.9067 571.499 27.68C572.046 27.44 572.606 27.32 573.179 27.32C574.126 27.32 574.966 27.5533 575.699 28.02C576.433 28.4867 577.013 29.1267 577.439 29.94C577.866 30.7533 578.079 31.6867 578.079 32.74C578.079 33.78 577.866 34.7133 577.439 35.54C577.026 36.3533 576.453 37 575.719 37.48C574.986 37.9467 574.159 38.18 573.239 38.18C572.626 38.18 572.033 38.06 571.459 37.82C570.886 37.5667 570.399 37.2467 569.999 36.86C569.599 36.4733 569.353 36.0733 569.259 35.66L569.779 35.38V42.4H567.699ZM572.899 36.28C573.513 36.28 574.059 36.1267 574.539 35.82C575.019 35.5133 575.399 35.0933 575.679 34.56C575.959 34.0267 576.099 33.42 576.099 32.74C576.099 32.06 575.959 31.46 575.679 30.94C575.413 30.4067 575.039 29.9867 574.559 29.68C574.079 29.3733 573.526 29.22 572.899 29.22C572.273 29.22 571.719 29.3733 571.239 29.68C570.759 29.9733 570.379 30.3867 570.099 30.92C569.819 31.4533 569.679 32.06 569.679 32.74C569.679 33.42 569.819 34.0267 570.099 34.56C570.379 35.0933 570.759 35.5133 571.239 35.82C571.719 36.1267 572.273 36.28 572.899 36.28ZM586.717 42.4V27.5H588.797V29.9L588.477 29.72C588.557 29.32 588.783 28.94 589.157 28.58C589.53 28.2067 589.983 27.9067 590.517 27.68C591.063 27.44 591.623 27.32 592.197 27.32C593.143 27.32 593.983 27.5533 594.717 28.02C595.45 28.4867 596.03 29.1267 596.457 29.94C596.883 30.7533 597.097 31.6867 597.097 32.74C597.097 33.78 596.883 34.7133 596.457 35.54C596.043 36.3533 595.47 37 594.737 37.48C594.003 37.9467 593.177 38.18 592.257 38.18C591.643 38.18 591.05 38.06 590.477 37.82C589.903 37.5667 589.417 37.2467 589.017 36.86C588.617 36.4733 588.37 36.0733 588.277 35.66L588.797 35.38V42.4H586.717ZM591.917 36.28C592.53 36.28 593.077 36.1267 593.557 35.82C594.037 35.5133 594.417 35.0933 594.697 34.56C594.977 34.0267 595.117 33.42 595.117 32.74C595.117 32.06 594.977 31.46 594.697 30.94C594.43 30.4067 594.057 29.9867 593.577 29.68C593.097 29.3733 592.543 29.22 591.917 29.22C591.29 29.22 590.737 29.3733 590.257 29.68C589.777 29.9733 589.397 30.3867 589.117 30.92C588.837 31.4533 588.697 32.06 588.697 32.74C588.697 33.42 588.837 34.0267 589.117 34.56C589.397 35.0933 589.777 35.5133 590.257 35.82C590.737 36.1267 591.29 36.28 591.917 36.28ZM605.774 38V23.2H607.834V38H605.774ZM617.493 38V27.5H619.553V38H617.493ZM618.493 25.18C618.053 25.18 617.713 25.0667 617.473 24.84C617.233 24.6133 617.113 24.2933 617.113 23.88C617.113 23.4933 617.233 23.18 617.473 22.94C617.727 22.7 618.067 22.58 618.493 22.58C618.933 22.58 619.273 22.6933 619.513 22.92C619.753 23.1467 619.873 23.4667 619.873 23.88C619.873 24.2667 619.747 24.58 619.493 24.82C619.253 25.06 618.92 25.18 618.493 25.18ZM633.58 38.2C632.606 38.2 631.733 37.96 630.96 37.48C630.2 37 629.593 36.3467 629.14 35.52C628.7 34.6933 628.48 33.7667 628.48 32.74C628.48 31.7133 628.7 30.7867 629.14 29.96C629.593 29.1333 630.2 28.48 630.96 28C631.733 27.52 632.606 27.28 633.58 27.28C634.513 27.28 635.36 27.4733 636.12 27.86C636.893 28.2333 637.48 28.7467 637.88 29.4L636.74 30.8C636.526 30.4933 636.253 30.2133 635.92 29.96C635.586 29.7067 635.233 29.5067 634.86 29.36C634.486 29.2133 634.126 29.14 633.78 29.14C633.14 29.14 632.566 29.3 632.06 29.62C631.566 29.9267 631.173 30.3533 630.88 30.9C630.586 31.4467 630.44 32.06 630.44 32.74C630.44 33.42 630.593 34.0333 630.9 34.58C631.206 35.1133 631.613 35.54 632.12 35.86C632.626 36.18 633.186 36.34 633.8 36.34C634.16 36.34 634.506 36.28 634.84 36.16C635.186 36.04 635.52 35.86 635.84 35.62C636.16 35.38 636.46 35.0867 636.74 34.74L637.88 36.14C637.453 36.74 636.84 37.2333 636.04 37.62C635.253 38.0067 634.433 38.2 633.58 38.2ZM650.263 38.2C649.396 38.2 648.603 37.96 647.883 37.48C647.176 37 646.61 36.3467 646.183 35.52C645.756 34.6933 645.543 33.76 645.543 32.72C645.543 31.6667 645.756 30.7333 646.183 29.92C646.623 29.0933 647.21 28.4467 647.943 27.98C648.69 27.5133 649.523 27.28 650.443 27.28C650.99 27.28 651.49 27.36 651.943 27.52C652.396 27.68 652.79 27.9067 653.123 28.2C653.47 28.48 653.75 28.8067 653.963 29.18C654.19 29.5533 654.33 29.9533 654.383 30.38L653.923 30.22V27.5H656.003V38H653.923V35.5L654.403 35.36C654.323 35.72 654.156 36.0733 653.903 36.42C653.663 36.7533 653.35 37.0533 652.963 37.32C652.59 37.5867 652.17 37.8 651.703 37.96C651.25 38.12 650.77 38.2 650.263 38.2ZM650.803 36.3C651.43 36.3 651.983 36.1467 652.463 35.84C652.943 35.5333 653.316 35.1133 653.583 34.58C653.863 34.0333 654.003 33.4133 654.003 32.72C654.003 32.04 653.863 31.4333 653.583 30.9C653.316 30.3667 652.943 29.9467 652.463 29.64C651.983 29.3333 651.43 29.18 650.803 29.18C650.19 29.18 649.643 29.3333 649.163 29.64C648.696 29.9467 648.323 30.3667 648.043 30.9C647.776 31.4333 647.643 32.04 647.643 32.72C647.643 33.4133 647.776 34.0333 648.043 34.58C648.323 35.1133 648.696 35.5333 649.163 35.84C649.643 36.1467 650.19 36.3 650.803 36.3ZM666.579 38V24.82H668.639V38H666.579ZM664.399 29.5V27.5H671.079V29.5H664.399ZM679.695 38V27.5H681.755V38H679.695ZM680.695 25.18C680.255 25.18 679.915 25.0667 679.675 24.84C679.435 24.6133 679.315 24.2933 679.315 23.88C679.315 23.4933 679.435 23.18 679.675 22.94C679.928 22.7 680.268 22.58 680.695 22.58C681.135 22.58 681.475 22.6933 681.715 22.92C681.955 23.1467 682.075 23.4667 682.075 23.88C682.075 24.2667 681.948 24.58 681.695 24.82C681.455 25.06 681.122 25.18 680.695 25.18ZM696.041 38.2C695.015 38.2 694.095 37.9667 693.281 37.5C692.481 37.02 691.848 36.3733 691.381 35.56C690.915 34.7333 690.681 33.7933 690.681 32.74C690.681 31.6867 690.915 30.7533 691.381 29.94C691.848 29.1133 692.481 28.4667 693.281 28C694.095 27.52 695.015 27.28 696.041 27.28C697.055 27.28 697.961 27.52 698.761 28C699.575 28.4667 700.215 29.1133 700.681 29.94C701.148 30.7533 701.381 31.6867 701.381 32.74C701.381 33.7933 701.148 34.7333 700.681 35.56C700.215 36.3733 699.575 37.02 698.761 37.5C697.961 37.9667 697.055 38.2 696.041 38.2ZM696.041 36.32C696.668 36.32 697.228 36.1667 697.721 35.86C698.215 35.54 698.601 35.1133 698.881 34.58C699.161 34.0333 699.295 33.42 699.281 32.74C699.295 32.0467 699.161 31.4333 698.881 30.9C698.601 30.3533 698.215 29.9267 697.721 29.62C697.228 29.3133 696.668 29.16 696.041 29.16C695.415 29.16 694.848 29.32 694.341 29.64C693.848 29.9467 693.461 30.3733 693.181 30.92C692.901 31.4533 692.768 32.06 692.781 32.74C692.768 33.42 692.901 34.0333 693.181 34.58C693.461 35.1133 693.848 35.54 694.341 35.86C694.848 36.1667 695.415 36.32 696.041 36.32ZM710.026 38V27.5H712.086V29.66L711.726 29.9C711.859 29.4333 712.119 29.0067 712.506 28.62C712.893 28.22 713.353 27.9 713.886 27.66C714.419 27.4067 714.966 27.28 715.526 27.28C716.326 27.28 716.993 27.44 717.526 27.76C718.059 28.0667 718.459 28.54 718.726 29.18C718.993 29.82 719.126 30.6267 719.126 31.6V38H717.066V31.74C717.066 31.14 716.986 30.6467 716.826 30.26C716.666 29.86 716.419 29.5733 716.086 29.4C715.753 29.2133 715.339 29.1333 714.846 29.16C714.446 29.16 714.079 29.2267 713.746 29.36C713.413 29.48 713.119 29.6533 712.866 29.88C712.626 30.1067 712.433 30.3733 712.286 30.68C712.153 30.9733 712.086 31.2933 712.086 31.64V38H711.066C710.893 38 710.719 38 710.546 38C710.373 38 710.199 38 710.026 38ZM731.82 38.2C730.94 38.2 730.147 38.0467 729.44 37.74C728.734 37.4333 728.147 36.98 727.68 36.38L729.08 35.18C729.48 35.6467 729.914 35.9867 730.38 36.2C730.86 36.4 731.4 36.5 732 36.5C732.24 36.5 732.46 36.4733 732.66 36.42C732.874 36.3533 733.054 36.26 733.2 36.14C733.36 36.02 733.48 35.88 733.56 35.72C733.64 35.5467 733.68 35.36 733.68 35.16C733.68 34.8133 733.554 34.5333 733.3 34.32C733.167 34.2267 732.954 34.1267 732.66 34.02C732.38 33.9 732.014 33.78 731.56 33.66C730.787 33.46 730.154 33.2333 729.66 32.98C729.167 32.7267 728.787 32.44 728.52 32.12C728.32 31.8667 728.174 31.5933 728.08 31.3C727.987 30.9933 727.94 30.66 727.94 30.3C727.94 29.86 728.034 29.46 728.22 29.1C728.42 28.7267 728.687 28.4067 729.02 28.14C729.367 27.86 729.767 27.6467 730.22 27.5C730.687 27.3533 731.18 27.28 731.7 27.28C732.194 27.28 732.68 27.3467 733.16 27.48C733.654 27.6133 734.107 27.8067 734.52 28.06C734.934 28.3133 735.28 28.6133 735.56 28.96L734.38 30.26C734.127 30.0067 733.847 29.7867 733.54 29.6C733.247 29.4 732.947 29.2467 732.64 29.14C732.334 29.0333 732.054 28.98 731.8 28.98C731.52 28.98 731.267 29.0067 731.04 29.06C730.814 29.1133 730.62 29.1933 730.46 29.3C730.314 29.4067 730.2 29.54 730.12 29.7C730.04 29.86 730 30.04 730 30.24C730.014 30.4133 730.054 30.58 730.12 30.74C730.2 30.8867 730.307 31.0133 730.44 31.12C730.587 31.2267 730.807 31.34 731.1 31.46C731.394 31.58 731.767 31.6933 732.22 31.8C732.887 31.9733 733.434 32.1667 733.86 32.38C734.3 32.58 734.647 32.8133 734.9 33.08C735.167 33.3333 735.354 33.6267 735.46 33.96C735.567 34.2933 735.62 34.6667 735.62 35.08C735.62 35.68 735.447 36.22 735.1 36.7C734.767 37.1667 734.314 37.5333 733.74 37.8C733.167 38.0667 732.527 38.2 731.82 38.2ZM745.131 38.22C744.691 38.22 744.351 38.0933 744.111 37.84C743.871 37.5733 743.751 37.2 743.751 36.72C743.751 36.28 743.877 35.92 744.131 35.64C744.384 35.36 744.717 35.22 745.131 35.22C745.571 35.22 745.911 35.3533 746.151 35.62C746.391 35.8733 746.511 36.24 746.511 36.72C746.511 37.16 746.384 37.52 746.131 37.8C745.877 38.08 745.544 38.22 745.131 38.22Z" fill="white"/>
</svg>
