<svg width="352" height="26" viewBox="0 0 352 26" fill="none" xmlns="http://www.w3.org/2000/svg">
<path d="M11.72 25.3C10.04 25.3 8.49 25.03 7.07 24.49C5.67 23.95 4.45 23.2 3.41 22.24C2.39 21.26 1.6 20.1 1.04 18.76C0.48 17.42 0.2 15.95 0.2 14.35C0.2 12.75 0.48 11.28 1.04 9.94C1.62 8.6 2.43 7.45 3.47 6.49C4.51 5.51 5.74 4.75 7.16 4.21C8.6 3.67 10.18 3.4 11.9 3.4C12.88 3.4 13.84 3.52 14.78 3.76C15.74 3.98 16.64 4.33 17.48 4.81C18.34 5.27 19.12 5.86 19.82 6.58L15.95 11.11C15.67 10.77 15.33 10.46 14.93 10.18C14.55 9.9 14.1 9.68 13.58 9.52C13.08 9.34 12.5 9.25 11.84 9.25C11.16 9.25 10.51 9.37 9.89 9.61C9.29 9.83 8.76 10.16 8.3 10.6C7.86 11.04 7.51 11.58 7.25 12.22C6.99 12.86 6.86 13.6 6.86 14.44C6.86 15.2 6.99 15.89 7.25 16.51C7.51 17.13 7.88 17.66 8.36 18.1C8.84 18.54 9.42 18.88 10.1 19.12C10.78 19.36 11.54 19.48 12.38 19.48C12.98 19.48 13.55 19.39 14.09 19.21C14.63 19.03 15.12 18.8 15.56 18.52C16 18.22 16.38 17.89 16.7 17.53L19.79 22.39C19.27 22.95 18.58 23.45 17.72 23.89C16.86 24.33 15.91 24.68 14.87 24.94C13.83 25.18 12.78 25.3 11.72 25.3ZM26.4523 25V8.95H32.0923L32.4523 14.29L31.1023 13.45C31.3623 12.53 31.7723 11.71 32.3323 10.99C32.8923 10.25 33.5623 9.67 34.3423 9.25C35.1423 8.83 35.9923 8.62 36.8923 8.62C37.2523 8.62 37.5923 8.65 37.9123 8.71C38.2323 8.75 38.5423 8.81 38.8423 8.89L37.1623 15.64C36.9623 15.5 36.6423 15.37 36.2023 15.25C35.7823 15.13 35.3223 15.07 34.8223 15.07C34.4623 15.07 34.1323 15.13 33.8323 15.25C33.5523 15.35 33.3123 15.51 33.1123 15.73C32.9323 15.95 32.7923 16.21 32.6923 16.51C32.5923 16.81 32.5423 17.16 32.5423 17.56V25H26.4523ZM52.5434 25.3C50.6834 25.3 49.0834 24.94 47.7434 24.22C46.4034 23.5 45.3734 22.52 44.6534 21.28C43.9334 20.02 43.5734 18.58 43.5734 16.96C43.5734 15.76 43.7734 14.65 44.1734 13.63C44.5734 12.61 45.1334 11.73 45.8534 10.99C46.5934 10.23 47.4534 9.65 48.4334 9.25C49.4334 8.83 50.5234 8.62 51.7034 8.62C52.8834 8.62 53.9534 8.83 54.9134 9.25C55.8934 9.65 56.7334 10.23 57.4334 10.99C58.1334 11.73 58.6634 12.61 59.0234 13.63C59.4034 14.65 59.5734 15.76 59.5334 16.96L59.5034 18.22H46.9334L46.2434 15.37H54.6734L54.1034 15.97V15.43C54.1034 15.05 54.0034 14.72 53.8034 14.44C53.6234 14.14 53.3634 13.91 53.0234 13.75C52.6834 13.59 52.2834 13.51 51.8234 13.51C51.2434 13.51 50.7534 13.63 50.3534 13.87C49.9534 14.11 49.6434 14.45 49.4234 14.89C49.2234 15.33 49.1234 15.86 49.1234 16.48C49.1234 17.2 49.2734 17.83 49.5734 18.37C49.8934 18.91 50.3534 19.33 50.9534 19.63C51.5734 19.93 52.3334 20.08 53.2334 20.08C53.8334 20.08 54.3434 20.01 54.7634 19.87C55.2034 19.71 55.6634 19.46 56.1434 19.12L58.9334 23.05C58.1934 23.63 57.4634 24.08 56.7434 24.4C56.0434 24.72 55.3434 24.95 54.6434 25.09C53.9634 25.23 53.2634 25.3 52.5434 25.3ZM72.2816 25.27C70.9416 25.27 69.7516 24.92 68.7116 24.22C67.6716 23.5 66.8516 22.52 66.2516 21.28C65.6516 20.02 65.3516 18.58 65.3516 16.96C65.3516 15.32 65.6416 13.88 66.2216 12.64C66.8216 11.38 67.6416 10.4 68.6816 9.7C69.7416 8.98 70.9616 8.62 72.3416 8.62C73.0616 8.62 73.7216 8.72 74.3216 8.92C74.9216 9.12 75.4516 9.4 75.9116 9.76C76.3716 10.12 76.7716 10.54 77.1116 11.02C77.4516 11.48 77.7416 11.98 77.9816 12.52L76.7516 12.49V8.95H82.7216V25H76.6016V21.07L77.9516 21.19C77.7516 21.77 77.4716 22.31 77.1116 22.81C76.7716 23.31 76.3616 23.74 75.8816 24.1C75.4016 24.46 74.8616 24.75 74.2616 24.97C73.6616 25.17 73.0016 25.27 72.2816 25.27ZM74.0216 20.32C74.6016 20.32 75.0916 20.19 75.4916 19.93C75.9116 19.67 76.2216 19.29 76.4216 18.79C76.6416 18.29 76.7516 17.68 76.7516 16.96C76.7516 16.24 76.6416 15.63 76.4216 15.13C76.2216 14.61 75.9116 14.22 75.4916 13.96C75.0916 13.7 74.6016 13.57 74.0216 13.57C73.4416 13.57 72.9516 13.7 72.5516 13.96C72.1516 14.22 71.8416 14.61 71.6216 15.13C71.4216 15.63 71.3216 16.24 71.3216 16.96C71.3216 17.68 71.4216 18.29 71.6216 18.79C71.8416 19.29 72.1516 19.67 72.5516 19.93C72.9516 20.19 73.4416 20.32 74.0216 20.32ZM91.9529 25V4.9H98.0429V25H91.9529ZM89.4629 14.05V8.95H100.683V14.05H89.4629ZM107.678 25V8.95H113.768V25H107.678ZM110.738 6.04C109.658 6.04 108.808 5.79 108.188 5.29C107.588 4.79 107.288 4.08 107.288 3.16C107.288 2.32 107.598 1.63 108.218 1.09C108.838 0.549998 109.678 0.279998 110.738 0.279998C111.818 0.279998 112.658 0.529999 113.258 1.03C113.878 1.53 114.188 2.24 114.188 3.16C114.188 4 113.878 4.69 113.258 5.23C112.638 5.77 111.798 6.04 110.738 6.04ZM126.987 25L120.327 8.95H127.107L130.437 20.92H128.817L132.117 8.95H138.897L131.907 25H126.987ZM152.674 25.3C150.814 25.3 149.214 24.94 147.874 24.22C146.534 23.5 145.504 22.52 144.784 21.28C144.064 20.02 143.704 18.58 143.704 16.96C143.704 15.76 143.904 14.65 144.304 13.63C144.704 12.61 145.264 11.73 145.984 10.99C146.724 10.23 147.584 9.65 148.564 9.25C149.564 8.83 150.654 8.62 151.834 8.62C153.014 8.62 154.084 8.83 155.044 9.25C156.024 9.65 156.864 10.23 157.564 10.99C158.264 11.73 158.794 12.61 159.154 13.63C159.534 14.65 159.704 15.76 159.664 16.96L159.634 18.22H147.064L146.374 15.37H154.804L154.234 15.97V15.43C154.234 15.05 154.134 14.72 153.934 14.44C153.754 14.14 153.494 13.91 153.154 13.75C152.814 13.59 152.414 13.51 151.954 13.51C151.374 13.51 150.884 13.63 150.484 13.87C150.084 14.11 149.774 14.45 149.554 14.89C149.354 15.33 149.254 15.86 149.254 16.48C149.254 17.2 149.404 17.83 149.704 18.37C150.024 18.91 150.484 19.33 151.084 19.63C151.704 19.93 152.464 20.08 153.364 20.08C153.964 20.08 154.474 20.01 154.894 19.87C155.334 19.71 155.794 19.46 156.274 19.12L159.064 23.05C158.324 23.63 157.594 24.08 156.874 24.4C156.174 24.72 155.474 24.95 154.774 25.09C154.094 25.23 153.394 25.3 152.674 25.3ZM172.172 25.3C170.432 25.3 168.912 25.04 167.612 24.52C166.332 23.98 165.332 23.31 164.612 22.51L168.152 19.48C168.792 20.04 169.522 20.46 170.342 20.74C171.182 21 171.882 21.13 172.442 21.13C172.642 21.13 172.812 21.12 172.952 21.1C173.112 21.06 173.232 21.01 173.312 20.95C173.412 20.87 173.482 20.79 173.522 20.71C173.582 20.63 173.612 20.53 173.612 20.41C173.612 20.11 173.452 19.89 173.132 19.75C172.952 19.67 172.652 19.57 172.232 19.45C171.832 19.33 171.302 19.19 170.642 19.03C169.862 18.83 169.142 18.58 168.482 18.28C167.842 17.98 167.292 17.63 166.832 17.23C166.352 16.79 165.972 16.29 165.692 15.73C165.432 15.17 165.302 14.54 165.302 13.84C165.302 13.02 165.492 12.29 165.872 11.65C166.252 11.01 166.772 10.47 167.432 10.03C168.092 9.57 168.832 9.22 169.652 8.98C170.472 8.74 171.312 8.62 172.172 8.62C173.152 8.62 174.062 8.72 174.902 8.92C175.762 9.1 176.562 9.37 177.302 9.73C178.062 10.07 178.752 10.48 179.372 10.96L176.282 14.41C175.942 14.13 175.542 13.86 175.082 13.6C174.642 13.34 174.172 13.13 173.672 12.97C173.192 12.79 172.742 12.7 172.322 12.7C172.102 12.7 171.912 12.72 171.752 12.76C171.612 12.78 171.492 12.83 171.392 12.91C171.292 12.97 171.212 13.05 171.152 13.15C171.112 13.23 171.092 13.33 171.092 13.45C171.092 13.61 171.142 13.76 171.242 13.9C171.342 14.04 171.502 14.16 171.722 14.26C171.902 14.34 172.202 14.45 172.622 14.59C173.062 14.73 173.702 14.92 174.542 15.16C175.442 15.42 176.232 15.72 176.912 16.06C177.612 16.4 178.172 16.8 178.592 17.26C178.872 17.58 179.092 17.94 179.252 18.34C179.412 18.74 179.492 19.17 179.492 19.63C179.492 20.73 179.172 21.71 178.532 22.57C177.912 23.41 177.052 24.08 175.952 24.58C174.852 25.06 173.592 25.3 172.172 25.3ZM216.166 25L214.576 23.38L211.756 20.86L207.946 16.99C206.946 15.97 206.146 15.08 205.546 14.32C204.966 13.54 204.536 12.85 204.256 12.25C203.976 11.65 203.786 11.11 203.686 10.63C203.606 10.13 203.566 9.67 203.566 9.25C203.566 8.13 203.866 7.13 204.466 6.25C205.066 5.37 205.896 4.68 206.956 4.18C208.036 3.66 209.276 3.4 210.676 3.4C211.756 3.4 212.776 3.57 213.736 3.91C214.696 4.23 215.516 4.69 216.196 5.29C216.896 5.89 217.386 6.6 217.666 7.42L212.776 10.24C212.476 9.5 212.186 9.03 211.906 8.83C211.626 8.61 211.306 8.5 210.946 8.5C210.666 8.5 210.416 8.55 210.196 8.65C209.976 8.75 209.806 8.9 209.686 9.1C209.566 9.3 209.506 9.54 209.506 9.82C209.506 10.18 209.686 10.64 210.046 11.2C210.406 11.76 210.866 12.36 211.426 13C211.986 13.62 212.556 14.22 213.136 14.8C213.716 15.38 214.226 15.88 214.666 16.3L215.476 17.08L218.446 19.66L223.546 25H216.166ZM208.936 25.3C207.256 25.3 205.756 25 204.436 24.4C203.116 23.8 202.076 22.97 201.316 21.91C200.556 20.85 200.176 19.65 200.176 18.31C200.176 16.95 200.586 15.69 201.406 14.53C202.246 13.35 203.496 12.46 205.156 11.86L208.936 15.22C207.956 15.44 207.196 15.8 206.656 16.3C206.136 16.78 205.876 17.36 205.876 18.04C205.876 18.6 206.006 19.08 206.266 19.48C206.546 19.86 206.946 20.15 207.466 20.35C207.986 20.55 208.616 20.65 209.356 20.65C210.076 20.65 210.756 20.5 211.396 20.2C212.056 19.88 212.636 19.44 213.136 18.88C213.636 18.32 214.036 17.65 214.336 16.87C214.656 16.07 214.846 15.19 214.906 14.23H220.666C220.486 15.55 220.156 16.78 219.676 17.92C219.216 19.04 218.626 20.06 217.906 20.98C217.206 21.88 216.386 22.66 215.446 23.32C214.526 23.96 213.516 24.45 212.416 24.79C211.336 25.13 210.176 25.3 208.936 25.3ZM244.075 25V4H249.655L257.305 16.45L252.775 16.42L260.515 4H265.915V25H259.675V19.99C259.675 18.19 259.715 16.57 259.795 15.13C259.895 13.69 260.055 12.26 260.275 10.84L260.995 12.73L255.925 20.59H253.945L248.965 12.73L249.715 10.84C249.935 12.18 250.085 13.56 250.165 14.98C250.265 16.38 250.315 18.05 250.315 19.99V25H244.075ZM282.376 25.3C280.516 25.3 278.916 24.94 277.576 24.22C276.236 23.5 275.206 22.52 274.486 21.28C273.766 20.02 273.406 18.58 273.406 16.96C273.406 15.76 273.606 14.65 274.006 13.63C274.406 12.61 274.966 11.73 275.686 10.99C276.426 10.23 277.286 9.65 278.266 9.25C279.266 8.83 280.356 8.62 281.536 8.62C282.716 8.62 283.786 8.83 284.746 9.25C285.726 9.65 286.566 10.23 287.266 10.99C287.966 11.73 288.496 12.61 288.856 13.63C289.236 14.65 289.406 15.76 289.366 16.96L289.336 18.22H276.766L276.076 15.37H284.506L283.936 15.97V15.43C283.936 15.05 283.836 14.72 283.636 14.44C283.456 14.14 283.196 13.91 282.856 13.75C282.516 13.59 282.116 13.51 281.656 13.51C281.076 13.51 280.586 13.63 280.186 13.87C279.786 14.11 279.476 14.45 279.256 14.89C279.056 15.33 278.956 15.86 278.956 16.48C278.956 17.2 279.106 17.83 279.406 18.37C279.726 18.91 280.186 19.33 280.786 19.63C281.406 19.93 282.166 20.08 283.066 20.08C283.666 20.08 284.176 20.01 284.596 19.87C285.036 19.71 285.496 19.46 285.976 19.12L288.766 23.05C288.026 23.63 287.296 24.08 286.576 24.4C285.876 24.72 285.176 24.95 284.476 25.09C283.796 25.23 283.096 25.3 282.376 25.3ZM302.024 25.33C300.704 25.33 299.524 24.98 298.484 24.28C297.464 23.56 296.654 22.58 296.054 21.34C295.474 20.08 295.184 18.63 295.184 16.99C295.184 15.37 295.484 13.93 296.084 12.67C296.684 11.41 297.504 10.42 298.544 9.7C299.604 8.98 300.814 8.62 302.174 8.62C302.854 8.62 303.504 8.72 304.124 8.92C304.744 9.1 305.304 9.37 305.804 9.73C306.304 10.07 306.724 10.48 307.064 10.96C307.424 11.42 307.664 11.92 307.784 12.46L306.434 12.88V2.8H312.554V25H307.064L306.584 21.46L307.814 21.73C307.714 22.25 307.494 22.73 307.154 23.17C306.814 23.61 306.384 23.99 305.864 24.31C305.364 24.63 304.784 24.88 304.124 25.06C303.464 25.24 302.764 25.33 302.024 25.33ZM303.854 20.38C304.434 20.38 304.924 20.25 305.324 19.99C305.744 19.71 306.054 19.32 306.254 18.82C306.474 18.32 306.584 17.71 306.584 16.99C306.584 16.27 306.474 15.66 306.254 15.16C306.054 14.64 305.744 14.25 305.324 13.99C304.924 13.73 304.434 13.6 303.854 13.6C303.274 13.6 302.784 13.73 302.384 13.99C301.984 14.25 301.674 14.64 301.454 15.16C301.254 15.66 301.154 16.27 301.154 16.99C301.154 17.71 301.254 18.32 301.454 18.82C301.674 19.32 301.984 19.71 302.384 19.99C302.784 20.25 303.274 20.38 303.854 20.38ZM320.743 25V8.95H326.833V25H320.743ZM323.803 6.04C322.723 6.04 321.873 5.79 321.253 5.29C320.653 4.79 320.353 4.08 320.353 3.16C320.353 2.32 320.663 1.63 321.283 1.09C321.903 0.549998 322.743 0.279998 323.803 0.279998C324.883 0.279998 325.723 0.529999 326.323 1.03C326.943 1.53 327.253 2.24 327.253 3.16C327.253 4 326.943 4.69 326.323 5.23C325.703 5.77 324.863 6.04 323.803 6.04ZM341.071 25.27C339.731 25.27 338.541 24.92 337.501 24.22C336.461 23.5 335.641 22.52 335.041 21.28C334.441 20.02 334.141 18.58 334.141 16.96C334.141 15.32 334.431 13.88 335.011 12.64C335.611 11.38 336.431 10.4 337.471 9.7C338.531 8.98 339.751 8.62 341.131 8.62C341.851 8.62 342.511 8.72 343.111 8.92C343.711 9.12 344.241 9.4 344.701 9.76C345.161 10.12 345.561 10.54 345.901 11.02C346.241 11.48 346.531 11.98 346.771 12.52L345.541 12.49V8.95H351.511V25H345.391V21.07L346.741 21.19C346.541 21.77 346.261 22.31 345.901 22.81C345.561 23.31 345.151 23.74 344.671 24.1C344.191 24.46 343.651 24.75 343.051 24.97C342.451 25.17 341.791 25.27 341.071 25.27ZM342.811 20.32C343.391 20.32 343.881 20.19 344.281 19.93C344.701 19.67 345.011 19.29 345.211 18.79C345.431 18.29 345.541 17.68 345.541 16.96C345.541 16.24 345.431 15.63 345.211 15.13C345.011 14.61 344.701 14.22 344.281 13.96C343.881 13.7 343.391 13.57 342.811 13.57C342.231 13.57 341.741 13.7 341.341 13.96C340.941 14.22 340.631 14.61 340.411 15.13C340.211 15.63 340.111 16.24 340.111 16.96C340.111 17.68 340.211 18.29 340.411 18.79C340.631 19.29 340.941 19.67 341.341 19.93C341.741 20.19 342.231 20.32 342.811 20.32Z" fill="white"/>
</svg>
