<svg width="712" height="43" viewBox="0 0 712 43" fill="none" xmlns="http://www.w3.org/2000/svg">
<path d="M0.96 16V2H6.44C7.44 2 8.34 2.16667 9.14 2.5C9.95333 2.83333 10.6467 3.31333 11.22 3.94C11.7933 4.56667 12.2333 5.30667 12.54 6.16C12.8467 7.01333 13 7.96 13 9C13 10.04 12.8467 10.9933 12.54 11.86C12.2333 12.7133 11.7933 13.4533 11.22 14.08C10.66 14.6933 9.97333 15.1667 9.16 15.5C8.34667 15.8333 7.44 16 6.44 16H0.96ZM3.12 14.14L3.06 13.92H6.34C7.04667 13.92 7.67333 13.8067 8.22 13.58C8.78 13.3533 9.24667 13.0333 9.62 12.62C10.0067 12.1933 10.3 11.6733 10.5 11.06C10.7 10.4467 10.8 9.76 10.8 9C10.8 8.24 10.7 7.56 10.5 6.96C10.3 6.34667 10.0067 5.82667 9.62 5.4C9.23333 4.97333 8.76667 4.64667 8.22 4.42C7.67333 4.19333 7.04667 4.08 6.34 4.08H3L3.12 3.9V14.14ZM26.7009 16.2C25.6209 16.2 24.6609 15.9733 23.8209 15.52C22.9943 15.0533 22.3409 14.42 21.8609 13.62C21.3943 12.82 21.1609 11.9 21.1609 10.86C21.1609 10.0333 21.2943 9.28 21.5609 8.6C21.8276 7.92 22.1943 7.33333 22.6609 6.84C23.1409 6.33333 23.7076 5.94667 24.3609 5.68C25.0276 5.4 25.7476 5.26 26.5209 5.26C27.2009 5.26 27.8343 5.39333 28.4209 5.66C29.0076 5.91333 29.5143 6.26667 29.9409 6.72C30.3809 7.17333 30.7143 7.71333 30.9409 8.34C31.1809 8.95333 31.2943 9.62667 31.2809 10.36L31.2609 11.24H22.6809L22.2209 9.6H29.4809L29.1809 9.94V9.46C29.1409 9.02 28.9943 8.62667 28.7409 8.28C28.4876 7.93333 28.1676 7.66 27.7809 7.46C27.3943 7.26 26.9743 7.16 26.5209 7.16C25.8009 7.16 25.1943 7.3 24.7009 7.58C24.2076 7.84667 23.8343 8.24667 23.5809 8.78C23.3276 9.3 23.2009 9.94667 23.2009 10.72C23.2009 11.4533 23.3543 12.0933 23.6609 12.64C23.9676 13.1733 24.4009 13.5867 24.9609 13.88C25.5209 14.1733 26.1676 14.32 26.9009 14.32C27.4209 14.32 27.9009 14.2333 28.3409 14.06C28.7943 13.8867 29.2809 13.5733 29.8009 13.12L30.8409 14.58C30.5209 14.9 30.1276 15.18 29.6609 15.42C29.2076 15.66 28.7209 15.8533 28.2009 16C27.6943 16.1333 27.1943 16.2 26.7009 16.2ZM43.4197 16.2C42.5397 16.2 41.7464 16.0467 41.0397 15.74C40.333 15.4333 39.7464 14.98 39.2797 14.38L40.6797 13.18C41.0797 13.6467 41.513 13.9867 41.9797 14.2C42.4597 14.4 42.9997 14.5 43.5997 14.5C43.8397 14.5 44.0597 14.4733 44.2597 14.42C44.473 14.3533 44.653 14.26 44.7997 14.14C44.9597 14.02 45.0797 13.88 45.1597 13.72C45.2397 13.5467 45.2797 13.36 45.2797 13.16C45.2797 12.8133 45.153 12.5333 44.8997 12.32C44.7664 12.2267 44.553 12.1267 44.2597 12.02C43.9797 11.9 43.613 11.78 43.1597 11.66C42.3864 11.46 41.753 11.2333 41.2597 10.98C40.7664 10.7267 40.3864 10.44 40.1197 10.12C39.9197 9.86667 39.773 9.59333 39.6797 9.3C39.5864 8.99333 39.5397 8.66 39.5397 8.3C39.5397 7.86 39.633 7.46 39.8197 7.1C40.0197 6.72667 40.2864 6.40667 40.6197 6.14C40.9664 5.86 41.3664 5.64667 41.8197 5.5C42.2864 5.35333 42.7797 5.28 43.2997 5.28C43.793 5.28 44.2797 5.34667 44.7597 5.48C45.253 5.61333 45.7064 5.80667 46.1197 6.06C46.533 6.31333 46.8797 6.61333 47.1597 6.96L45.9797 8.26C45.7264 8.00667 45.4464 7.78667 45.1397 7.6C44.8464 7.4 44.5464 7.24667 44.2397 7.14C43.933 7.03333 43.653 6.98 43.3997 6.98C43.1197 6.98 42.8664 7.00667 42.6397 7.06C42.413 7.11333 42.2197 7.19333 42.0597 7.3C41.913 7.40667 41.7997 7.54 41.7197 7.7C41.6397 7.86 41.5997 8.04 41.5997 8.24C41.613 8.41333 41.653 8.58 41.7197 8.74C41.7997 8.88667 41.9064 9.01333 42.0397 9.12C42.1864 9.22667 42.4064 9.34 42.6997 9.46C42.993 9.58 43.3664 9.69333 43.8197 9.8C44.4864 9.97333 45.033 10.1667 45.4597 10.38C45.8997 10.58 46.2464 10.8133 46.4997 11.08C46.7664 11.3333 46.953 11.6267 47.0597 11.96C47.1664 12.2933 47.2197 12.6667 47.2197 13.08C47.2197 13.68 47.0464 14.22 46.6997 14.7C46.3664 15.1667 45.913 15.5333 45.3397 15.8C44.7664 16.0667 44.1264 16.2 43.4197 16.2ZM56.23 16V5.5H58.29V16H56.23ZM57.23 3.18C56.79 3.18 56.45 3.06667 56.21 2.84C55.97 2.61333 55.85 2.29333 55.85 1.88C55.85 1.49333 55.97 1.18 56.21 0.94C56.4633 0.699999 56.8033 0.579999 57.23 0.579999C57.67 0.579999 58.01 0.693333 58.25 0.92C58.49 1.14667 58.61 1.46667 58.61 1.88C58.61 2.26667 58.4833 2.58 58.23 2.82C57.99 3.06 57.6567 3.18 57.23 3.18ZM72.5564 20.6C71.8097 20.6 71.0631 20.48 70.3164 20.24C69.5831 20.0133 68.9897 19.7133 68.5364 19.34L69.2964 17.74C69.5631 17.94 69.8764 18.1133 70.2364 18.26C70.5964 18.42 70.9764 18.54 71.3764 18.62C71.7764 18.7133 72.1697 18.76 72.5564 18.76C73.2897 18.76 73.9031 18.64 74.3964 18.4C74.8897 18.16 75.2631 17.8067 75.5164 17.34C75.7697 16.8733 75.8964 16.2933 75.8964 15.6V13.58L76.1164 13.72C76.0497 14.1333 75.8297 14.5333 75.4564 14.92C75.0964 15.2933 74.6431 15.6 74.0964 15.84C73.5497 16.08 72.9897 16.2 72.4164 16.2C71.4164 16.2 70.5231 15.9667 69.7364 15.5C68.9631 15.02 68.3497 14.3733 67.8964 13.56C67.4431 12.7333 67.2164 11.7933 67.2164 10.74C67.2164 9.68667 67.4364 8.75333 67.8764 7.94C68.3297 7.11333 68.9431 6.46667 69.7164 6C70.5031 5.52 71.3831 5.28 72.3564 5.28C72.7564 5.28 73.1431 5.33333 73.5164 5.44C73.8897 5.53333 74.2364 5.67333 74.5564 5.86C74.8764 6.03333 75.1631 6.22667 75.4164 6.44C75.6697 6.65333 75.8764 6.88 76.0364 7.12C76.1964 7.36 76.2964 7.58667 76.3364 7.8L75.8964 7.96V5.5H77.9564V15.36C77.9564 16.2 77.8297 16.94 77.5764 17.58C77.3364 18.2333 76.9831 18.78 76.5164 19.22C76.0497 19.6733 75.4831 20.0133 74.8164 20.24C74.1497 20.48 73.3964 20.6 72.5564 20.6ZM72.6364 14.3C73.2897 14.3 73.8697 14.1467 74.3764 13.84C74.8831 13.5333 75.2764 13.1133 75.5564 12.58C75.8364 12.0467 75.9764 11.4333 75.9764 10.74C75.9764 10.0467 75.8297 9.43333 75.5364 8.9C75.2564 8.35333 74.8631 7.92667 74.3564 7.62C73.8631 7.31333 73.2897 7.16 72.6364 7.16C71.9964 7.16 71.4231 7.32 70.9164 7.64C70.4231 7.94667 70.0297 8.37333 69.7364 8.92C69.4564 9.45333 69.3164 10.06 69.3164 10.74C69.3164 11.42 69.4564 12.0333 69.7364 12.58C70.0297 13.1133 70.4231 13.5333 70.9164 13.84C71.4231 14.1467 71.9964 14.3 72.6364 14.3ZM87.2447 16V5.5H89.3047V7.66L88.9447 7.9C89.078 7.43333 89.338 7.00667 89.7247 6.62C90.1114 6.22 90.5714 5.9 91.1047 5.66C91.638 5.40667 92.1847 5.28 92.7447 5.28C93.5447 5.28 94.2114 5.44 94.7447 5.76C95.278 6.06667 95.678 6.54 95.9447 7.18C96.2114 7.82 96.3447 8.62667 96.3447 9.6V16H94.2847V9.74C94.2847 9.14 94.2047 8.64667 94.0447 8.26C93.8847 7.86 93.638 7.57333 93.3047 7.4C92.9714 7.21333 92.558 7.13333 92.0647 7.16C91.6647 7.16 91.298 7.22667 90.9647 7.36C90.6314 7.48 90.338 7.65333 90.0847 7.88C89.8447 8.10667 89.6514 8.37333 89.5047 8.68C89.3714 8.97333 89.3047 9.29333 89.3047 9.64V16H88.2847C88.1114 16 87.938 16 87.7647 16C87.5914 16 87.418 16 87.2447 16ZM109.039 16.2C108.159 16.2 107.366 16.0467 106.659 15.74C105.953 15.4333 105.366 14.98 104.899 14.38L106.299 13.18C106.699 13.6467 107.133 13.9867 107.599 14.2C108.079 14.4 108.619 14.5 109.219 14.5C109.459 14.5 109.679 14.4733 109.879 14.42C110.093 14.3533 110.273 14.26 110.419 14.14C110.579 14.02 110.699 13.88 110.779 13.72C110.859 13.5467 110.899 13.36 110.899 13.16C110.899 12.8133 110.773 12.5333 110.519 12.32C110.386 12.2267 110.173 12.1267 109.879 12.02C109.599 11.9 109.233 11.78 108.779 11.66C108.006 11.46 107.373 11.2333 106.879 10.98C106.386 10.7267 106.006 10.44 105.739 10.12C105.539 9.86667 105.393 9.59333 105.299 9.3C105.206 8.99333 105.159 8.66 105.159 8.3C105.159 7.86 105.253 7.46 105.439 7.1C105.639 6.72667 105.906 6.40667 106.239 6.14C106.586 5.86 106.986 5.64667 107.439 5.5C107.906 5.35333 108.399 5.28 108.919 5.28C109.413 5.28 109.899 5.34667 110.379 5.48C110.873 5.61333 111.326 5.80667 111.739 6.06C112.153 6.31333 112.499 6.61333 112.779 6.96L111.599 8.26C111.346 8.00667 111.066 7.78667 110.759 7.6C110.466 7.4 110.166 7.24667 109.859 7.14C109.553 7.03333 109.273 6.98 109.019 6.98C108.739 6.98 108.486 7.00667 108.259 7.06C108.033 7.11333 107.839 7.19333 107.679 7.3C107.533 7.40667 107.419 7.54 107.339 7.7C107.259 7.86 107.219 8.04 107.219 8.24C107.233 8.41333 107.273 8.58 107.339 8.74C107.419 8.88667 107.526 9.01333 107.659 9.12C107.806 9.22667 108.026 9.34 108.319 9.46C108.613 9.58 108.986 9.69333 109.439 9.8C110.106 9.97333 110.653 10.1667 111.079 10.38C111.519 10.58 111.866 10.8133 112.119 11.08C112.386 11.3333 112.573 11.6267 112.679 11.96C112.786 12.2933 112.839 12.6667 112.839 13.08C112.839 13.68 112.666 14.22 112.319 14.7C111.986 15.1667 111.533 15.5333 110.959 15.8C110.386 16.0667 109.746 16.2 109.039 16.2ZM136.955 16L132.515 5.5H134.735L137.935 13.36L137.555 13.54L140.975 5.5H143.095L138.435 16H136.955ZM151.72 16V5.5H153.78V16H151.72ZM152.72 3.18C152.28 3.18 151.94 3.06667 151.7 2.84C151.46 2.61333 151.34 2.29333 151.34 1.88C151.34 1.49333 151.46 1.18 151.7 0.94C151.953 0.699999 152.293 0.579999 152.72 0.579999C153.16 0.579999 153.5 0.693333 153.74 0.92C153.98 1.14667 154.1 1.46667 154.1 1.88C154.1 2.26667 153.973 2.58 153.72 2.82C153.48 3.06 153.147 3.18 152.72 3.18ZM166.846 16.2C165.966 16.2 165.173 16.0467 164.466 15.74C163.76 15.4333 163.173 14.98 162.706 14.38L164.106 13.18C164.506 13.6467 164.94 13.9867 165.406 14.2C165.886 14.4 166.426 14.5 167.026 14.5C167.266 14.5 167.486 14.4733 167.686 14.42C167.9 14.3533 168.08 14.26 168.226 14.14C168.386 14.02 168.506 13.88 168.586 13.72C168.666 13.5467 168.706 13.36 168.706 13.16C168.706 12.8133 168.58 12.5333 168.326 12.32C168.193 12.2267 167.98 12.1267 167.686 12.02C167.406 11.9 167.04 11.78 166.586 11.66C165.813 11.46 165.18 11.2333 164.686 10.98C164.193 10.7267 163.813 10.44 163.546 10.12C163.346 9.86667 163.2 9.59333 163.106 9.3C163.013 8.99333 162.966 8.66 162.966 8.3C162.966 7.86 163.06 7.46 163.246 7.1C163.446 6.72667 163.713 6.40667 164.046 6.14C164.393 5.86 164.793 5.64667 165.246 5.5C165.713 5.35333 166.206 5.28 166.726 5.28C167.22 5.28 167.706 5.34667 168.186 5.48C168.68 5.61333 169.133 5.80667 169.546 6.06C169.96 6.31333 170.306 6.61333 170.586 6.96L169.406 8.26C169.153 8.00667 168.873 7.78667 168.566 7.6C168.273 7.4 167.973 7.24667 167.666 7.14C167.36 7.03333 167.08 6.98 166.826 6.98C166.546 6.98 166.293 7.00667 166.066 7.06C165.84 7.11333 165.646 7.19333 165.486 7.3C165.34 7.40667 165.226 7.54 165.146 7.7C165.066 7.86 165.026 8.04 165.026 8.24C165.04 8.41333 165.08 8.58 165.146 8.74C165.226 8.88667 165.333 9.01333 165.466 9.12C165.613 9.22667 165.833 9.34 166.126 9.46C166.42 9.58 166.793 9.69333 167.246 9.8C167.913 9.97333 168.46 10.1667 168.886 10.38C169.326 10.58 169.673 10.8133 169.926 11.08C170.193 11.3333 170.38 11.6267 170.486 11.96C170.593 12.2933 170.646 12.6667 170.646 13.08C170.646 13.68 170.473 14.22 170.126 14.7C169.793 15.1667 169.34 15.5333 168.766 15.8C168.193 16.0667 167.553 16.2 166.846 16.2ZM182.997 16.2C182.25 16.2 181.597 16.0267 181.037 15.68C180.49 15.3333 180.063 14.8467 179.757 14.22C179.463 13.5933 179.317 12.8467 179.317 11.98V5.5H181.377V11.42C181.377 12.0333 181.47 12.5667 181.657 13.02C181.857 13.46 182.137 13.8 182.497 14.04C182.87 14.28 183.317 14.4 183.837 14.4C184.223 14.4 184.577 14.34 184.897 14.22C185.217 14.0867 185.49 13.9067 185.717 13.68C185.957 13.4533 186.143 13.18 186.277 12.86C186.41 12.54 186.477 12.1933 186.477 11.82V5.5H188.537V16H186.477V13.8L186.837 13.56C186.677 14.0533 186.403 14.5 186.017 14.9C185.643 15.3 185.197 15.62 184.677 15.86C184.157 16.0867 183.597 16.2 182.997 16.2ZM201.866 16.2C200.999 16.2 200.206 15.96 199.486 15.48C198.779 15 198.213 14.3467 197.786 13.52C197.359 12.6933 197.146 11.76 197.146 10.72C197.146 9.66667 197.359 8.73333 197.786 7.92C198.226 7.09333 198.813 6.44667 199.546 5.98C200.293 5.51333 201.126 5.28 202.046 5.28C202.593 5.28 203.093 5.36 203.546 5.52C203.999 5.68 204.393 5.90667 204.726 6.2C205.073 6.48 205.353 6.80667 205.566 7.18C205.793 7.55333 205.933 7.95333 205.986 8.38L205.526 8.22V5.5H207.606V16H205.526V13.5L206.006 13.36C205.926 13.72 205.759 14.0733 205.506 14.42C205.266 14.7533 204.953 15.0533 204.566 15.32C204.193 15.5867 203.773 15.8 203.306 15.96C202.853 16.12 202.373 16.2 201.866 16.2ZM202.406 14.3C203.033 14.3 203.586 14.1467 204.066 13.84C204.546 13.5333 204.919 13.1133 205.186 12.58C205.466 12.0333 205.606 11.4133 205.606 10.72C205.606 10.04 205.466 9.43333 205.186 8.9C204.919 8.36667 204.546 7.94667 204.066 7.64C203.586 7.33333 203.033 7.18 202.406 7.18C201.793 7.18 201.246 7.33333 200.766 7.64C200.299 7.94667 199.926 8.36667 199.646 8.9C199.379 9.43333 199.246 10.04 199.246 10.72C199.246 11.4133 199.379 12.0333 199.646 12.58C199.926 13.1133 200.299 13.5333 200.766 13.84C201.246 14.1467 201.793 14.3 202.406 14.3ZM216.922 16V1.2H218.982V16H216.922ZM244.767 16.2C243.794 16.2 242.921 15.96 242.147 15.48C241.387 15 240.781 14.3467 240.327 13.52C239.887 12.6933 239.667 11.7667 239.667 10.74C239.667 9.71333 239.887 8.78667 240.327 7.96C240.781 7.13333 241.387 6.48 242.147 6C242.921 5.52 243.794 5.28 244.767 5.28C245.701 5.28 246.547 5.47333 247.307 5.86C248.081 6.23333 248.667 6.74667 249.067 7.4L247.927 8.8C247.714 8.49333 247.441 8.21333 247.107 7.96C246.774 7.70667 246.421 7.50667 246.047 7.36C245.674 7.21333 245.314 7.14 244.967 7.14C244.327 7.14 243.754 7.3 243.247 7.62C242.754 7.92667 242.361 8.35333 242.067 8.9C241.774 9.44667 241.627 10.06 241.627 10.74C241.627 11.42 241.781 12.0333 242.087 12.58C242.394 13.1133 242.801 13.54 243.307 13.86C243.814 14.18 244.374 14.34 244.987 14.34C245.347 14.34 245.694 14.28 246.027 14.16C246.374 14.04 246.707 13.86 247.027 13.62C247.347 13.38 247.647 13.0867 247.927 12.74L249.067 14.14C248.641 14.74 248.027 15.2333 247.227 15.62C246.441 16.0067 245.621 16.2 244.767 16.2ZM262.13 16.2C261.104 16.2 260.184 15.9667 259.37 15.5C258.57 15.02 257.937 14.3733 257.47 13.56C257.004 12.7333 256.77 11.7933 256.77 10.74C256.77 9.68667 257.004 8.75333 257.47 7.94C257.937 7.11333 258.57 6.46667 259.37 6C260.184 5.52 261.104 5.28 262.13 5.28C263.144 5.28 264.05 5.52 264.85 6C265.664 6.46667 266.304 7.11333 266.77 7.94C267.237 8.75333 267.47 9.68667 267.47 10.74C267.47 11.7933 267.237 12.7333 266.77 13.56C266.304 14.3733 265.664 15.02 264.85 15.5C264.05 15.9667 263.144 16.2 262.13 16.2ZM262.13 14.32C262.757 14.32 263.317 14.1667 263.81 13.86C264.304 13.54 264.69 13.1133 264.97 12.58C265.25 12.0333 265.384 11.42 265.37 10.74C265.384 10.0467 265.25 9.43333 264.97 8.9C264.69 8.35333 264.304 7.92667 263.81 7.62C263.317 7.31333 262.757 7.16 262.13 7.16C261.504 7.16 260.937 7.32 260.43 7.64C259.937 7.94667 259.55 8.37333 259.27 8.92C258.99 9.45333 258.857 10.06 258.87 10.74C258.857 11.42 258.99 12.0333 259.27 12.58C259.55 13.1133 259.937 13.54 260.43 13.86C260.937 14.1667 261.504 14.32 262.13 14.32ZM276.115 16V5.5H278.175V7.66L277.815 7.9C277.948 7.43333 278.208 7.00667 278.595 6.62C278.982 6.22 279.442 5.9 279.975 5.66C280.508 5.40667 281.055 5.28 281.615 5.28C282.415 5.28 283.082 5.44 283.615 5.76C284.148 6.06667 284.548 6.54 284.815 7.18C285.082 7.82 285.215 8.62667 285.215 9.6V16H283.155V9.74C283.155 9.14 283.075 8.64667 282.915 8.26C282.755 7.86 282.508 7.57333 282.175 7.4C281.842 7.21333 281.428 7.13333 280.935 7.16C280.535 7.16 280.168 7.22667 279.835 7.36C279.502 7.48 279.208 7.65333 278.955 7.88C278.715 8.10667 278.522 8.37333 278.375 8.68C278.242 8.97333 278.175 9.29333 278.175 9.64V16H277.155C276.982 16 276.808 16 276.635 16C276.462 16 276.288 16 276.115 16ZM295.71 16V2.82H297.77V16H295.71ZM293.53 7.5V5.5H300.21V7.5H293.53ZM313.288 16.2C312.208 16.2 311.248 15.9733 310.408 15.52C309.581 15.0533 308.928 14.42 308.448 13.62C307.981 12.82 307.748 11.9 307.748 10.86C307.748 10.0333 307.881 9.28 308.148 8.6C308.414 7.92 308.781 7.33333 309.248 6.84C309.728 6.33333 310.294 5.94667 310.948 5.68C311.614 5.4 312.334 5.26 313.108 5.26C313.788 5.26 314.421 5.39333 315.008 5.66C315.594 5.91333 316.101 6.26667 316.528 6.72C316.968 7.17333 317.301 7.71333 317.528 8.34C317.768 8.95333 317.881 9.62667 317.868 10.36L317.848 11.24H309.268L308.808 9.6H316.068L315.768 9.94V9.46C315.728 9.02 315.581 8.62667 315.328 8.28C315.074 7.93333 314.754 7.66 314.368 7.46C313.981 7.26 313.561 7.16 313.108 7.16C312.388 7.16 311.781 7.3 311.288 7.58C310.794 7.84667 310.421 8.24667 310.168 8.78C309.914 9.3 309.788 9.94667 309.788 10.72C309.788 11.4533 309.941 12.0933 310.248 12.64C310.554 13.1733 310.988 13.5867 311.548 13.88C312.108 14.1733 312.754 14.32 313.488 14.32C314.008 14.32 314.488 14.2333 314.928 14.06C315.381 13.8867 315.868 13.5733 316.388 13.12L317.428 14.58C317.108 14.9 316.714 15.18 316.248 15.42C315.794 15.66 315.308 15.8533 314.788 16C314.281 16.1333 313.781 16.2 313.288 16.2ZM326.506 16V5.5H328.566V7.66L328.206 7.9C328.34 7.43333 328.6 7.00667 328.986 6.62C329.373 6.22 329.833 5.9 330.366 5.66C330.9 5.40667 331.446 5.28 332.006 5.28C332.806 5.28 333.473 5.44 334.006 5.76C334.54 6.06667 334.94 6.54 335.206 7.18C335.473 7.82 335.606 8.62667 335.606 9.6V16H333.546V9.74C333.546 9.14 333.466 8.64667 333.306 8.26C333.146 7.86 332.9 7.57333 332.566 7.4C332.233 7.21333 331.82 7.13333 331.326 7.16C330.926 7.16 330.56 7.22667 330.226 7.36C329.893 7.48 329.6 7.65333 329.346 7.88C329.106 8.10667 328.913 8.37333 328.766 8.68C328.633 8.97333 328.566 9.29333 328.566 9.64V16H327.546C327.373 16 327.2 16 327.026 16C326.853 16 326.68 16 326.506 16ZM346.101 16V2.82H348.161V16H346.101ZM343.921 7.5V5.5H350.601V7.5H343.921ZM358.806 19.58L358.046 18.66C358.513 18.3933 358.893 18.0867 359.186 17.74C359.479 17.3933 359.626 17.0933 359.626 16.84C359.626 16.7067 359.593 16.5733 359.526 16.44C359.459 16.32 359.319 16.1467 359.106 15.92C358.839 15.6667 358.666 15.4533 358.586 15.28C358.506 15.1067 358.466 14.92 358.466 14.72C358.466 14.4 358.579 14.1467 358.806 13.96C359.033 13.76 359.326 13.66 359.686 13.66C360.019 13.66 360.319 13.76 360.586 13.96C360.866 14.1467 361.079 14.4133 361.226 14.76C361.386 15.0933 361.466 15.48 361.466 15.92C361.466 16.32 361.399 16.7067 361.266 17.08C361.133 17.4533 360.946 17.8 360.706 18.12C360.466 18.44 360.186 18.7267 359.866 18.98C359.546 19.2333 359.193 19.4333 358.806 19.58ZM388.184 16.12C387.104 16.12 386.137 15.8867 385.284 15.42C384.43 14.94 383.757 14.2867 383.264 13.46C382.784 12.62 382.544 11.6733 382.544 10.62V1.98H384.704V10.44C384.704 11.12 384.864 11.7333 385.184 12.28C385.504 12.8133 385.924 13.24 386.444 13.56C386.977 13.88 387.557 14.04 388.184 14.04C388.85 14.04 389.45 13.88 389.984 13.56C390.53 13.24 390.964 12.8133 391.284 12.28C391.604 11.7333 391.764 11.12 391.764 10.44V1.98H393.824V10.62C393.824 11.6733 393.577 12.62 393.084 13.46C392.604 14.2867 391.937 14.94 391.084 15.42C390.23 15.8867 389.264 16.12 388.184 16.12ZM403.428 16V14H405.688V4H403.428V2H410.108V4H407.848V14H410.108V16H403.428ZM418.299 18.64L426.539 2H428.519L420.299 18.64H418.299ZM442.872 16.12C441.792 16.12 440.825 15.8867 439.972 15.42C439.119 14.94 438.445 14.2867 437.952 13.46C437.472 12.62 437.232 11.6733 437.232 10.62V1.98H439.392V10.44C439.392 11.12 439.552 11.7333 439.872 12.28C440.192 12.8133 440.612 13.24 441.132 13.56C441.665 13.88 442.245 14.04 442.872 14.04C443.539 14.04 444.139 13.88 444.672 13.56C445.219 13.24 445.652 12.8133 445.972 12.28C446.292 11.7333 446.452 11.12 446.452 10.44V1.98H448.512V10.62C448.512 11.6733 448.265 12.62 447.772 13.46C447.292 14.2867 446.625 14.94 445.772 15.42C444.919 15.8867 443.952 16.12 442.872 16.12ZM466.961 16L462.621 9.72L457.061 2H459.801L464.041 8.2L469.701 16H466.961ZM456.961 16L462.301 8.38L463.641 9.96L459.501 16H456.961ZM464.361 9.5L463.041 7.98L466.961 2H469.501L464.361 9.5ZM478.333 19.58L477.573 18.66C478.039 18.3933 478.419 18.0867 478.713 17.74C479.006 17.3933 479.153 17.0933 479.153 16.84C479.153 16.7067 479.119 16.5733 479.053 16.44C478.986 16.32 478.846 16.1467 478.633 15.92C478.366 15.6667 478.193 15.4533 478.113 15.28C478.033 15.1067 477.993 14.92 477.993 14.72C477.993 14.4 478.106 14.1467 478.333 13.96C478.559 13.76 478.853 13.66 479.213 13.66C479.546 13.66 479.846 13.76 480.113 13.96C480.393 14.1467 480.606 14.4133 480.753 14.76C480.913 15.0933 480.993 15.48 480.993 15.92C480.993 16.32 480.926 16.7067 480.793 17.08C480.659 17.4533 480.473 17.8 480.233 18.12C479.993 18.44 479.713 18.7267 479.393 18.98C479.073 19.2333 478.719 19.4333 478.333 19.58ZM507.27 16.2C506.817 16.2 506.363 16.1267 505.91 15.98C505.47 15.8333 505.063 15.64 504.69 15.4C504.33 15.1467 504.023 14.8733 503.77 14.58C503.53 14.2733 503.37 13.9667 503.29 13.66L503.81 13.38V15.94H501.75V1.2H503.81V7.9L503.49 7.72C503.557 7.41333 503.703 7.12 503.93 6.84C504.157 6.54667 504.443 6.28667 504.79 6.06C505.15 5.82 505.537 5.63333 505.95 5.5C506.363 5.35333 506.783 5.28 507.21 5.28C508.157 5.28 508.997 5.51333 509.73 5.98C510.463 6.44667 511.043 7.09333 511.47 7.92C511.897 8.73333 512.11 9.66667 512.11 10.72C512.11 11.7733 511.897 12.7133 511.47 13.54C511.057 14.3667 510.483 15.02 509.75 15.5C509.017 15.9667 508.19 16.2 507.27 16.2ZM506.93 14.32C507.543 14.32 508.09 14.1667 508.57 13.86C509.05 13.54 509.43 13.1133 509.71 12.58C509.99 12.0333 510.13 11.4133 510.13 10.72C510.13 10.04 509.99 9.43333 509.71 8.9C509.443 8.35333 509.07 7.92667 508.59 7.62C508.11 7.31333 507.557 7.16 506.93 7.16C506.303 7.16 505.75 7.31333 505.27 7.62C504.79 7.92667 504.41 8.35333 504.13 8.9C503.85 9.43333 503.71 10.04 503.71 10.72C503.71 11.4133 503.85 12.0333 504.13 12.58C504.41 13.1133 504.79 13.54 505.27 13.86C505.75 14.1667 506.303 14.32 506.93 14.32ZM520.748 16V5.5H522.828V8.8L522.628 8C522.774 7.49333 523.021 7.03333 523.368 6.62C523.728 6.20667 524.134 5.88 524.588 5.64C525.054 5.4 525.534 5.28 526.028 5.28C526.254 5.28 526.468 5.3 526.668 5.34C526.881 5.38 527.048 5.42667 527.168 5.48L526.628 7.72C526.468 7.65333 526.288 7.6 526.088 7.56C525.901 7.50667 525.714 7.48 525.528 7.48C525.168 7.48 524.821 7.55333 524.488 7.7C524.168 7.83333 523.881 8.02667 523.628 8.28C523.388 8.52 523.194 8.80667 523.048 9.14C522.901 9.46 522.828 9.81333 522.828 10.2V16H520.748ZM538.805 16.2C537.938 16.2 537.145 15.96 536.425 15.48C535.718 15 535.152 14.3467 534.725 13.52C534.298 12.6933 534.085 11.76 534.085 10.72C534.085 9.66667 534.298 8.73333 534.725 7.92C535.165 7.09333 535.752 6.44667 536.485 5.98C537.232 5.51333 538.065 5.28 538.985 5.28C539.532 5.28 540.032 5.36 540.485 5.52C540.938 5.68 541.332 5.90667 541.665 6.2C542.012 6.48 542.292 6.80667 542.505 7.18C542.732 7.55333 542.872 7.95333 542.925 8.38L542.465 8.22V5.5H544.545V16H542.465V13.5L542.945 13.36C542.865 13.72 542.698 14.0733 542.445 14.42C542.205 14.7533 541.892 15.0533 541.505 15.32C541.132 15.5867 540.712 15.8 540.245 15.96C539.792 16.12 539.312 16.2 538.805 16.2ZM539.345 14.3C539.972 14.3 540.525 14.1467 541.005 13.84C541.485 13.5333 541.858 13.1133 542.125 12.58C542.405 12.0333 542.545 11.4133 542.545 10.72C542.545 10.04 542.405 9.43333 542.125 8.9C541.858 8.36667 541.485 7.94667 541.005 7.64C540.525 7.33333 539.972 7.18 539.345 7.18C538.732 7.18 538.185 7.33333 537.705 7.64C537.238 7.94667 536.865 8.36667 536.585 8.9C536.318 9.43333 536.185 10.04 536.185 10.72C536.185 11.4133 536.318 12.0333 536.585 12.58C536.865 13.1133 537.238 13.5333 537.705 13.84C538.185 14.1467 538.732 14.3 539.345 14.3ZM553.821 16V5.5H555.881V7.66L555.521 7.9C555.655 7.43333 555.915 7.00667 556.301 6.62C556.688 6.22 557.148 5.9 557.681 5.66C558.215 5.40667 558.761 5.28 559.321 5.28C560.121 5.28 560.788 5.44 561.321 5.76C561.855 6.06667 562.255 6.54 562.521 7.18C562.788 7.82 562.921 8.62667 562.921 9.6V16H560.861V9.74C560.861 9.14 560.781 8.64667 560.621 8.26C560.461 7.86 560.215 7.57333 559.881 7.4C559.548 7.21333 559.135 7.13333 558.641 7.16C558.241 7.16 557.875 7.22667 557.541 7.36C557.208 7.48 556.915 7.65333 556.661 7.88C556.421 8.10667 556.228 8.37333 556.081 8.68C555.948 8.97333 555.881 9.29333 555.881 9.64V16H554.861C554.688 16 554.515 16 554.341 16C554.168 16 553.995 16 553.821 16ZM576.496 16.2C575.536 16.2 574.676 15.9667 573.916 15.5C573.169 15.02 572.576 14.3733 572.136 13.56C571.696 12.7333 571.476 11.7933 571.476 10.74C571.476 9.68667 571.689 8.75333 572.116 7.94C572.556 7.11333 573.149 6.46667 573.896 6C574.642 5.52 575.489 5.28 576.436 5.28C576.956 5.28 577.456 5.36667 577.936 5.54C578.429 5.7 578.869 5.92667 579.256 6.22C579.642 6.5 579.942 6.81333 580.156 7.16C580.382 7.49333 580.496 7.83333 580.496 8.18L579.896 8.22V1.2H581.956V16H579.896V13.5H580.296C580.296 13.82 580.189 14.14 579.976 14.46C579.762 14.7667 579.476 15.0533 579.116 15.32C578.769 15.5867 578.362 15.8 577.896 15.96C577.442 16.12 576.976 16.2 576.496 16.2ZM576.776 14.42C577.402 14.42 577.956 14.26 578.436 13.94C578.916 13.62 579.289 13.1867 579.556 12.64C579.836 12.08 579.976 11.4467 579.976 10.74C579.976 10.0333 579.836 9.40667 579.556 8.86C579.289 8.3 578.916 7.86 578.436 7.54C577.956 7.22 577.402 7.06 576.776 7.06C576.149 7.06 575.596 7.22 575.116 7.54C574.636 7.86 574.256 8.3 573.976 8.86C573.709 9.40667 573.576 10.0333 573.576 10.74C573.576 11.4467 573.709 12.08 573.976 12.64C574.256 13.1867 574.636 13.62 575.116 13.94C575.596 14.26 576.149 14.42 576.776 14.42ZM591.532 16V5.5H593.592V16H591.532ZM592.532 3.18C592.092 3.18 591.752 3.06667 591.512 2.84C591.272 2.61333 591.152 2.29333 591.152 1.88C591.152 1.49333 591.272 1.18 591.512 0.94C591.765 0.699999 592.105 0.579999 592.532 0.579999C592.972 0.579999 593.312 0.693333 593.552 0.92C593.792 1.14667 593.912 1.46667 593.912 1.88C593.912 2.26667 593.785 2.58 593.532 2.82C593.292 3.06 592.958 3.18 592.532 3.18ZM603.158 16V5.5H605.218V7.66L604.858 7.9C604.991 7.43333 605.251 7.00667 605.638 6.62C606.025 6.22 606.485 5.9 607.018 5.66C607.551 5.40667 608.098 5.28 608.658 5.28C609.458 5.28 610.125 5.44 610.658 5.76C611.191 6.06667 611.591 6.54 611.858 7.18C612.125 7.82 612.258 8.62667 612.258 9.6V16H610.198V9.74C610.198 9.14 610.118 8.64667 609.958 8.26C609.798 7.86 609.551 7.57333 609.218 7.4C608.885 7.21333 608.471 7.13333 607.978 7.16C607.578 7.16 607.211 7.22667 606.878 7.36C606.545 7.48 606.251 7.65333 605.998 7.88C605.758 8.10667 605.565 8.37333 605.418 8.68C605.285 8.97333 605.218 9.29333 605.218 9.64V16H604.198C604.025 16 603.851 16 603.678 16C603.505 16 603.331 16 603.158 16ZM626.153 20.6C625.406 20.6 624.659 20.48 623.913 20.24C623.179 20.0133 622.586 19.7133 622.133 19.34L622.893 17.74C623.159 17.94 623.473 18.1133 623.833 18.26C624.193 18.42 624.573 18.54 624.973 18.62C625.373 18.7133 625.766 18.76 626.153 18.76C626.886 18.76 627.499 18.64 627.993 18.4C628.486 18.16 628.859 17.8067 629.113 17.34C629.366 16.8733 629.493 16.2933 629.493 15.6V13.58L629.713 13.72C629.646 14.1333 629.426 14.5333 629.053 14.92C628.693 15.2933 628.239 15.6 627.693 15.84C627.146 16.08 626.586 16.2 626.013 16.2C625.013 16.2 624.119 15.9667 623.333 15.5C622.559 15.02 621.946 14.3733 621.493 13.56C621.039 12.7333 620.813 11.7933 620.813 10.74C620.813 9.68667 621.033 8.75333 621.473 7.94C621.926 7.11333 622.539 6.46667 623.313 6C624.099 5.52 624.979 5.28 625.953 5.28C626.353 5.28 626.739 5.33333 627.113 5.44C627.486 5.53333 627.833 5.67333 628.153 5.86C628.473 6.03333 628.759 6.22667 629.013 6.44C629.266 6.65333 629.473 6.88 629.633 7.12C629.793 7.36 629.893 7.58667 629.933 7.8L629.493 7.96V5.5H631.553V15.36C631.553 16.2 631.426 16.94 631.173 17.58C630.933 18.2333 630.579 18.78 630.113 19.22C629.646 19.6733 629.079 20.0133 628.413 20.24C627.746 20.48 626.993 20.6 626.153 20.6ZM626.233 14.3C626.886 14.3 627.466 14.1467 627.973 13.84C628.479 13.5333 628.873 13.1133 629.153 12.58C629.433 12.0467 629.573 11.4333 629.573 10.74C629.573 10.0467 629.426 9.43333 629.133 8.9C628.853 8.35333 628.459 7.92667 627.953 7.62C627.459 7.31333 626.886 7.16 626.233 7.16C625.593 7.16 625.019 7.32 624.513 7.64C624.019 7.94667 623.626 8.37333 623.333 8.92C623.053 9.45333 622.913 10.06 622.913 10.74C622.913 11.42 623.053 12.0333 623.333 12.58C623.626 13.1133 624.019 13.5333 624.513 13.84C625.019 14.1467 625.593 14.3 626.233 14.3ZM641.102 19.58L640.342 18.66C640.809 18.3933 641.189 18.0867 641.482 17.74C641.775 17.3933 641.922 17.0933 641.922 16.84C641.922 16.7067 641.889 16.5733 641.822 16.44C641.755 16.32 641.615 16.1467 641.402 15.92C641.135 15.6667 640.962 15.4533 640.882 15.28C640.802 15.1067 640.762 14.92 640.762 14.72C640.762 14.4 640.875 14.1467 641.102 13.96C641.329 13.76 641.622 13.66 641.982 13.66C642.315 13.66 642.615 13.76 642.882 13.96C643.162 14.1467 643.375 14.4133 643.522 14.76C643.682 15.0933 643.762 15.48 643.762 15.92C643.762 16.32 643.695 16.7067 643.562 17.08C643.429 17.4533 643.242 17.8 643.002 18.12C642.762 18.44 642.482 18.7267 642.162 18.98C641.842 19.2333 641.489 19.4333 641.102 19.58ZM668.56 16.2C667.693 16.2 666.9 15.96 666.18 15.48C665.473 15 664.906 14.3467 664.48 13.52C664.053 12.6933 663.84 11.76 663.84 10.72C663.84 9.66667 664.053 8.73333 664.48 7.92C664.92 7.09333 665.506 6.44667 666.24 5.98C666.986 5.51333 667.82 5.28 668.74 5.28C669.286 5.28 669.786 5.36 670.24 5.52C670.693 5.68 671.086 5.90667 671.42 6.2C671.766 6.48 672.046 6.80667 672.26 7.18C672.486 7.55333 672.626 7.95333 672.68 8.38L672.22 8.22V5.5H674.3V16H672.22V13.5L672.7 13.36C672.62 13.72 672.453 14.0733 672.2 14.42C671.96 14.7533 671.646 15.0533 671.26 15.32C670.886 15.5867 670.466 15.8 670 15.96C669.546 16.12 669.066 16.2 668.56 16.2ZM669.1 14.3C669.726 14.3 670.28 14.1467 670.76 13.84C671.24 13.5333 671.613 13.1133 671.88 12.58C672.16 12.0333 672.3 11.4133 672.3 10.72C672.3 10.04 672.16 9.43333 671.88 8.9C671.613 8.36667 671.24 7.94667 670.76 7.64C670.28 7.33333 669.726 7.18 669.1 7.18C668.486 7.18 667.94 7.33333 667.46 7.64C666.993 7.94667 666.62 8.36667 666.34 8.9C666.073 9.43333 665.94 10.04 665.94 10.72C665.94 11.4133 666.073 12.0333 666.34 12.58C666.62 13.1133 666.993 13.5333 667.46 13.84C667.94 14.1467 668.486 14.3 669.1 14.3ZM683.576 16V5.5H685.636V7.66L685.276 7.9C685.409 7.43333 685.669 7.00667 686.056 6.62C686.443 6.22 686.903 5.9 687.436 5.66C687.969 5.40667 688.516 5.28 689.076 5.28C689.876 5.28 690.543 5.44 691.076 5.76C691.609 6.06667 692.009 6.54 692.276 7.18C692.543 7.82 692.676 8.62667 692.676 9.6V16H690.616V9.74C690.616 9.14 690.536 8.64667 690.376 8.26C690.216 7.86 689.969 7.57333 689.636 7.4C689.303 7.21333 688.889 7.13333 688.396 7.16C687.996 7.16 687.629 7.22667 687.296 7.36C686.963 7.48 686.669 7.65333 686.416 7.88C686.176 8.10667 685.983 8.37333 685.836 8.68C685.703 8.97333 685.636 9.29333 685.636 9.64V16H684.616C684.443 16 684.269 16 684.096 16C683.923 16 683.749 16 683.576 16ZM706.25 16.2C705.29 16.2 704.43 15.9667 703.67 15.5C702.924 15.02 702.33 14.3733 701.89 13.56C701.45 12.7333 701.23 11.7933 701.23 10.74C701.23 9.68667 701.444 8.75333 701.87 7.94C702.31 7.11333 702.904 6.46667 703.65 6C704.397 5.52 705.244 5.28 706.19 5.28C706.71 5.28 707.21 5.36667 707.69 5.54C708.184 5.7 708.624 5.92667 709.01 6.22C709.397 6.5 709.697 6.81333 709.91 7.16C710.137 7.49333 710.25 7.83333 710.25 8.18L709.65 8.22V1.2H711.71V16H709.65V13.5H710.05C710.05 13.82 709.944 14.14 709.73 14.46C709.517 14.7667 709.23 15.0533 708.87 15.32C708.524 15.5867 708.117 15.8 707.65 15.96C707.197 16.12 706.73 16.2 706.25 16.2ZM706.53 14.42C707.157 14.42 707.71 14.26 708.19 13.94C708.67 13.62 709.044 13.1867 709.31 12.64C709.59 12.08 709.73 11.4467 709.73 10.74C709.73 10.0333 709.59 9.40667 709.31 8.86C709.044 8.3 708.67 7.86 708.19 7.54C707.71 7.22 707.157 7.06 706.53 7.06C705.904 7.06 705.35 7.22 704.87 7.54C704.39 7.86 704.01 8.3 703.73 8.86C703.464 9.40667 703.33 10.0333 703.33 10.74C703.33 11.4467 703.464 12.08 703.73 12.64C704.01 13.1867 704.39 13.62 704.87 13.94C705.35 14.26 705.904 14.42 706.53 14.42ZM0.4 38V27.5H2.48V29.74L2.1 29.98C2.20667 29.6333 2.37333 29.3 2.6 28.98C2.84 28.66 3.12667 28.38 3.46 28.14C3.80667 27.8867 4.17333 27.6867 4.56 27.54C4.96 27.3933 5.36667 27.32 5.78 27.32C6.38 27.32 6.90667 27.42 7.36 27.62C7.81333 27.82 8.18667 28.12 8.48 28.52C8.77333 28.92 8.98667 29.42 9.12 30.02L8.8 29.94L8.94 29.6C9.08667 29.2933 9.28667 29.0067 9.54 28.74C9.80667 28.46 10.1067 28.2133 10.44 28C10.7733 27.7867 11.1267 27.62 11.5 27.5C11.8733 27.38 12.24 27.32 12.6 27.32C13.3867 27.32 14.0333 27.48 14.54 27.8C15.06 28.12 15.4467 28.6067 15.7 29.26C15.9667 29.9133 16.1 30.7267 16.1 31.7V38H14.02V31.82C14.02 31.22 13.94 30.7333 13.78 30.36C13.6333 29.9733 13.4067 29.6867 13.1 29.5C12.7933 29.3133 12.4 29.22 11.92 29.22C11.5467 29.22 11.1933 29.2867 10.86 29.42C10.54 29.54 10.26 29.7133 10.02 29.94C9.78 30.1667 9.59333 30.4333 9.46 30.74C9.32667 31.0333 9.26 31.36 9.26 31.72V38H7.18V31.78C7.18 31.2333 7.1 30.7733 6.94 30.4C6.78 30.0133 6.54667 29.72 6.24 29.52C5.93333 29.32 5.56 29.22 5.12 29.22C4.74667 29.22 4.4 29.2867 4.08 29.42C3.76 29.54 3.48 29.7133 3.24 29.94C3 30.1533 2.81333 30.4133 2.68 30.72C2.54667 31.0133 2.48 31.3333 2.48 31.68V38H0.4ZM30.158 38.2C29.078 38.2 28.118 37.9733 27.278 37.52C26.4513 37.0533 25.798 36.42 25.318 35.62C24.8513 34.82 24.618 33.9 24.618 32.86C24.618 32.0333 24.7513 31.28 25.018 30.6C25.2846 29.92 25.6513 29.3333 26.118 28.84C26.598 28.3333 27.1646 27.9467 27.818 27.68C28.4846 27.4 29.2046 27.26 29.978 27.26C30.658 27.26 31.2913 27.3933 31.878 27.66C32.4646 27.9133 32.9713 28.2667 33.398 28.72C33.838 29.1733 34.1713 29.7133 34.398 30.34C34.638 30.9533 34.7513 31.6267 34.738 32.36L34.718 33.24H26.138L25.678 31.6H32.938L32.638 31.94V31.46C32.598 31.02 32.4513 30.6267 32.198 30.28C31.9446 29.9333 31.6246 29.66 31.238 29.46C30.8513 29.26 30.4313 29.16 29.978 29.16C29.258 29.16 28.6513 29.3 28.158 29.58C27.6646 29.8467 27.2913 30.2467 27.038 30.78C26.7846 31.3 26.658 31.9467 26.658 32.72C26.658 33.4533 26.8113 34.0933 27.118 34.64C27.4246 35.1733 27.858 35.5867 28.418 35.88C28.978 36.1733 29.6246 36.32 30.358 36.32C30.878 36.32 31.358 36.2333 31.798 36.06C32.2513 35.8867 32.738 35.5733 33.258 35.12L34.298 36.58C33.978 36.9 33.5846 37.18 33.118 37.42C32.6646 37.66 32.178 37.8533 31.658 38C31.1513 38.1333 30.6513 38.2 30.158 38.2ZM47.7567 38.2C46.7967 38.2 45.9367 37.9667 45.1767 37.5C44.4301 37.02 43.8367 36.3733 43.3967 35.56C42.9567 34.7333 42.7367 33.7933 42.7367 32.74C42.7367 31.6867 42.9501 30.7533 43.3767 29.94C43.8167 29.1133 44.4101 28.4667 45.1567 28C45.9034 27.52 46.7501 27.28 47.6967 27.28C48.2167 27.28 48.7167 27.3667 49.1967 27.54C49.6901 27.7 50.1301 27.9267 50.5167 28.22C50.9034 28.5 51.2034 28.8133 51.4167 29.16C51.6434 29.4933 51.7567 29.8333 51.7567 30.18L51.1567 30.22V23.2H53.2167V38H51.1567V35.5H51.5567C51.5567 35.82 51.4501 36.14 51.2367 36.46C51.0234 36.7667 50.7367 37.0533 50.3767 37.32C50.0301 37.5867 49.6234 37.8 49.1567 37.96C48.7034 38.12 48.2367 38.2 47.7567 38.2ZM48.0367 36.42C48.6634 36.42 49.2167 36.26 49.6967 35.94C50.1767 35.62 50.5501 35.1867 50.8167 34.64C51.0967 34.08 51.2367 33.4467 51.2367 32.74C51.2367 32.0333 51.0967 31.4067 50.8167 30.86C50.5501 30.3 50.1767 29.86 49.6967 29.54C49.2167 29.22 48.6634 29.06 48.0367 29.06C47.4101 29.06 46.8567 29.22 46.3767 29.54C45.8967 29.86 45.5167 30.3 45.2367 30.86C44.9701 31.4067 44.8367 32.0333 44.8367 32.74C44.8367 33.4467 44.9701 34.08 45.2367 34.64C45.5167 35.1867 45.8967 35.62 46.3767 35.94C46.8567 36.26 47.4101 36.42 48.0367 36.42ZM62.7925 38V27.5H64.8525V38H62.7925ZM63.7925 25.18C63.3525 25.18 63.0125 25.0667 62.7725 24.84C62.5325 24.6133 62.4125 24.2933 62.4125 23.88C62.4125 23.4933 62.5325 23.18 62.7725 22.94C63.0258 22.7 63.3658 22.58 63.7925 22.58C64.2325 22.58 64.5725 22.6933 64.8125 22.92C65.0525 23.1467 65.1725 23.4667 65.1725 23.88C65.1725 24.2667 65.0458 24.58 64.7925 24.82C64.5525 25.06 64.2192 25.18 63.7925 25.18ZM78.4589 38.2C77.5922 38.2 76.7989 37.96 76.0789 37.48C75.3722 37 74.8056 36.3467 74.3789 35.52C73.9522 34.6933 73.7389 33.76 73.7389 32.72C73.7389 31.6667 73.9522 30.7333 74.3789 29.92C74.8189 29.0933 75.4056 28.4467 76.1389 27.98C76.8856 27.5133 77.7189 27.28 78.6389 27.28C79.1856 27.28 79.6856 27.36 80.1389 27.52C80.5922 27.68 80.9856 27.9067 81.3189 28.2C81.6656 28.48 81.9456 28.8067 82.1589 29.18C82.3856 29.5533 82.5256 29.9533 82.5789 30.38L82.1189 30.22V27.5H84.1989V38H82.1189V35.5L82.5989 35.36C82.5189 35.72 82.3522 36.0733 82.0989 36.42C81.8589 36.7533 81.5456 37.0533 81.1589 37.32C80.7856 37.5867 80.3656 37.8 79.8989 37.96C79.4456 38.12 78.9656 38.2 78.4589 38.2ZM78.9989 36.3C79.6256 36.3 80.1789 36.1467 80.6589 35.84C81.1389 35.5333 81.5122 35.1133 81.7789 34.58C82.0589 34.0333 82.1989 33.4133 82.1989 32.72C82.1989 32.04 82.0589 31.4333 81.7789 30.9C81.5122 30.3667 81.1389 29.9467 80.6589 29.64C80.1789 29.3333 79.6256 29.18 78.9989 29.18C78.3856 29.18 77.8389 29.3333 77.3589 29.64C76.8922 29.9467 76.5189 30.3667 76.2389 30.9C75.9722 31.4333 75.8389 32.04 75.8389 32.72C75.8389 33.4133 75.9722 34.0333 76.2389 34.58C76.5189 35.1133 76.8922 35.5333 77.3589 35.84C77.8389 36.1467 78.3856 36.3 78.9989 36.3ZM106.621 38V26.32C106.621 25.72 106.754 25.1867 107.021 24.72C107.287 24.2533 107.654 23.8867 108.121 23.62C108.587 23.3533 109.127 23.22 109.741 23.22C110.167 23.22 110.567 23.3 110.941 23.46C111.314 23.62 111.614 23.8333 111.841 24.1L111.141 25.68C110.967 25.52 110.774 25.3933 110.561 25.3C110.361 25.1933 110.167 25.14 109.981 25.14C109.701 25.14 109.461 25.1867 109.261 25.28C109.074 25.36 108.934 25.4933 108.841 25.68C108.747 25.8533 108.701 26.0667 108.701 26.32V38H107.661C107.487 38 107.314 38 107.141 38C106.967 38 106.794 38 106.621 38ZM104.941 29.58V27.68H111.181V29.58H104.941ZM124.062 38.2C123.035 38.2 122.115 37.9667 121.302 37.5C120.502 37.02 119.868 36.3733 119.402 35.56C118.935 34.7333 118.702 33.7933 118.702 32.74C118.702 31.6867 118.935 30.7533 119.402 29.94C119.868 29.1133 120.502 28.4667 121.302 28C122.115 27.52 123.035 27.28 124.062 27.28C125.075 27.28 125.982 27.52 126.782 28C127.595 28.4667 128.235 29.1133 128.702 29.94C129.168 30.7533 129.402 31.6867 129.402 32.74C129.402 33.7933 129.168 34.7333 128.702 35.56C128.235 36.3733 127.595 37.02 126.782 37.5C125.982 37.9667 125.075 38.2 124.062 38.2ZM124.062 36.32C124.688 36.32 125.248 36.1667 125.742 35.86C126.235 35.54 126.622 35.1133 126.902 34.58C127.182 34.0333 127.315 33.42 127.302 32.74C127.315 32.0467 127.182 31.4333 126.902 30.9C126.622 30.3533 126.235 29.9267 125.742 29.62C125.248 29.3133 124.688 29.16 124.062 29.16C123.435 29.16 122.868 29.32 122.362 29.64C121.868 29.9467 121.482 30.3733 121.202 30.92C120.922 31.4533 120.788 32.06 120.802 32.74C120.788 33.42 120.922 34.0333 121.202 34.58C121.482 35.1133 121.868 35.54 122.362 35.86C122.868 36.1667 123.435 36.32 124.062 36.32ZM138.046 38V27.5H140.126V30.8L139.926 30C140.073 29.4933 140.32 29.0333 140.666 28.62C141.026 28.2067 141.433 27.88 141.886 27.64C142.353 27.4 142.833 27.28 143.326 27.28C143.553 27.28 143.766 27.3 143.966 27.34C144.18 27.38 144.346 27.4267 144.466 27.48L143.926 29.72C143.766 29.6533 143.586 29.6 143.386 29.56C143.2 29.5067 143.013 29.48 142.826 29.48C142.466 29.48 142.12 29.5533 141.786 29.7C141.466 29.8333 141.18 30.0267 140.926 30.28C140.686 30.52 140.493 30.8067 140.346 31.14C140.2 31.46 140.126 31.8133 140.126 32.2V38H138.046ZM164.518 42.4V27.5H166.598V29.9L166.278 29.72C166.358 29.32 166.585 28.94 166.958 28.58C167.331 28.2067 167.785 27.9067 168.318 27.68C168.865 27.44 169.425 27.32 169.998 27.32C170.945 27.32 171.785 27.5533 172.518 28.02C173.251 28.4867 173.831 29.1267 174.258 29.94C174.685 30.7533 174.898 31.6867 174.898 32.74C174.898 33.78 174.685 34.7133 174.258 35.54C173.845 36.3533 173.271 37 172.538 37.48C171.805 37.9467 170.978 38.18 170.058 38.18C169.445 38.18 168.851 38.06 168.278 37.82C167.705 37.5667 167.218 37.2467 166.818 36.86C166.418 36.4733 166.171 36.0733 166.078 35.66L166.598 35.38V42.4H164.518ZM169.718 36.28C170.331 36.28 170.878 36.1267 171.358 35.82C171.838 35.5133 172.218 35.0933 172.498 34.56C172.778 34.0267 172.918 33.42 172.918 32.74C172.918 32.06 172.778 31.46 172.498 30.94C172.231 30.4067 171.858 29.9867 171.378 29.68C170.898 29.3733 170.345 29.22 169.718 29.22C169.091 29.22 168.538 29.3733 168.058 29.68C167.578 29.9733 167.198 30.3867 166.918 30.92C166.638 31.4533 166.498 32.06 166.498 32.74C166.498 33.42 166.638 34.0267 166.918 34.56C167.198 35.0933 167.578 35.5133 168.058 35.82C168.538 36.1267 169.091 36.28 169.718 36.28ZM183.535 38V27.5H185.615V30.8L185.415 30C185.562 29.4933 185.809 29.0333 186.155 28.62C186.515 28.2067 186.922 27.88 187.375 27.64C187.842 27.4 188.322 27.28 188.815 27.28C189.042 27.28 189.255 27.3 189.455 27.34C189.669 27.38 189.835 27.4267 189.955 27.48L189.415 29.72C189.255 29.6533 189.075 29.6 188.875 29.56C188.689 29.5067 188.502 29.48 188.315 29.48C187.955 29.48 187.609 29.5533 187.275 29.7C186.955 29.8333 186.669 30.0267 186.415 30.28C186.175 30.52 185.982 30.8067 185.835 31.14C185.689 31.46 185.615 31.8133 185.615 32.2V38H183.535ZM202.273 38.2C201.246 38.2 200.326 37.9667 199.513 37.5C198.713 37.02 198.079 36.3733 197.613 35.56C197.146 34.7333 196.913 33.7933 196.913 32.74C196.913 31.6867 197.146 30.7533 197.613 29.94C198.079 29.1133 198.713 28.4667 199.513 28C200.326 27.52 201.246 27.28 202.273 27.28C203.286 27.28 204.193 27.52 204.993 28C205.806 28.4667 206.446 29.1133 206.913 29.94C207.379 30.7533 207.613 31.6867 207.613 32.74C207.613 33.7933 207.379 34.7333 206.913 35.56C206.446 36.3733 205.806 37.02 204.993 37.5C204.193 37.9667 203.286 38.2 202.273 38.2ZM202.273 36.32C202.899 36.32 203.459 36.1667 203.953 35.86C204.446 35.54 204.833 35.1133 205.113 34.58C205.393 34.0333 205.526 33.42 205.513 32.74C205.526 32.0467 205.393 31.4333 205.113 30.9C204.833 30.3533 204.446 29.9267 203.953 29.62C203.459 29.3133 202.899 29.16 202.273 29.16C201.646 29.16 201.079 29.32 200.573 29.64C200.079 29.9467 199.693 30.3733 199.413 30.92C199.133 31.4533 198.999 32.06 199.013 32.74C198.999 33.42 199.133 34.0333 199.413 34.58C199.693 35.1133 200.079 35.54 200.573 35.86C201.079 36.1667 201.646 36.32 202.273 36.32ZM214.997 41.94L214.217 40.36C214.737 40.36 215.164 40.2667 215.497 40.08C215.844 39.9067 216.104 39.64 216.277 39.28C216.451 38.9333 216.537 38.5 216.537 37.98V27.5H218.597V38.48C218.597 39.16 218.444 39.76 218.137 40.28C217.844 40.8 217.424 41.2067 216.877 41.5C216.344 41.7933 215.717 41.94 214.997 41.94ZM217.617 25.18C217.177 25.18 216.837 25.0667 216.597 24.84C216.357 24.6133 216.237 24.2933 216.237 23.88C216.237 23.4933 216.357 23.18 216.597 22.94C216.851 22.7 217.191 22.58 217.617 22.58C218.057 22.58 218.397 22.6933 218.637 22.92C218.877 23.1467 218.997 23.4667 218.997 23.88C218.997 24.2667 218.871 24.58 218.617 24.82C218.377 25.06 218.044 25.18 217.617 25.18ZM232.85 38.2C231.77 38.2 230.81 37.9733 229.97 37.52C229.143 37.0533 228.49 36.42 228.01 35.62C227.543 34.82 227.31 33.9 227.31 32.86C227.31 32.0333 227.443 31.28 227.71 30.6C227.977 29.92 228.343 29.3333 228.81 28.84C229.29 28.3333 229.857 27.9467 230.51 27.68C231.177 27.4 231.897 27.26 232.67 27.26C233.35 27.26 233.983 27.3933 234.57 27.66C235.157 27.9133 235.663 28.2667 236.09 28.72C236.53 29.1733 236.863 29.7133 237.09 30.34C237.33 30.9533 237.443 31.6267 237.43 32.36L237.41 33.24H228.83L228.37 31.6H235.63L235.33 31.94V31.46C235.29 31.02 235.143 30.6267 234.89 30.28C234.637 29.9333 234.317 29.66 233.93 29.46C233.543 29.26 233.123 29.16 232.67 29.16C231.95 29.16 231.343 29.3 230.85 29.58C230.357 29.8467 229.983 30.2467 229.73 30.78C229.477 31.3 229.35 31.9467 229.35 32.72C229.35 33.4533 229.503 34.0933 229.81 34.64C230.117 35.1733 230.55 35.5867 231.11 35.88C231.67 36.1733 232.317 36.32 233.05 36.32C233.57 36.32 234.05 36.2333 234.49 36.06C234.943 35.8867 235.43 35.5733 235.95 35.12L236.99 36.58C236.67 36.9 236.277 37.18 235.81 37.42C235.357 37.66 234.87 37.8533 234.35 38C233.843 38.1333 233.343 38.2 232.85 38.2ZM250.529 38.2C249.556 38.2 248.682 37.96 247.909 37.48C247.149 37 246.542 36.3467 246.089 35.52C245.649 34.6933 245.429 33.7667 245.429 32.74C245.429 31.7133 245.649 30.7867 246.089 29.96C246.542 29.1333 247.149 28.48 247.909 28C248.682 27.52 249.556 27.28 250.529 27.28C251.462 27.28 252.309 27.4733 253.069 27.86C253.842 28.2333 254.429 28.7467 254.829 29.4L253.689 30.8C253.476 30.4933 253.202 30.2133 252.869 29.96C252.536 29.7067 252.182 29.5067 251.809 29.36C251.436 29.2133 251.076 29.14 250.729 29.14C250.089 29.14 249.516 29.3 249.009 29.62C248.516 29.9267 248.122 30.3533 247.829 30.9C247.536 31.4467 247.389 32.06 247.389 32.74C247.389 33.42 247.542 34.0333 247.849 34.58C248.156 35.1133 248.562 35.54 249.069 35.86C249.576 36.18 250.136 36.34 250.749 36.34C251.109 36.34 251.456 36.28 251.789 36.16C252.136 36.04 252.469 35.86 252.789 35.62C253.109 35.38 253.409 35.0867 253.689 34.74L254.829 36.14C254.402 36.74 253.789 37.2333 252.989 37.62C252.202 38.0067 251.382 38.2 250.529 38.2ZM264.472 38V24.82H266.532V38H264.472ZM262.292 29.5V27.5H268.972V29.5H262.292ZM281.138 38.2C280.258 38.2 279.465 38.0467 278.758 37.74C278.052 37.4333 277.465 36.98 276.998 36.38L278.398 35.18C278.798 35.6467 279.232 35.9867 279.698 36.2C280.178 36.4 280.718 36.5 281.318 36.5C281.558 36.5 281.778 36.4733 281.978 36.42C282.192 36.3533 282.372 36.26 282.518 36.14C282.678 36.02 282.798 35.88 282.878 35.72C282.958 35.5467 282.998 35.36 282.998 35.16C282.998 34.8133 282.872 34.5333 282.618 34.32C282.485 34.2267 282.272 34.1267 281.978 34.02C281.698 33.9 281.332 33.78 280.878 33.66C280.105 33.46 279.472 33.2333 278.978 32.98C278.485 32.7267 278.105 32.44 277.838 32.12C277.638 31.8667 277.492 31.5933 277.398 31.3C277.305 30.9933 277.258 30.66 277.258 30.3C277.258 29.86 277.352 29.46 277.538 29.1C277.738 28.7267 278.005 28.4067 278.338 28.14C278.685 27.86 279.085 27.6467 279.538 27.5C280.005 27.3533 280.498 27.28 281.018 27.28C281.512 27.28 281.998 27.3467 282.478 27.48C282.972 27.6133 283.425 27.8067 283.838 28.06C284.252 28.3133 284.598 28.6133 284.878 28.96L283.698 30.26C283.445 30.0067 283.165 29.7867 282.858 29.6C282.565 29.4 282.265 29.2467 281.958 29.14C281.652 29.0333 281.372 28.98 281.118 28.98C280.838 28.98 280.585 29.0067 280.358 29.06C280.132 29.1133 279.938 29.1933 279.778 29.3C279.632 29.4067 279.518 29.54 279.438 29.7C279.358 29.86 279.318 30.04 279.318 30.24C279.332 30.4133 279.372 30.58 279.438 30.74C279.518 30.8867 279.625 31.0133 279.758 31.12C279.905 31.2267 280.125 31.34 280.418 31.46C280.712 31.58 281.085 31.6933 281.538 31.8C282.205 31.9733 282.752 32.1667 283.178 32.38C283.618 32.58 283.965 32.8133 284.218 33.08C284.485 33.3333 284.672 33.6267 284.778 33.96C284.885 34.2933 284.938 34.6667 284.938 35.08C284.938 35.68 284.765 36.22 284.418 36.7C284.085 37.1667 283.632 37.5333 283.058 37.8C282.485 38.0667 281.845 38.2 281.138 38.2ZM309.654 38.2C308.788 38.2 307.994 37.96 307.274 37.48C306.568 37 306.001 36.3467 305.574 35.52C305.148 34.6933 304.934 33.76 304.934 32.72C304.934 31.6667 305.148 30.7333 305.574 29.92C306.014 29.0933 306.601 28.4467 307.334 27.98C308.081 27.5133 308.914 27.28 309.834 27.28C310.381 27.28 310.881 27.36 311.334 27.52C311.788 27.68 312.181 27.9067 312.514 28.2C312.861 28.48 313.141 28.8067 313.354 29.18C313.581 29.5533 313.721 29.9533 313.774 30.38L313.314 30.22V27.5H315.394V38H313.314V35.5L313.794 35.36C313.714 35.72 313.548 36.0733 313.294 36.42C313.054 36.7533 312.741 37.0533 312.354 37.32C311.981 37.5867 311.561 37.8 311.094 37.96C310.641 38.12 310.161 38.2 309.654 38.2ZM310.194 36.3C310.821 36.3 311.374 36.1467 311.854 35.84C312.334 35.5333 312.708 35.1133 312.974 34.58C313.254 34.0333 313.394 33.4133 313.394 32.72C313.394 32.04 313.254 31.4333 312.974 30.9C312.708 30.3667 312.334 29.9467 311.854 29.64C311.374 29.3333 310.821 29.18 310.194 29.18C309.581 29.18 309.034 29.3333 308.554 29.64C308.088 29.9467 307.714 30.3667 307.434 30.9C307.168 31.4333 307.034 32.04 307.034 32.72C307.034 33.4133 307.168 34.0333 307.434 34.58C307.714 35.1133 308.088 35.5333 308.554 35.84C309.034 36.1467 309.581 36.3 310.194 36.3ZM324.67 38V27.5H326.73V29.66L326.37 29.9C326.504 29.4333 326.764 29.0067 327.15 28.62C327.537 28.22 327.997 27.9 328.53 27.66C329.064 27.4067 329.61 27.28 330.17 27.28C330.97 27.28 331.637 27.44 332.17 27.76C332.704 28.0667 333.104 28.54 333.37 29.18C333.637 29.82 333.77 30.6267 333.77 31.6V38H331.71V31.74C331.71 31.14 331.63 30.6467 331.47 30.26C331.31 29.86 331.064 29.5733 330.73 29.4C330.397 29.2133 329.984 29.1333 329.49 29.16C329.09 29.16 328.724 29.2267 328.39 29.36C328.057 29.48 327.764 29.6533 327.51 29.88C327.27 30.1067 327.077 30.3733 326.93 30.68C326.797 30.9733 326.73 31.2933 326.73 31.64V38H325.71C325.537 38 325.364 38 325.19 38C325.017 38 324.844 38 324.67 38ZM347.345 38.2C346.385 38.2 345.525 37.9667 344.765 37.5C344.018 37.02 343.425 36.3733 342.985 35.56C342.545 34.7333 342.325 33.7933 342.325 32.74C342.325 31.6867 342.538 30.7533 342.965 29.94C343.405 29.1133 343.998 28.4667 344.745 28C345.492 27.52 346.338 27.28 347.285 27.28C347.805 27.28 348.305 27.3667 348.785 27.54C349.278 27.7 349.718 27.9267 350.105 28.22C350.492 28.5 350.792 28.8133 351.005 29.16C351.232 29.4933 351.345 29.8333 351.345 30.18L350.745 30.22V23.2H352.805V38H350.745V35.5H351.145C351.145 35.82 351.038 36.14 350.825 36.46C350.612 36.7667 350.325 37.0533 349.965 37.32C349.618 37.5867 349.212 37.8 348.745 37.96C348.292 38.12 347.825 38.2 347.345 38.2ZM347.625 36.42C348.252 36.42 348.805 36.26 349.285 35.94C349.765 35.62 350.138 35.1867 350.405 34.64C350.685 34.08 350.825 33.4467 350.825 32.74C350.825 32.0333 350.685 31.4067 350.405 30.86C350.138 30.3 349.765 29.86 349.285 29.54C348.805 29.22 348.252 29.06 347.625 29.06C346.998 29.06 346.445 29.22 345.965 29.54C345.485 29.86 345.105 30.3 344.825 30.86C344.558 31.4067 344.425 32.0333 344.425 32.74C344.425 33.4467 344.558 34.08 344.825 34.64C345.105 35.1867 345.485 35.62 345.965 35.94C346.445 36.26 346.998 36.42 347.625 36.42ZM378.506 38.2C377.533 38.2 376.66 37.96 375.886 37.48C375.126 37 374.52 36.3467 374.066 35.52C373.626 34.6933 373.406 33.7667 373.406 32.74C373.406 31.7133 373.626 30.7867 374.066 29.96C374.52 29.1333 375.126 28.48 375.886 28C376.66 27.52 377.533 27.28 378.506 27.28C379.44 27.28 380.286 27.4733 381.046 27.86C381.82 28.2333 382.406 28.7467 382.806 29.4L381.666 30.8C381.453 30.4933 381.18 30.2133 380.846 29.96C380.513 29.7067 380.16 29.5067 379.786 29.36C379.413 29.2133 379.053 29.14 378.706 29.14C378.066 29.14 377.493 29.3 376.986 29.62C376.493 29.9267 376.1 30.3533 375.806 30.9C375.513 31.4467 375.366 32.06 375.366 32.74C375.366 33.42 375.52 34.0333 375.826 34.58C376.133 35.1133 376.54 35.54 377.046 35.86C377.553 36.18 378.113 36.34 378.726 36.34C379.086 36.34 379.433 36.28 379.766 36.16C380.113 36.04 380.446 35.86 380.766 35.62C381.086 35.38 381.386 35.0867 381.666 34.74L382.806 36.14C382.38 36.74 381.766 37.2333 380.966 37.62C380.18 38.0067 379.36 38.2 378.506 38.2ZM395.189 38.2C394.323 38.2 393.529 37.96 392.809 37.48C392.103 37 391.536 36.3467 391.109 35.52C390.683 34.6933 390.469 33.76 390.469 32.72C390.469 31.6667 390.683 30.7333 391.109 29.92C391.549 29.0933 392.136 28.4467 392.869 27.98C393.616 27.5133 394.449 27.28 395.369 27.28C395.916 27.28 396.416 27.36 396.869 27.52C397.323 27.68 397.716 27.9067 398.049 28.2C398.396 28.48 398.676 28.8067 398.889 29.18C399.116 29.5533 399.256 29.9533 399.309 30.38L398.849 30.22V27.5H400.929V38H398.849V35.5L399.329 35.36C399.249 35.72 399.083 36.0733 398.829 36.42C398.589 36.7533 398.276 37.0533 397.889 37.32C397.516 37.5867 397.096 37.8 396.629 37.96C396.176 38.12 395.696 38.2 395.189 38.2ZM395.729 36.3C396.356 36.3 396.909 36.1467 397.389 35.84C397.869 35.5333 398.243 35.1133 398.509 34.58C398.789 34.0333 398.929 33.4133 398.929 32.72C398.929 32.04 398.789 31.4333 398.509 30.9C398.243 30.3667 397.869 29.9467 397.389 29.64C396.909 29.3333 396.356 29.18 395.729 29.18C395.116 29.18 394.569 29.3333 394.089 29.64C393.623 29.9467 393.249 30.3667 392.969 30.9C392.703 31.4333 392.569 32.04 392.569 32.72C392.569 33.4133 392.703 34.0333 392.969 34.58C393.249 35.1133 393.623 35.5333 394.089 35.84C394.569 36.1467 395.116 36.3 395.729 36.3ZM410.166 38V27.5H412.246V29.74L411.866 29.98C411.972 29.6333 412.139 29.3 412.366 28.98C412.606 28.66 412.892 28.38 413.226 28.14C413.572 27.8867 413.939 27.6867 414.326 27.54C414.726 27.3933 415.132 27.32 415.546 27.32C416.146 27.32 416.672 27.42 417.126 27.62C417.579 27.82 417.952 28.12 418.246 28.52C418.539 28.92 418.752 29.42 418.886 30.02L418.566 29.94L418.706 29.6C418.852 29.2933 419.052 29.0067 419.306 28.74C419.572 28.46 419.872 28.2133 420.206 28C420.539 27.7867 420.892 27.62 421.266 27.5C421.639 27.38 422.006 27.32 422.366 27.32C423.152 27.32 423.799 27.48 424.306 27.8C424.826 28.12 425.212 28.6067 425.466 29.26C425.732 29.9133 425.866 30.7267 425.866 31.7V38H423.786V31.82C423.786 31.22 423.706 30.7333 423.546 30.36C423.399 29.9733 423.172 29.6867 422.866 29.5C422.559 29.3133 422.166 29.22 421.686 29.22C421.312 29.22 420.959 29.2867 420.626 29.42C420.306 29.54 420.026 29.7133 419.786 29.94C419.546 30.1667 419.359 30.4333 419.226 30.74C419.092 31.0333 419.026 31.36 419.026 31.72V38H416.946V31.78C416.946 31.2333 416.866 30.7733 416.706 30.4C416.546 30.0133 416.312 29.72 416.006 29.52C415.699 29.32 415.326 29.22 414.886 29.22C414.512 29.22 414.166 29.2867 413.846 29.42C413.526 29.54 413.246 29.7133 413.006 29.94C412.766 30.1533 412.579 30.4133 412.446 30.72C412.312 31.0133 412.246 31.3333 412.246 31.68V38H410.166ZM435.024 42.4V27.5H437.104V29.9L436.784 29.72C436.864 29.32 437.09 28.94 437.464 28.58C437.837 28.2067 438.29 27.9067 438.824 27.68C439.37 27.44 439.93 27.32 440.504 27.32C441.45 27.32 442.29 27.5533 443.024 28.02C443.757 28.4867 444.337 29.1267 444.764 29.94C445.19 30.7533 445.404 31.6867 445.404 32.74C445.404 33.78 445.19 34.7133 444.764 35.54C444.35 36.3533 443.777 37 443.044 37.48C442.31 37.9467 441.484 38.18 440.564 38.18C439.95 38.18 439.357 38.06 438.784 37.82C438.21 37.5667 437.724 37.2467 437.324 36.86C436.924 36.4733 436.677 36.0733 436.584 35.66L437.104 35.38V42.4H435.024ZM440.224 36.28C440.837 36.28 441.384 36.1267 441.864 35.82C442.344 35.5133 442.724 35.0933 443.004 34.56C443.284 34.0267 443.424 33.42 443.424 32.74C443.424 32.06 443.284 31.46 443.004 30.94C442.737 30.4067 442.364 29.9867 441.884 29.68C441.404 29.3733 440.85 29.22 440.224 29.22C439.597 29.22 439.044 29.3733 438.564 29.68C438.084 29.9733 437.704 30.3867 437.424 30.92C437.144 31.4533 437.004 32.06 437.004 32.74C437.004 33.42 437.144 34.0267 437.424 34.56C437.704 35.0933 438.084 35.5133 438.564 35.82C439.044 36.1267 439.597 36.28 440.224 36.28ZM458.081 38.2C457.214 38.2 456.421 37.96 455.701 37.48C454.994 37 454.427 36.3467 454.001 35.52C453.574 34.6933 453.361 33.76 453.361 32.72C453.361 31.6667 453.574 30.7333 454.001 29.92C454.441 29.0933 455.027 28.4467 455.761 27.98C456.507 27.5133 457.341 27.28 458.261 27.28C458.807 27.28 459.307 27.36 459.761 27.52C460.214 27.68 460.607 27.9067 460.941 28.2C461.287 28.48 461.567 28.8067 461.781 29.18C462.007 29.5533 462.147 29.9533 462.201 30.38L461.741 30.22V27.5H463.821V38H461.741V35.5L462.221 35.36C462.141 35.72 461.974 36.0733 461.721 36.42C461.481 36.7533 461.167 37.0533 460.781 37.32C460.407 37.5867 459.987 37.8 459.521 37.96C459.067 38.12 458.587 38.2 458.081 38.2ZM458.621 36.3C459.247 36.3 459.801 36.1467 460.281 35.84C460.761 35.5333 461.134 35.1133 461.401 34.58C461.681 34.0333 461.821 33.4133 461.821 32.72C461.821 32.04 461.681 31.4333 461.401 30.9C461.134 30.3667 460.761 29.9467 460.281 29.64C459.801 29.3333 459.247 29.18 458.621 29.18C458.007 29.18 457.461 29.3333 456.981 29.64C456.514 29.9467 456.141 30.3667 455.861 30.9C455.594 31.4333 455.461 32.04 455.461 32.72C455.461 33.4133 455.594 34.0333 455.861 34.58C456.141 35.1133 456.514 35.5333 456.981 35.84C457.461 36.1467 458.007 36.3 458.621 36.3ZM473.437 38V27.5H475.497V38H473.437ZM474.437 25.18C473.997 25.18 473.657 25.0667 473.417 24.84C473.177 24.6133 473.057 24.2933 473.057 23.88C473.057 23.4933 473.177 23.18 473.417 22.94C473.67 22.7 474.01 22.58 474.437 22.58C474.877 22.58 475.217 22.6933 475.457 22.92C475.697 23.1467 475.817 23.4667 475.817 23.88C475.817 24.2667 475.69 24.58 475.437 24.82C475.197 25.06 474.864 25.18 474.437 25.18ZM489.763 42.6C489.017 42.6 488.27 42.48 487.523 42.24C486.79 42.0133 486.197 41.7133 485.743 41.34L486.503 39.74C486.77 39.94 487.083 40.1133 487.443 40.26C487.803 40.42 488.183 40.54 488.583 40.62C488.983 40.7133 489.377 40.76 489.763 40.76C490.497 40.76 491.11 40.64 491.603 40.4C492.097 40.16 492.47 39.8067 492.723 39.34C492.977 38.8733 493.103 38.2933 493.103 37.6V35.58L493.323 35.72C493.257 36.1333 493.037 36.5333 492.663 36.92C492.303 37.2933 491.85 37.6 491.303 37.84C490.757 38.08 490.197 38.2 489.623 38.2C488.623 38.2 487.73 37.9667 486.943 37.5C486.17 37.02 485.557 36.3733 485.103 35.56C484.65 34.7333 484.423 33.7933 484.423 32.74C484.423 31.6867 484.643 30.7533 485.083 29.94C485.537 29.1133 486.15 28.4667 486.923 28C487.71 27.52 488.59 27.28 489.563 27.28C489.963 27.28 490.35 27.3333 490.723 27.44C491.097 27.5333 491.443 27.6733 491.763 27.86C492.083 28.0333 492.37 28.2267 492.623 28.44C492.877 28.6533 493.083 28.88 493.243 29.12C493.403 29.36 493.503 29.5867 493.543 29.8L493.103 29.96V27.5H495.163V37.36C495.163 38.2 495.037 38.94 494.783 39.58C494.543 40.2333 494.19 40.78 493.723 41.22C493.257 41.6733 492.69 42.0133 492.023 42.24C491.357 42.48 490.603 42.6 489.763 42.6ZM489.843 36.3C490.497 36.3 491.077 36.1467 491.583 35.84C492.09 35.5333 492.483 35.1133 492.763 34.58C493.043 34.0467 493.183 33.4333 493.183 32.74C493.183 32.0467 493.037 31.4333 492.743 30.9C492.463 30.3533 492.07 29.9267 491.563 29.62C491.07 29.3133 490.497 29.16 489.843 29.16C489.203 29.16 488.63 29.32 488.123 29.64C487.63 29.9467 487.237 30.3733 486.943 30.92C486.663 31.4533 486.523 32.06 486.523 32.74C486.523 33.42 486.663 34.0333 486.943 34.58C487.237 35.1133 487.63 35.5333 488.123 35.84C488.63 36.1467 489.203 36.3 489.843 36.3ZM504.452 38V27.5H506.512V29.66L506.152 29.9C506.285 29.4333 506.545 29.0067 506.932 28.62C507.318 28.22 507.778 27.9 508.312 27.66C508.845 27.4067 509.392 27.28 509.952 27.28C510.752 27.28 511.418 27.44 511.952 27.76C512.485 28.0667 512.885 28.54 513.152 29.18C513.418 29.82 513.552 30.6267 513.552 31.6V38H511.492V31.74C511.492 31.14 511.412 30.6467 511.252 30.26C511.092 29.86 510.845 29.5733 510.512 29.4C510.178 29.2133 509.765 29.1333 509.272 29.16C508.872 29.16 508.505 29.2267 508.172 29.36C507.838 29.48 507.545 29.6533 507.292 29.88C507.052 30.1067 506.858 30.3733 506.712 30.68C506.578 30.9733 506.512 31.2933 506.512 31.64V38H505.492C505.318 38 505.145 38 504.972 38C504.798 38 504.625 38 504.452 38ZM526.246 38.2C525.366 38.2 524.573 38.0467 523.866 37.74C523.16 37.4333 522.573 36.98 522.106 36.38L523.506 35.18C523.906 35.6467 524.34 35.9867 524.806 36.2C525.286 36.4 525.826 36.5 526.426 36.5C526.666 36.5 526.886 36.4733 527.086 36.42C527.3 36.3533 527.48 36.26 527.626 36.14C527.786 36.02 527.906 35.88 527.986 35.72C528.066 35.5467 528.106 35.36 528.106 35.16C528.106 34.8133 527.98 34.5333 527.726 34.32C527.593 34.2267 527.38 34.1267 527.086 34.02C526.806 33.9 526.44 33.78 525.986 33.66C525.213 33.46 524.58 33.2333 524.086 32.98C523.593 32.7267 523.213 32.44 522.946 32.12C522.746 31.8667 522.6 31.5933 522.506 31.3C522.413 30.9933 522.366 30.66 522.366 30.3C522.366 29.86 522.46 29.46 522.646 29.1C522.846 28.7267 523.113 28.4067 523.446 28.14C523.793 27.86 524.193 27.6467 524.646 27.5C525.113 27.3533 525.606 27.28 526.126 27.28C526.62 27.28 527.106 27.3467 527.586 27.48C528.08 27.6133 528.533 27.8067 528.946 28.06C529.36 28.3133 529.706 28.6133 529.986 28.96L528.806 30.26C528.553 30.0067 528.273 29.7867 527.966 29.6C527.673 29.4 527.373 29.2467 527.066 29.14C526.76 29.0333 526.48 28.98 526.226 28.98C525.946 28.98 525.693 29.0067 525.466 29.06C525.24 29.1133 525.046 29.1933 524.886 29.3C524.74 29.4067 524.626 29.54 524.546 29.7C524.466 29.86 524.426 30.04 524.426 30.24C524.44 30.4133 524.48 30.58 524.546 30.74C524.626 30.8867 524.733 31.0133 524.866 31.12C525.013 31.2267 525.233 31.34 525.526 31.46C525.82 31.58 526.193 31.6933 526.646 31.8C527.313 31.9733 527.86 32.1667 528.286 32.38C528.726 32.58 529.073 32.8133 529.326 33.08C529.593 33.3333 529.78 33.6267 529.886 33.96C529.993 34.2933 530.046 34.6667 530.046 35.08C530.046 35.68 529.873 36.22 529.526 36.7C529.193 37.1667 528.74 37.5333 528.166 37.8C527.593 38.0667 526.953 38.2 526.246 38.2ZM539.557 38.22C539.117 38.22 538.777 38.0933 538.537 37.84C538.297 37.5733 538.177 37.2 538.177 36.72C538.177 36.28 538.303 35.92 538.557 35.64C538.81 35.36 539.143 35.22 539.557 35.22C539.997 35.22 540.337 35.3533 540.577 35.62C540.817 35.8733 540.937 36.24 540.937 36.72C540.937 37.16 540.81 37.52 540.557 37.8C540.303 38.08 539.97 38.22 539.557 38.22Z" fill="white"/>
</svg>
