<svg width="341" height="26" viewBox="0 0 341 26" fill="none" xmlns="http://www.w3.org/2000/svg">
<path d="M0.4 25V4H16.09V9.25H6.61V19.75H16.63V25H0.4ZM3.49 16.84V11.92H14.98V16.84H3.49ZM24.3391 25V2.8H30.4291V25H24.3391ZM46.2993 25.3C44.4393 25.3 42.8393 24.94 41.4993 24.22C40.1593 23.5 39.1293 22.52 38.4093 21.28C37.6893 20.02 37.3293 18.58 37.3293 16.96C37.3293 15.76 37.5293 14.65 37.9293 13.63C38.3293 12.61 38.8893 11.73 39.6093 10.99C40.3493 10.23 41.2093 9.65 42.1893 9.25C43.1893 8.83 44.2793 8.62 45.4593 8.62C46.6393 8.62 47.7093 8.83 48.6693 9.25C49.6493 9.65 50.4893 10.23 51.1893 10.99C51.8893 11.73 52.4193 12.61 52.7793 13.63C53.1593 14.65 53.3293 15.76 53.2893 16.96L53.2593 18.22H40.6893L39.9993 15.37H48.4293L47.8593 15.97V15.43C47.8593 15.05 47.7593 14.72 47.5593 14.44C47.3793 14.14 47.1193 13.91 46.7793 13.75C46.4393 13.59 46.0393 13.51 45.5793 13.51C44.9993 13.51 44.5093 13.63 44.1093 13.87C43.7093 14.11 43.3993 14.45 43.1793 14.89C42.9793 15.33 42.8793 15.86 42.8793 16.48C42.8793 17.2 43.0293 17.83 43.3293 18.37C43.6493 18.91 44.1093 19.33 44.7093 19.63C45.3293 19.93 46.0893 20.08 46.9893 20.08C47.5893 20.08 48.0993 20.01 48.5193 19.87C48.9593 19.71 49.4193 19.46 49.8993 19.12L52.6893 23.05C51.9493 23.63 51.2193 24.08 50.4993 24.4C49.7993 24.72 49.0993 24.95 48.3993 25.09C47.7193 25.23 47.0193 25.3 46.2993 25.3ZM67.5374 25.3C65.9174 25.3 64.4674 24.94 63.1874 24.22C61.9274 23.5 60.9274 22.52 60.1874 21.28C59.4674 20.02 59.1074 18.58 59.1074 16.96C59.1074 15.34 59.4674 13.91 60.1874 12.67C60.9274 11.41 61.9274 10.42 63.1874 9.7C64.4674 8.98 65.9174 8.62 67.5374 8.62C68.9774 8.62 70.3074 8.84 71.5274 9.28C72.7474 9.72 73.7374 10.36 74.4974 11.2L71.1974 15.1C70.9774 14.86 70.7174 14.64 70.4174 14.44C70.1174 14.24 69.7774 14.09 69.3974 13.99C69.0174 13.87 68.5774 13.81 68.0774 13.81C67.4774 13.81 66.9474 13.94 66.4874 14.2C66.0474 14.46 65.7074 14.83 65.4674 15.31C65.2274 15.77 65.1074 16.31 65.1074 16.93C65.1074 17.53 65.2174 18.07 65.4374 18.55C65.6774 19.01 66.0174 19.38 66.4574 19.66C66.9174 19.94 67.4574 20.08 68.0774 20.08C68.5774 20.08 69.0174 20.03 69.3974 19.93C69.7774 19.83 70.1174 19.69 70.4174 19.51C70.7174 19.31 70.9774 19.08 71.1974 18.82L74.4674 22.75C73.7274 23.57 72.7474 24.2 71.5274 24.64C70.3074 25.08 68.9774 25.3 67.5374 25.3ZM81.9295 25V4.9H88.0195V25H81.9295ZM79.4395 14.05V8.95H90.6595V14.05H79.4395ZM97.5648 25V8.95H103.205L103.565 14.29L102.215 13.45C102.475 12.53 102.885 11.71 103.445 10.99C104.005 10.25 104.675 9.67 105.455 9.25C106.255 8.83 107.105 8.62 108.005 8.62C108.365 8.62 108.705 8.65 109.025 8.71C109.345 8.75 109.655 8.81 109.955 8.89L108.275 15.64C108.075 15.5 107.755 15.37 107.315 15.25C106.895 15.13 106.435 15.07 105.935 15.07C105.575 15.07 105.245 15.13 104.945 15.25C104.665 15.35 104.425 15.51 104.225 15.73C104.045 15.95 103.905 16.21 103.805 16.51C103.705 16.81 103.655 17.16 103.655 17.56V25H97.5648ZM123.716 25.3C121.976 25.3 120.426 24.94 119.066 24.22C117.706 23.5 116.636 22.52 115.856 21.28C115.076 20.02 114.686 18.58 114.686 16.96C114.686 15.34 115.076 13.91 115.856 12.67C116.636 11.41 117.706 10.42 119.066 9.7C120.426 8.98 121.976 8.62 123.716 8.62C125.456 8.62 126.996 8.98 128.336 9.7C129.696 10.42 130.756 11.41 131.516 12.67C132.296 13.91 132.686 15.34 132.686 16.96C132.686 18.58 132.296 20.02 131.516 21.28C130.756 22.52 129.696 23.5 128.336 24.22C126.996 24.94 125.456 25.3 123.716 25.3ZM123.716 20.2C124.256 20.2 124.736 20.06 125.156 19.78C125.596 19.5 125.936 19.12 126.176 18.64C126.416 18.14 126.536 17.58 126.536 16.96C126.536 16.32 126.416 15.76 126.176 15.28C125.936 14.78 125.596 14.39 125.156 14.11C124.736 13.83 124.256 13.69 123.716 13.69C123.156 13.69 122.656 13.83 122.216 14.11C121.796 14.39 121.456 14.78 121.196 15.28C120.956 15.76 120.836 16.32 120.836 16.96C120.836 17.58 120.956 18.14 121.196 18.64C121.456 19.12 121.796 19.5 122.216 19.78C122.656 20.06 123.156 20.2 123.716 20.2ZM139.891 25V8.95H145.531L145.831 12.19L144.541 12.55C144.761 11.79 145.151 11.12 145.711 10.54C146.291 9.94 146.981 9.47 147.781 9.13C148.581 8.79 149.431 8.62 150.331 8.62C151.531 8.62 152.551 8.87 153.391 9.37C154.231 9.87 154.861 10.61 155.281 11.59C155.721 12.55 155.941 13.72 155.941 15.1V25H149.851V15.61C149.851 15.17 149.781 14.8 149.641 14.5C149.501 14.2 149.291 13.97 149.011 13.81C148.731 13.65 148.401 13.57 148.021 13.57C147.721 13.57 147.441 13.62 147.181 13.72C146.941 13.8 146.731 13.93 146.551 14.11C146.371 14.29 146.231 14.49 146.131 14.71C146.031 14.93 145.981 15.18 145.981 15.46V25H142.951C142.191 25 141.551 25 141.031 25C140.531 25 140.151 25 139.891 25ZM164.132 25V8.95H170.222V25H164.132ZM167.192 6.04C166.112 6.04 165.262 5.79 164.642 5.29C164.042 4.79 163.742 4.08 163.742 3.16C163.742 2.32 164.052 1.63 164.672 1.09C165.292 0.549998 166.132 0.279998 167.192 0.279998C168.272 0.279998 169.112 0.529999 169.712 1.03C170.332 1.53 170.642 2.24 170.642 3.16C170.642 4 170.332 4.69 169.712 5.23C169.092 5.77 168.252 6.04 167.192 6.04ZM185.96 25.3C184.34 25.3 182.89 24.94 181.61 24.22C180.35 23.5 179.35 22.52 178.61 21.28C177.89 20.02 177.53 18.58 177.53 16.96C177.53 15.34 177.89 13.91 178.61 12.67C179.35 11.41 180.35 10.42 181.61 9.7C182.89 8.98 184.34 8.62 185.96 8.62C187.4 8.62 188.73 8.84 189.95 9.28C191.17 9.72 192.16 10.36 192.92 11.2L189.62 15.1C189.4 14.86 189.14 14.64 188.84 14.44C188.54 14.24 188.2 14.09 187.82 13.99C187.44 13.87 187 13.81 186.5 13.81C185.9 13.81 185.37 13.94 184.91 14.2C184.47 14.46 184.13 14.83 183.89 15.31C183.65 15.77 183.53 16.31 183.53 16.93C183.53 17.53 183.64 18.07 183.86 18.55C184.1 19.01 184.44 19.38 184.88 19.66C185.34 19.94 185.88 20.08 186.5 20.08C187 20.08 187.44 20.03 187.82 19.93C188.2 19.83 188.54 19.69 188.84 19.51C189.14 19.31 189.4 19.08 189.62 18.82L192.89 22.75C192.15 23.57 191.17 24.2 189.95 24.64C188.73 25.08 187.4 25.3 185.96 25.3ZM205.002 25.3C203.262 25.3 201.742 25.04 200.442 24.52C199.162 23.98 198.162 23.31 197.442 22.51L200.982 19.48C201.622 20.04 202.352 20.46 203.172 20.74C204.012 21 204.712 21.13 205.272 21.13C205.472 21.13 205.642 21.12 205.782 21.1C205.942 21.06 206.062 21.01 206.142 20.95C206.242 20.87 206.312 20.79 206.352 20.71C206.412 20.63 206.442 20.53 206.442 20.41C206.442 20.11 206.282 19.89 205.962 19.75C205.782 19.67 205.482 19.57 205.062 19.45C204.662 19.33 204.132 19.19 203.472 19.03C202.692 18.83 201.972 18.58 201.312 18.28C200.672 17.98 200.122 17.63 199.662 17.23C199.182 16.79 198.802 16.29 198.522 15.73C198.262 15.17 198.132 14.54 198.132 13.84C198.132 13.02 198.322 12.29 198.702 11.65C199.082 11.01 199.602 10.47 200.262 10.03C200.922 9.57 201.662 9.22 202.482 8.98C203.302 8.74 204.142 8.62 205.002 8.62C205.982 8.62 206.892 8.72 207.732 8.92C208.592 9.1 209.392 9.37 210.132 9.73C210.892 10.07 211.582 10.48 212.202 10.96L209.112 14.41C208.772 14.13 208.372 13.86 207.912 13.6C207.472 13.34 207.002 13.13 206.502 12.97C206.022 12.79 205.572 12.7 205.152 12.7C204.932 12.7 204.742 12.72 204.582 12.76C204.442 12.78 204.322 12.83 204.222 12.91C204.122 12.97 204.042 13.05 203.982 13.15C203.942 13.23 203.922 13.33 203.922 13.45C203.922 13.61 203.972 13.76 204.072 13.9C204.172 14.04 204.332 14.16 204.552 14.26C204.732 14.34 205.032 14.45 205.452 14.59C205.892 14.73 206.532 14.92 207.372 15.16C208.272 15.42 209.062 15.72 209.742 16.06C210.442 16.4 211.002 16.8 211.422 17.26C211.702 17.58 211.922 17.94 212.082 18.34C212.242 18.74 212.322 19.17 212.322 19.63C212.322 20.73 212.002 21.71 211.362 22.57C210.742 23.41 209.882 24.08 208.782 24.58C207.682 25.06 206.422 25.3 205.002 25.3ZM248.995 25L247.405 23.38L244.585 20.86L240.775 16.99C239.775 15.97 238.975 15.08 238.375 14.32C237.795 13.54 237.365 12.85 237.085 12.25C236.805 11.65 236.615 11.11 236.515 10.63C236.435 10.13 236.395 9.67 236.395 9.25C236.395 8.13 236.695 7.13 237.295 6.25C237.895 5.37 238.725 4.68 239.785 4.18C240.865 3.66 242.105 3.4 243.505 3.4C244.585 3.4 245.605 3.57 246.565 3.91C247.525 4.23 248.345 4.69 249.025 5.29C249.725 5.89 250.215 6.6 250.495 7.42L245.605 10.24C245.305 9.5 245.015 9.03 244.735 8.83C244.455 8.61 244.135 8.5 243.775 8.5C243.495 8.5 243.245 8.55 243.025 8.65C242.805 8.75 242.635 8.9 242.515 9.1C242.395 9.3 242.335 9.54 242.335 9.82C242.335 10.18 242.515 10.64 242.875 11.2C243.235 11.76 243.695 12.36 244.255 13C244.815 13.62 245.385 14.22 245.965 14.8C246.545 15.38 247.055 15.88 247.495 16.3L248.305 17.08L251.275 19.66L256.375 25H248.995ZM241.765 25.3C240.085 25.3 238.585 25 237.265 24.4C235.945 23.8 234.905 22.97 234.145 21.91C233.385 20.85 233.005 19.65 233.005 18.31C233.005 16.95 233.415 15.69 234.235 14.53C235.075 13.35 236.325 12.46 237.985 11.86L241.765 15.22C240.785 15.44 240.025 15.8 239.485 16.3C238.965 16.78 238.705 17.36 238.705 18.04C238.705 18.6 238.835 19.08 239.095 19.48C239.375 19.86 239.775 20.15 240.295 20.35C240.815 20.55 241.445 20.65 242.185 20.65C242.905 20.65 243.585 20.5 244.225 20.2C244.885 19.88 245.465 19.44 245.965 18.88C246.465 18.32 246.865 17.65 247.165 16.87C247.485 16.07 247.675 15.19 247.735 14.23H253.495C253.315 15.55 252.985 16.78 252.505 17.92C252.045 19.04 251.455 20.06 250.735 20.98C250.035 21.88 249.215 22.66 248.275 23.32C247.355 23.96 246.345 24.45 245.245 24.79C244.165 25.13 243.005 25.3 241.765 25.3ZM276.755 25V19.75H280.445V9.25H276.755V4H290.615V9.25H286.925V19.75H290.615V25H276.755ZM307.004 25.3C305.264 25.3 303.714 24.94 302.354 24.22C300.994 23.5 299.924 22.52 299.144 21.28C298.364 20.02 297.974 18.58 297.974 16.96C297.974 15.34 298.364 13.91 299.144 12.67C299.924 11.41 300.994 10.42 302.354 9.7C303.714 8.98 305.264 8.62 307.004 8.62C308.744 8.62 310.284 8.98 311.624 9.7C312.984 10.42 314.044 11.41 314.804 12.67C315.584 13.91 315.974 15.34 315.974 16.96C315.974 18.58 315.584 20.02 314.804 21.28C314.044 22.52 312.984 23.5 311.624 24.22C310.284 24.94 308.744 25.3 307.004 25.3ZM307.004 20.2C307.544 20.2 308.024 20.06 308.444 19.78C308.884 19.5 309.224 19.12 309.464 18.64C309.704 18.14 309.824 17.58 309.824 16.96C309.824 16.32 309.704 15.76 309.464 15.28C309.224 14.78 308.884 14.39 308.444 14.11C308.024 13.83 307.544 13.69 307.004 13.69C306.444 13.69 305.944 13.83 305.504 14.11C305.084 14.39 304.744 14.78 304.484 15.28C304.244 15.76 304.124 16.32 304.124 16.96C304.124 17.58 304.244 18.14 304.484 18.64C304.744 19.12 305.084 19.5 305.504 19.78C305.944 20.06 306.444 20.2 307.004 20.2ZM327.023 25V9.52H320.543V4H340.163V9.52H333.503V25H327.023Z" fill="white"/>
</svg>
