<svg width="687" height="42" viewBox="0 0 687 42" fill="none" xmlns="http://www.w3.org/2000/svg">
<path d="M0.96 15V0.999999H3.12V15H0.96ZM1.92 9.04V6.96H9.14V9.04H1.92ZM1.92 3.08V0.999999H10.04V3.08H1.92ZM23.2983 15.2C22.2716 15.2 21.3516 14.9667 20.5383 14.5C19.7383 14.02 19.1049 13.3733 18.6383 12.56C18.1716 11.7333 17.9383 10.7933 17.9383 9.74C17.9383 8.68667 18.1716 7.75333 18.6383 6.94C19.1049 6.11333 19.7383 5.46667 20.5383 5C21.3516 4.52 22.2716 4.28 23.2983 4.28C24.3116 4.28 25.2183 4.52 26.0183 5C26.8316 5.46667 27.4716 6.11333 27.9383 6.94C28.4049 7.75333 28.6383 8.68667 28.6383 9.74C28.6383 10.7933 28.4049 11.7333 27.9383 12.56C27.4716 13.3733 26.8316 14.02 26.0183 14.5C25.2183 14.9667 24.3116 15.2 23.2983 15.2ZM23.2983 13.32C23.9249 13.32 24.4849 13.1667 24.9783 12.86C25.4716 12.54 25.8583 12.1133 26.1383 11.58C26.4183 11.0333 26.5516 10.42 26.5383 9.74C26.5516 9.04667 26.4183 8.43333 26.1383 7.9C25.8583 7.35333 25.4716 6.92667 24.9783 6.62C24.4849 6.31333 23.9249 6.16 23.2983 6.16C22.6716 6.16 22.1049 6.32 21.5983 6.64C21.1049 6.94667 20.7183 7.37333 20.4383 7.92C20.1583 8.45333 20.0249 9.06 20.0383 9.74C20.0249 10.42 20.1583 11.0333 20.4383 11.58C20.7183 12.1133 21.1049 12.54 21.5983 12.86C22.1049 13.1667 22.6716 13.32 23.2983 13.32ZM41.743 15.2C40.7696 15.2 39.8963 14.96 39.123 14.48C38.363 14 37.7563 13.3467 37.303 12.52C36.863 11.6933 36.643 10.7667 36.643 9.74C36.643 8.71333 36.863 7.78667 37.303 6.96C37.7563 6.13333 38.363 5.48 39.123 5C39.8963 4.52 40.7696 4.28 41.743 4.28C42.6763 4.28 43.523 4.47333 44.283 4.86C45.0563 5.23333 45.643 5.74667 46.043 6.4L44.903 7.8C44.6896 7.49333 44.4163 7.21333 44.083 6.96C43.7496 6.70667 43.3963 6.50667 43.023 6.36C42.6496 6.21333 42.2896 6.14 41.943 6.14C41.303 6.14 40.7296 6.3 40.223 6.62C39.7296 6.92667 39.3363 7.35333 39.043 7.9C38.7496 8.44667 38.603 9.06 38.603 9.74C38.603 10.42 38.7563 11.0333 39.063 11.58C39.3696 12.1133 39.7763 12.54 40.283 12.86C40.7896 13.18 41.3496 13.34 41.963 13.34C42.323 13.34 42.6696 13.28 43.003 13.16C43.3496 13.04 43.683 12.86 44.003 12.62C44.323 12.38 44.623 12.0867 44.903 11.74L46.043 13.14C45.6163 13.74 45.003 14.2333 44.203 14.62C43.4163 15.0067 42.5963 15.2 41.743 15.2ZM58.0661 15.2C57.3194 15.2 56.6661 15.0267 56.1061 14.68C55.5594 14.3333 55.1328 13.8467 54.8261 13.22C54.5328 12.5933 54.3861 11.8467 54.3861 10.98V4.5H56.4461V10.42C56.4461 11.0333 56.5394 11.5667 56.7261 12.02C56.9261 12.46 57.2061 12.8 57.5661 13.04C57.9394 13.28 58.3861 13.4 58.9061 13.4C59.2928 13.4 59.6461 13.34 59.9661 13.22C60.2861 13.0867 60.5594 12.9067 60.7861 12.68C61.0261 12.4533 61.2128 12.18 61.3461 11.86C61.4794 11.54 61.5461 11.1933 61.5461 10.82V4.5H63.6061V15H61.5461V12.8L61.9061 12.56C61.7461 13.0533 61.4728 13.5 61.0861 13.9C60.7128 14.3 60.2661 14.62 59.7461 14.86C59.2261 15.0867 58.6661 15.2 58.0661 15.2ZM76.3955 15.2C75.5155 15.2 74.7221 15.0467 74.0155 14.74C73.3088 14.4333 72.7221 13.98 72.2555 13.38L73.6555 12.18C74.0555 12.6467 74.4888 12.9867 74.9555 13.2C75.4355 13.4 75.9755 13.5 76.5755 13.5C76.8155 13.5 77.0355 13.4733 77.2355 13.42C77.4488 13.3533 77.6288 13.26 77.7755 13.14C77.9355 13.02 78.0555 12.88 78.1355 12.72C78.2155 12.5467 78.2555 12.36 78.2555 12.16C78.2555 11.8133 78.1288 11.5333 77.8755 11.32C77.7421 11.2267 77.5288 11.1267 77.2355 11.02C76.9555 10.9 76.5888 10.78 76.1355 10.66C75.3621 10.46 74.7288 10.2333 74.2355 9.98C73.7421 9.72667 73.3621 9.44 73.0955 9.12C72.8955 8.86667 72.7488 8.59333 72.6555 8.3C72.5621 7.99333 72.5155 7.66 72.5155 7.3C72.5155 6.86 72.6088 6.46 72.7955 6.1C72.9955 5.72667 73.2621 5.40667 73.5955 5.14C73.9421 4.86 74.3421 4.64667 74.7955 4.5C75.2621 4.35333 75.7555 4.28 76.2755 4.28C76.7688 4.28 77.2555 4.34667 77.7355 4.48C78.2288 4.61333 78.6821 4.80667 79.0955 5.06C79.5088 5.31333 79.8555 5.61333 80.1355 5.96L78.9555 7.26C78.7021 7.00667 78.4221 6.78667 78.1155 6.6C77.8221 6.4 77.5221 6.24667 77.2155 6.14C76.9088 6.03333 76.6288 5.98 76.3755 5.98C76.0955 5.98 75.8421 6.00667 75.6155 6.06C75.3888 6.11333 75.1955 6.19333 75.0355 6.3C74.8888 6.40667 74.7755 6.54 74.6955 6.7C74.6155 6.86 74.5755 7.04 74.5755 7.24C74.5888 7.41333 74.6288 7.58 74.6955 7.74C74.7755 7.88667 74.8821 8.01333 75.0155 8.12C75.1621 8.22667 75.3821 8.34 75.6755 8.46C75.9688 8.58 76.3421 8.69333 76.7955 8.8C77.4621 8.97333 78.0088 9.16667 78.4355 9.38C78.8755 9.58 79.2221 9.81333 79.4755 10.08C79.7421 10.3333 79.9288 10.6267 80.0355 10.96C80.1421 11.2933 80.1955 11.6667 80.1955 12.08C80.1955 12.68 80.0221 13.22 79.6755 13.7C79.3421 14.1667 78.8888 14.5333 78.3155 14.8C77.7421 15.0667 77.1021 15.2 76.3955 15.2ZM93.7658 15.2C92.6858 15.2 91.7258 14.9733 90.8858 14.52C90.0591 14.0533 89.4058 13.42 88.9258 12.62C88.4591 11.82 88.2258 10.9 88.2258 9.86C88.2258 9.03333 88.3591 8.28 88.6258 7.6C88.8924 6.92 89.2591 6.33333 89.7258 5.84C90.2058 5.33333 90.7724 4.94667 91.4258 4.68C92.0924 4.4 92.8124 4.26 93.5858 4.26C94.2658 4.26 94.8991 4.39333 95.4858 4.66C96.0724 4.91333 96.5791 5.26667 97.0058 5.72C97.4458 6.17333 97.7791 6.71333 98.0058 7.34C98.2458 7.95333 98.3591 8.62667 98.3458 9.36L98.3258 10.24H89.7458L89.2858 8.6H96.5458L96.2458 8.94V8.46C96.2058 8.02 96.0591 7.62667 95.8058 7.28C95.5524 6.93333 95.2324 6.66 94.8458 6.46C94.4591 6.26 94.0391 6.16 93.5858 6.16C92.8658 6.16 92.2591 6.3 91.7658 6.58C91.2724 6.84667 90.8991 7.24667 90.6458 7.78C90.3924 8.3 90.2658 8.94667 90.2658 9.72C90.2658 10.4533 90.4191 11.0933 90.7258 11.64C91.0324 12.1733 91.4658 12.5867 92.0258 12.88C92.5858 13.1733 93.2324 13.32 93.9658 13.32C94.4858 13.32 94.9658 13.2333 95.4058 13.06C95.8591 12.8867 96.3458 12.5733 96.8658 12.12L97.9058 13.58C97.5858 13.9 97.1924 14.18 96.7258 14.42C96.2724 14.66 95.7858 14.8533 95.2658 15C94.7591 15.1333 94.2591 15.2 93.7658 15.2ZM110.485 15.2C109.605 15.2 108.811 15.0467 108.105 14.74C107.398 14.4333 106.811 13.98 106.345 13.38L107.745 12.18C108.145 12.6467 108.578 12.9867 109.045 13.2C109.525 13.4 110.065 13.5 110.665 13.5C110.905 13.5 111.125 13.4733 111.325 13.42C111.538 13.3533 111.718 13.26 111.865 13.14C112.025 13.02 112.145 12.88 112.225 12.72C112.305 12.5467 112.345 12.36 112.345 12.16C112.345 11.8133 112.218 11.5333 111.965 11.32C111.831 11.2267 111.618 11.1267 111.325 11.02C111.045 10.9 110.678 10.78 110.225 10.66C109.451 10.46 108.818 10.2333 108.325 9.98C107.831 9.72667 107.451 9.44 107.185 9.12C106.985 8.86667 106.838 8.59333 106.745 8.3C106.651 7.99333 106.605 7.66 106.605 7.3C106.605 6.86 106.698 6.46 106.885 6.1C107.085 5.72667 107.351 5.40667 107.685 5.14C108.031 4.86 108.431 4.64667 108.885 4.5C109.351 4.35333 109.845 4.28 110.365 4.28C110.858 4.28 111.345 4.34667 111.825 4.48C112.318 4.61333 112.771 4.80667 113.185 5.06C113.598 5.31333 113.945 5.61333 114.225 5.96L113.045 7.26C112.791 7.00667 112.511 6.78667 112.205 6.6C111.911 6.4 111.611 6.24667 111.305 6.14C110.998 6.03333 110.718 5.98 110.465 5.98C110.185 5.98 109.931 6.00667 109.705 6.06C109.478 6.11333 109.285 6.19333 109.125 6.3C108.978 6.40667 108.865 6.54 108.785 6.7C108.705 6.86 108.665 7.04 108.665 7.24C108.678 7.41333 108.718 7.58 108.785 7.74C108.865 7.88667 108.971 8.01333 109.105 8.12C109.251 8.22667 109.471 8.34 109.765 8.46C110.058 8.58 110.431 8.69333 110.885 8.8C111.551 8.97333 112.098 9.16667 112.525 9.38C112.965 9.58 113.311 9.81333 113.565 10.08C113.831 10.3333 114.018 10.6267 114.125 10.96C114.231 11.2933 114.285 11.6667 114.285 12.08C114.285 12.68 114.111 13.22 113.765 13.7C113.431 14.1667 112.978 14.5333 112.405 14.8C111.831 15.0667 111.191 15.2 110.485 15.2ZM139.68 15.2C138.654 15.2 137.734 14.9667 136.92 14.5C136.12 14.02 135.487 13.3733 135.02 12.56C134.554 11.7333 134.32 10.7933 134.32 9.74C134.32 8.68667 134.554 7.75333 135.02 6.94C135.487 6.11333 136.12 5.46667 136.92 5C137.734 4.52 138.654 4.28 139.68 4.28C140.694 4.28 141.6 4.52 142.4 5C143.214 5.46667 143.854 6.11333 144.32 6.94C144.787 7.75333 145.02 8.68667 145.02 9.74C145.02 10.7933 144.787 11.7333 144.32 12.56C143.854 13.3733 143.214 14.02 142.4 14.5C141.6 14.9667 140.694 15.2 139.68 15.2ZM139.68 13.32C140.307 13.32 140.867 13.1667 141.36 12.86C141.854 12.54 142.24 12.1133 142.52 11.58C142.8 11.0333 142.934 10.42 142.92 9.74C142.934 9.04667 142.8 8.43333 142.52 7.9C142.24 7.35333 141.854 6.92667 141.36 6.62C140.867 6.31333 140.307 6.16 139.68 6.16C139.054 6.16 138.487 6.32 137.98 6.64C137.487 6.94667 137.1 7.37333 136.82 7.92C136.54 8.45333 136.407 9.06 136.42 9.74C136.407 10.42 136.54 11.0333 136.82 11.58C137.1 12.1133 137.487 12.54 137.98 12.86C138.487 13.1667 139.054 13.32 139.68 13.32ZM153.665 15V4.5H155.725V6.66L155.365 6.9C155.498 6.43333 155.758 6.00667 156.145 5.62C156.532 5.22 156.992 4.9 157.525 4.66C158.058 4.40667 158.605 4.28 159.165 4.28C159.965 4.28 160.632 4.44 161.165 4.76C161.698 5.06667 162.098 5.54 162.365 6.18C162.632 6.82 162.765 7.62667 162.765 8.6V15H160.705V8.74C160.705 8.14 160.625 7.64667 160.465 7.26C160.305 6.86 160.058 6.57333 159.725 6.4C159.392 6.21333 158.978 6.13333 158.485 6.16C158.085 6.16 157.718 6.22667 157.385 6.36C157.052 6.48 156.758 6.65333 156.505 6.88C156.265 7.10667 156.072 7.37333 155.925 7.68C155.792 7.97333 155.725 8.29333 155.725 8.64V15H154.705C154.532 15 154.358 15 154.185 15C154.012 15 153.838 15 153.665 15ZM188.865 15.2C187.785 15.2 186.825 14.9733 185.985 14.52C185.158 14.0533 184.505 13.42 184.025 12.62C183.558 11.82 183.325 10.9 183.325 9.86C183.325 9.03333 183.458 8.28 183.725 7.6C183.992 6.92 184.358 6.33333 184.825 5.84C185.305 5.33333 185.872 4.94667 186.525 4.68C187.192 4.4 187.912 4.26 188.685 4.26C189.365 4.26 189.998 4.39333 190.585 4.66C191.172 4.91333 191.678 5.26667 192.105 5.72C192.545 6.17333 192.878 6.71333 193.105 7.34C193.345 7.95333 193.458 8.62667 193.445 9.36L193.425 10.24H184.845L184.385 8.6H191.645L191.345 8.94V8.46C191.305 8.02 191.158 7.62667 190.905 7.28C190.652 6.93333 190.332 6.66 189.945 6.46C189.558 6.26 189.138 6.16 188.685 6.16C187.965 6.16 187.358 6.3 186.865 6.58C186.372 6.84667 185.998 7.24667 185.745 7.78C185.492 8.3 185.365 8.94667 185.365 9.72C185.365 10.4533 185.518 11.0933 185.825 11.64C186.132 12.1733 186.565 12.5867 187.125 12.88C187.685 13.1733 188.332 13.32 189.065 13.32C189.585 13.32 190.065 13.2333 190.505 13.06C190.958 12.8867 191.445 12.5733 191.965 12.12L193.005 13.58C192.685 13.9 192.292 14.18 191.825 14.42C191.372 14.66 190.885 14.8533 190.365 15C189.858 15.1333 189.358 15.2 188.865 15.2ZM202.044 15V4.5H204.124V6.74L203.744 6.98C203.85 6.63333 204.017 6.3 204.244 5.98C204.484 5.66 204.77 5.38 205.104 5.14C205.45 4.88667 205.817 4.68667 206.204 4.54C206.604 4.39333 207.01 4.32 207.424 4.32C208.024 4.32 208.55 4.42 209.004 4.62C209.457 4.82 209.83 5.12 210.124 5.52C210.417 5.92 210.63 6.42 210.764 7.02L210.444 6.94L210.584 6.6C210.73 6.29333 210.93 6.00667 211.184 5.74C211.45 5.46 211.75 5.21333 212.084 5C212.417 4.78667 212.77 4.62 213.144 4.5C213.517 4.38 213.884 4.32 214.244 4.32C215.03 4.32 215.677 4.48 216.184 4.8C216.704 5.12 217.09 5.60667 217.344 6.26C217.61 6.91333 217.744 7.72667 217.744 8.7V15H215.664V8.82C215.664 8.22 215.584 7.73333 215.424 7.36C215.277 6.97333 215.05 6.68667 214.744 6.5C214.437 6.31333 214.044 6.22 213.564 6.22C213.19 6.22 212.837 6.28667 212.504 6.42C212.184 6.54 211.904 6.71333 211.664 6.94C211.424 7.16667 211.237 7.43333 211.104 7.74C210.97 8.03333 210.904 8.36 210.904 8.72V15H208.824V8.78C208.824 8.23333 208.744 7.77333 208.584 7.4C208.424 7.01333 208.19 6.72 207.884 6.52C207.577 6.32 207.204 6.22 206.764 6.22C206.39 6.22 206.044 6.28667 205.724 6.42C205.404 6.54 205.124 6.71333 204.884 6.94C204.644 7.15333 204.457 7.41333 204.324 7.72C204.19 8.01333 204.124 8.33333 204.124 8.68V15H202.044ZM232.422 15.2C231.968 15.2 231.515 15.1267 231.062 14.98C230.622 14.8333 230.215 14.64 229.842 14.4C229.482 14.1467 229.175 13.8733 228.922 13.58C228.682 13.2733 228.522 12.9667 228.442 12.66L228.962 12.38V14.94H226.902V0.2H228.962V6.9L228.642 6.72C228.708 6.41333 228.855 6.12 229.082 5.84C229.308 5.54667 229.595 5.28667 229.942 5.06C230.302 4.82 230.688 4.63333 231.102 4.5C231.515 4.35333 231.935 4.28 232.362 4.28C233.308 4.28 234.148 4.51333 234.882 4.98C235.615 5.44667 236.195 6.09333 236.622 6.92C237.048 7.73333 237.262 8.66667 237.262 9.72C237.262 10.7733 237.048 11.7133 236.622 12.54C236.208 13.3667 235.635 14.02 234.902 14.5C234.168 14.9667 233.342 15.2 232.422 15.2ZM232.082 13.32C232.695 13.32 233.242 13.1667 233.722 12.86C234.202 12.54 234.582 12.1133 234.862 11.58C235.142 11.0333 235.282 10.4133 235.282 9.72C235.282 9.04 235.142 8.43333 234.862 7.9C234.595 7.35333 234.222 6.92667 233.742 6.62C233.262 6.31333 232.708 6.16 232.082 6.16C231.455 6.16 230.902 6.31333 230.422 6.62C229.942 6.92667 229.562 7.35333 229.282 7.9C229.002 8.43333 228.862 9.04 228.862 9.72C228.862 10.4133 229.002 11.0333 229.282 11.58C229.562 12.1133 229.942 12.54 230.422 12.86C230.902 13.1667 231.455 13.32 232.082 13.32ZM250.799 15.2C249.719 15.2 248.759 14.9733 247.919 14.52C247.093 14.0533 246.439 13.42 245.959 12.62C245.493 11.82 245.259 10.9 245.259 9.86C245.259 9.03333 245.393 8.28 245.659 7.6C245.926 6.92 246.293 6.33333 246.759 5.84C247.239 5.33333 247.806 4.94667 248.459 4.68C249.126 4.4 249.846 4.26 250.619 4.26C251.299 4.26 251.933 4.39333 252.519 4.66C253.106 4.91333 253.613 5.26667 254.039 5.72C254.479 6.17333 254.813 6.71333 255.039 7.34C255.279 7.95333 255.393 8.62667 255.379 9.36L255.359 10.24H246.779L246.319 8.6H253.579L253.279 8.94V8.46C253.239 8.02 253.093 7.62667 252.839 7.28C252.586 6.93333 252.266 6.66 251.879 6.46C251.493 6.26 251.073 6.16 250.619 6.16C249.899 6.16 249.293 6.3 248.799 6.58C248.306 6.84667 247.933 7.24667 247.679 7.78C247.426 8.3 247.299 8.94667 247.299 9.72C247.299 10.4533 247.453 11.0933 247.759 11.64C248.066 12.1733 248.499 12.5867 249.059 12.88C249.619 13.1733 250.266 13.32 250.999 13.32C251.519 13.32 251.999 13.2333 252.439 13.06C252.893 12.8867 253.379 12.5733 253.899 12.12L254.939 13.58C254.619 13.9 254.226 14.18 253.759 14.42C253.306 14.66 252.819 14.8533 252.299 15C251.793 15.1333 251.293 15.2 250.799 15.2ZM268.398 15.2C267.438 15.2 266.578 14.9667 265.818 14.5C265.071 14.02 264.478 13.3733 264.038 12.56C263.598 11.7333 263.378 10.7933 263.378 9.74C263.378 8.68667 263.591 7.75333 264.018 6.94C264.458 6.11333 265.051 5.46667 265.798 5C266.545 4.52 267.391 4.28 268.338 4.28C268.858 4.28 269.358 4.36667 269.838 4.54C270.331 4.7 270.771 4.92667 271.158 5.22C271.545 5.5 271.845 5.81333 272.058 6.16C272.285 6.49333 272.398 6.83333 272.398 7.18L271.798 7.22V0.2H273.858V15H271.798V12.5H272.198C272.198 12.82 272.091 13.14 271.878 13.46C271.665 13.7667 271.378 14.0533 271.018 14.32C270.671 14.5867 270.265 14.8 269.798 14.96C269.345 15.12 268.878 15.2 268.398 15.2ZM268.678 13.42C269.305 13.42 269.858 13.26 270.338 12.94C270.818 12.62 271.191 12.1867 271.458 11.64C271.738 11.08 271.878 10.4467 271.878 9.74C271.878 9.03333 271.738 8.40667 271.458 7.86C271.191 7.3 270.818 6.86 270.338 6.54C269.858 6.22 269.305 6.06 268.678 6.06C268.051 6.06 267.498 6.22 267.018 6.54C266.538 6.86 266.158 7.3 265.878 7.86C265.611 8.40667 265.478 9.03333 265.478 9.74C265.478 10.4467 265.611 11.08 265.878 11.64C266.158 12.1867 266.538 12.62 267.018 12.94C267.498 13.26 268.051 13.42 268.678 13.42ZM287.474 15.2C286.514 15.2 285.654 14.9667 284.894 14.5C284.147 14.02 283.554 13.3733 283.114 12.56C282.674 11.7333 282.454 10.7933 282.454 9.74C282.454 8.68667 282.667 7.75333 283.094 6.94C283.534 6.11333 284.127 5.46667 284.874 5C285.621 4.52 286.467 4.28 287.414 4.28C287.934 4.28 288.434 4.36667 288.914 4.54C289.407 4.7 289.847 4.92667 290.234 5.22C290.621 5.5 290.921 5.81333 291.134 6.16C291.361 6.49333 291.474 6.83333 291.474 7.18L290.874 7.22V0.2H292.934V15H290.874V12.5H291.274C291.274 12.82 291.167 13.14 290.954 13.46C290.741 13.7667 290.454 14.0533 290.094 14.32C289.747 14.5867 289.341 14.8 288.874 14.96C288.421 15.12 287.954 15.2 287.474 15.2ZM287.754 13.42C288.381 13.42 288.934 13.26 289.414 12.94C289.894 12.62 290.267 12.1867 290.534 11.64C290.814 11.08 290.954 10.4467 290.954 9.74C290.954 9.03333 290.814 8.40667 290.534 7.86C290.267 7.3 289.894 6.86 289.414 6.54C288.934 6.22 288.381 6.06 287.754 6.06C287.127 6.06 286.574 6.22 286.094 6.54C285.614 6.86 285.234 7.3 284.954 7.86C284.687 8.40667 284.554 9.03333 284.554 9.74C284.554 10.4467 284.687 11.08 284.954 11.64C285.234 12.1867 285.614 12.62 286.094 12.94C286.574 13.26 287.127 13.42 287.754 13.42ZM307.07 15.2C305.99 15.2 305.03 14.9733 304.19 14.52C303.363 14.0533 302.71 13.42 302.23 12.62C301.763 11.82 301.53 10.9 301.53 9.86C301.53 9.03333 301.663 8.28 301.93 7.6C302.196 6.92 302.563 6.33333 303.03 5.84C303.51 5.33333 304.076 4.94667 304.73 4.68C305.396 4.4 306.116 4.26 306.89 4.26C307.57 4.26 308.203 4.39333 308.79 4.66C309.376 4.91333 309.883 5.26667 310.31 5.72C310.75 6.17333 311.083 6.71333 311.31 7.34C311.55 7.95333 311.663 8.62667 311.65 9.36L311.63 10.24H303.05L302.59 8.6H309.85L309.55 8.94V8.46C309.51 8.02 309.363 7.62667 309.11 7.28C308.856 6.93333 308.536 6.66 308.15 6.46C307.763 6.26 307.343 6.16 306.89 6.16C306.17 6.16 305.563 6.3 305.07 6.58C304.576 6.84667 304.203 7.24667 303.95 7.78C303.696 8.3 303.57 8.94667 303.57 9.72C303.57 10.4533 303.723 11.0933 304.03 11.64C304.336 12.1733 304.77 12.5867 305.33 12.88C305.89 13.1733 306.536 13.32 307.27 13.32C307.79 13.32 308.27 13.2333 308.71 13.06C309.163 12.8867 309.65 12.5733 310.17 12.12L311.21 13.58C310.89 13.9 310.496 14.18 310.03 14.42C309.576 14.66 309.09 14.8533 308.57 15C308.063 15.1333 307.563 15.2 307.07 15.2ZM324.668 15.2C323.708 15.2 322.848 14.9667 322.088 14.5C321.342 14.02 320.748 13.3733 320.308 12.56C319.868 11.7333 319.648 10.7933 319.648 9.74C319.648 8.68667 319.862 7.75333 320.288 6.94C320.728 6.11333 321.322 5.46667 322.068 5C322.815 4.52 323.662 4.28 324.608 4.28C325.128 4.28 325.628 4.36667 326.108 4.54C326.602 4.7 327.042 4.92667 327.428 5.22C327.815 5.5 328.115 5.81333 328.328 6.16C328.555 6.49333 328.668 6.83333 328.668 7.18L328.068 7.22V0.2H330.128V15H328.068V12.5H328.468C328.468 12.82 328.362 13.14 328.148 13.46C327.935 13.7667 327.648 14.0533 327.288 14.32C326.942 14.5867 326.535 14.8 326.068 14.96C325.615 15.12 325.148 15.2 324.668 15.2ZM324.948 13.42C325.575 13.42 326.128 13.26 326.608 12.94C327.088 12.62 327.462 12.1867 327.728 11.64C328.008 11.08 328.148 10.4467 328.148 9.74C328.148 9.03333 328.008 8.40667 327.728 7.86C327.462 7.3 327.088 6.86 326.608 6.54C326.128 6.22 325.575 6.06 324.948 6.06C324.322 6.06 323.768 6.22 323.288 6.54C322.808 6.86 322.428 7.3 322.148 7.86C321.882 8.40667 321.748 9.03333 321.748 9.74C321.748 10.4467 321.882 11.08 322.148 11.64C322.428 12.1867 322.808 12.62 323.288 12.94C323.768 13.26 324.322 13.42 324.948 13.42ZM354.87 15.2C353.99 15.2 353.196 15.0467 352.49 14.74C351.783 14.4333 351.196 13.98 350.73 13.38L352.13 12.18C352.53 12.6467 352.963 12.9867 353.43 13.2C353.91 13.4 354.45 13.5 355.05 13.5C355.29 13.5 355.51 13.4733 355.71 13.42C355.923 13.3533 356.103 13.26 356.25 13.14C356.41 13.02 356.53 12.88 356.61 12.72C356.69 12.5467 356.73 12.36 356.73 12.16C356.73 11.8133 356.603 11.5333 356.35 11.32C356.216 11.2267 356.003 11.1267 355.71 11.02C355.43 10.9 355.063 10.78 354.61 10.66C353.836 10.46 353.203 10.2333 352.71 9.98C352.216 9.72667 351.836 9.44 351.57 9.12C351.37 8.86667 351.223 8.59333 351.13 8.3C351.036 7.99333 350.99 7.66 350.99 7.3C350.99 6.86 351.083 6.46 351.27 6.1C351.47 5.72667 351.736 5.40667 352.07 5.14C352.416 4.86 352.816 4.64667 353.27 4.5C353.736 4.35333 354.23 4.28 354.75 4.28C355.243 4.28 355.73 4.34667 356.21 4.48C356.703 4.61333 357.156 4.80667 357.57 5.06C357.983 5.31333 358.33 5.61333 358.61 5.96L357.43 7.26C357.176 7.00667 356.896 6.78667 356.59 6.6C356.296 6.4 355.996 6.24667 355.69 6.14C355.383 6.03333 355.103 5.98 354.85 5.98C354.57 5.98 354.316 6.00667 354.09 6.06C353.863 6.11333 353.67 6.19333 353.51 6.3C353.363 6.40667 353.25 6.54 353.17 6.7C353.09 6.86 353.05 7.04 353.05 7.24C353.063 7.41333 353.103 7.58 353.17 7.74C353.25 7.88667 353.356 8.01333 353.49 8.12C353.636 8.22667 353.856 8.34 354.15 8.46C354.443 8.58 354.816 8.69333 355.27 8.8C355.936 8.97333 356.483 9.16667 356.91 9.38C357.35 9.58 357.696 9.81333 357.95 10.08C358.216 10.3333 358.403 10.6267 358.51 10.96C358.616 11.2933 358.67 11.6667 358.67 12.08C358.67 12.68 358.496 13.22 358.15 13.7C357.816 14.1667 357.363 14.5333 356.79 14.8C356.216 15.0667 355.576 15.2 354.87 15.2ZM369.1 19.6L371.22 14.7L371.24 16.34L366 4.5H368.4L371.68 12.22C371.747 12.3533 371.827 12.56 371.92 12.84C372.013 13.1067 372.093 13.3733 372.16 13.64L371.64 13.76C371.747 13.48 371.847 13.2 371.94 12.92C372.047 12.64 372.147 12.36 372.24 12.08L374.98 4.5H377.42L373.1 15L371.32 19.6H369.1ZM388.666 15.2C387.786 15.2 386.992 15.0467 386.286 14.74C385.579 14.4333 384.992 13.98 384.526 13.38L385.926 12.18C386.326 12.6467 386.759 12.9867 387.226 13.2C387.706 13.4 388.246 13.5 388.846 13.5C389.086 13.5 389.306 13.4733 389.506 13.42C389.719 13.3533 389.899 13.26 390.046 13.14C390.206 13.02 390.326 12.88 390.406 12.72C390.486 12.5467 390.526 12.36 390.526 12.16C390.526 11.8133 390.399 11.5333 390.146 11.32C390.012 11.2267 389.799 11.1267 389.506 11.02C389.226 10.9 388.859 10.78 388.406 10.66C387.632 10.46 386.999 10.2333 386.506 9.98C386.012 9.72667 385.632 9.44 385.366 9.12C385.166 8.86667 385.019 8.59333 384.926 8.3C384.832 7.99333 384.786 7.66 384.786 7.3C384.786 6.86 384.879 6.46 385.066 6.1C385.266 5.72667 385.532 5.40667 385.866 5.14C386.212 4.86 386.612 4.64667 387.066 4.5C387.532 4.35333 388.026 4.28 388.546 4.28C389.039 4.28 389.526 4.34667 390.006 4.48C390.499 4.61333 390.952 4.80667 391.366 5.06C391.779 5.31333 392.126 5.61333 392.406 5.96L391.226 7.26C390.972 7.00667 390.692 6.78667 390.386 6.6C390.092 6.4 389.792 6.24667 389.486 6.14C389.179 6.03333 388.899 5.98 388.646 5.98C388.366 5.98 388.112 6.00667 387.886 6.06C387.659 6.11333 387.466 6.19333 387.306 6.3C387.159 6.40667 387.046 6.54 386.966 6.7C386.886 6.86 386.846 7.04 386.846 7.24C386.859 7.41333 386.899 7.58 386.966 7.74C387.046 7.88667 387.152 8.01333 387.286 8.12C387.432 8.22667 387.652 8.34 387.946 8.46C388.239 8.58 388.612 8.69333 389.066 8.8C389.732 8.97333 390.279 9.16667 390.706 9.38C391.146 9.58 391.492 9.81333 391.746 10.08C392.012 10.3333 392.199 10.6267 392.306 10.96C392.412 11.2933 392.466 11.6667 392.466 12.08C392.466 12.68 392.292 13.22 391.946 13.7C391.612 14.1667 391.159 14.5333 390.586 14.8C390.012 15.0667 389.372 15.2 388.666 15.2ZM402.436 15V1.82H404.496V15H402.436ZM400.256 6.5V4.5H406.936V6.5H400.256ZM420.014 15.2C418.934 15.2 417.974 14.9733 417.134 14.52C416.308 14.0533 415.654 13.42 415.174 12.62C414.708 11.82 414.474 10.9 414.474 9.86C414.474 9.03333 414.608 8.28 414.874 7.6C415.141 6.92 415.508 6.33333 415.974 5.84C416.454 5.33333 417.021 4.94667 417.674 4.68C418.341 4.4 419.061 4.26 419.834 4.26C420.514 4.26 421.148 4.39333 421.734 4.66C422.321 4.91333 422.828 5.26667 423.254 5.72C423.694 6.17333 424.028 6.71333 424.254 7.34C424.494 7.95333 424.608 8.62667 424.594 9.36L424.574 10.24H415.994L415.534 8.6H422.794L422.494 8.94V8.46C422.454 8.02 422.308 7.62667 422.054 7.28C421.801 6.93333 421.481 6.66 421.094 6.46C420.708 6.26 420.288 6.16 419.834 6.16C419.114 6.16 418.508 6.3 418.014 6.58C417.521 6.84667 417.148 7.24667 416.894 7.78C416.641 8.3 416.514 8.94667 416.514 9.72C416.514 10.4533 416.668 11.0933 416.974 11.64C417.281 12.1733 417.714 12.5867 418.274 12.88C418.834 13.1733 419.481 13.32 420.214 13.32C420.734 13.32 421.214 13.2333 421.654 13.06C422.108 12.8867 422.594 12.5733 423.114 12.12L424.154 13.58C423.834 13.9 423.441 14.18 422.974 14.42C422.521 14.66 422.034 14.8533 421.514 15C421.008 15.1333 420.508 15.2 420.014 15.2ZM433.193 15V4.5H435.273V6.74L434.893 6.98C435 6.63333 435.166 6.3 435.393 5.98C435.633 5.66 435.92 5.38 436.253 5.14C436.6 4.88667 436.966 4.68667 437.353 4.54C437.753 4.39333 438.16 4.32 438.573 4.32C439.173 4.32 439.7 4.42 440.153 4.62C440.606 4.82 440.98 5.12 441.273 5.52C441.566 5.92 441.78 6.42 441.913 7.02L441.593 6.94L441.733 6.6C441.88 6.29333 442.08 6.00667 442.333 5.74C442.6 5.46 442.9 5.21333 443.233 5C443.566 4.78667 443.92 4.62 444.293 4.5C444.666 4.38 445.033 4.32 445.393 4.32C446.18 4.32 446.826 4.48 447.333 4.8C447.853 5.12 448.24 5.60667 448.493 6.26C448.76 6.91333 448.893 7.72667 448.893 8.7V15H446.813V8.82C446.813 8.22 446.733 7.73333 446.573 7.36C446.426 6.97333 446.2 6.68667 445.893 6.5C445.586 6.31333 445.193 6.22 444.713 6.22C444.34 6.22 443.986 6.28667 443.653 6.42C443.333 6.54 443.053 6.71333 442.813 6.94C442.573 7.16667 442.386 7.43333 442.253 7.74C442.12 8.03333 442.053 8.36 442.053 8.72V15H439.973V8.78C439.973 8.23333 439.893 7.77333 439.733 7.4C439.573 7.01333 439.34 6.72 439.033 6.52C438.726 6.32 438.353 6.22 437.913 6.22C437.54 6.22 437.193 6.28667 436.873 6.42C436.553 6.54 436.273 6.71333 436.033 6.94C435.793 7.15333 435.606 7.41333 435.473 7.72C435.34 8.01333 435.273 8.33333 435.273 8.68V15H433.193ZM461.551 15.2C460.671 15.2 459.878 15.0467 459.171 14.74C458.464 14.4333 457.878 13.98 457.411 13.38L458.811 12.18C459.211 12.6467 459.644 12.9867 460.111 13.2C460.591 13.4 461.131 13.5 461.731 13.5C461.971 13.5 462.191 13.4733 462.391 13.42C462.604 13.3533 462.784 13.26 462.931 13.14C463.091 13.02 463.211 12.88 463.291 12.72C463.371 12.5467 463.411 12.36 463.411 12.16C463.411 11.8133 463.284 11.5333 463.031 11.32C462.898 11.2267 462.684 11.1267 462.391 11.02C462.111 10.9 461.744 10.78 461.291 10.66C460.518 10.46 459.884 10.2333 459.391 9.98C458.898 9.72667 458.518 9.44 458.251 9.12C458.051 8.86667 457.904 8.59333 457.811 8.3C457.718 7.99333 457.671 7.66 457.671 7.3C457.671 6.86 457.764 6.46 457.951 6.1C458.151 5.72667 458.418 5.40667 458.751 5.14C459.098 4.86 459.498 4.64667 459.951 4.5C460.418 4.35333 460.911 4.28 461.431 4.28C461.924 4.28 462.411 4.34667 462.891 4.48C463.384 4.61333 463.838 4.80667 464.251 5.06C464.664 5.31333 465.011 5.61333 465.291 5.96L464.111 7.26C463.858 7.00667 463.578 6.78667 463.271 6.6C462.978 6.4 462.678 6.24667 462.371 6.14C462.064 6.03333 461.784 5.98 461.531 5.98C461.251 5.98 460.998 6.00667 460.771 6.06C460.544 6.11333 460.351 6.19333 460.191 6.3C460.044 6.40667 459.931 6.54 459.851 6.7C459.771 6.86 459.731 7.04 459.731 7.24C459.744 7.41333 459.784 7.58 459.851 7.74C459.931 7.88667 460.038 8.01333 460.171 8.12C460.318 8.22667 460.538 8.34 460.831 8.46C461.124 8.58 461.498 8.69333 461.951 8.8C462.618 8.97333 463.164 9.16667 463.591 9.38C464.031 9.58 464.378 9.81333 464.631 10.08C464.898 10.3333 465.084 10.6267 465.191 10.96C465.298 11.2933 465.351 11.6667 465.351 12.08C465.351 12.68 465.178 13.22 464.831 13.7C464.498 14.1667 464.044 14.5333 463.471 14.8C462.898 15.0667 462.258 15.2 461.551 15.2ZM474.341 18.58L473.581 17.66C474.048 17.3933 474.428 17.0867 474.721 16.74C475.015 16.3933 475.161 16.0933 475.161 15.84C475.161 15.7067 475.128 15.5733 475.061 15.44C474.995 15.32 474.855 15.1467 474.641 14.92C474.375 14.6667 474.201 14.4533 474.121 14.28C474.041 14.1067 474.001 13.92 474.001 13.72C474.001 13.4 474.115 13.1467 474.341 12.96C474.568 12.76 474.861 12.66 475.221 12.66C475.555 12.66 475.855 12.76 476.121 12.96C476.401 13.1467 476.615 13.4133 476.761 13.76C476.921 14.0933 477.001 14.48 477.001 14.92C477.001 15.32 476.935 15.7067 476.801 16.08C476.668 16.4533 476.481 16.8 476.241 17.12C476.001 17.44 475.721 17.7267 475.401 17.98C475.081 18.2333 474.728 18.4333 474.341 18.58ZM501.259 15.2C500.379 15.2 499.585 15.0467 498.879 14.74C498.172 14.4333 497.585 13.98 497.119 13.38L498.519 12.18C498.919 12.6467 499.352 12.9867 499.819 13.2C500.299 13.4 500.839 13.5 501.439 13.5C501.679 13.5 501.899 13.4733 502.099 13.42C502.312 13.3533 502.492 13.26 502.639 13.14C502.799 13.02 502.919 12.88 502.999 12.72C503.079 12.5467 503.119 12.36 503.119 12.16C503.119 11.8133 502.992 11.5333 502.739 11.32C502.605 11.2267 502.392 11.1267 502.099 11.02C501.819 10.9 501.452 10.78 500.999 10.66C500.225 10.46 499.592 10.2333 499.099 9.98C498.605 9.72667 498.225 9.44 497.959 9.12C497.759 8.86667 497.612 8.59333 497.519 8.3C497.425 7.99333 497.379 7.66 497.379 7.3C497.379 6.86 497.472 6.46 497.659 6.1C497.859 5.72667 498.125 5.40667 498.459 5.14C498.805 4.86 499.205 4.64667 499.659 4.5C500.125 4.35333 500.619 4.28 501.139 4.28C501.632 4.28 502.119 4.34667 502.599 4.48C503.092 4.61333 503.545 4.80667 503.959 5.06C504.372 5.31333 504.719 5.61333 504.999 5.96L503.819 7.26C503.565 7.00667 503.285 6.78667 502.979 6.6C502.685 6.4 502.385 6.24667 502.079 6.14C501.772 6.03333 501.492 5.98 501.239 5.98C500.959 5.98 500.705 6.00667 500.479 6.06C500.252 6.11333 500.059 6.19333 499.899 6.3C499.752 6.40667 499.639 6.54 499.559 6.7C499.479 6.86 499.439 7.04 499.439 7.24C499.452 7.41333 499.492 7.58 499.559 7.74C499.639 7.88667 499.745 8.01333 499.879 8.12C500.025 8.22667 500.245 8.34 500.539 8.46C500.832 8.58 501.205 8.69333 501.659 8.8C502.325 8.97333 502.872 9.16667 503.299 9.38C503.739 9.58 504.085 9.81333 504.339 10.08C504.605 10.3333 504.792 10.6267 504.899 10.96C505.005 11.2933 505.059 11.6667 505.059 12.08C505.059 12.68 504.885 13.22 504.539 13.7C504.205 14.1667 503.752 14.5333 503.179 14.8C502.605 15.0667 501.965 15.2 501.259 15.2ZM518.629 15.2C517.549 15.2 516.589 14.9733 515.749 14.52C514.922 14.0533 514.269 13.42 513.789 12.62C513.322 11.82 513.089 10.9 513.089 9.86C513.089 9.03333 513.222 8.28 513.489 7.6C513.756 6.92 514.122 6.33333 514.589 5.84C515.069 5.33333 515.636 4.94667 516.289 4.68C516.956 4.4 517.676 4.26 518.449 4.26C519.129 4.26 519.762 4.39333 520.349 4.66C520.936 4.91333 521.442 5.26667 521.869 5.72C522.309 6.17333 522.642 6.71333 522.869 7.34C523.109 7.95333 523.222 8.62667 523.209 9.36L523.189 10.24H514.609L514.149 8.6H521.409L521.109 8.94V8.46C521.069 8.02 520.922 7.62667 520.669 7.28C520.416 6.93333 520.096 6.66 519.709 6.46C519.322 6.26 518.902 6.16 518.449 6.16C517.729 6.16 517.122 6.3 516.629 6.58C516.136 6.84667 515.762 7.24667 515.509 7.78C515.256 8.3 515.129 8.94667 515.129 9.72C515.129 10.4533 515.282 11.0933 515.589 11.64C515.896 12.1733 516.329 12.5867 516.889 12.88C517.449 13.1733 518.096 13.32 518.829 13.32C519.349 13.32 519.829 13.2333 520.269 13.06C520.722 12.8867 521.209 12.5733 521.729 12.12L522.769 13.58C522.449 13.9 522.056 14.18 521.589 14.42C521.136 14.66 520.649 14.8533 520.129 15C519.622 15.1333 519.122 15.2 518.629 15.2ZM531.848 15V4.5H533.908V6.66L533.548 6.9C533.681 6.43333 533.941 6.00667 534.328 5.62C534.715 5.22 535.175 4.9 535.708 4.66C536.241 4.40667 536.788 4.28 537.348 4.28C538.148 4.28 538.815 4.44 539.348 4.76C539.881 5.06667 540.281 5.54 540.548 6.18C540.815 6.82 540.948 7.62667 540.948 8.6V15H538.888V8.74C538.888 8.14 538.808 7.64667 538.648 7.26C538.488 6.86 538.241 6.57333 537.908 6.4C537.575 6.21333 537.161 6.13333 536.668 6.16C536.268 6.16 535.901 6.22667 535.568 6.36C535.235 6.48 534.941 6.65333 534.688 6.88C534.448 7.10667 534.255 7.37333 534.108 7.68C533.975 7.97333 533.908 8.29333 533.908 8.64V15H532.888C532.715 15 532.541 15 532.368 15C532.195 15 532.021 15 531.848 15ZM553.642 15.2C552.762 15.2 551.969 15.0467 551.262 14.74C550.556 14.4333 549.969 13.98 549.502 13.38L550.902 12.18C551.302 12.6467 551.736 12.9867 552.202 13.2C552.682 13.4 553.222 13.5 553.822 13.5C554.062 13.5 554.282 13.4733 554.482 13.42C554.696 13.3533 554.876 13.26 555.022 13.14C555.182 13.02 555.302 12.88 555.382 12.72C555.462 12.5467 555.502 12.36 555.502 12.16C555.502 11.8133 555.376 11.5333 555.122 11.32C554.989 11.2267 554.776 11.1267 554.482 11.02C554.202 10.9 553.836 10.78 553.382 10.66C552.609 10.46 551.976 10.2333 551.482 9.98C550.989 9.72667 550.609 9.44 550.342 9.12C550.142 8.86667 549.996 8.59333 549.902 8.3C549.809 7.99333 549.762 7.66 549.762 7.3C549.762 6.86 549.856 6.46 550.042 6.1C550.242 5.72667 550.509 5.40667 550.842 5.14C551.189 4.86 551.589 4.64667 552.042 4.5C552.509 4.35333 553.002 4.28 553.522 4.28C554.016 4.28 554.502 4.34667 554.982 4.48C555.476 4.61333 555.929 4.80667 556.342 5.06C556.756 5.31333 557.102 5.61333 557.382 5.96L556.202 7.26C555.949 7.00667 555.669 6.78667 555.362 6.6C555.069 6.4 554.769 6.24667 554.462 6.14C554.156 6.03333 553.876 5.98 553.622 5.98C553.342 5.98 553.089 6.00667 552.862 6.06C552.636 6.11333 552.442 6.19333 552.282 6.3C552.136 6.40667 552.022 6.54 551.942 6.7C551.862 6.86 551.822 7.04 551.822 7.24C551.836 7.41333 551.876 7.58 551.942 7.74C552.022 7.88667 552.129 8.01333 552.262 8.12C552.409 8.22667 552.629 8.34 552.922 8.46C553.216 8.58 553.589 8.69333 554.042 8.8C554.709 8.97333 555.256 9.16667 555.682 9.38C556.122 9.58 556.469 9.81333 556.722 10.08C556.989 10.3333 557.176 10.6267 557.282 10.96C557.389 11.2933 557.442 11.6667 557.442 12.08C557.442 12.68 557.269 13.22 556.922 13.7C556.589 14.1667 556.136 14.5333 555.562 14.8C554.989 15.0667 554.349 15.2 553.642 15.2ZM570.833 15.2C569.806 15.2 568.886 14.9667 568.073 14.5C567.273 14.02 566.639 13.3733 566.173 12.56C565.706 11.7333 565.473 10.7933 565.473 9.74C565.473 8.68667 565.706 7.75333 566.173 6.94C566.639 6.11333 567.273 5.46667 568.073 5C568.886 4.52 569.806 4.28 570.833 4.28C571.846 4.28 572.753 4.52 573.553 5C574.366 5.46667 575.006 6.11333 575.473 6.94C575.939 7.75333 576.173 8.68667 576.173 9.74C576.173 10.7933 575.939 11.7333 575.473 12.56C575.006 13.3733 574.366 14.02 573.553 14.5C572.753 14.9667 571.846 15.2 570.833 15.2ZM570.833 13.32C571.459 13.32 572.019 13.1667 572.513 12.86C573.006 12.54 573.393 12.1133 573.673 11.58C573.953 11.0333 574.086 10.42 574.073 9.74C574.086 9.04667 573.953 8.43333 573.673 7.9C573.393 7.35333 573.006 6.92667 572.513 6.62C572.019 6.31333 571.459 6.16 570.833 6.16C570.206 6.16 569.639 6.32 569.133 6.64C568.639 6.94667 568.253 7.37333 567.973 7.92C567.693 8.45333 567.559 9.06 567.573 9.74C567.559 10.42 567.693 11.0333 567.973 11.58C568.253 12.1133 568.639 12.54 569.133 12.86C569.639 13.1667 570.206 13.32 570.833 13.32ZM584.817 15V4.5H586.897V7.8L586.697 7C586.844 6.49333 587.091 6.03333 587.437 5.62C587.797 5.20667 588.204 4.88 588.657 4.64C589.124 4.4 589.604 4.28 590.097 4.28C590.324 4.28 590.537 4.3 590.737 4.34C590.951 4.38 591.117 4.42667 591.237 4.48L590.697 6.72C590.537 6.65333 590.357 6.6 590.157 6.56C589.971 6.50667 589.784 6.48 589.597 6.48C589.237 6.48 588.891 6.55333 588.557 6.7C588.237 6.83333 587.951 7.02667 587.697 7.28C587.457 7.52 587.264 7.80667 587.117 8.14C586.971 8.46 586.897 8.81333 586.897 9.2V15H584.817ZM602.784 15.2C601.904 15.2 601.11 15.0467 600.404 14.74C599.697 14.4333 599.11 13.98 598.644 13.38L600.044 12.18C600.444 12.6467 600.877 12.9867 601.344 13.2C601.824 13.4 602.364 13.5 602.964 13.5C603.204 13.5 603.424 13.4733 603.624 13.42C603.837 13.3533 604.017 13.26 604.164 13.14C604.324 13.02 604.444 12.88 604.524 12.72C604.604 12.5467 604.644 12.36 604.644 12.16C604.644 11.8133 604.517 11.5333 604.264 11.32C604.13 11.2267 603.917 11.1267 603.624 11.02C603.344 10.9 602.977 10.78 602.524 10.66C601.75 10.46 601.117 10.2333 600.624 9.98C600.13 9.72667 599.75 9.44 599.484 9.12C599.284 8.86667 599.137 8.59333 599.044 8.3C598.95 7.99333 598.904 7.66 598.904 7.3C598.904 6.86 598.997 6.46 599.184 6.1C599.384 5.72667 599.65 5.40667 599.984 5.14C600.33 4.86 600.73 4.64667 601.184 4.5C601.65 4.35333 602.144 4.28 602.664 4.28C603.157 4.28 603.644 4.34667 604.124 4.48C604.617 4.61333 605.07 4.80667 605.484 5.06C605.897 5.31333 606.244 5.61333 606.524 5.96L605.344 7.26C605.09 7.00667 604.81 6.78667 604.504 6.6C604.21 6.4 603.91 6.24667 603.604 6.14C603.297 6.03333 603.017 5.98 602.764 5.98C602.484 5.98 602.23 6.00667 602.004 6.06C601.777 6.11333 601.584 6.19333 601.424 6.3C601.277 6.40667 601.164 6.54 601.084 6.7C601.004 6.86 600.964 7.04 600.964 7.24C600.977 7.41333 601.017 7.58 601.084 7.74C601.164 7.88667 601.27 8.01333 601.404 8.12C601.55 8.22667 601.77 8.34 602.064 8.46C602.357 8.58 602.73 8.69333 603.184 8.8C603.85 8.97333 604.397 9.16667 604.824 9.38C605.264 9.58 605.61 9.81333 605.864 10.08C606.13 10.3333 606.317 10.6267 606.424 10.96C606.53 11.2933 606.584 11.6667 606.584 12.08C606.584 12.68 606.41 13.22 606.064 13.7C605.73 14.1667 605.277 14.5333 604.704 14.8C604.13 15.0667 603.49 15.2 602.784 15.2ZM615.574 18.58L614.814 17.66C615.281 17.3933 615.661 17.0867 615.954 16.74C616.247 16.3933 616.394 16.0933 616.394 15.84C616.394 15.7067 616.361 15.5733 616.294 15.44C616.227 15.32 616.087 15.1467 615.874 14.92C615.607 14.6667 615.434 14.4533 615.354 14.28C615.274 14.1067 615.234 13.92 615.234 13.72C615.234 13.4 615.347 13.1467 615.574 12.96C615.801 12.76 616.094 12.66 616.454 12.66C616.787 12.66 617.087 12.76 617.354 12.96C617.634 13.1467 617.847 13.4133 617.994 13.76C618.154 14.0933 618.234 14.48 618.234 14.92C618.234 15.32 618.167 15.7067 618.034 16.08C617.901 16.4533 617.714 16.8 617.474 17.12C617.234 17.44 616.954 17.7267 616.634 17.98C616.314 18.2333 615.961 18.4333 615.574 18.58ZM643.032 15.2C642.165 15.2 641.372 14.96 640.652 14.48C639.945 14 639.378 13.3467 638.952 12.52C638.525 11.6933 638.312 10.76 638.312 9.72C638.312 8.66667 638.525 7.73333 638.952 6.92C639.392 6.09333 639.978 5.44667 640.712 4.98C641.458 4.51333 642.292 4.28 643.212 4.28C643.758 4.28 644.258 4.36 644.712 4.52C645.165 4.68 645.558 4.90667 645.892 5.2C646.238 5.48 646.518 5.80667 646.732 6.18C646.958 6.55333 647.098 6.95333 647.152 7.38L646.692 7.22V4.5H648.772V15H646.692V12.5L647.172 12.36C647.092 12.72 646.925 13.0733 646.672 13.42C646.432 13.7533 646.118 14.0533 645.732 14.32C645.358 14.5867 644.938 14.8 644.472 14.96C644.018 15.12 643.538 15.2 643.032 15.2ZM643.572 13.3C644.198 13.3 644.752 13.1467 645.232 12.84C645.712 12.5333 646.085 12.1133 646.352 11.58C646.632 11.0333 646.772 10.4133 646.772 9.72C646.772 9.04 646.632 8.43333 646.352 7.9C646.085 7.36667 645.712 6.94667 645.232 6.64C644.752 6.33333 644.198 6.18 643.572 6.18C642.958 6.18 642.412 6.33333 641.932 6.64C641.465 6.94667 641.092 7.36667 640.812 7.9C640.545 8.43333 640.412 9.04 640.412 9.72C640.412 10.4133 640.545 11.0333 640.812 11.58C641.092 12.1133 641.465 12.5333 641.932 12.84C642.412 13.1467 642.958 13.3 643.572 13.3ZM658.048 15V4.5H660.108V6.66L659.748 6.9C659.881 6.43333 660.141 6.00667 660.528 5.62C660.914 5.22 661.374 4.9 661.908 4.66C662.441 4.40667 662.988 4.28 663.548 4.28C664.348 4.28 665.014 4.44 665.548 4.76C666.081 5.06667 666.481 5.54 666.748 6.18C667.014 6.82 667.148 7.62667 667.148 8.6V15H665.088V8.74C665.088 8.14 665.008 7.64667 664.848 7.26C664.688 6.86 664.441 6.57333 664.108 6.4C663.774 6.21333 663.361 6.13333 662.868 6.16C662.468 6.16 662.101 6.22667 661.768 6.36C661.434 6.48 661.141 6.65333 660.888 6.88C660.648 7.10667 660.454 7.37333 660.308 7.68C660.174 7.97333 660.108 8.29333 660.108 8.64V15H659.088C658.914 15 658.741 15 658.568 15C658.394 15 658.221 15 658.048 15ZM680.722 15.2C679.762 15.2 678.902 14.9667 678.142 14.5C677.396 14.02 676.802 13.3733 676.362 12.56C675.922 11.7333 675.702 10.7933 675.702 9.74C675.702 8.68667 675.916 7.75333 676.342 6.94C676.782 6.11333 677.376 5.46667 678.122 5C678.869 4.52 679.716 4.28 680.662 4.28C681.182 4.28 681.682 4.36667 682.162 4.54C682.656 4.7 683.096 4.92667 683.482 5.22C683.869 5.5 684.169 5.81333 684.382 6.16C684.609 6.49333 684.722 6.83333 684.722 7.18L684.122 7.22V0.2H686.182V15H684.122V12.5H684.522C684.522 12.82 684.416 13.14 684.202 13.46C683.989 13.7667 683.702 14.0533 683.342 14.32C682.996 14.5867 682.589 14.8 682.122 14.96C681.669 15.12 681.202 15.2 680.722 15.2ZM681.002 13.42C681.629 13.42 682.182 13.26 682.662 12.94C683.142 12.62 683.516 12.1867 683.782 11.64C684.062 11.08 684.202 10.4467 684.202 9.74C684.202 9.03333 684.062 8.40667 683.782 7.86C683.516 7.3 683.142 6.86 682.662 6.54C682.182 6.22 681.629 6.06 681.002 6.06C680.376 6.06 679.822 6.22 679.342 6.54C678.862 6.86 678.482 7.3 678.202 7.86C677.936 8.40667 677.802 9.03333 677.802 9.74C677.802 10.4467 677.936 11.08 678.202 11.64C678.482 12.1867 678.862 12.62 679.342 12.94C679.822 13.26 680.376 13.42 681.002 13.42ZM0.44 37V22.2H2.5V28.66L2.14 28.9C2.27333 28.4333 2.53333 28.0067 2.92 27.62C3.30667 27.22 3.76667 26.9 4.3 26.66C4.83333 26.4067 5.38 26.28 5.94 26.28C6.74 26.28 7.40667 26.44 7.94 26.76C8.47333 27.0667 8.87333 27.54 9.14 28.18C9.40667 28.82 9.54 29.6267 9.54 30.6V37H7.48V30.74C7.48 30.14 7.4 29.6467 7.24 29.26C7.08 28.86 6.83333 28.5733 6.5 28.4C6.16667 28.2133 5.75333 28.1333 5.26 28.16C4.86 28.16 4.49333 28.2267 4.16 28.36C3.82667 28.48 3.53333 28.6533 3.28 28.88C3.04 29.1067 2.84667 29.3733 2.7 29.68C2.56667 29.9733 2.5 30.2933 2.5 30.64V37H1.48C1.30667 37 1.13333 37 0.96 37C0.786667 37 0.613333 37 0.44 37ZM22.7745 37.2C21.9079 37.2 21.1145 36.96 20.3945 36.48C19.6879 36 19.1212 35.3467 18.6945 34.52C18.2679 33.6933 18.0545 32.76 18.0545 31.72C18.0545 30.6667 18.2679 29.7333 18.6945 28.92C19.1345 28.0933 19.7212 27.4467 20.4545 26.98C21.2012 26.5133 22.0345 26.28 22.9545 26.28C23.5012 26.28 24.0012 26.36 24.4545 26.52C24.9079 26.68 25.3012 26.9067 25.6345 27.2C25.9812 27.48 26.2612 27.8067 26.4745 28.18C26.7012 28.5533 26.8412 28.9533 26.8945 29.38L26.4345 29.22V26.5H28.5145V37H26.4345V34.5L26.9145 34.36C26.8345 34.72 26.6679 35.0733 26.4145 35.42C26.1745 35.7533 25.8612 36.0533 25.4745 36.32C25.1012 36.5867 24.6812 36.8 24.2145 36.96C23.7612 37.12 23.2812 37.2 22.7745 37.2ZM23.3145 35.3C23.9412 35.3 24.4945 35.1467 24.9745 34.84C25.4545 34.5333 25.8279 34.1133 26.0945 33.58C26.3745 33.0333 26.5145 32.4133 26.5145 31.72C26.5145 31.04 26.3745 30.4333 26.0945 29.9C25.8279 29.3667 25.4545 28.9467 24.9745 28.64C24.4945 28.3333 23.9412 28.18 23.3145 28.18C22.7012 28.18 22.1545 28.3333 21.6745 28.64C21.2079 28.9467 20.8345 29.3667 20.5545 29.9C20.2879 30.4333 20.1545 31.04 20.1545 31.72C20.1545 32.4133 20.2879 33.0333 20.5545 33.58C20.8345 34.1133 21.2079 34.5333 21.6745 34.84C22.1545 35.1467 22.7012 35.3 23.3145 35.3ZM37.7908 37V26.5H39.8708V29.8L39.6708 29C39.8174 28.4933 40.0641 28.0333 40.4108 27.62C40.7708 27.2067 41.1774 26.88 41.6308 26.64C42.0974 26.4 42.5774 26.28 43.0708 26.28C43.2974 26.28 43.5108 26.3 43.7108 26.34C43.9241 26.38 44.0908 26.4267 44.2108 26.48L43.6708 28.72C43.5108 28.6533 43.3308 28.6 43.1308 28.56C42.9441 28.5067 42.7574 28.48 42.5708 28.48C42.2108 28.48 41.8641 28.5533 41.5308 28.7C41.2108 28.8333 40.9241 29.0267 40.6708 29.28C40.4308 29.52 40.2374 29.8067 40.0908 30.14C39.9441 30.46 39.8708 30.8133 39.8708 31.2V37H37.7908ZM56.188 37.2C55.228 37.2 54.368 36.9667 53.608 36.5C52.8613 36.02 52.268 35.3733 51.828 34.56C51.388 33.7333 51.168 32.7933 51.168 31.74C51.168 30.6867 51.3813 29.7533 51.808 28.94C52.248 28.1133 52.8413 27.4667 53.588 27C54.3346 26.52 55.1813 26.28 56.128 26.28C56.648 26.28 57.148 26.3667 57.628 26.54C58.1213 26.7 58.5613 26.9267 58.948 27.22C59.3346 27.5 59.6346 27.8133 59.848 28.16C60.0746 28.4933 60.188 28.8333 60.188 29.18L59.588 29.22V22.2H61.648V37H59.588V34.5H59.988C59.988 34.82 59.8813 35.14 59.668 35.46C59.4546 35.7667 59.168 36.0533 58.808 36.32C58.4613 36.5867 58.0546 36.8 57.588 36.96C57.1346 37.12 56.668 37.2 56.188 37.2ZM56.468 35.42C57.0946 35.42 57.648 35.26 58.128 34.94C58.608 34.62 58.9813 34.1867 59.248 33.64C59.528 33.08 59.668 32.4467 59.668 31.74C59.668 31.0333 59.528 30.4067 59.248 29.86C58.9813 29.3 58.608 28.86 58.128 28.54C57.648 28.22 57.0946 28.06 56.468 28.06C55.8413 28.06 55.288 28.22 54.808 28.54C54.328 28.86 53.948 29.3 53.668 29.86C53.4013 30.4067 53.268 31.0333 53.268 31.74C53.268 32.4467 53.4013 33.08 53.668 33.64C53.948 34.1867 54.328 34.62 54.808 34.94C55.288 35.26 55.8413 35.42 56.468 35.42ZM73.4637 37L69.8837 26.5L71.9637 26.48L74.5237 34.34L74.0637 34.3L76.8437 28.16H78.0837L80.8837 34.32L80.3437 34.36L82.9237 26.5H85.0037L81.4637 37H80.0437L77.1237 30.32L77.5837 30.38L74.8637 37H73.4637ZM97.0269 37.2C96.1602 37.2 95.3669 36.96 94.6469 36.48C93.9402 36 93.3735 35.3467 92.9469 34.52C92.5202 33.6933 92.3069 32.76 92.3069 31.72C92.3069 30.6667 92.5202 29.7333 92.9469 28.92C93.3869 28.0933 93.9735 27.4467 94.7069 26.98C95.4535 26.5133 96.2869 26.28 97.2069 26.28C97.7535 26.28 98.2535 26.36 98.7069 26.52C99.1602 26.68 99.5535 26.9067 99.8869 27.2C100.234 27.48 100.514 27.8067 100.727 28.18C100.954 28.5533 101.094 28.9533 101.147 29.38L100.687 29.22V26.5H102.767V37H100.687V34.5L101.167 34.36C101.087 34.72 100.92 35.0733 100.667 35.42C100.427 35.7533 100.114 36.0533 99.7269 36.32C99.3535 36.5867 98.9335 36.8 98.4669 36.96C98.0135 37.12 97.5335 37.2 97.0269 37.2ZM97.5669 35.3C98.1935 35.3 98.7469 35.1467 99.2269 34.84C99.7069 34.5333 100.08 34.1133 100.347 33.58C100.627 33.0333 100.767 32.4133 100.767 31.72C100.767 31.04 100.627 30.4333 100.347 29.9C100.08 29.3667 99.7069 28.9467 99.2269 28.64C98.7469 28.3333 98.1935 28.18 97.5669 28.18C96.9535 28.18 96.4069 28.3333 95.9269 28.64C95.4602 28.9467 95.0869 29.3667 94.8069 29.9C94.5402 30.4333 94.4069 31.04 94.4069 31.72C94.4069 32.4133 94.5402 33.0333 94.8069 33.58C95.0869 34.1133 95.4602 34.5333 95.9269 34.84C96.4069 35.1467 96.9535 35.3 97.5669 35.3ZM112.043 37V26.5H114.123V29.8L113.923 29C114.07 28.4933 114.316 28.0333 114.663 27.62C115.023 27.2067 115.43 26.88 115.883 26.64C116.35 26.4 116.83 26.28 117.323 26.28C117.55 26.28 117.763 26.3 117.963 26.34C118.176 26.38 118.343 26.4267 118.463 26.48L117.923 28.72C117.763 28.6533 117.583 28.6 117.383 28.56C117.196 28.5067 117.01 28.48 116.823 28.48C116.463 28.48 116.116 28.5533 115.783 28.7C115.463 28.8333 115.176 29.0267 114.923 29.28C114.683 29.52 114.49 29.8067 114.343 30.14C114.196 30.46 114.123 30.8133 114.123 31.2V37H112.043ZM130.96 37.2C129.88 37.2 128.92 36.9733 128.08 36.52C127.254 36.0533 126.6 35.42 126.12 34.62C125.654 33.82 125.42 32.9 125.42 31.86C125.42 31.0333 125.554 30.28 125.82 29.6C126.087 28.92 126.454 28.3333 126.92 27.84C127.4 27.3333 127.967 26.9467 128.62 26.68C129.287 26.4 130.007 26.26 130.78 26.26C131.46 26.26 132.094 26.3933 132.68 26.66C133.267 26.9133 133.774 27.2667 134.2 27.72C134.64 28.1733 134.974 28.7133 135.2 29.34C135.44 29.9533 135.554 30.6267 135.54 31.36L135.52 32.24H126.94L126.48 30.6H133.74L133.44 30.94V30.46C133.4 30.02 133.254 29.6267 133 29.28C132.747 28.9333 132.427 28.66 132.04 28.46C131.654 28.26 131.234 28.16 130.78 28.16C130.06 28.16 129.454 28.3 128.96 28.58C128.467 28.8467 128.094 29.2467 127.84 29.78C127.587 30.3 127.46 30.9467 127.46 31.72C127.46 32.4533 127.614 33.0933 127.92 33.64C128.227 34.1733 128.66 34.5867 129.22 34.88C129.78 35.1733 130.427 35.32 131.16 35.32C131.68 35.32 132.16 35.2333 132.6 35.06C133.054 34.8867 133.54 34.5733 134.06 34.12L135.1 35.58C134.78 35.9 134.387 36.18 133.92 36.42C133.467 36.66 132.98 36.8533 132.46 37C131.954 37.1333 131.454 37.2 130.96 37.2ZM160.565 37.2C159.605 37.2 158.745 36.9667 157.985 36.5C157.238 36.02 156.645 35.3733 156.205 34.56C155.765 33.7333 155.545 32.7933 155.545 31.74C155.545 30.6867 155.758 29.7533 156.185 28.94C156.625 28.1133 157.218 27.4667 157.965 27C158.711 26.52 159.558 26.28 160.505 26.28C161.025 26.28 161.525 26.3667 162.005 26.54C162.498 26.7 162.938 26.9267 163.325 27.22C163.711 27.5 164.011 27.8133 164.225 28.16C164.451 28.4933 164.565 28.8333 164.565 29.18L163.965 29.22V22.2H166.025V37H163.965V34.5H164.365C164.365 34.82 164.258 35.14 164.045 35.46C163.831 35.7667 163.545 36.0533 163.185 36.32C162.838 36.5867 162.431 36.8 161.965 36.96C161.511 37.12 161.045 37.2 160.565 37.2ZM160.845 35.42C161.471 35.42 162.025 35.26 162.505 34.94C162.985 34.62 163.358 34.1867 163.625 33.64C163.905 33.08 164.045 32.4467 164.045 31.74C164.045 31.0333 163.905 30.4067 163.625 29.86C163.358 29.3 162.985 28.86 162.505 28.54C162.025 28.22 161.471 28.06 160.845 28.06C160.218 28.06 159.665 28.22 159.185 28.54C158.705 28.86 158.325 29.3 158.045 29.86C157.778 30.4067 157.645 31.0333 157.645 31.74C157.645 32.4467 157.778 33.08 158.045 33.64C158.325 34.1867 158.705 34.62 159.185 34.94C159.665 35.26 160.218 35.42 160.845 35.42ZM180.16 37.2C179.08 37.2 178.12 36.9733 177.28 36.52C176.454 36.0533 175.8 35.42 175.32 34.62C174.854 33.82 174.62 32.9 174.62 31.86C174.62 31.0333 174.754 30.28 175.02 29.6C175.287 28.92 175.654 28.3333 176.12 27.84C176.6 27.3333 177.167 26.9467 177.82 26.68C178.487 26.4 179.207 26.26 179.98 26.26C180.66 26.26 181.294 26.3933 181.88 26.66C182.467 26.9133 182.974 27.2667 183.4 27.72C183.84 28.1733 184.174 28.7133 184.4 29.34C184.64 29.9533 184.754 30.6267 184.74 31.36L184.72 32.24H176.14L175.68 30.6H182.94L182.64 30.94V30.46C182.6 30.02 182.454 29.6267 182.2 29.28C181.947 28.9333 181.627 28.66 181.24 28.46C180.854 28.26 180.434 28.16 179.98 28.16C179.26 28.16 178.654 28.3 178.16 28.58C177.667 28.8467 177.294 29.2467 177.04 29.78C176.787 30.3 176.66 30.9467 176.66 31.72C176.66 32.4533 176.814 33.0933 177.12 33.64C177.427 34.1733 177.86 34.5867 178.42 34.88C178.98 35.1733 179.627 35.32 180.36 35.32C180.88 35.32 181.36 35.2333 181.8 35.06C182.254 34.8867 182.74 34.5733 183.26 34.12L184.3 35.58C183.98 35.9 183.587 36.18 183.12 36.42C182.667 36.66 182.18 36.8533 181.66 37C181.154 37.1333 180.654 37.2 180.16 37.2ZM196.624 37L192.184 26.5H194.404L197.604 34.36L197.224 34.54L200.644 26.5H202.764L198.104 37H196.624ZM215.656 37.2C214.576 37.2 213.616 36.9733 212.776 36.52C211.949 36.0533 211.296 35.42 210.816 34.62C210.349 33.82 210.116 32.9 210.116 31.86C210.116 31.0333 210.249 30.28 210.516 29.6C210.782 28.92 211.149 28.3333 211.616 27.84C212.096 27.3333 212.662 26.9467 213.316 26.68C213.982 26.4 214.702 26.26 215.476 26.26C216.156 26.26 216.789 26.3933 217.376 26.66C217.962 26.9133 218.469 27.2667 218.896 27.72C219.336 28.1733 219.669 28.7133 219.896 29.34C220.136 29.9533 220.249 30.6267 220.236 31.36L220.216 32.24H211.636L211.176 30.6H218.436L218.136 30.94V30.46C218.096 30.02 217.949 29.6267 217.696 29.28C217.442 28.9333 217.122 28.66 216.736 28.46C216.349 28.26 215.929 28.16 215.476 28.16C214.756 28.16 214.149 28.3 213.656 28.58C213.162 28.8467 212.789 29.2467 212.536 29.78C212.282 30.3 212.156 30.9467 212.156 31.72C212.156 32.4533 212.309 33.0933 212.616 33.64C212.922 34.1733 213.356 34.5867 213.916 34.88C214.476 35.1733 215.122 35.32 215.856 35.32C216.376 35.32 216.856 35.2333 217.296 35.06C217.749 34.8867 218.236 34.5733 218.756 34.12L219.796 35.58C219.476 35.9 219.082 36.18 218.616 36.42C218.162 36.66 217.676 36.8533 217.156 37C216.649 37.1333 216.149 37.2 215.656 37.2ZM228.914 37V22.2H230.974V37H228.914ZM244.819 37.2C243.792 37.2 242.872 36.9667 242.059 36.5C241.259 36.02 240.625 35.3733 240.159 34.56C239.692 33.7333 239.459 32.7933 239.459 31.74C239.459 30.6867 239.692 29.7533 240.159 28.94C240.625 28.1133 241.259 27.4667 242.059 27C242.872 26.52 243.792 26.28 244.819 26.28C245.832 26.28 246.739 26.52 247.539 27C248.352 27.4667 248.992 28.1133 249.459 28.94C249.925 29.7533 250.159 30.6867 250.159 31.74C250.159 32.7933 249.925 33.7333 249.459 34.56C248.992 35.3733 248.352 36.02 247.539 36.5C246.739 36.9667 245.832 37.2 244.819 37.2ZM244.819 35.32C245.445 35.32 246.005 35.1667 246.499 34.86C246.992 34.54 247.379 34.1133 247.659 33.58C247.939 33.0333 248.072 32.42 248.059 31.74C248.072 31.0467 247.939 30.4333 247.659 29.9C247.379 29.3533 246.992 28.9267 246.499 28.62C246.005 28.3133 245.445 28.16 244.819 28.16C244.192 28.16 243.625 28.32 243.119 28.64C242.625 28.9467 242.239 29.3733 241.959 29.92C241.679 30.4533 241.545 31.06 241.559 31.74C241.545 32.42 241.679 33.0333 241.959 33.58C242.239 34.1133 242.625 34.54 243.119 34.86C243.625 35.1667 244.192 35.32 244.819 35.32ZM258.803 41.4V26.5H260.883V28.9L260.563 28.72C260.643 28.32 260.87 27.94 261.243 27.58C261.617 27.2067 262.07 26.9067 262.603 26.68C263.15 26.44 263.71 26.32 264.283 26.32C265.23 26.32 266.07 26.5533 266.803 27.02C267.537 27.4867 268.117 28.1267 268.543 28.94C268.97 29.7533 269.183 30.6867 269.183 31.74C269.183 32.78 268.97 33.7133 268.543 34.54C268.13 35.3533 267.557 36 266.823 36.48C266.09 36.9467 265.263 37.18 264.343 37.18C263.73 37.18 263.137 37.06 262.563 36.82C261.99 36.5667 261.503 36.2467 261.103 35.86C260.703 35.4733 260.457 35.0733 260.363 34.66L260.883 34.38V41.4H258.803ZM264.003 35.28C264.617 35.28 265.163 35.1267 265.643 34.82C266.123 34.5133 266.503 34.0933 266.783 33.56C267.063 33.0267 267.203 32.42 267.203 31.74C267.203 31.06 267.063 30.46 266.783 29.94C266.517 29.4067 266.143 28.9867 265.663 28.68C265.183 28.3733 264.63 28.22 264.003 28.22C263.377 28.22 262.823 28.3733 262.343 28.68C261.863 28.9733 261.483 29.3867 261.203 29.92C260.923 30.4533 260.783 31.06 260.783 31.74C260.783 32.42 260.923 33.0267 261.203 33.56C261.483 34.0933 261.863 34.5133 262.343 34.82C262.823 35.1267 263.377 35.28 264.003 35.28ZM277.78 37V26.5H279.86V28.74L279.48 28.98C279.587 28.6333 279.754 28.3 279.98 27.98C280.22 27.66 280.507 27.38 280.84 27.14C281.187 26.8867 281.554 26.6867 281.94 26.54C282.34 26.3933 282.747 26.32 283.16 26.32C283.76 26.32 284.287 26.42 284.74 26.62C285.194 26.82 285.567 27.12 285.86 27.52C286.154 27.92 286.367 28.42 286.5 29.02L286.18 28.94L286.32 28.6C286.467 28.2933 286.667 28.0067 286.92 27.74C287.187 27.46 287.487 27.2133 287.82 27C288.154 26.7867 288.507 26.62 288.88 26.5C289.254 26.38 289.62 26.32 289.98 26.32C290.767 26.32 291.414 26.48 291.92 26.8C292.44 27.12 292.827 27.6067 293.08 28.26C293.347 28.9133 293.48 29.7267 293.48 30.7V37H291.4V30.82C291.4 30.22 291.32 29.7333 291.16 29.36C291.014 28.9733 290.787 28.6867 290.48 28.5C290.174 28.3133 289.78 28.22 289.3 28.22C288.927 28.22 288.574 28.2867 288.24 28.42C287.92 28.54 287.64 28.7133 287.4 28.94C287.16 29.1667 286.974 29.4333 286.84 29.74C286.707 30.0333 286.64 30.36 286.64 30.72V37H284.56V30.78C284.56 30.2333 284.48 29.7733 284.32 29.4C284.16 29.0133 283.927 28.72 283.62 28.52C283.314 28.32 282.94 28.22 282.5 28.22C282.127 28.22 281.78 28.2867 281.46 28.42C281.14 28.54 280.86 28.7133 280.62 28.94C280.38 29.1533 280.194 29.4133 280.06 29.72C279.927 30.0133 279.86 30.3333 279.86 30.68V37H277.78ZM307.538 37.2C306.458 37.2 305.498 36.9733 304.658 36.52C303.832 36.0533 303.178 35.42 302.698 34.62C302.232 33.82 301.998 32.9 301.998 31.86C301.998 31.0333 302.132 30.28 302.398 29.6C302.665 28.92 303.032 28.3333 303.498 27.84C303.978 27.3333 304.545 26.9467 305.198 26.68C305.865 26.4 306.585 26.26 307.358 26.26C308.038 26.26 308.672 26.3933 309.258 26.66C309.845 26.9133 310.352 27.2667 310.778 27.72C311.218 28.1733 311.552 28.7133 311.778 29.34C312.018 29.9533 312.132 30.6267 312.118 31.36L312.098 32.24H303.518L303.058 30.6H310.318L310.018 30.94V30.46C309.978 30.02 309.832 29.6267 309.578 29.28C309.325 28.9333 309.005 28.66 308.618 28.46C308.232 28.26 307.812 28.16 307.358 28.16C306.638 28.16 306.032 28.3 305.538 28.58C305.045 28.8467 304.672 29.2467 304.418 29.78C304.165 30.3 304.038 30.9467 304.038 31.72C304.038 32.4533 304.192 33.0933 304.498 33.64C304.805 34.1733 305.238 34.5867 305.798 34.88C306.358 35.1733 307.005 35.32 307.738 35.32C308.258 35.32 308.738 35.2333 309.178 35.06C309.632 34.8867 310.118 34.5733 310.638 34.12L311.678 35.58C311.358 35.9 310.965 36.18 310.498 36.42C310.045 36.66 309.558 36.8533 309.038 37C308.532 37.1333 308.032 37.2 307.538 37.2ZM320.757 37V26.5H322.817V28.66L322.457 28.9C322.591 28.4333 322.851 28.0067 323.237 27.62C323.624 27.22 324.084 26.9 324.617 26.66C325.151 26.4067 325.697 26.28 326.257 26.28C327.057 26.28 327.724 26.44 328.257 26.76C328.791 27.0667 329.191 27.54 329.457 28.18C329.724 28.82 329.857 29.6267 329.857 30.6V37H327.797V30.74C327.797 30.14 327.717 29.6467 327.557 29.26C327.397 28.86 327.151 28.5733 326.817 28.4C326.484 28.2133 326.071 28.1333 325.577 28.16C325.177 28.16 324.811 28.2267 324.477 28.36C324.144 28.48 323.851 28.6533 323.597 28.88C323.357 29.1067 323.164 29.3733 323.017 29.68C322.884 29.9733 322.817 30.2933 322.817 30.64V37H321.797C321.624 37 321.451 37 321.277 37C321.104 37 320.931 37 320.757 37ZM340.352 37V23.82H342.412V37H340.352ZM338.172 28.5V26.5H344.852V28.5H338.172ZM366.273 37V25.32C366.273 24.72 366.406 24.1867 366.673 23.72C366.94 23.2533 367.306 22.8867 367.773 22.62C368.24 22.3533 368.78 22.22 369.393 22.22C369.82 22.22 370.22 22.3 370.593 22.46C370.966 22.62 371.266 22.8333 371.493 23.1L370.793 24.68C370.62 24.52 370.426 24.3933 370.213 24.3C370.013 24.1933 369.82 24.14 369.633 24.14C369.353 24.14 369.113 24.1867 368.913 24.28C368.726 24.36 368.586 24.4933 368.493 24.68C368.4 24.8533 368.353 25.0667 368.353 25.32V37H367.313C367.14 37 366.966 37 366.793 37C366.62 37 366.446 37 366.273 37ZM364.593 28.58V26.68H370.833V28.58H364.593ZM383.714 37.2C382.687 37.2 381.767 36.9667 380.954 36.5C380.154 36.02 379.521 35.3733 379.054 34.56C378.587 33.7333 378.354 32.7933 378.354 31.74C378.354 30.6867 378.587 29.7533 379.054 28.94C379.521 28.1133 380.154 27.4667 380.954 27C381.767 26.52 382.687 26.28 383.714 26.28C384.727 26.28 385.634 26.52 386.434 27C387.247 27.4667 387.887 28.1133 388.354 28.94C388.821 29.7533 389.054 30.6867 389.054 31.74C389.054 32.7933 388.821 33.7333 388.354 34.56C387.887 35.3733 387.247 36.02 386.434 36.5C385.634 36.9667 384.727 37.2 383.714 37.2ZM383.714 35.32C384.341 35.32 384.901 35.1667 385.394 34.86C385.887 34.54 386.274 34.1133 386.554 33.58C386.834 33.0333 386.967 32.42 386.954 31.74C386.967 31.0467 386.834 30.4333 386.554 29.9C386.274 29.3533 385.887 28.9267 385.394 28.62C384.901 28.3133 384.341 28.16 383.714 28.16C383.087 28.16 382.521 28.32 382.014 28.64C381.521 28.9467 381.134 29.3733 380.854 29.92C380.574 30.4533 380.441 31.06 380.454 31.74C380.441 32.42 380.574 33.0333 380.854 33.58C381.134 34.1133 381.521 34.54 382.014 34.86C382.521 35.1667 383.087 35.32 383.714 35.32ZM397.699 37V26.5H399.779V29.8L399.579 29C399.725 28.4933 399.972 28.0333 400.319 27.62C400.679 27.2067 401.085 26.88 401.539 26.64C402.005 26.4 402.485 26.28 402.979 26.28C403.205 26.28 403.419 26.3 403.619 26.34C403.832 26.38 403.999 26.4267 404.119 26.48L403.579 28.72C403.419 28.6533 403.239 28.6 403.039 28.56C402.852 28.5067 402.665 28.48 402.479 28.48C402.119 28.48 401.772 28.5533 401.439 28.7C401.119 28.8333 400.832 29.0267 400.579 29.28C400.339 29.52 400.145 29.8067 399.999 30.14C399.852 30.46 399.779 30.8133 399.779 31.2V37H397.699ZM427.67 37.2C426.79 37.2 425.997 37.0467 425.29 36.74C424.584 36.4333 423.997 35.98 423.53 35.38L424.93 34.18C425.33 34.6467 425.764 34.9867 426.23 35.2C426.71 35.4 427.25 35.5 427.85 35.5C428.09 35.5 428.31 35.4733 428.51 35.42C428.724 35.3533 428.904 35.26 429.05 35.14C429.21 35.02 429.33 34.88 429.41 34.72C429.49 34.5467 429.53 34.36 429.53 34.16C429.53 33.8133 429.404 33.5333 429.15 33.32C429.017 33.2267 428.804 33.1267 428.51 33.02C428.23 32.9 427.864 32.78 427.41 32.66C426.637 32.46 426.004 32.2333 425.51 31.98C425.017 31.7267 424.637 31.44 424.37 31.12C424.17 30.8667 424.024 30.5933 423.93 30.3C423.837 29.9933 423.79 29.66 423.79 29.3C423.79 28.86 423.884 28.46 424.07 28.1C424.27 27.7267 424.537 27.4067 424.87 27.14C425.217 26.86 425.617 26.6467 426.07 26.5C426.537 26.3533 427.03 26.28 427.55 26.28C428.044 26.28 428.53 26.3467 429.01 26.48C429.504 26.6133 429.957 26.8067 430.37 27.06C430.784 27.3133 431.13 27.6133 431.41 27.96L430.23 29.26C429.977 29.0067 429.697 28.7867 429.39 28.6C429.097 28.4 428.797 28.2467 428.49 28.14C428.184 28.0333 427.904 27.98 427.65 27.98C427.37 27.98 427.117 28.0067 426.89 28.06C426.664 28.1133 426.47 28.1933 426.31 28.3C426.164 28.4067 426.05 28.54 425.97 28.7C425.89 28.86 425.85 29.04 425.85 29.24C425.864 29.4133 425.904 29.58 425.97 29.74C426.05 29.8867 426.157 30.0133 426.29 30.12C426.437 30.2267 426.657 30.34 426.95 30.46C427.244 30.58 427.617 30.6933 428.07 30.8C428.737 30.9733 429.284 31.1667 429.71 31.38C430.15 31.58 430.497 31.8133 430.75 32.08C431.017 32.3333 431.204 32.6267 431.31 32.96C431.417 33.2933 431.47 33.6667 431.47 34.08C431.47 34.68 431.297 35.22 430.95 35.7C430.617 36.1667 430.164 36.5333 429.59 36.8C429.017 37.0667 428.377 37.2 427.67 37.2ZM440.101 37V26.5H442.181V28.74L441.801 28.98C441.907 28.6333 442.074 28.3 442.301 27.98C442.541 27.66 442.827 27.38 443.161 27.14C443.507 26.8867 443.874 26.6867 444.261 26.54C444.661 26.3933 445.067 26.32 445.481 26.32C446.081 26.32 446.607 26.42 447.061 26.62C447.514 26.82 447.887 27.12 448.181 27.52C448.474 27.92 448.687 28.42 448.821 29.02L448.501 28.94L448.641 28.6C448.787 28.2933 448.987 28.0067 449.241 27.74C449.507 27.46 449.807 27.2133 450.141 27C450.474 26.7867 450.827 26.62 451.201 26.5C451.574 26.38 451.941 26.32 452.301 26.32C453.087 26.32 453.734 26.48 454.241 26.8C454.761 27.12 455.147 27.6067 455.401 28.26C455.667 28.9133 455.801 29.7267 455.801 30.7V37H453.721V30.82C453.721 30.22 453.641 29.7333 453.481 29.36C453.334 28.9733 453.107 28.6867 452.801 28.5C452.494 28.3133 452.101 28.22 451.621 28.22C451.247 28.22 450.894 28.2867 450.561 28.42C450.241 28.54 449.961 28.7133 449.721 28.94C449.481 29.1667 449.294 29.4333 449.161 29.74C449.027 30.0333 448.961 30.36 448.961 30.72V37H446.881V30.78C446.881 30.2333 446.801 29.7733 446.641 29.4C446.481 29.0133 446.247 28.72 445.941 28.52C445.634 28.32 445.261 28.22 444.821 28.22C444.447 28.22 444.101 28.2867 443.781 28.42C443.461 28.54 443.181 28.7133 442.941 28.94C442.701 29.1533 442.514 29.4133 442.381 29.72C442.247 30.0133 442.181 30.3333 442.181 30.68V37H440.101ZM468.999 37.2C468.132 37.2 467.339 36.96 466.619 36.48C465.912 36 465.345 35.3467 464.919 34.52C464.492 33.6933 464.279 32.76 464.279 31.72C464.279 30.6667 464.492 29.7333 464.919 28.92C465.359 28.0933 465.945 27.4467 466.679 26.98C467.425 26.5133 468.259 26.28 469.179 26.28C469.725 26.28 470.225 26.36 470.679 26.52C471.132 26.68 471.525 26.9067 471.859 27.2C472.205 27.48 472.485 27.8067 472.699 28.18C472.925 28.5533 473.065 28.9533 473.119 29.38L472.659 29.22V26.5H474.739V37H472.659V34.5L473.139 34.36C473.059 34.72 472.892 35.0733 472.639 35.42C472.399 35.7533 472.085 36.0533 471.699 36.32C471.325 36.5867 470.905 36.8 470.439 36.96C469.985 37.12 469.505 37.2 468.999 37.2ZM469.539 35.3C470.165 35.3 470.719 35.1467 471.199 34.84C471.679 34.5333 472.052 34.1133 472.319 33.58C472.599 33.0333 472.739 32.4133 472.739 31.72C472.739 31.04 472.599 30.4333 472.319 29.9C472.052 29.3667 471.679 28.9467 471.199 28.64C470.719 28.3333 470.165 28.18 469.539 28.18C468.925 28.18 468.379 28.3333 467.899 28.64C467.432 28.9467 467.059 29.3667 466.779 29.9C466.512 30.4333 466.379 31.04 466.379 31.72C466.379 32.4133 466.512 33.0333 466.779 33.58C467.059 34.1133 467.432 34.5333 467.899 34.84C468.379 35.1467 468.925 35.3 469.539 35.3ZM484.015 37V26.5H486.095V29.8L485.895 29C486.042 28.4933 486.288 28.0333 486.635 27.62C486.995 27.2067 487.402 26.88 487.855 26.64C488.322 26.4 488.802 26.28 489.295 26.28C489.522 26.28 489.735 26.3 489.935 26.34C490.148 26.38 490.315 26.4267 490.435 26.48L489.895 28.72C489.735 28.6533 489.555 28.6 489.355 28.56C489.168 28.5067 488.982 28.48 488.795 28.48C488.435 28.48 488.088 28.5533 487.755 28.7C487.435 28.8333 487.148 29.0267 486.895 29.28C486.655 29.52 486.462 29.8067 486.315 30.14C486.168 30.46 486.095 30.8133 486.095 31.2V37H484.015ZM500.172 37V23.82H502.232V37H500.172ZM497.992 28.5V26.5H504.672V28.5H497.992ZM528.453 37.2C527.573 37.2 526.78 37.0467 526.073 36.74C525.367 36.4333 524.78 35.98 524.313 35.38L525.713 34.18C526.113 34.6467 526.547 34.9867 527.013 35.2C527.493 35.4 528.033 35.5 528.633 35.5C528.873 35.5 529.093 35.4733 529.293 35.42C529.507 35.3533 529.687 35.26 529.833 35.14C529.993 35.02 530.113 34.88 530.193 34.72C530.273 34.5467 530.313 34.36 530.313 34.16C530.313 33.8133 530.187 33.5333 529.933 33.32C529.8 33.2267 529.587 33.1267 529.293 33.02C529.013 32.9 528.647 32.78 528.193 32.66C527.42 32.46 526.787 32.2333 526.293 31.98C525.8 31.7267 525.42 31.44 525.153 31.12C524.953 30.8667 524.807 30.5933 524.713 30.3C524.62 29.9933 524.573 29.66 524.573 29.3C524.573 28.86 524.667 28.46 524.853 28.1C525.053 27.7267 525.32 27.4067 525.653 27.14C526 26.86 526.4 26.6467 526.853 26.5C527.32 26.3533 527.813 26.28 528.333 26.28C528.827 26.28 529.313 26.3467 529.793 26.48C530.287 26.6133 530.74 26.8067 531.153 27.06C531.567 27.3133 531.913 27.6133 532.193 27.96L531.013 29.26C530.76 29.0067 530.48 28.7867 530.173 28.6C529.88 28.4 529.58 28.2467 529.273 28.14C528.967 28.0333 528.687 27.98 528.433 27.98C528.153 27.98 527.9 28.0067 527.673 28.06C527.447 28.1133 527.253 28.1933 527.093 28.3C526.947 28.4067 526.833 28.54 526.753 28.7C526.673 28.86 526.633 29.04 526.633 29.24C526.647 29.4133 526.687 29.58 526.753 29.74C526.833 29.8867 526.94 30.0133 527.073 30.12C527.22 30.2267 527.44 30.34 527.733 30.46C528.027 30.58 528.4 30.6933 528.853 30.8C529.52 30.9733 530.067 31.1667 530.493 31.38C530.933 31.58 531.28 31.8133 531.533 32.08C531.8 32.3333 531.987 32.6267 532.093 32.96C532.2 33.2933 532.253 33.6667 532.253 34.08C532.253 34.68 532.08 35.22 531.733 35.7C531.4 36.1667 530.947 36.5333 530.373 36.8C529.8 37.0667 529.16 37.2 528.453 37.2ZM545.644 37.2C544.617 37.2 543.697 36.9667 542.884 36.5C542.084 36.02 541.45 35.3733 540.984 34.56C540.517 33.7333 540.284 32.7933 540.284 31.74C540.284 30.6867 540.517 29.7533 540.984 28.94C541.45 28.1133 542.084 27.4667 542.884 27C543.697 26.52 544.617 26.28 545.644 26.28C546.657 26.28 547.564 26.52 548.364 27C549.177 27.4667 549.817 28.1133 550.284 28.94C550.75 29.7533 550.984 30.6867 550.984 31.74C550.984 32.7933 550.75 33.7333 550.284 34.56C549.817 35.3733 549.177 36.02 548.364 36.5C547.564 36.9667 546.657 37.2 545.644 37.2ZM545.644 35.32C546.27 35.32 546.83 35.1667 547.324 34.86C547.817 34.54 548.204 34.1133 548.484 33.58C548.764 33.0333 548.897 32.42 548.884 31.74C548.897 31.0467 548.764 30.4333 548.484 29.9C548.204 29.3533 547.817 28.9267 547.324 28.62C546.83 28.3133 546.27 28.16 545.644 28.16C545.017 28.16 544.45 28.32 543.944 28.64C543.45 28.9467 543.064 29.3733 542.784 29.92C542.504 30.4533 542.37 31.06 542.384 31.74C542.37 32.42 542.504 33.0333 542.784 33.58C543.064 34.1133 543.45 34.54 543.944 34.86C544.45 35.1667 545.017 35.32 545.644 35.32ZM559.668 37V22.2H561.728V37H559.668ZM574.63 37.2C573.883 37.2 573.23 37.0267 572.67 36.68C572.123 36.3333 571.697 35.8467 571.39 35.22C571.097 34.5933 570.95 33.8467 570.95 32.98V26.5H573.01V32.42C573.01 33.0333 573.103 33.5667 573.29 34.02C573.49 34.46 573.77 34.8 574.13 35.04C574.503 35.28 574.95 35.4 575.47 35.4C575.857 35.4 576.21 35.34 576.53 35.22C576.85 35.0867 577.123 34.9067 577.35 34.68C577.59 34.4533 577.777 34.18 577.91 33.86C578.043 33.54 578.11 33.1933 578.11 32.82V26.5H580.17V37H578.11V34.8L578.47 34.56C578.31 35.0533 578.037 35.5 577.65 35.9C577.277 36.3 576.83 36.62 576.31 36.86C575.79 37.0867 575.23 37.2 574.63 37.2ZM590.76 37V23.82H592.82V37H590.76ZM588.58 28.5V26.5H595.26V28.5H588.58ZM603.875 37V26.5H605.935V37H603.875ZM604.875 24.18C604.435 24.18 604.095 24.0667 603.855 23.84C603.615 23.6133 603.495 23.2933 603.495 22.88C603.495 22.4933 603.615 22.18 603.855 21.94C604.109 21.7 604.449 21.58 604.875 21.58C605.315 21.58 605.655 21.6933 605.895 21.92C606.135 22.1467 606.255 22.4667 606.255 22.88C606.255 23.2667 606.129 23.58 605.875 23.82C605.635 24.06 605.302 24.18 604.875 24.18ZM620.222 37.2C619.195 37.2 618.275 36.9667 617.462 36.5C616.662 36.02 616.028 35.3733 615.562 34.56C615.095 33.7333 614.862 32.7933 614.862 31.74C614.862 30.6867 615.095 29.7533 615.562 28.94C616.028 28.1133 616.662 27.4667 617.462 27C618.275 26.52 619.195 26.28 620.222 26.28C621.235 26.28 622.142 26.52 622.942 27C623.755 27.4667 624.395 28.1133 624.862 28.94C625.328 29.7533 625.562 30.6867 625.562 31.74C625.562 32.7933 625.328 33.7333 624.862 34.56C624.395 35.3733 623.755 36.02 622.942 36.5C622.142 36.9667 621.235 37.2 620.222 37.2ZM620.222 35.32C620.848 35.32 621.408 35.1667 621.902 34.86C622.395 34.54 622.782 34.1133 623.062 33.58C623.342 33.0333 623.475 32.42 623.462 31.74C623.475 31.0467 623.342 30.4333 623.062 29.9C622.782 29.3533 622.395 28.9267 621.902 28.62C621.408 28.3133 620.848 28.16 620.222 28.16C619.595 28.16 619.028 28.32 618.522 28.64C618.028 28.9467 617.642 29.3733 617.362 29.92C617.082 30.4533 616.948 31.06 616.962 31.74C616.948 32.42 617.082 33.0333 617.362 33.58C617.642 34.1133 618.028 34.54 618.522 34.86C619.028 35.1667 619.595 35.32 620.222 35.32ZM634.206 37V26.5H636.266V28.66L635.906 28.9C636.04 28.4333 636.3 28.0067 636.686 27.62C637.073 27.22 637.533 26.9 638.066 26.66C638.6 26.4067 639.146 26.28 639.706 26.28C640.506 26.28 641.173 26.44 641.706 26.76C642.24 27.0667 642.64 27.54 642.906 28.18C643.173 28.82 643.306 29.6267 643.306 30.6V37H641.246V30.74C641.246 30.14 641.166 29.6467 641.006 29.26C640.846 28.86 640.6 28.5733 640.266 28.4C639.933 28.2133 639.52 28.1333 639.026 28.16C638.626 28.16 638.26 28.2267 637.926 28.36C637.593 28.48 637.3 28.6533 637.046 28.88C636.806 29.1067 636.613 29.3733 636.466 29.68C636.333 29.9733 636.266 30.2933 636.266 30.64V37H635.246C635.073 37 634.9 37 634.726 37C634.553 37 634.38 37 634.206 37ZM656.001 37.2C655.121 37.2 654.328 37.0467 653.621 36.74C652.914 36.4333 652.328 35.98 651.861 35.38L653.261 34.18C653.661 34.6467 654.094 34.9867 654.561 35.2C655.041 35.4 655.581 35.5 656.181 35.5C656.421 35.5 656.641 35.4733 656.841 35.42C657.054 35.3533 657.234 35.26 657.381 35.14C657.541 35.02 657.661 34.88 657.741 34.72C657.821 34.5467 657.861 34.36 657.861 34.16C657.861 33.8133 657.734 33.5333 657.481 33.32C657.348 33.2267 657.134 33.1267 656.841 33.02C656.561 32.9 656.194 32.78 655.741 32.66C654.968 32.46 654.334 32.2333 653.841 31.98C653.348 31.7267 652.968 31.44 652.701 31.12C652.501 30.8667 652.354 30.5933 652.261 30.3C652.168 29.9933 652.121 29.66 652.121 29.3C652.121 28.86 652.214 28.46 652.401 28.1C652.601 27.7267 652.868 27.4067 653.201 27.14C653.548 26.86 653.948 26.6467 654.401 26.5C654.868 26.3533 655.361 26.28 655.881 26.28C656.374 26.28 656.861 26.3467 657.341 26.48C657.834 26.6133 658.288 26.8067 658.701 27.06C659.114 27.3133 659.461 27.6133 659.741 27.96L658.561 29.26C658.308 29.0067 658.028 28.7867 657.721 28.6C657.428 28.4 657.128 28.2467 656.821 28.14C656.514 28.0333 656.234 27.98 655.981 27.98C655.701 27.98 655.448 28.0067 655.221 28.06C654.994 28.1133 654.801 28.1933 654.641 28.3C654.494 28.4067 654.381 28.54 654.301 28.7C654.221 28.86 654.181 29.04 654.181 29.24C654.194 29.4133 654.234 29.58 654.301 29.74C654.381 29.8867 654.488 30.0133 654.621 30.12C654.768 30.2267 654.988 30.34 655.281 30.46C655.574 30.58 655.948 30.6933 656.401 30.8C657.068 30.9733 657.614 31.1667 658.041 31.38C658.481 31.58 658.828 31.8133 659.081 32.08C659.348 32.3333 659.534 32.6267 659.641 32.96C659.748 33.2933 659.801 33.6667 659.801 34.08C659.801 34.68 659.628 35.22 659.281 35.7C658.948 36.1667 658.494 36.5333 657.921 36.8C657.348 37.0667 656.708 37.2 656.001 37.2ZM669.311 37.22C668.871 37.22 668.531 37.0933 668.291 36.84C668.051 36.5733 667.931 36.2 667.931 35.72C667.931 35.28 668.058 34.92 668.311 34.64C668.565 34.36 668.898 34.22 669.311 34.22C669.751 34.22 670.091 34.3533 670.331 34.62C670.571 34.8733 670.691 35.24 670.691 35.72C670.691 36.16 670.565 36.52 670.311 36.8C670.058 37.08 669.725 37.22 669.311 37.22Z" fill="white"/>
</svg>
