<svg width="694" height="43" viewBox="0 0 694 43" fill="none" xmlns="http://www.w3.org/2000/svg">
<path d="M0.96 16V2H6.44C7.44 2 8.34 2.16667 9.14 2.5C9.95333 2.83333 10.6467 3.31333 11.22 3.94C11.7933 4.56667 12.2333 5.30667 12.54 6.16C12.8467 7.01333 13 7.96 13 9C13 10.04 12.8467 10.9933 12.54 11.86C12.2333 12.7133 11.7933 13.4533 11.22 14.08C10.66 14.6933 9.97333 15.1667 9.16 15.5C8.34667 15.8333 7.44 16 6.44 16H0.96ZM3.12 14.14L3.06 13.92H6.34C7.04667 13.92 7.67333 13.8067 8.22 13.58C8.78 13.3533 9.24667 13.0333 9.62 12.62C10.0067 12.1933 10.3 11.6733 10.5 11.06C10.7 10.4467 10.8 9.76 10.8 9C10.8 8.24 10.7 7.56 10.5 6.96C10.3 6.34667 10.0067 5.82667 9.62 5.4C9.23333 4.97333 8.76667 4.64667 8.22 4.42C7.67333 4.19333 7.04667 4.08 6.34 4.08H3L3.12 3.9V14.14ZM26.7009 16.2C25.6209 16.2 24.6609 15.9733 23.8209 15.52C22.9943 15.0533 22.3409 14.42 21.8609 13.62C21.3943 12.82 21.1609 11.9 21.1609 10.86C21.1609 10.0333 21.2943 9.28 21.5609 8.6C21.8276 7.92 22.1943 7.33333 22.6609 6.84C23.1409 6.33333 23.7076 5.94667 24.3609 5.68C25.0276 5.4 25.7476 5.26 26.5209 5.26C27.2009 5.26 27.8343 5.39333 28.4209 5.66C29.0076 5.91333 29.5143 6.26667 29.9409 6.72C30.3809 7.17333 30.7143 7.71333 30.9409 8.34C31.1809 8.95333 31.2943 9.62667 31.2809 10.36L31.2609 11.24H22.6809L22.2209 9.6H29.4809L29.1809 9.94V9.46C29.1409 9.02 28.9943 8.62667 28.7409 8.28C28.4876 7.93333 28.1676 7.66 27.7809 7.46C27.3943 7.26 26.9743 7.16 26.5209 7.16C25.8009 7.16 25.1943 7.3 24.7009 7.58C24.2076 7.84667 23.8343 8.24667 23.5809 8.78C23.3276 9.3 23.2009 9.94667 23.2009 10.72C23.2009 11.4533 23.3543 12.0933 23.6609 12.64C23.9676 13.1733 24.4009 13.5867 24.9609 13.88C25.5209 14.1733 26.1676 14.32 26.9009 14.32C27.4209 14.32 27.9009 14.2333 28.3409 14.06C28.7943 13.8867 29.2809 13.5733 29.8009 13.12L30.8409 14.58C30.5209 14.9 30.1276 15.18 29.6609 15.42C29.2076 15.66 28.7209 15.8533 28.2009 16C27.6943 16.1333 27.1943 16.2 26.7009 16.2ZM43.1644 16L38.7244 5.5H40.9444L44.1444 13.36L43.7644 13.54L47.1844 5.5H49.3044L44.6444 16H43.1644ZM62.1963 16.2C61.1163 16.2 60.1563 15.9733 59.3163 15.52C58.4896 15.0533 57.8363 14.42 57.3563 13.62C56.8896 12.82 56.6563 11.9 56.6563 10.86C56.6563 10.0333 56.7896 9.28 57.0563 8.6C57.3229 7.92 57.6896 7.33333 58.1563 6.84C58.6363 6.33333 59.2029 5.94667 59.8563 5.68C60.5229 5.4 61.2429 5.26 62.0163 5.26C62.6963 5.26 63.3296 5.39333 63.9163 5.66C64.5029 5.91333 65.0096 6.26667 65.4363 6.72C65.8763 7.17333 66.2096 7.71333 66.4363 8.34C66.6763 8.95333 66.7896 9.62667 66.7763 10.36L66.7563 11.24H58.1763L57.7163 9.6H64.9763L64.6763 9.94V9.46C64.6363 9.02 64.4896 8.62667 64.2363 8.28C63.9829 7.93333 63.6629 7.66 63.2763 7.46C62.8896 7.26 62.4696 7.16 62.0163 7.16C61.2963 7.16 60.6896 7.3 60.1963 7.58C59.7029 7.84667 59.3296 8.24667 59.0763 8.78C58.8229 9.3 58.6963 9.94667 58.6963 10.72C58.6963 11.4533 58.8496 12.0933 59.1563 12.64C59.4629 13.1733 59.8963 13.5867 60.4563 13.88C61.0163 14.1733 61.6629 14.32 62.3963 14.32C62.9163 14.32 63.3963 14.2333 63.8363 14.06C64.2896 13.8867 64.7763 13.5733 65.2963 13.12L66.3363 14.58C66.0163 14.9 65.6229 15.18 65.1563 15.42C64.7029 15.66 64.2163 15.8533 63.6963 16C63.1896 16.1333 62.6896 16.2 62.1963 16.2ZM75.455 16V1.2H77.515V16H75.455ZM91.3592 16.2C90.3326 16.2 89.4126 15.9667 88.5992 15.5C87.7992 15.02 87.1659 14.3733 86.6992 13.56C86.2326 12.7333 85.9992 11.7933 85.9992 10.74C85.9992 9.68667 86.2326 8.75333 86.6992 7.94C87.1659 7.11333 87.7992 6.46667 88.5992 6C89.4126 5.52 90.3326 5.28 91.3592 5.28C92.3726 5.28 93.2792 5.52 94.0792 6C94.8926 6.46667 95.5326 7.11333 95.9992 7.94C96.4659 8.75333 96.6992 9.68667 96.6992 10.74C96.6992 11.7933 96.4659 12.7333 95.9992 13.56C95.5326 14.3733 94.8926 15.02 94.0792 15.5C93.2792 15.9667 92.3726 16.2 91.3592 16.2ZM91.3592 14.32C91.9859 14.32 92.5459 14.1667 93.0392 13.86C93.5326 13.54 93.9192 13.1133 94.1992 12.58C94.4792 12.0333 94.6126 11.42 94.5992 10.74C94.6126 10.0467 94.4792 9.43333 94.1992 8.9C93.9192 8.35333 93.5326 7.92667 93.0392 7.62C92.5459 7.31333 91.9859 7.16 91.3592 7.16C90.7326 7.16 90.1659 7.32 89.6592 7.64C89.1659 7.94667 88.7792 8.37333 88.4992 8.92C88.2192 9.45333 88.0859 10.06 88.0992 10.74C88.0859 11.42 88.2192 12.0333 88.4992 12.58C88.7792 13.1133 89.1659 13.54 89.6592 13.86C90.1659 14.1667 90.7326 14.32 91.3592 14.32ZM105.344 20.4V5.5H107.424V7.9L107.104 7.72C107.184 7.32 107.411 6.94 107.784 6.58C108.157 6.20667 108.611 5.90667 109.144 5.68C109.691 5.44 110.251 5.32 110.824 5.32C111.771 5.32 112.611 5.55333 113.344 6.02C114.077 6.48667 114.657 7.12667 115.084 7.94C115.511 8.75333 115.724 9.68667 115.724 10.74C115.724 11.78 115.511 12.7133 115.084 13.54C114.671 14.3533 114.097 15 113.364 15.48C112.631 15.9467 111.804 16.18 110.884 16.18C110.271 16.18 109.677 16.06 109.104 15.82C108.531 15.5667 108.044 15.2467 107.644 14.86C107.244 14.4733 106.997 14.0733 106.904 13.66L107.424 13.38V20.4H105.344ZM110.544 14.28C111.157 14.28 111.704 14.1267 112.184 13.82C112.664 13.5133 113.044 13.0933 113.324 12.56C113.604 12.0267 113.744 11.42 113.744 10.74C113.744 10.06 113.604 9.46 113.324 8.94C113.057 8.40667 112.684 7.98667 112.204 7.68C111.724 7.37333 111.171 7.22 110.544 7.22C109.917 7.22 109.364 7.37333 108.884 7.68C108.404 7.97333 108.024 8.38667 107.744 8.92C107.464 9.45333 107.324 10.06 107.324 10.74C107.324 11.42 107.464 12.0267 107.744 12.56C108.024 13.0933 108.404 13.5133 108.884 13.82C109.364 14.1267 109.917 14.28 110.544 14.28ZM127.861 16.2C126.981 16.2 126.188 16.0467 125.481 15.74C124.774 15.4333 124.188 14.98 123.721 14.38L125.121 13.18C125.521 13.6467 125.954 13.9867 126.421 14.2C126.901 14.4 127.441 14.5 128.041 14.5C128.281 14.5 128.501 14.4733 128.701 14.42C128.914 14.3533 129.094 14.26 129.241 14.14C129.401 14.02 129.521 13.88 129.601 13.72C129.681 13.5467 129.721 13.36 129.721 13.16C129.721 12.8133 129.594 12.5333 129.341 12.32C129.208 12.2267 128.994 12.1267 128.701 12.02C128.421 11.9 128.054 11.78 127.601 11.66C126.828 11.46 126.194 11.2333 125.701 10.98C125.208 10.7267 124.828 10.44 124.561 10.12C124.361 9.86667 124.214 9.59333 124.121 9.3C124.028 8.99333 123.981 8.66 123.981 8.3C123.981 7.86 124.074 7.46 124.261 7.1C124.461 6.72667 124.728 6.40667 125.061 6.14C125.408 5.86 125.808 5.64667 126.261 5.5C126.728 5.35333 127.221 5.28 127.741 5.28C128.234 5.28 128.721 5.34667 129.201 5.48C129.694 5.61333 130.148 5.80667 130.561 6.06C130.974 6.31333 131.321 6.61333 131.601 6.96L130.421 8.26C130.168 8.00667 129.888 7.78667 129.581 7.6C129.288 7.4 128.988 7.24667 128.681 7.14C128.374 7.03333 128.094 6.98 127.841 6.98C127.561 6.98 127.308 7.00667 127.081 7.06C126.854 7.11333 126.661 7.19333 126.501 7.3C126.354 7.40667 126.241 7.54 126.161 7.7C126.081 7.86 126.041 8.04 126.041 8.24C126.054 8.41333 126.094 8.58 126.161 8.74C126.241 8.88667 126.348 9.01333 126.481 9.12C126.628 9.22667 126.848 9.34 127.141 9.46C127.434 9.58 127.808 9.69333 128.261 9.8C128.928 9.97333 129.474 10.1667 129.901 10.38C130.341 10.58 130.688 10.8133 130.941 11.08C131.208 11.3333 131.394 11.6267 131.501 11.96C131.608 12.2933 131.661 12.6667 131.661 13.08C131.661 13.68 131.488 14.22 131.141 14.7C130.808 15.1667 130.354 15.5333 129.781 15.8C129.208 16.0667 128.568 16.2 127.861 16.2ZM153.637 16V2.82H155.697V16H153.637ZM151.457 7.5V5.5H158.137V7.5H151.457ZM171.215 16.2C170.135 16.2 169.175 15.9733 168.335 15.52C167.508 15.0533 166.855 14.42 166.375 13.62C165.908 12.82 165.675 11.9 165.675 10.86C165.675 10.0333 165.808 9.28 166.075 8.6C166.342 7.92 166.708 7.33333 167.175 6.84C167.655 6.33333 168.222 5.94667 168.875 5.68C169.542 5.4 170.262 5.26 171.035 5.26C171.715 5.26 172.348 5.39333 172.935 5.66C173.522 5.91333 174.028 6.26667 174.455 6.72C174.895 7.17333 175.228 7.71333 175.455 8.34C175.695 8.95333 175.808 9.62667 175.795 10.36L175.775 11.24H167.195L166.735 9.6H173.995L173.695 9.94V9.46C173.655 9.02 173.508 8.62667 173.255 8.28C173.002 7.93333 172.682 7.66 172.295 7.46C171.908 7.26 171.488 7.16 171.035 7.16C170.315 7.16 169.708 7.3 169.215 7.58C168.722 7.84667 168.348 8.24667 168.095 8.78C167.842 9.3 167.715 9.94667 167.715 10.72C167.715 11.4533 167.868 12.0933 168.175 12.64C168.482 13.1733 168.915 13.5867 169.475 13.88C170.035 14.1733 170.682 14.32 171.415 14.32C171.935 14.32 172.415 14.2333 172.855 14.06C173.308 13.8867 173.795 13.5733 174.315 13.12L175.355 14.58C175.035 14.9 174.642 15.18 174.175 15.42C173.722 15.66 173.235 15.8533 172.715 16C172.208 16.1333 171.708 16.2 171.215 16.2ZM188.894 16.2C187.92 16.2 187.047 15.96 186.274 15.48C185.514 15 184.907 14.3467 184.454 13.52C184.014 12.6933 183.794 11.7667 183.794 10.74C183.794 9.71333 184.014 8.78667 184.454 7.96C184.907 7.13333 185.514 6.48 186.274 6C187.047 5.52 187.92 5.28 188.894 5.28C189.827 5.28 190.674 5.47333 191.434 5.86C192.207 6.23333 192.794 6.74667 193.194 7.4L192.054 8.8C191.84 8.49333 191.567 8.21333 191.234 7.96C190.9 7.70667 190.547 7.50667 190.174 7.36C189.8 7.21333 189.44 7.14 189.094 7.14C188.454 7.14 187.88 7.3 187.374 7.62C186.88 7.92667 186.487 8.35333 186.194 8.9C185.9 9.44667 185.754 10.06 185.754 10.74C185.754 11.42 185.907 12.0333 186.214 12.58C186.52 13.1133 186.927 13.54 187.434 13.86C187.94 14.18 188.5 14.34 189.114 14.34C189.474 14.34 189.82 14.28 190.154 14.16C190.5 14.04 190.834 13.86 191.154 13.62C191.474 13.38 191.774 13.0867 192.054 12.74L193.194 14.14C192.767 14.74 192.154 15.2333 191.354 15.62C190.567 16.0067 189.747 16.2 188.894 16.2ZM201.537 16V1.2H203.597V7.66L203.237 7.9C203.37 7.43333 203.63 7.00667 204.017 6.62C204.404 6.22 204.864 5.9 205.397 5.66C205.93 5.40667 206.477 5.28 207.037 5.28C207.837 5.28 208.504 5.44 209.037 5.76C209.57 6.06667 209.97 6.54 210.237 7.18C210.504 7.82 210.637 8.62667 210.637 9.6V16H208.577V9.74C208.577 9.14 208.497 8.64667 208.337 8.26C208.177 7.86 207.93 7.57333 207.597 7.4C207.264 7.21333 206.85 7.13333 206.357 7.16C205.957 7.16 205.59 7.22667 205.257 7.36C204.924 7.48 204.63 7.65333 204.377 7.88C204.137 8.10667 203.944 8.37333 203.797 8.68C203.664 8.97333 203.597 9.29333 203.597 9.64V16H202.577C202.404 16 202.23 16 202.057 16C201.884 16 201.71 16 201.537 16ZM219.451 11.3V9.26H225.211V11.3H219.451ZM238.483 16.2C237.523 16.2 236.663 15.9667 235.903 15.5C235.156 15.02 234.563 14.3733 234.123 13.56C233.683 12.7333 233.463 11.7933 233.463 10.74C233.463 9.68667 233.676 8.75333 234.103 7.94C234.543 7.11333 235.136 6.46667 235.883 6C236.629 5.52 237.476 5.28 238.423 5.28C238.943 5.28 239.443 5.36667 239.923 5.54C240.416 5.7 240.856 5.92667 241.243 6.22C241.629 6.5 241.929 6.81333 242.143 7.16C242.369 7.49333 242.483 7.83333 242.483 8.18L241.883 8.22V1.2H243.943V16H241.883V13.5H242.283C242.283 13.82 242.176 14.14 241.963 14.46C241.749 14.7667 241.463 15.0533 241.103 15.32C240.756 15.5867 240.349 15.8 239.883 15.96C239.429 16.12 238.963 16.2 238.483 16.2ZM238.763 14.42C239.389 14.42 239.943 14.26 240.423 13.94C240.903 13.62 241.276 13.1867 241.543 12.64C241.823 12.08 241.963 11.4467 241.963 10.74C241.963 10.0333 241.823 9.40667 241.543 8.86C241.276 8.3 240.903 7.86 240.423 7.54C239.943 7.22 239.389 7.06 238.763 7.06C238.136 7.06 237.583 7.22 237.103 7.54C236.623 7.86 236.243 8.3 235.963 8.86C235.696 9.40667 235.563 10.0333 235.563 10.74C235.563 11.4467 235.696 12.08 235.963 12.64C236.243 13.1867 236.623 13.62 237.103 13.94C237.583 14.26 238.136 14.42 238.763 14.42ZM253.178 16V5.5H255.258V8.8L255.058 8C255.205 7.49333 255.452 7.03333 255.798 6.62C256.158 6.20667 256.565 5.88 257.018 5.64C257.485 5.4 257.965 5.28 258.458 5.28C258.685 5.28 258.898 5.3 259.098 5.34C259.312 5.38 259.478 5.42667 259.598 5.48L259.058 7.72C258.898 7.65333 258.718 7.6 258.518 7.56C258.332 7.50667 258.145 7.48 257.958 7.48C257.598 7.48 257.252 7.55333 256.918 7.7C256.598 7.83333 256.312 8.02667 256.058 8.28C255.818 8.52 255.625 8.80667 255.478 9.14C255.332 9.46 255.258 9.81333 255.258 10.2V16H253.178ZM267.985 16V5.5H270.045V16H267.985ZM268.985 3.18C268.545 3.18 268.205 3.06667 267.965 2.84C267.725 2.61333 267.605 2.29333 267.605 1.88C267.605 1.49333 267.725 1.18 267.965 0.94C268.218 0.699999 268.558 0.579999 268.985 0.579999C269.425 0.579999 269.765 0.693333 270.005 0.92C270.245 1.14667 270.365 1.46667 270.365 1.88C270.365 2.26667 270.238 2.58 269.985 2.82C269.745 3.06 269.411 3.18 268.985 3.18ZM283.051 16L278.611 5.5H280.831L284.031 13.36L283.651 13.54L287.071 5.5H289.191L284.531 16H283.051ZM302.083 16.2C301.003 16.2 300.043 15.9733 299.203 15.52C298.376 15.0533 297.723 14.42 297.243 13.62C296.776 12.82 296.543 11.9 296.543 10.86C296.543 10.0333 296.676 9.28 296.943 8.6C297.21 7.92 297.576 7.33333 298.043 6.84C298.523 6.33333 299.09 5.94667 299.743 5.68C300.41 5.4 301.13 5.26 301.903 5.26C302.583 5.26 303.216 5.39333 303.803 5.66C304.39 5.91333 304.896 6.26667 305.323 6.72C305.763 7.17333 306.096 7.71333 306.323 8.34C306.563 8.95333 306.676 9.62667 306.663 10.36L306.643 11.24H298.063L297.603 9.6H304.863L304.563 9.94V9.46C304.523 9.02 304.376 8.62667 304.123 8.28C303.87 7.93333 303.55 7.66 303.163 7.46C302.776 7.26 302.356 7.16 301.903 7.16C301.183 7.16 300.576 7.3 300.083 7.58C299.59 7.84667 299.216 8.24667 298.963 8.78C298.71 9.3 298.583 9.94667 298.583 10.72C298.583 11.4533 298.736 12.0933 299.043 12.64C299.35 13.1733 299.783 13.5867 300.343 13.88C300.903 14.1733 301.55 14.32 302.283 14.32C302.803 14.32 303.283 14.2333 303.723 14.06C304.176 13.8867 304.663 13.5733 305.183 13.12L306.223 14.58C305.903 14.9 305.51 15.18 305.043 15.42C304.59 15.66 304.103 15.8533 303.583 16C303.076 16.1333 302.576 16.2 302.083 16.2ZM315.302 16V5.5H317.362V7.66L317.002 7.9C317.135 7.43333 317.395 7.00667 317.782 6.62C318.168 6.22 318.628 5.9 319.162 5.66C319.695 5.40667 320.242 5.28 320.802 5.28C321.602 5.28 322.268 5.44 322.802 5.76C323.335 6.06667 323.735 6.54 324.002 7.18C324.268 7.82 324.402 8.62667 324.402 9.6V16H322.342V9.74C322.342 9.14 322.262 8.64667 322.102 8.26C321.942 7.86 321.695 7.57333 321.362 7.4C321.028 7.21333 320.615 7.13333 320.122 7.16C319.722 7.16 319.355 7.22667 319.022 7.36C318.688 7.48 318.395 7.65333 318.142 7.88C317.902 8.10667 317.708 8.37333 317.562 8.68C317.428 8.97333 317.362 9.29333 317.362 9.64V16H316.342C316.168 16 315.995 16 315.822 16C315.648 16 315.475 16 315.302 16ZM345.602 16V1.2H347.662V7.66L347.302 7.9C347.435 7.43333 347.695 7.00667 348.082 6.62C348.468 6.22 348.928 5.9 349.462 5.66C349.995 5.40667 350.542 5.28 351.102 5.28C351.902 5.28 352.568 5.44 353.102 5.76C353.635 6.06667 354.035 6.54 354.302 7.18C354.568 7.82 354.702 8.62667 354.702 9.6V16H352.642V9.74C352.642 9.14 352.562 8.64667 352.402 8.26C352.242 7.86 351.995 7.57333 351.662 7.4C351.328 7.21333 350.915 7.13333 350.422 7.16C350.022 7.16 349.655 7.22667 349.322 7.36C348.988 7.48 348.695 7.65333 348.442 7.88C348.202 8.10667 348.008 8.37333 347.862 8.68C347.728 8.97333 347.662 9.29333 347.662 9.64V16H346.642C346.468 16 346.295 16 346.122 16C345.948 16 345.775 16 345.602 16ZM368.796 16.2C367.716 16.2 366.756 15.9733 365.916 15.52C365.09 15.0533 364.436 14.42 363.956 13.62C363.49 12.82 363.256 11.9 363.256 10.86C363.256 10.0333 363.39 9.28 363.656 8.6C363.923 7.92 364.29 7.33333 364.756 6.84C365.236 6.33333 365.803 5.94667 366.456 5.68C367.123 5.4 367.843 5.26 368.616 5.26C369.296 5.26 369.93 5.39333 370.516 5.66C371.103 5.91333 371.61 6.26667 372.036 6.72C372.476 7.17333 372.81 7.71333 373.036 8.34C373.276 8.95333 373.39 9.62667 373.376 10.36L373.356 11.24H364.776L364.316 9.6H371.576L371.276 9.94V9.46C371.236 9.02 371.09 8.62667 370.836 8.28C370.583 7.93333 370.263 7.66 369.876 7.46C369.49 7.26 369.07 7.16 368.616 7.16C367.896 7.16 367.29 7.3 366.796 7.58C366.303 7.84667 365.93 8.24667 365.676 8.78C365.423 9.3 365.296 9.94667 365.296 10.72C365.296 11.4533 365.45 12.0933 365.756 12.64C366.063 13.1733 366.496 13.5867 367.056 13.88C367.616 14.1733 368.263 14.32 368.996 14.32C369.516 14.32 369.996 14.2333 370.436 14.06C370.89 13.8867 371.376 13.5733 371.896 13.12L372.936 14.58C372.616 14.9 372.223 15.18 371.756 15.42C371.303 15.66 370.816 15.8533 370.296 16C369.79 16.1333 369.29 16.2 368.796 16.2ZM386.055 16.2C385.188 16.2 384.395 15.96 383.675 15.48C382.968 15 382.402 14.3467 381.975 13.52C381.548 12.6933 381.335 11.76 381.335 10.72C381.335 9.66667 381.548 8.73333 381.975 7.92C382.415 7.09333 383.002 6.44667 383.735 5.98C384.482 5.51333 385.315 5.28 386.235 5.28C386.782 5.28 387.282 5.36 387.735 5.52C388.188 5.68 388.582 5.90667 388.915 6.2C389.262 6.48 389.542 6.80667 389.755 7.18C389.982 7.55333 390.122 7.95333 390.175 8.38L389.715 8.22V5.5H391.795V16H389.715V13.5L390.195 13.36C390.115 13.72 389.948 14.0733 389.695 14.42C389.455 14.7533 389.142 15.0533 388.755 15.32C388.382 15.5867 387.962 15.8 387.495 15.96C387.042 16.12 386.562 16.2 386.055 16.2ZM386.595 14.3C387.222 14.3 387.775 14.1467 388.255 13.84C388.735 13.5333 389.108 13.1133 389.375 12.58C389.655 12.0333 389.795 11.4133 389.795 10.72C389.795 10.04 389.655 9.43333 389.375 8.9C389.108 8.36667 388.735 7.94667 388.255 7.64C387.775 7.33333 387.222 7.18 386.595 7.18C385.982 7.18 385.435 7.33333 384.955 7.64C384.488 7.94667 384.115 8.36667 383.835 8.9C383.568 9.43333 383.435 10.04 383.435 10.72C383.435 11.4133 383.568 12.0333 383.835 12.58C384.115 13.1133 384.488 13.5333 384.955 13.84C385.435 14.1467 385.982 14.3 386.595 14.3ZM401.111 16V1.2H403.171V16H401.111ZM413.732 16V2.82H415.792V16H413.732ZM411.552 7.5V5.5H418.232V7.5H411.552ZM426.508 16V1.2H428.568V7.66L428.208 7.9C428.341 7.43333 428.601 7.00667 428.988 6.62C429.375 6.22 429.835 5.9 430.368 5.66C430.901 5.40667 431.448 5.28 432.008 5.28C432.808 5.28 433.475 5.44 434.008 5.76C434.541 6.06667 434.941 6.54 435.208 7.18C435.475 7.82 435.608 8.62667 435.608 9.6V16H433.548V9.74C433.548 9.14 433.468 8.64667 433.308 8.26C433.148 7.86 432.901 7.57333 432.568 7.4C432.235 7.21333 431.821 7.13333 431.328 7.16C430.928 7.16 430.561 7.22667 430.228 7.36C429.895 7.48 429.601 7.65333 429.348 7.88C429.108 8.10667 428.915 8.37333 428.768 8.68C428.635 8.97333 428.568 9.29333 428.568 9.64V16H427.548C427.375 16 427.201 16 427.028 16C426.855 16 426.681 16 426.508 16ZM449.262 16.2C448.289 16.2 447.416 15.96 446.642 15.48C445.882 15 445.276 14.3467 444.822 13.52C444.382 12.6933 444.162 11.7667 444.162 10.74C444.162 9.71333 444.382 8.78667 444.822 7.96C445.276 7.13333 445.882 6.48 446.642 6C447.416 5.52 448.289 5.28 449.262 5.28C450.196 5.28 451.042 5.47333 451.802 5.86C452.576 6.23333 453.162 6.74667 453.562 7.4L452.422 8.8C452.209 8.49333 451.936 8.21333 451.602 7.96C451.269 7.70667 450.916 7.50667 450.542 7.36C450.169 7.21333 449.809 7.14 449.462 7.14C448.822 7.14 448.249 7.3 447.742 7.62C447.249 7.92667 446.856 8.35333 446.562 8.9C446.269 9.44667 446.122 10.06 446.122 10.74C446.122 11.42 446.276 12.0333 446.582 12.58C446.889 13.1133 447.296 13.54 447.802 13.86C448.309 14.18 448.869 14.34 449.482 14.34C449.842 14.34 450.189 14.28 450.522 14.16C450.869 14.04 451.202 13.86 451.522 13.62C451.842 13.38 452.142 13.0867 452.422 12.74L453.562 14.14C453.136 14.74 452.522 15.2333 451.722 15.62C450.936 16.0067 450.116 16.2 449.262 16.2ZM465.946 16.2C465.079 16.2 464.286 15.96 463.566 15.48C462.859 15 462.292 14.3467 461.866 13.52C461.439 12.6933 461.226 11.76 461.226 10.72C461.226 9.66667 461.439 8.73333 461.866 7.92C462.306 7.09333 462.892 6.44667 463.626 5.98C464.372 5.51333 465.206 5.28 466.126 5.28C466.672 5.28 467.172 5.36 467.626 5.52C468.079 5.68 468.472 5.90667 468.806 6.2C469.152 6.48 469.432 6.80667 469.646 7.18C469.872 7.55333 470.012 7.95333 470.066 8.38L469.606 8.22V5.5H471.686V16H469.606V13.5L470.086 13.36C470.006 13.72 469.839 14.0733 469.586 14.42C469.346 14.7533 469.032 15.0533 468.646 15.32C468.272 15.5867 467.852 15.8 467.386 15.96C466.932 16.12 466.452 16.2 465.946 16.2ZM466.486 14.3C467.112 14.3 467.666 14.1467 468.146 13.84C468.626 13.5333 468.999 13.1133 469.266 12.58C469.546 12.0333 469.686 11.4133 469.686 10.72C469.686 10.04 469.546 9.43333 469.266 8.9C468.999 8.36667 468.626 7.94667 468.146 7.64C467.666 7.33333 467.112 7.18 466.486 7.18C465.872 7.18 465.326 7.33333 464.846 7.64C464.379 7.94667 464.006 8.36667 463.726 8.9C463.459 9.43333 463.326 10.04 463.326 10.72C463.326 11.4133 463.459 12.0333 463.726 12.58C464.006 13.1133 464.379 13.5333 464.846 13.84C465.326 14.1467 465.872 14.3 466.486 14.3ZM480.962 16V5.5H483.042V8.8L482.842 8C482.989 7.49333 483.235 7.03333 483.582 6.62C483.942 6.20667 484.349 5.88 484.802 5.64C485.269 5.4 485.749 5.28 486.242 5.28C486.469 5.28 486.682 5.3 486.882 5.34C487.095 5.38 487.262 5.42667 487.382 5.48L486.842 7.72C486.682 7.65333 486.502 7.6 486.302 7.56C486.115 7.50667 485.929 7.48 485.742 7.48C485.382 7.48 485.035 7.55333 484.702 7.7C484.382 7.83333 484.095 8.02667 483.842 8.28C483.602 8.52 483.409 8.80667 483.262 9.14C483.115 9.46 483.042 9.81333 483.042 10.2V16H480.962ZM499.879 16.2C498.799 16.2 497.839 15.9733 496.999 15.52C496.172 15.0533 495.519 14.42 495.039 13.62C494.572 12.82 494.339 11.9 494.339 10.86C494.339 10.0333 494.472 9.28 494.739 8.6C495.006 7.92 495.372 7.33333 495.839 6.84C496.319 6.33333 496.886 5.94667 497.539 5.68C498.206 5.4 498.926 5.26 499.699 5.26C500.379 5.26 501.012 5.39333 501.599 5.66C502.186 5.91333 502.692 6.26667 503.119 6.72C503.559 7.17333 503.892 7.71333 504.119 8.34C504.359 8.95333 504.472 9.62667 504.459 10.36L504.439 11.24H495.859L495.399 9.6H502.659L502.359 9.94V9.46C502.319 9.02 502.172 8.62667 501.919 8.28C501.666 7.93333 501.346 7.66 500.959 7.46C500.572 7.26 500.152 7.16 499.699 7.16C498.979 7.16 498.372 7.3 497.879 7.58C497.386 7.84667 497.012 8.24667 496.759 8.78C496.506 9.3 496.379 9.94667 496.379 10.72C496.379 11.4533 496.532 12.0933 496.839 12.64C497.146 13.1733 497.579 13.5867 498.139 13.88C498.699 14.1733 499.346 14.32 500.079 14.32C500.599 14.32 501.079 14.2333 501.519 14.06C501.972 13.8867 502.459 13.5733 502.979 13.12L504.019 14.58C503.699 14.9 503.306 15.18 502.839 15.42C502.386 15.66 501.899 15.8533 501.379 16C500.872 16.1333 500.372 16.2 499.879 16.2ZM528.603 16.2C527.723 16.2 526.93 16.0467 526.223 15.74C525.517 15.4333 524.93 14.98 524.463 14.38L525.863 13.18C526.263 13.6467 526.697 13.9867 527.163 14.2C527.643 14.4 528.183 14.5 528.783 14.5C529.023 14.5 529.243 14.4733 529.443 14.42C529.657 14.3533 529.837 14.26 529.983 14.14C530.143 14.02 530.263 13.88 530.343 13.72C530.423 13.5467 530.463 13.36 530.463 13.16C530.463 12.8133 530.337 12.5333 530.083 12.32C529.95 12.2267 529.737 12.1267 529.443 12.02C529.163 11.9 528.797 11.78 528.343 11.66C527.57 11.46 526.937 11.2333 526.443 10.98C525.95 10.7267 525.57 10.44 525.303 10.12C525.103 9.86667 524.957 9.59333 524.863 9.3C524.77 8.99333 524.723 8.66 524.723 8.3C524.723 7.86 524.817 7.46 525.003 7.1C525.203 6.72667 525.47 6.40667 525.803 6.14C526.15 5.86 526.55 5.64667 527.003 5.5C527.47 5.35333 527.963 5.28 528.483 5.28C528.977 5.28 529.463 5.34667 529.943 5.48C530.437 5.61333 530.89 5.80667 531.303 6.06C531.717 6.31333 532.063 6.61333 532.343 6.96L531.163 8.26C530.91 8.00667 530.63 7.78667 530.323 7.6C530.03 7.4 529.73 7.24667 529.423 7.14C529.117 7.03333 528.837 6.98 528.583 6.98C528.303 6.98 528.05 7.00667 527.823 7.06C527.597 7.11333 527.403 7.19333 527.243 7.3C527.097 7.40667 526.983 7.54 526.903 7.7C526.823 7.86 526.783 8.04 526.783 8.24C526.797 8.41333 526.837 8.58 526.903 8.74C526.983 8.88667 527.09 9.01333 527.223 9.12C527.37 9.22667 527.59 9.34 527.883 9.46C528.177 9.58 528.55 9.69333 529.003 9.8C529.67 9.97333 530.217 10.1667 530.643 10.38C531.083 10.58 531.43 10.8133 531.683 11.08C531.95 11.3333 532.137 11.6267 532.243 11.96C532.35 12.2933 532.403 12.6667 532.403 13.08C532.403 13.68 532.23 14.22 531.883 14.7C531.55 15.1667 531.097 15.5333 530.523 15.8C529.95 16.0667 529.31 16.2 528.603 16.2ZM545.794 16.2C544.767 16.2 543.847 15.9667 543.034 15.5C542.234 15.02 541.6 14.3733 541.134 13.56C540.667 12.7333 540.434 11.7933 540.434 10.74C540.434 9.68667 540.667 8.75333 541.134 7.94C541.6 7.11333 542.234 6.46667 543.034 6C543.847 5.52 544.767 5.28 545.794 5.28C546.807 5.28 547.714 5.52 548.514 6C549.327 6.46667 549.967 7.11333 550.434 7.94C550.9 8.75333 551.134 9.68667 551.134 10.74C551.134 11.7933 550.9 12.7333 550.434 13.56C549.967 14.3733 549.327 15.02 548.514 15.5C547.714 15.9667 546.807 16.2 545.794 16.2ZM545.794 14.32C546.42 14.32 546.98 14.1667 547.474 13.86C547.967 13.54 548.354 13.1133 548.634 12.58C548.914 12.0333 549.047 11.42 549.034 10.74C549.047 10.0467 548.914 9.43333 548.634 8.9C548.354 8.35333 547.967 7.92667 547.474 7.62C546.98 7.31333 546.42 7.16 545.794 7.16C545.167 7.16 544.6 7.32 544.094 7.64C543.6 7.94667 543.214 8.37333 542.934 8.92C542.654 9.45333 542.52 10.06 542.534 10.74C542.52 11.42 542.654 12.0333 542.934 12.58C543.214 13.1133 543.6 13.54 544.094 13.86C544.6 14.1667 545.167 14.32 545.794 14.32ZM559.818 16V1.2H561.878V16H559.818ZM574.78 16.2C574.033 16.2 573.38 16.0267 572.82 15.68C572.273 15.3333 571.847 14.8467 571.54 14.22C571.247 13.5933 571.1 12.8467 571.1 11.98V5.5H573.16V11.42C573.16 12.0333 573.253 12.5667 573.44 13.02C573.64 13.46 573.92 13.8 574.28 14.04C574.653 14.28 575.1 14.4 575.62 14.4C576.007 14.4 576.36 14.34 576.68 14.22C577 14.0867 577.273 13.9067 577.5 13.68C577.74 13.4533 577.927 13.18 578.06 12.86C578.193 12.54 578.26 12.1933 578.26 11.82V5.5H580.32V16H578.26V13.8L578.62 13.56C578.46 14.0533 578.187 14.5 577.8 14.9C577.427 15.3 576.98 15.62 576.46 15.86C575.94 16.0867 575.38 16.2 574.78 16.2ZM590.91 16V2.82H592.97V16H590.91ZM588.73 7.5V5.5H595.41V7.5H588.73ZM604.025 16V5.5H606.085V16H604.025ZM605.025 3.18C604.585 3.18 604.245 3.06667 604.005 2.84C603.765 2.61333 603.645 2.29333 603.645 1.88C603.645 1.49333 603.765 1.18 604.005 0.94C604.259 0.699999 604.599 0.579999 605.025 0.579999C605.465 0.579999 605.805 0.693333 606.045 0.92C606.285 1.14667 606.405 1.46667 606.405 1.88C606.405 2.26667 606.279 2.58 606.025 2.82C605.785 3.06 605.452 3.18 605.025 3.18ZM620.372 16.2C619.345 16.2 618.425 15.9667 617.612 15.5C616.812 15.02 616.178 14.3733 615.712 13.56C615.245 12.7333 615.012 11.7933 615.012 10.74C615.012 9.68667 615.245 8.75333 615.712 7.94C616.178 7.11333 616.812 6.46667 617.612 6C618.425 5.52 619.345 5.28 620.372 5.28C621.385 5.28 622.292 5.52 623.092 6C623.905 6.46667 624.545 7.11333 625.012 7.94C625.478 8.75333 625.712 9.68667 625.712 10.74C625.712 11.7933 625.478 12.7333 625.012 13.56C624.545 14.3733 623.905 15.02 623.092 15.5C622.292 15.9667 621.385 16.2 620.372 16.2ZM620.372 14.32C620.998 14.32 621.558 14.1667 622.052 13.86C622.545 13.54 622.932 13.1133 623.212 12.58C623.492 12.0333 623.625 11.42 623.612 10.74C623.625 10.0467 623.492 9.43333 623.212 8.9C622.932 8.35333 622.545 7.92667 622.052 7.62C621.558 7.31333 620.998 7.16 620.372 7.16C619.745 7.16 619.178 7.32 618.672 7.64C618.178 7.94667 617.792 8.37333 617.512 8.92C617.232 9.45333 617.098 10.06 617.112 10.74C617.098 11.42 617.232 12.0333 617.512 12.58C617.792 13.1133 618.178 13.54 618.672 13.86C619.178 14.1667 619.745 14.32 620.372 14.32ZM634.356 16V5.5H636.416V7.66L636.056 7.9C636.19 7.43333 636.45 7.00667 636.836 6.62C637.223 6.22 637.683 5.9 638.216 5.66C638.75 5.40667 639.296 5.28 639.856 5.28C640.656 5.28 641.323 5.44 641.856 5.76C642.39 6.06667 642.79 6.54 643.056 7.18C643.323 7.82 643.456 8.62667 643.456 9.6V16H641.396V9.74C641.396 9.14 641.316 8.64667 641.156 8.26C640.996 7.86 640.75 7.57333 640.416 7.4C640.083 7.21333 639.67 7.13333 639.176 7.16C638.776 7.16 638.41 7.22667 638.076 7.36C637.743 7.48 637.45 7.65333 637.196 7.88C636.956 8.10667 636.763 8.37333 636.616 8.68C636.483 8.97333 636.416 9.29333 636.416 9.64V16H635.396C635.223 16 635.05 16 634.876 16C634.703 16 634.53 16 634.356 16ZM656.151 16.2C655.271 16.2 654.478 16.0467 653.771 15.74C653.064 15.4333 652.478 14.98 652.011 14.38L653.411 13.18C653.811 13.6467 654.244 13.9867 654.711 14.2C655.191 14.4 655.731 14.5 656.331 14.5C656.571 14.5 656.791 14.4733 656.991 14.42C657.204 14.3533 657.384 14.26 657.531 14.14C657.691 14.02 657.811 13.88 657.891 13.72C657.971 13.5467 658.011 13.36 658.011 13.16C658.011 12.8133 657.884 12.5333 657.631 12.32C657.498 12.2267 657.284 12.1267 656.991 12.02C656.711 11.9 656.344 11.78 655.891 11.66C655.118 11.46 654.484 11.2333 653.991 10.98C653.498 10.7267 653.118 10.44 652.851 10.12C652.651 9.86667 652.504 9.59333 652.411 9.3C652.318 8.99333 652.271 8.66 652.271 8.3C652.271 7.86 652.364 7.46 652.551 7.1C652.751 6.72667 653.018 6.40667 653.351 6.14C653.698 5.86 654.098 5.64667 654.551 5.5C655.018 5.35333 655.511 5.28 656.031 5.28C656.524 5.28 657.011 5.34667 657.491 5.48C657.984 5.61333 658.438 5.80667 658.851 6.06C659.264 6.31333 659.611 6.61333 659.891 6.96L658.711 8.26C658.458 8.00667 658.178 7.78667 657.871 7.6C657.578 7.4 657.278 7.24667 656.971 7.14C656.664 7.03333 656.384 6.98 656.131 6.98C655.851 6.98 655.598 7.00667 655.371 7.06C655.144 7.11333 654.951 7.19333 654.791 7.3C654.644 7.40667 654.531 7.54 654.451 7.7C654.371 7.86 654.331 8.04 654.331 8.24C654.344 8.41333 654.384 8.58 654.451 8.74C654.531 8.88667 654.638 9.01333 654.771 9.12C654.918 9.22667 655.138 9.34 655.431 9.46C655.724 9.58 656.098 9.69333 656.551 9.8C657.218 9.97333 657.764 10.1667 658.191 10.38C658.631 10.58 658.978 10.8133 659.231 11.08C659.498 11.3333 659.684 11.6267 659.791 11.96C659.898 12.2933 659.951 12.6667 659.951 13.08C659.951 13.68 659.778 14.22 659.431 14.7C659.098 15.1667 658.644 15.5333 658.071 15.8C657.498 16.0667 656.858 16.2 656.151 16.2ZM668.941 19.58L668.181 18.66C668.648 18.3933 669.028 18.0867 669.321 17.74C669.615 17.3933 669.761 17.0933 669.761 16.84C669.761 16.7067 669.728 16.5733 669.661 16.44C669.595 16.32 669.455 16.1467 669.241 15.92C668.975 15.6667 668.801 15.4533 668.721 15.28C668.641 15.1067 668.601 14.92 668.601 14.72C668.601 14.4 668.715 14.1467 668.941 13.96C669.168 13.76 669.461 13.66 669.821 13.66C670.155 13.66 670.455 13.76 670.721 13.96C671.001 14.1467 671.215 14.4133 671.361 14.76C671.521 15.0933 671.601 15.48 671.601 15.92C671.601 16.32 671.535 16.7067 671.401 17.08C671.268 17.4533 671.081 17.8 670.841 18.12C670.601 18.44 670.321 18.7267 670.001 18.98C669.681 19.2333 669.328 19.4333 668.941 19.58ZM0.78 38V27.5H2.84V38H0.78ZM1.78 25.18C1.34 25.18 1 25.0667 0.76 24.84C0.52 24.6133 0.4 24.2933 0.4 23.88C0.4 23.4933 0.52 23.18 0.76 22.94C1.01333 22.7 1.35333 22.58 1.78 22.58C2.22 22.58 2.56 22.6933 2.8 22.92C3.04 23.1467 3.16 23.4667 3.16 23.88C3.16 24.2667 3.03333 24.58 2.78 24.82C2.54 25.06 2.20667 25.18 1.78 25.18ZM12.4064 38V27.5H14.4664V29.66L14.1064 29.9C14.2397 29.4333 14.4997 29.0067 14.8864 28.62C15.2731 28.22 15.7331 27.9 16.2664 27.66C16.7997 27.4067 17.3464 27.28 17.9064 27.28C18.7064 27.28 19.3731 27.44 19.9064 27.76C20.4397 28.0667 20.8397 28.54 21.1064 29.18C21.3731 29.82 21.5064 30.6267 21.5064 31.6V38H19.4464V31.74C19.4464 31.14 19.3664 30.6467 19.2064 30.26C19.0464 29.86 18.7997 29.5733 18.4664 29.4C18.1331 29.2133 17.7197 29.1333 17.2264 29.16C16.8264 29.16 16.4597 29.2267 16.1264 29.36C15.7931 29.48 15.4997 29.6533 15.2464 29.88C15.0064 30.1067 14.8131 30.3733 14.6664 30.68C14.5331 30.9733 14.4664 31.2933 14.4664 31.64V38H13.4464C13.2731 38 13.0997 38 12.9264 38C12.7531 38 12.5797 38 12.4064 38ZM35.1609 38.2C34.1876 38.2 33.3143 37.96 32.5409 37.48C31.7809 37 31.1743 36.3467 30.7209 35.52C30.2809 34.6933 30.0609 33.7667 30.0609 32.74C30.0609 31.7133 30.2809 30.7867 30.7209 29.96C31.1743 29.1333 31.7809 28.48 32.5409 28C33.3143 27.52 34.1876 27.28 35.1609 27.28C36.0943 27.28 36.9409 27.4733 37.7009 27.86C38.4743 28.2333 39.0609 28.7467 39.4609 29.4L38.3209 30.8C38.1076 30.4933 37.8343 30.2133 37.5009 29.96C37.1676 29.7067 36.8143 29.5067 36.4409 29.36C36.0676 29.2133 35.7076 29.14 35.3609 29.14C34.7209 29.14 34.1476 29.3 33.6409 29.62C33.1476 29.9267 32.7543 30.3533 32.4609 30.9C32.1676 31.4467 32.0209 32.06 32.0209 32.74C32.0209 33.42 32.1743 34.0333 32.4809 34.58C32.7876 35.1133 33.1943 35.54 33.7009 35.86C34.2076 36.18 34.7676 36.34 35.3809 36.34C35.7409 36.34 36.0876 36.28 36.4209 36.16C36.7676 36.04 37.1009 35.86 37.4209 35.62C37.7409 35.38 38.0409 35.0867 38.3209 34.74L39.4609 36.14C39.0343 36.74 38.4209 37.2333 37.6209 37.62C36.8343 38.0067 36.0143 38.2 35.1609 38.2ZM47.8441 38V23.2H49.9041V38H47.8441ZM62.8059 38.2C62.0593 38.2 61.4059 38.0267 60.8459 37.68C60.2993 37.3333 59.8726 36.8467 59.5659 36.22C59.2726 35.5933 59.1259 34.8467 59.1259 33.98V27.5H61.1859V33.42C61.1859 34.0333 61.2793 34.5667 61.4659 35.02C61.6659 35.46 61.9459 35.8 62.3059 36.04C62.6793 36.28 63.1259 36.4 63.6459 36.4C64.0326 36.4 64.3859 36.34 64.7059 36.22C65.0259 36.0867 65.2993 35.9067 65.5259 35.68C65.7659 35.4533 65.9526 35.18 66.0859 34.86C66.2193 34.54 66.2859 34.1933 66.2859 33.82V27.5H68.3459V38H66.2859V35.8L66.6459 35.56C66.4859 36.0533 66.2126 36.5 65.8259 36.9C65.4526 37.3 65.0059 37.62 64.4859 37.86C63.9659 38.0867 63.4059 38.2 62.8059 38.2ZM82.0153 38.2C81.0553 38.2 80.1953 37.9667 79.4353 37.5C78.6886 37.02 78.0953 36.3733 77.6553 35.56C77.2153 34.7333 76.9953 33.7933 76.9953 32.74C76.9953 31.6867 77.2086 30.7533 77.6353 29.94C78.0753 29.1133 78.6686 28.4667 79.4153 28C80.162 27.52 81.0086 27.28 81.9553 27.28C82.4753 27.28 82.9753 27.3667 83.4553 27.54C83.9486 27.7 84.3886 27.9267 84.7753 28.22C85.162 28.5 85.462 28.8133 85.6753 29.16C85.902 29.4933 86.0153 29.8333 86.0153 30.18L85.4153 30.22V23.2H87.4753V38H85.4153V35.5H85.8153C85.8153 35.82 85.7086 36.14 85.4953 36.46C85.282 36.7667 84.9953 37.0533 84.6353 37.32C84.2886 37.5867 83.882 37.8 83.4153 37.96C82.962 38.12 82.4953 38.2 82.0153 38.2ZM82.2953 36.42C82.922 36.42 83.4753 36.26 83.9553 35.94C84.4353 35.62 84.8086 35.1867 85.0753 34.64C85.3553 34.08 85.4953 33.4467 85.4953 32.74C85.4953 32.0333 85.3553 31.4067 85.0753 30.86C84.8086 30.3 84.4353 29.86 83.9553 29.54C83.4753 29.22 82.922 29.06 82.2953 29.06C81.6686 29.06 81.1153 29.22 80.6353 29.54C80.1553 29.86 79.7753 30.3 79.4953 30.86C79.2286 31.4067 79.0953 32.0333 79.0953 32.74C79.0953 33.4467 79.2286 34.08 79.4953 34.64C79.7753 35.1867 80.1553 35.62 80.6353 35.94C81.1153 36.26 81.6686 36.42 82.2953 36.42ZM97.0511 38V27.5H99.1111V38H97.0511ZM98.0511 25.18C97.6111 25.18 97.2711 25.0667 97.0311 24.84C96.7911 24.6133 96.6711 24.2933 96.6711 23.88C96.6711 23.4933 96.7911 23.18 97.0311 22.94C97.2844 22.7 97.6244 22.58 98.0511 22.58C98.4911 22.58 98.8311 22.6933 99.0711 22.92C99.3111 23.1467 99.4311 23.4667 99.4311 23.88C99.4311 24.2667 99.3044 24.58 99.0511 24.82C98.8111 25.06 98.4778 25.18 98.0511 25.18ZM108.678 38V27.5H110.738V29.66L110.378 29.9C110.511 29.4333 110.771 29.0067 111.158 28.62C111.544 28.22 112.004 27.9 112.538 27.66C113.071 27.4067 113.618 27.28 114.178 27.28C114.978 27.28 115.644 27.44 116.178 27.76C116.711 28.0667 117.111 28.54 117.378 29.18C117.644 29.82 117.778 30.6267 117.778 31.6V38H115.718V31.74C115.718 31.14 115.638 30.6467 115.478 30.26C115.318 29.86 115.071 29.5733 114.738 29.4C114.404 29.2133 113.991 29.1333 113.498 29.16C113.098 29.16 112.731 29.2267 112.398 29.36C112.064 29.48 111.771 29.6533 111.518 29.88C111.278 30.1067 111.084 30.3733 110.938 30.68C110.804 30.9733 110.738 31.2933 110.738 31.64V38H109.718C109.544 38 109.371 38 109.198 38C109.024 38 108.851 38 108.678 38ZM131.672 42.6C130.925 42.6 130.179 42.48 129.432 42.24C128.699 42.0133 128.105 41.7133 127.652 41.34L128.412 39.74C128.679 39.94 128.992 40.1133 129.352 40.26C129.712 40.42 130.092 40.54 130.492 40.62C130.892 40.7133 131.285 40.76 131.672 40.76C132.405 40.76 133.019 40.64 133.512 40.4C134.005 40.16 134.379 39.8067 134.632 39.34C134.885 38.8733 135.012 38.2933 135.012 37.6V35.58L135.232 35.72C135.165 36.1333 134.945 36.5333 134.572 36.92C134.212 37.2933 133.759 37.6 133.212 37.84C132.665 38.08 132.105 38.2 131.532 38.2C130.532 38.2 129.639 37.9667 128.852 37.5C128.079 37.02 127.465 36.3733 127.012 35.56C126.559 34.7333 126.332 33.7933 126.332 32.74C126.332 31.6867 126.552 30.7533 126.992 29.94C127.445 29.1133 128.059 28.4667 128.832 28C129.619 27.52 130.499 27.28 131.472 27.28C131.872 27.28 132.259 27.3333 132.632 27.44C133.005 27.5333 133.352 27.6733 133.672 27.86C133.992 28.0333 134.279 28.2267 134.532 28.44C134.785 28.6533 134.992 28.88 135.152 29.12C135.312 29.36 135.412 29.5867 135.452 29.8L135.012 29.96V27.5H137.072V37.36C137.072 38.2 136.945 38.94 136.692 39.58C136.452 40.2333 136.099 40.78 135.632 41.22C135.165 41.6733 134.599 42.0133 133.932 42.24C133.265 42.48 132.512 42.6 131.672 42.6ZM131.752 36.3C132.405 36.3 132.985 36.1467 133.492 35.84C133.999 35.5333 134.392 35.1133 134.672 34.58C134.952 34.0467 135.092 33.4333 135.092 32.74C135.092 32.0467 134.945 31.4333 134.652 30.9C134.372 30.3533 133.979 29.9267 133.472 29.62C132.979 29.3133 132.405 29.16 131.752 29.16C131.112 29.16 130.539 29.32 130.032 29.64C129.539 29.9467 129.145 30.3733 128.852 30.92C128.572 31.4533 128.432 32.06 128.432 32.74C128.432 33.42 128.572 34.0333 128.852 34.58C129.145 35.1133 129.539 35.5333 130.032 35.84C130.539 36.1467 131.112 36.3 131.752 36.3ZM160.946 38L157.366 27.5L159.446 27.48L162.006 35.34L161.546 35.3L164.326 29.16H165.566L168.366 35.32L167.826 35.36L170.406 27.5H172.486L168.946 38H167.526L164.606 31.32L165.066 31.38L162.346 38H160.946ZM185.369 38.2C184.289 38.2 183.329 37.9733 182.489 37.52C181.662 37.0533 181.009 36.42 180.529 35.62C180.062 34.82 179.829 33.9 179.829 32.86C179.829 32.0333 179.962 31.28 180.229 30.6C180.496 29.92 180.862 29.3333 181.329 28.84C181.809 28.3333 182.376 27.9467 183.029 27.68C183.696 27.4 184.416 27.26 185.189 27.26C185.869 27.26 186.502 27.3933 187.089 27.66C187.676 27.9133 188.182 28.2667 188.609 28.72C189.049 29.1733 189.382 29.7133 189.609 30.34C189.849 30.9533 189.962 31.6267 189.949 32.36L189.929 33.24H181.349L180.889 31.6H188.149L187.849 31.94V31.46C187.809 31.02 187.662 30.6267 187.409 30.28C187.156 29.9333 186.836 29.66 186.449 29.46C186.062 29.26 185.642 29.16 185.189 29.16C184.469 29.16 183.862 29.3 183.369 29.58C182.876 29.8467 182.502 30.2467 182.249 30.78C181.996 31.3 181.869 31.9467 181.869 32.72C181.869 33.4533 182.022 34.0933 182.329 34.64C182.636 35.1733 183.069 35.5867 183.629 35.88C184.189 36.1733 184.836 36.32 185.569 36.32C186.089 36.32 186.569 36.2333 187.009 36.06C187.462 35.8867 187.949 35.5733 188.469 35.12L189.509 36.58C189.189 36.9 188.796 37.18 188.329 37.42C187.876 37.66 187.389 37.8533 186.869 38C186.362 38.1333 185.862 38.2 185.369 38.2ZM202.628 38.2C201.761 38.2 200.968 37.96 200.248 37.48C199.541 37 198.974 36.3467 198.548 35.52C198.121 34.6933 197.908 33.76 197.908 32.72C197.908 31.6667 198.121 30.7333 198.548 29.92C198.988 29.0933 199.574 28.4467 200.308 27.98C201.054 27.5133 201.888 27.28 202.808 27.28C203.354 27.28 203.854 27.36 204.308 27.52C204.761 27.68 205.154 27.9067 205.488 28.2C205.834 28.48 206.114 28.8067 206.328 29.18C206.554 29.5533 206.694 29.9533 206.748 30.38L206.288 30.22V27.5H208.368V38H206.288V35.5L206.768 35.36C206.688 35.72 206.521 36.0733 206.268 36.42C206.028 36.7533 205.714 37.0533 205.328 37.32C204.954 37.5867 204.534 37.8 204.068 37.96C203.614 38.12 203.134 38.2 202.628 38.2ZM203.168 36.3C203.794 36.3 204.348 36.1467 204.828 35.84C205.308 35.5333 205.681 35.1133 205.948 34.58C206.228 34.0333 206.368 33.4133 206.368 32.72C206.368 32.04 206.228 31.4333 205.948 30.9C205.681 30.3667 205.308 29.9467 204.828 29.64C204.348 29.3333 203.794 29.18 203.168 29.18C202.554 29.18 202.008 29.3333 201.528 29.64C201.061 29.9467 200.688 30.3667 200.408 30.9C200.141 31.4333 200.008 32.04 200.008 32.72C200.008 33.4133 200.141 34.0333 200.408 34.58C200.688 35.1133 201.061 35.5333 201.528 35.84C202.008 36.1467 202.554 36.3 203.168 36.3ZM217.644 38V27.5H219.724V30.8L219.524 30C219.671 29.4933 219.917 29.0333 220.264 28.62C220.624 28.2067 221.031 27.88 221.484 27.64C221.951 27.4 222.431 27.28 222.924 27.28C223.151 27.28 223.364 27.3 223.564 27.34C223.777 27.38 223.944 27.4267 224.064 27.48L223.524 29.72C223.364 29.6533 223.184 29.6 222.984 29.56C222.797 29.5067 222.611 29.48 222.424 29.48C222.064 29.48 221.717 29.5533 221.384 29.7C221.064 29.8333 220.777 30.0267 220.524 30.28C220.284 30.52 220.091 30.8067 219.944 31.14C219.797 31.46 219.724 31.8133 219.724 32.2V38H217.644ZM235.701 38.2C234.834 38.2 234.041 37.96 233.321 37.48C232.614 37 232.048 36.3467 231.621 35.52C231.194 34.6933 230.981 33.76 230.981 32.72C230.981 31.6667 231.194 30.7333 231.621 29.92C232.061 29.0933 232.648 28.4467 233.381 27.98C234.128 27.5133 234.961 27.28 235.881 27.28C236.428 27.28 236.928 27.36 237.381 27.52C237.834 27.68 238.228 27.9067 238.561 28.2C238.908 28.48 239.188 28.8067 239.401 29.18C239.628 29.5533 239.768 29.9533 239.821 30.38L239.361 30.22V27.5H241.441V38H239.361V35.5L239.841 35.36C239.761 35.72 239.594 36.0733 239.341 36.42C239.101 36.7533 238.788 37.0533 238.401 37.32C238.028 37.5867 237.608 37.8 237.141 37.96C236.688 38.12 236.208 38.2 235.701 38.2ZM236.241 36.3C236.868 36.3 237.421 36.1467 237.901 35.84C238.381 35.5333 238.754 35.1133 239.021 34.58C239.301 34.0333 239.441 33.4133 239.441 32.72C239.441 32.04 239.301 31.4333 239.021 30.9C238.754 30.3667 238.381 29.9467 237.901 29.64C237.421 29.3333 236.868 29.18 236.241 29.18C235.628 29.18 235.081 29.3333 234.601 29.64C234.134 29.9467 233.761 30.3667 233.481 30.9C233.214 31.4333 233.081 32.04 233.081 32.72C233.081 33.4133 233.214 34.0333 233.481 34.58C233.761 35.1133 234.134 35.5333 234.601 35.84C235.081 36.1467 235.628 36.3 236.241 36.3ZM256.237 38.2C255.784 38.2 255.331 38.1267 254.877 37.98C254.437 37.8333 254.031 37.64 253.657 37.4C253.297 37.1467 252.991 36.8733 252.737 36.58C252.497 36.2733 252.337 35.9667 252.257 35.66L252.777 35.38V37.94H250.717V23.2H252.777V29.9L252.457 29.72C252.524 29.4133 252.671 29.12 252.897 28.84C253.124 28.5467 253.411 28.2867 253.757 28.06C254.117 27.82 254.504 27.6333 254.917 27.5C255.331 27.3533 255.751 27.28 256.177 27.28C257.124 27.28 257.964 27.5133 258.697 27.98C259.431 28.4467 260.011 29.0933 260.437 29.92C260.864 30.7333 261.077 31.6667 261.077 32.72C261.077 33.7733 260.864 34.7133 260.437 35.54C260.024 36.3667 259.451 37.02 258.717 37.5C257.984 37.9667 257.157 38.2 256.237 38.2ZM255.897 36.32C256.511 36.32 257.057 36.1667 257.537 35.86C258.017 35.54 258.397 35.1133 258.677 34.58C258.957 34.0333 259.097 33.4133 259.097 32.72C259.097 32.04 258.957 31.4333 258.677 30.9C258.411 30.3533 258.037 29.9267 257.557 29.62C257.077 29.3133 256.524 29.16 255.897 29.16C255.271 29.16 254.717 29.3133 254.237 29.62C253.757 29.9267 253.377 30.3533 253.097 30.9C252.817 31.4333 252.677 32.04 252.677 32.72C252.677 33.4133 252.817 34.0333 253.097 34.58C253.377 35.1133 253.757 35.54 254.237 35.86C254.717 36.1667 255.271 36.32 255.897 36.32ZM269.755 38V23.2H271.815V38H269.755ZM285.839 38.2C284.759 38.2 283.799 37.9733 282.959 37.52C282.133 37.0533 281.479 36.42 280.999 35.62C280.533 34.82 280.299 33.9 280.299 32.86C280.299 32.0333 280.433 31.28 280.699 30.6C280.966 29.92 281.333 29.3333 281.799 28.84C282.279 28.3333 282.846 27.9467 283.499 27.68C284.166 27.4 284.886 27.26 285.659 27.26C286.339 27.26 286.973 27.3933 287.559 27.66C288.146 27.9133 288.653 28.2667 289.079 28.72C289.519 29.1733 289.853 29.7133 290.079 30.34C290.319 30.9533 290.433 31.6267 290.419 32.36L290.399 33.24H281.819L281.359 31.6H288.619L288.319 31.94V31.46C288.279 31.02 288.133 30.6267 287.879 30.28C287.626 29.9333 287.306 29.66 286.919 29.46C286.533 29.26 286.113 29.16 285.659 29.16C284.939 29.16 284.333 29.3 283.839 29.58C283.346 29.8467 282.973 30.2467 282.719 30.78C282.466 31.3 282.339 31.9467 282.339 32.72C282.339 33.4533 282.493 34.0933 282.799 34.64C283.106 35.1733 283.539 35.5867 284.099 35.88C284.659 36.1733 285.306 36.32 286.039 36.32C286.559 36.32 287.039 36.2333 287.479 36.06C287.933 35.8867 288.419 35.5733 288.939 35.12L289.979 36.58C289.659 36.9 289.266 37.18 288.799 37.42C288.346 37.66 287.859 37.8533 287.339 38C286.833 38.1333 286.333 38.2 285.839 38.2ZM302.558 38.2C301.678 38.2 300.885 38.0467 300.178 37.74C299.471 37.4333 298.885 36.98 298.418 36.38L299.818 35.18C300.218 35.6467 300.651 35.9867 301.118 36.2C301.598 36.4 302.138 36.5 302.738 36.5C302.978 36.5 303.198 36.4733 303.398 36.42C303.611 36.3533 303.791 36.26 303.938 36.14C304.098 36.02 304.218 35.88 304.298 35.72C304.378 35.5467 304.418 35.36 304.418 35.16C304.418 34.8133 304.291 34.5333 304.038 34.32C303.905 34.2267 303.691 34.1267 303.398 34.02C303.118 33.9 302.751 33.78 302.298 33.66C301.525 33.46 300.891 33.2333 300.398 32.98C299.905 32.7267 299.525 32.44 299.258 32.12C299.058 31.8667 298.911 31.5933 298.818 31.3C298.725 30.9933 298.678 30.66 298.678 30.3C298.678 29.86 298.771 29.46 298.958 29.1C299.158 28.7267 299.425 28.4067 299.758 28.14C300.105 27.86 300.505 27.6467 300.958 27.5C301.425 27.3533 301.918 27.28 302.438 27.28C302.931 27.28 303.418 27.3467 303.898 27.48C304.391 27.6133 304.845 27.8067 305.258 28.06C305.671 28.3133 306.018 28.6133 306.298 28.96L305.118 30.26C304.865 30.0067 304.585 29.7867 304.278 29.6C303.985 29.4 303.685 29.2467 303.378 29.14C303.071 29.0333 302.791 28.98 302.538 28.98C302.258 28.98 302.005 29.0067 301.778 29.06C301.551 29.1133 301.358 29.1933 301.198 29.3C301.051 29.4067 300.938 29.54 300.858 29.7C300.778 29.86 300.738 30.04 300.738 30.24C300.751 30.4133 300.791 30.58 300.858 30.74C300.938 30.8867 301.045 31.0133 301.178 31.12C301.325 31.2267 301.545 31.34 301.838 31.46C302.131 31.58 302.505 31.6933 302.958 31.8C303.625 31.9733 304.171 32.1667 304.598 32.38C305.038 32.58 305.385 32.8133 305.638 33.08C305.905 33.3333 306.091 33.6267 306.198 33.96C306.305 34.2933 306.358 34.6667 306.358 35.08C306.358 35.68 306.185 36.22 305.838 36.7C305.505 37.1667 305.051 37.5333 304.478 37.8C303.905 38.0667 303.265 38.2 302.558 38.2ZM331.074 38.2C330.207 38.2 329.414 37.96 328.694 37.48C327.987 37 327.42 36.3467 326.994 35.52C326.567 34.6933 326.354 33.76 326.354 32.72C326.354 31.6667 326.567 30.7333 326.994 29.92C327.434 29.0933 328.02 28.4467 328.754 27.98C329.5 27.5133 330.334 27.28 331.254 27.28C331.8 27.28 332.3 27.36 332.754 27.52C333.207 27.68 333.6 27.9067 333.934 28.2C334.28 28.48 334.56 28.8067 334.774 29.18C335 29.5533 335.14 29.9533 335.194 30.38L334.734 30.22V27.5H336.814V38H334.734V35.5L335.214 35.36C335.134 35.72 334.967 36.0733 334.714 36.42C334.474 36.7533 334.16 37.0533 333.774 37.32C333.4 37.5867 332.98 37.8 332.514 37.96C332.06 38.12 331.58 38.2 331.074 38.2ZM331.614 36.3C332.24 36.3 332.794 36.1467 333.274 35.84C333.754 35.5333 334.127 35.1133 334.394 34.58C334.674 34.0333 334.814 33.4133 334.814 32.72C334.814 32.04 334.674 31.4333 334.394 30.9C334.127 30.3667 333.754 29.9467 333.274 29.64C332.794 29.3333 332.24 29.18 331.614 29.18C331 29.18 330.454 29.3333 329.974 29.64C329.507 29.9467 329.134 30.3667 328.854 30.9C328.587 31.4333 328.454 32.04 328.454 32.72C328.454 33.4133 328.587 34.0333 328.854 34.58C329.134 35.1133 329.507 35.5333 329.974 35.84C330.454 36.1467 331 36.3 331.614 36.3ZM346.09 38V27.5H348.15V29.66L347.79 29.9C347.923 29.4333 348.183 29.0067 348.57 28.62C348.957 28.22 349.417 27.9 349.95 27.66C350.483 27.4067 351.03 27.28 351.59 27.28C352.39 27.28 353.057 27.44 353.59 27.76C354.123 28.0667 354.523 28.54 354.79 29.18C355.057 29.82 355.19 30.6267 355.19 31.6V38H353.13V31.74C353.13 31.14 353.05 30.6467 352.89 30.26C352.73 29.86 352.483 29.5733 352.15 29.4C351.817 29.2133 351.403 29.1333 350.91 29.16C350.51 29.16 350.143 29.2267 349.81 29.36C349.477 29.48 349.183 29.6533 348.93 29.88C348.69 30.1067 348.497 30.3733 348.35 30.68C348.217 30.9733 348.15 31.2933 348.15 31.64V38H347.13C346.957 38 346.783 38 346.61 38C346.437 38 346.263 38 346.09 38ZM368.765 38.2C367.805 38.2 366.945 37.9667 366.185 37.5C365.438 37.02 364.845 36.3733 364.405 35.56C363.965 34.7333 363.745 33.7933 363.745 32.74C363.745 31.6867 363.958 30.7533 364.385 29.94C364.825 29.1133 365.418 28.4667 366.165 28C366.911 27.52 367.758 27.28 368.705 27.28C369.225 27.28 369.725 27.3667 370.205 27.54C370.698 27.7 371.138 27.9267 371.525 28.22C371.911 28.5 372.211 28.8133 372.425 29.16C372.651 29.4933 372.765 29.8333 372.765 30.18L372.165 30.22V23.2H374.225V38H372.165V35.5H372.565C372.565 35.82 372.458 36.14 372.245 36.46C372.031 36.7667 371.745 37.0533 371.385 37.32C371.038 37.5867 370.631 37.8 370.165 37.96C369.711 38.12 369.245 38.2 368.765 38.2ZM369.045 36.42C369.671 36.42 370.225 36.26 370.705 35.94C371.185 35.62 371.558 35.1867 371.825 34.64C372.105 34.08 372.245 33.4467 372.245 32.74C372.245 32.0333 372.105 31.4067 371.825 30.86C371.558 30.3 371.185 29.86 370.705 29.54C370.225 29.22 369.671 29.06 369.045 29.06C368.418 29.06 367.865 29.22 367.385 29.54C366.905 29.86 366.525 30.3 366.245 30.86C365.978 31.4067 365.845 32.0333 365.845 32.74C365.845 33.4467 365.978 34.08 366.245 34.64C366.525 35.1867 366.905 35.62 367.385 35.94C367.865 36.26 368.418 36.42 369.045 36.42ZM399.846 38.2C398.886 38.2 398.026 37.9667 397.266 37.5C396.519 37.02 395.926 36.3733 395.486 35.56C395.046 34.7333 394.826 33.7933 394.826 32.74C394.826 31.6867 395.039 30.7533 395.466 29.94C395.906 29.1133 396.499 28.4667 397.246 28C397.992 27.52 398.839 27.28 399.786 27.28C400.306 27.28 400.806 27.3667 401.286 27.54C401.779 27.7 402.219 27.9267 402.606 28.22C402.992 28.5 403.292 28.8133 403.506 29.16C403.732 29.4933 403.846 29.8333 403.846 30.18L403.246 30.22V23.2H405.306V38H403.246V35.5H403.646C403.646 35.82 403.539 36.14 403.326 36.46C403.112 36.7667 402.826 37.0533 402.466 37.32C402.119 37.5867 401.712 37.8 401.246 37.96C400.792 38.12 400.326 38.2 399.846 38.2ZM400.126 36.42C400.752 36.42 401.306 36.26 401.786 35.94C402.266 35.62 402.639 35.1867 402.906 34.64C403.186 34.08 403.326 33.4467 403.326 32.74C403.326 32.0333 403.186 31.4067 402.906 30.86C402.639 30.3 402.266 29.86 401.786 29.54C401.306 29.22 400.752 29.06 400.126 29.06C399.499 29.06 398.946 29.22 398.466 29.54C397.986 29.86 397.606 30.3 397.326 30.86C397.059 31.4067 396.926 32.0333 396.926 32.74C396.926 33.4467 397.059 34.08 397.326 34.64C397.606 35.1867 397.986 35.62 398.466 35.94C398.946 36.26 399.499 36.42 400.126 36.42ZM414.882 38V27.5H416.942V38H414.882ZM415.882 25.18C415.442 25.18 415.102 25.0667 414.862 24.84C414.622 24.6133 414.502 24.2933 414.502 23.88C414.502 23.4933 414.622 23.18 414.862 22.94C415.115 22.7 415.455 22.58 415.882 22.58C416.322 22.58 416.662 22.6933 416.902 22.92C417.142 23.1467 417.262 23.4667 417.262 23.88C417.262 24.2667 417.135 24.58 416.882 24.82C416.642 25.06 416.308 25.18 415.882 25.18ZM430.548 38.2C429.681 38.2 428.888 37.96 428.168 37.48C427.461 37 426.895 36.3467 426.468 35.52C426.041 34.6933 425.828 33.76 425.828 32.72C425.828 31.6667 426.041 30.7333 426.468 29.92C426.908 29.0933 427.495 28.4467 428.228 27.98C428.975 27.5133 429.808 27.28 430.728 27.28C431.275 27.28 431.775 27.36 432.228 27.52C432.681 27.68 433.075 27.9067 433.408 28.2C433.755 28.48 434.035 28.8067 434.248 29.18C434.475 29.5533 434.615 29.9533 434.668 30.38L434.208 30.22V27.5H436.288V38H434.208V35.5L434.688 35.36C434.608 35.72 434.441 36.0733 434.188 36.42C433.948 36.7533 433.635 37.0533 433.248 37.32C432.875 37.5867 432.455 37.8 431.988 37.96C431.535 38.12 431.055 38.2 430.548 38.2ZM431.088 36.3C431.715 36.3 432.268 36.1467 432.748 35.84C433.228 35.5333 433.601 35.1133 433.868 34.58C434.148 34.0333 434.288 33.4133 434.288 32.72C434.288 32.04 434.148 31.4333 433.868 30.9C433.601 30.3667 433.228 29.9467 432.748 29.64C432.268 29.3333 431.715 29.18 431.088 29.18C430.475 29.18 429.928 29.3333 429.448 29.64C428.981 29.9467 428.608 30.3667 428.328 30.9C428.061 31.4333 427.928 32.04 427.928 32.72C427.928 33.4133 428.061 34.0333 428.328 34.58C428.608 35.1133 428.981 35.5333 429.448 35.84C429.928 36.1467 430.475 36.3 431.088 36.3ZM450.264 42.6C449.518 42.6 448.771 42.48 448.024 42.24C447.291 42.0133 446.698 41.7133 446.244 41.34L447.004 39.74C447.271 39.94 447.584 40.1133 447.944 40.26C448.304 40.42 448.684 40.54 449.084 40.62C449.484 40.7133 449.878 40.76 450.264 40.76C450.998 40.76 451.611 40.64 452.104 40.4C452.598 40.16 452.971 39.8067 453.224 39.34C453.478 38.8733 453.604 38.2933 453.604 37.6V35.58L453.824 35.72C453.758 36.1333 453.538 36.5333 453.164 36.92C452.804 37.2933 452.351 37.6 451.804 37.84C451.258 38.08 450.698 38.2 450.124 38.2C449.124 38.2 448.231 37.9667 447.444 37.5C446.671 37.02 446.058 36.3733 445.604 35.56C445.151 34.7333 444.924 33.7933 444.924 32.74C444.924 31.6867 445.144 30.7533 445.584 29.94C446.038 29.1133 446.651 28.4667 447.424 28C448.211 27.52 449.091 27.28 450.064 27.28C450.464 27.28 450.851 27.3333 451.224 27.44C451.598 27.5333 451.944 27.6733 452.264 27.86C452.584 28.0333 452.871 28.2267 453.124 28.44C453.378 28.6533 453.584 28.88 453.744 29.12C453.904 29.36 454.004 29.5867 454.044 29.8L453.604 29.96V27.5H455.664V37.36C455.664 38.2 455.538 38.94 455.284 39.58C455.044 40.2333 454.691 40.78 454.224 41.22C453.758 41.6733 453.191 42.0133 452.524 42.24C451.858 42.48 451.104 42.6 450.264 42.6ZM450.344 36.3C450.998 36.3 451.578 36.1467 452.084 35.84C452.591 35.5333 452.984 35.1133 453.264 34.58C453.544 34.0467 453.684 33.4333 453.684 32.74C453.684 32.0467 453.538 31.4333 453.244 30.9C452.964 30.3533 452.571 29.9267 452.064 29.62C451.571 29.3133 450.998 29.16 450.344 29.16C449.704 29.16 449.131 29.32 448.624 29.64C448.131 29.9467 447.738 30.3733 447.444 30.92C447.164 31.4533 447.024 32.06 447.024 32.74C447.024 33.42 447.164 34.0333 447.444 34.58C447.738 35.1133 448.131 35.5333 448.624 35.84C449.131 36.1467 449.704 36.3 450.344 36.3ZM464.953 38V27.5H467.013V29.66L466.653 29.9C466.786 29.4333 467.046 29.0067 467.433 28.62C467.819 28.22 468.279 27.9 468.813 27.66C469.346 27.4067 469.893 27.28 470.453 27.28C471.253 27.28 471.919 27.44 472.453 27.76C472.986 28.0667 473.386 28.54 473.653 29.18C473.919 29.82 474.053 30.6267 474.053 31.6V38H471.993V31.74C471.993 31.14 471.913 30.6467 471.753 30.26C471.593 29.86 471.346 29.5733 471.013 29.4C470.679 29.2133 470.266 29.1333 469.773 29.16C469.373 29.16 469.006 29.2267 468.673 29.36C468.339 29.48 468.046 29.6533 467.793 29.88C467.553 30.1067 467.359 30.3733 467.213 30.68C467.079 30.9733 467.013 31.2933 467.013 31.64V38H465.993C465.819 38 465.646 38 465.473 38C465.299 38 465.126 38 464.953 38ZM487.967 38.2C486.94 38.2 486.02 37.9667 485.207 37.5C484.407 37.02 483.774 36.3733 483.307 35.56C482.84 34.7333 482.607 33.7933 482.607 32.74C482.607 31.6867 482.84 30.7533 483.307 29.94C483.774 29.1133 484.407 28.4667 485.207 28C486.02 27.52 486.94 27.28 487.967 27.28C488.98 27.28 489.887 27.52 490.687 28C491.5 28.4667 492.14 29.1133 492.607 29.94C493.074 30.7533 493.307 31.6867 493.307 32.74C493.307 33.7933 493.074 34.7333 492.607 35.56C492.14 36.3733 491.5 37.02 490.687 37.5C489.887 37.9667 488.98 38.2 487.967 38.2ZM487.967 36.32C488.594 36.32 489.154 36.1667 489.647 35.86C490.14 35.54 490.527 35.1133 490.807 34.58C491.087 34.0333 491.22 33.42 491.207 32.74C491.22 32.0467 491.087 31.4333 490.807 30.9C490.527 30.3533 490.14 29.9267 489.647 29.62C489.154 29.3133 488.594 29.16 487.967 29.16C487.34 29.16 486.774 29.32 486.267 29.64C485.774 29.9467 485.387 30.3733 485.107 30.92C484.827 31.4533 484.694 32.06 484.707 32.74C484.694 33.42 484.827 34.0333 485.107 34.58C485.387 35.1133 485.774 35.54 486.267 35.86C486.774 36.1667 487.34 36.32 487.967 36.32ZM505.452 38.2C504.572 38.2 503.778 38.0467 503.072 37.74C502.365 37.4333 501.778 36.98 501.312 36.38L502.712 35.18C503.112 35.6467 503.545 35.9867 504.012 36.2C504.492 36.4 505.032 36.5 505.632 36.5C505.872 36.5 506.092 36.4733 506.292 36.42C506.505 36.3533 506.685 36.26 506.832 36.14C506.992 36.02 507.112 35.88 507.192 35.72C507.272 35.5467 507.312 35.36 507.312 35.16C507.312 34.8133 507.185 34.5333 506.932 34.32C506.798 34.2267 506.585 34.1267 506.292 34.02C506.012 33.9 505.645 33.78 505.192 33.66C504.418 33.46 503.785 33.2333 503.292 32.98C502.798 32.7267 502.418 32.44 502.152 32.12C501.952 31.8667 501.805 31.5933 501.712 31.3C501.618 30.9933 501.572 30.66 501.572 30.3C501.572 29.86 501.665 29.46 501.852 29.1C502.052 28.7267 502.318 28.4067 502.652 28.14C502.998 27.86 503.398 27.6467 503.852 27.5C504.318 27.3533 504.812 27.28 505.332 27.28C505.825 27.28 506.312 27.3467 506.792 27.48C507.285 27.6133 507.738 27.8067 508.152 28.06C508.565 28.3133 508.912 28.6133 509.192 28.96L508.012 30.26C507.758 30.0067 507.478 29.7867 507.172 29.6C506.878 29.4 506.578 29.2467 506.272 29.14C505.965 29.0333 505.685 28.98 505.432 28.98C505.152 28.98 504.898 29.0067 504.672 29.06C504.445 29.1133 504.252 29.1933 504.092 29.3C503.945 29.4067 503.832 29.54 503.752 29.7C503.672 29.86 503.632 30.04 503.632 30.24C503.645 30.4133 503.685 30.58 503.752 30.74C503.832 30.8867 503.938 31.0133 504.072 31.12C504.218 31.2267 504.438 31.34 504.732 31.46C505.025 31.58 505.398 31.6933 505.852 31.8C506.518 31.9733 507.065 32.1667 507.492 32.38C507.932 32.58 508.278 32.8133 508.532 33.08C508.798 33.3333 508.985 33.6267 509.092 33.96C509.198 34.2933 509.252 34.6667 509.252 35.08C509.252 35.68 509.078 36.22 508.732 36.7C508.398 37.1667 507.945 37.5333 507.372 37.8C506.798 38.0667 506.158 38.2 505.452 38.2ZM519.222 38V24.82H521.282V38H519.222ZM517.042 29.5V27.5H523.722V29.5H517.042ZM532.338 38V27.5H534.398V38H532.338ZM533.338 25.18C532.898 25.18 532.558 25.0667 532.318 24.84C532.078 24.6133 531.958 24.2933 531.958 23.88C531.958 23.4933 532.078 23.18 532.318 22.94C532.571 22.7 532.911 22.58 533.338 22.58C533.778 22.58 534.118 22.6933 534.358 22.92C534.598 23.1467 534.718 23.4667 534.718 23.88C534.718 24.2667 534.591 24.58 534.338 24.82C534.098 25.06 533.764 25.18 533.338 25.18ZM548.424 38.2C547.451 38.2 546.578 37.96 545.804 37.48C545.044 37 544.438 36.3467 543.984 35.52C543.544 34.6933 543.324 33.7667 543.324 32.74C543.324 31.7133 543.544 30.7867 543.984 29.96C544.438 29.1333 545.044 28.48 545.804 28C546.578 27.52 547.451 27.28 548.424 27.28C549.358 27.28 550.204 27.4733 550.964 27.86C551.738 28.2333 552.324 28.7467 552.724 29.4L551.584 30.8C551.371 30.4933 551.098 30.2133 550.764 29.96C550.431 29.7067 550.078 29.5067 549.704 29.36C549.331 29.2133 548.971 29.14 548.624 29.14C547.984 29.14 547.411 29.3 546.904 29.62C546.411 29.9267 546.018 30.3533 545.724 30.9C545.431 31.4467 545.284 32.06 545.284 32.74C545.284 33.42 545.438 34.0333 545.744 34.58C546.051 35.1133 546.458 35.54 546.964 35.86C547.471 36.18 548.031 36.34 548.644 36.34C549.004 36.34 549.351 36.28 549.684 36.16C550.031 36.04 550.364 35.86 550.684 35.62C551.004 35.38 551.304 35.0867 551.584 34.74L552.724 36.14C552.298 36.74 551.684 37.2333 550.884 37.62C550.098 38.0067 549.278 38.2 548.424 38.2ZM577.453 38.2C576.493 38.2 575.633 37.9667 574.873 37.5C574.126 37.02 573.533 36.3733 573.093 35.56C572.653 34.7333 572.433 33.7933 572.433 32.74C572.433 31.6867 572.646 30.7533 573.073 29.94C573.513 29.1133 574.106 28.4667 574.853 28C575.599 27.52 576.446 27.28 577.393 27.28C577.913 27.28 578.413 27.3667 578.893 27.54C579.386 27.7 579.826 27.9267 580.213 28.22C580.599 28.5 580.899 28.8133 581.113 29.16C581.339 29.4933 581.453 29.8333 581.453 30.18L580.853 30.22V23.2H582.913V38H580.853V35.5H581.253C581.253 35.82 581.146 36.14 580.933 36.46C580.719 36.7667 580.433 37.0533 580.073 37.32C579.726 37.5867 579.319 37.8 578.853 37.96C578.399 38.12 577.933 38.2 577.453 38.2ZM577.733 36.42C578.359 36.42 578.913 36.26 579.393 35.94C579.873 35.62 580.246 35.1867 580.513 34.64C580.793 34.08 580.933 33.4467 580.933 32.74C580.933 32.0333 580.793 31.4067 580.513 30.86C580.246 30.3 579.873 29.86 579.393 29.54C578.913 29.22 578.359 29.06 577.733 29.06C577.106 29.06 576.553 29.22 576.073 29.54C575.593 29.86 575.213 30.3 574.933 30.86C574.666 31.4067 574.533 32.0333 574.533 32.74C574.533 33.4467 574.666 34.08 574.933 34.64C575.213 35.1867 575.593 35.62 576.073 35.94C576.553 36.26 577.106 36.42 577.733 36.42ZM597.049 38.2C595.969 38.2 595.009 37.9733 594.169 37.52C593.342 37.0533 592.689 36.42 592.209 35.62C591.742 34.82 591.509 33.9 591.509 32.86C591.509 32.0333 591.642 31.28 591.909 30.6C592.175 29.92 592.542 29.3333 593.009 28.84C593.489 28.3333 594.055 27.9467 594.709 27.68C595.375 27.4 596.095 27.26 596.869 27.26C597.549 27.26 598.182 27.3933 598.769 27.66C599.355 27.9133 599.862 28.2667 600.289 28.72C600.729 29.1733 601.062 29.7133 601.289 30.34C601.529 30.9533 601.642 31.6267 601.629 32.36L601.609 33.24H593.029L592.569 31.6H599.829L599.529 31.94V31.46C599.489 31.02 599.342 30.6267 599.089 30.28C598.835 29.9333 598.515 29.66 598.129 29.46C597.742 29.26 597.322 29.16 596.869 29.16C596.149 29.16 595.542 29.3 595.049 29.58C594.555 29.8467 594.182 30.2467 593.929 30.78C593.675 31.3 593.549 31.9467 593.549 32.72C593.549 33.4533 593.702 34.0933 594.009 34.64C594.315 35.1733 594.749 35.5867 595.309 35.88C595.869 36.1733 596.515 36.32 597.249 36.32C597.769 36.32 598.249 36.2333 598.689 36.06C599.142 35.8867 599.629 35.5733 600.149 35.12L601.189 36.58C600.869 36.9 600.475 37.18 600.009 37.42C599.555 37.66 599.069 37.8533 598.549 38C598.042 38.1333 597.542 38.2 597.049 38.2ZM613.512 38L609.072 27.5H611.292L614.492 35.36L614.112 35.54L617.532 27.5H619.652L614.992 38H613.512ZM628.277 38V27.5H630.337V38H628.277ZM629.277 25.18C628.837 25.18 628.497 25.0667 628.257 24.84C628.017 24.6133 627.897 24.2933 627.897 23.88C627.897 23.4933 628.017 23.18 628.257 22.94C628.51 22.7 628.85 22.58 629.277 22.58C629.717 22.58 630.057 22.6933 630.297 22.92C630.537 23.1467 630.657 23.4667 630.657 23.88C630.657 24.2667 630.53 24.58 630.277 24.82C630.037 25.06 629.704 25.18 629.277 25.18ZM644.363 38.2C643.39 38.2 642.517 37.96 641.743 37.48C640.983 37 640.377 36.3467 639.923 35.52C639.483 34.6933 639.263 33.7667 639.263 32.74C639.263 31.7133 639.483 30.7867 639.923 29.96C640.377 29.1333 640.983 28.48 641.743 28C642.517 27.52 643.39 27.28 644.363 27.28C645.297 27.28 646.143 27.4733 646.903 27.86C647.677 28.2333 648.263 28.7467 648.663 29.4L647.523 30.8C647.31 30.4933 647.037 30.2133 646.703 29.96C646.37 29.7067 646.017 29.5067 645.643 29.36C645.27 29.2133 644.91 29.14 644.563 29.14C643.923 29.14 643.35 29.3 642.843 29.62C642.35 29.9267 641.957 30.3533 641.663 30.9C641.37 31.4467 641.223 32.06 641.223 32.74C641.223 33.42 641.377 34.0333 641.683 34.58C641.99 35.1133 642.397 35.54 642.903 35.86C643.41 36.18 643.97 36.34 644.583 36.34C644.943 36.34 645.29 36.28 645.623 36.16C645.97 36.04 646.303 35.86 646.623 35.62C646.943 35.38 647.243 35.0867 647.523 34.74L648.663 36.14C648.237 36.74 647.623 37.2333 646.823 37.62C646.037 38.0067 645.217 38.2 644.363 38.2ZM661.906 38.2C660.826 38.2 659.866 37.9733 659.026 37.52C658.2 37.0533 657.546 36.42 657.066 35.62C656.6 34.82 656.366 33.9 656.366 32.86C656.366 32.0333 656.5 31.28 656.766 30.6C657.033 29.92 657.4 29.3333 657.866 28.84C658.346 28.3333 658.913 27.9467 659.566 27.68C660.233 27.4 660.953 27.26 661.726 27.26C662.406 27.26 663.04 27.3933 663.626 27.66C664.213 27.9133 664.72 28.2667 665.146 28.72C665.586 29.1733 665.92 29.7133 666.146 30.34C666.386 30.9533 666.5 31.6267 666.486 32.36L666.466 33.24H657.886L657.426 31.6H664.686L664.386 31.94V31.46C664.346 31.02 664.2 30.6267 663.946 30.28C663.693 29.9333 663.373 29.66 662.986 29.46C662.6 29.26 662.18 29.16 661.726 29.16C661.006 29.16 660.4 29.3 659.906 29.58C659.413 29.8467 659.04 30.2467 658.786 30.78C658.533 31.3 658.406 31.9467 658.406 32.72C658.406 33.4533 658.56 34.0933 658.866 34.64C659.173 35.1733 659.606 35.5867 660.166 35.88C660.726 36.1733 661.373 36.32 662.106 36.32C662.626 36.32 663.106 36.2333 663.546 36.06C664 35.8867 664.486 35.5733 665.006 35.12L666.046 36.58C665.726 36.9 665.333 37.18 664.866 37.42C664.413 37.66 663.926 37.8533 663.406 38C662.9 38.1333 662.4 38.2 661.906 38.2ZM678.625 38.2C677.745 38.2 676.952 38.0467 676.245 37.74C675.539 37.4333 674.952 36.98 674.485 36.38L675.885 35.18C676.285 35.6467 676.719 35.9867 677.185 36.2C677.665 36.4 678.205 36.5 678.805 36.5C679.045 36.5 679.265 36.4733 679.465 36.42C679.679 36.3533 679.859 36.26 680.005 36.14C680.165 36.02 680.285 35.88 680.365 35.72C680.445 35.5467 680.485 35.36 680.485 35.16C680.485 34.8133 680.359 34.5333 680.105 34.32C679.972 34.2267 679.759 34.1267 679.465 34.02C679.185 33.9 678.819 33.78 678.365 33.66C677.592 33.46 676.959 33.2333 676.465 32.98C675.972 32.7267 675.592 32.44 675.325 32.12C675.125 31.8667 674.979 31.5933 674.885 31.3C674.792 30.9933 674.745 30.66 674.745 30.3C674.745 29.86 674.839 29.46 675.025 29.1C675.225 28.7267 675.492 28.4067 675.825 28.14C676.172 27.86 676.572 27.6467 677.025 27.5C677.492 27.3533 677.985 27.28 678.505 27.28C678.999 27.28 679.485 27.3467 679.965 27.48C680.459 27.6133 680.912 27.8067 681.325 28.06C681.739 28.3133 682.085 28.6133 682.365 28.96L681.185 30.26C680.932 30.0067 680.652 29.7867 680.345 29.6C680.052 29.4 679.752 29.2467 679.445 29.14C679.139 29.0333 678.859 28.98 678.605 28.98C678.325 28.98 678.072 29.0067 677.845 29.06C677.619 29.1133 677.425 29.1933 677.265 29.3C677.119 29.4067 677.005 29.54 676.925 29.7C676.845 29.86 676.805 30.04 676.805 30.24C676.819 30.4133 676.859 30.58 676.925 30.74C677.005 30.8867 677.112 31.0133 677.245 31.12C677.392 31.2267 677.612 31.34 677.905 31.46C678.199 31.58 678.572 31.6933 679.025 31.8C679.692 31.9733 680.239 32.1667 680.665 32.38C681.105 32.58 681.452 32.8133 681.705 33.08C681.972 33.3333 682.159 33.6267 682.265 33.96C682.372 34.2933 682.425 34.6667 682.425 35.08C682.425 35.68 682.252 36.22 681.905 36.7C681.572 37.1667 681.119 37.5333 680.545 37.8C679.972 38.0667 679.332 38.2 678.625 38.2ZM691.935 38.22C691.495 38.22 691.155 38.0933 690.915 37.84C690.675 37.5733 690.555 37.2 690.555 36.72C690.555 36.28 690.682 35.92 690.935 35.64C691.189 35.36 691.522 35.22 691.935 35.22C692.375 35.22 692.715 35.3533 692.955 35.62C693.195 35.8733 693.315 36.24 693.315 36.72C693.315 37.16 693.189 37.52 692.935 37.8C692.682 38.08 692.349 38.22 691.935 38.22Z" fill="white"/>
</svg>
