<svg width="228" height="24" viewBox="0 0 228 24" fill="none" xmlns="http://www.w3.org/2000/svg">
<path d="M12.91 23V2H19.39V23H12.91ZM0.4 23V2H6.88V23H0.4ZM2.83 15.35L2.86 9.71H16.57V15.35H2.83ZM35.8591 23.3C33.9991 23.3 32.3991 22.94 31.0591 22.22C29.7191 21.5 28.6891 20.52 27.9691 19.28C27.2491 18.02 26.8891 16.58 26.8891 14.96C26.8891 13.76 27.0891 12.65 27.4891 11.63C27.8891 10.61 28.4491 9.73 29.1691 8.99C29.9091 8.23 30.7691 7.65 31.7491 7.25C32.7491 6.83 33.8391 6.62 35.0191 6.62C36.1991 6.62 37.2691 6.83 38.2291 7.25C39.2091 7.65 40.0491 8.23 40.7491 8.99C41.4491 9.73 41.9791 10.61 42.3391 11.63C42.7191 12.65 42.8891 13.76 42.8491 14.96L42.8191 16.22H30.2491L29.5591 13.37H37.9891L37.4191 13.97V13.43C37.4191 13.05 37.3191 12.72 37.1191 12.44C36.9391 12.14 36.6791 11.91 36.3391 11.75C35.9991 11.59 35.5991 11.51 35.1391 11.51C34.5591 11.51 34.0691 11.63 33.6691 11.87C33.2691 12.11 32.9591 12.45 32.7391 12.89C32.5391 13.33 32.4391 13.86 32.4391 14.48C32.4391 15.2 32.5891 15.83 32.8891 16.37C33.2091 16.91 33.6691 17.33 34.2691 17.63C34.8891 17.93 35.6491 18.08 36.5491 18.08C37.1491 18.08 37.6591 18.01 38.0791 17.87C38.5191 17.71 38.9791 17.46 39.4591 17.12L42.2491 21.05C41.5091 21.63 40.7791 22.08 40.0591 22.4C39.3591 22.72 38.6591 22.95 37.9591 23.09C37.2791 23.23 36.5791 23.3 35.8591 23.3ZM55.5972 23.27C54.2572 23.27 53.0672 22.92 52.0272 22.22C50.9872 21.5 50.1672 20.52 49.5672 19.28C48.9672 18.02 48.6672 16.58 48.6672 14.96C48.6672 13.32 48.9572 11.88 49.5372 10.64C50.1372 9.38 50.9572 8.4 51.9972 7.7C53.0572 6.98 54.2772 6.62 55.6572 6.62C56.3772 6.62 57.0372 6.72 57.6372 6.92C58.2372 7.12 58.7672 7.4 59.2272 7.76C59.6872 8.12 60.0872 8.54 60.4272 9.02C60.7672 9.48 61.0572 9.98 61.2972 10.52L60.0672 10.49V6.95H66.0372V23H59.9172V19.07L61.2672 19.19C61.0672 19.77 60.7872 20.31 60.4272 20.81C60.0872 21.31 59.6772 21.74 59.1972 22.1C58.7172 22.46 58.1772 22.75 57.5772 22.97C56.9772 23.17 56.3172 23.27 55.5972 23.27ZM57.3372 18.32C57.9172 18.32 58.4072 18.19 58.8072 17.93C59.2272 17.67 59.5372 17.29 59.7372 16.79C59.9572 16.29 60.0672 15.68 60.0672 14.96C60.0672 14.24 59.9572 13.63 59.7372 13.13C59.5372 12.61 59.2272 12.22 58.8072 11.96C58.4072 11.7 57.9172 11.57 57.3372 11.57C56.7572 11.57 56.2672 11.7 55.8672 11.96C55.4672 12.22 55.1572 12.61 54.9372 13.13C54.7372 13.63 54.6372 14.24 54.6372 14.96C54.6372 15.68 54.7372 16.29 54.9372 16.79C55.1572 17.29 55.4672 17.67 55.8672 17.93C56.2672 18.19 56.7572 18.32 57.3372 18.32ZM74.4285 23V0.8H80.5185V23H74.4285ZM89.6638 23V2.9H95.7538V23H89.6638ZM87.1738 12.05V6.95H98.3938V12.05H87.1738ZM105.299 23V0.8H111.239V10.19L109.949 10.55C110.169 9.79 110.559 9.12 111.119 8.54C111.699 7.94 112.389 7.47 113.189 7.13C113.989 6.79 114.839 6.62 115.739 6.62C116.939 6.62 117.959 6.87 118.799 7.37C119.639 7.87 120.269 8.61 120.689 9.59C121.129 10.55 121.349 11.72 121.349 13.1V23H115.259V13.61C115.259 13.17 115.189 12.8 115.049 12.5C114.909 12.2 114.699 11.97 114.419 11.81C114.139 11.65 113.809 11.57 113.429 11.57C113.129 11.57 112.849 11.62 112.589 11.72C112.349 11.8 112.139 11.93 111.959 12.11C111.779 12.29 111.639 12.49 111.539 12.71C111.439 12.93 111.389 13.18 111.389 13.46V23H108.359C107.599 23 106.959 23 106.439 23C105.939 23 105.559 23 105.299 23ZM154.759 23.3C153.079 23.3 151.529 23.03 150.109 22.49C148.709 21.95 147.489 21.2 146.449 20.24C145.429 19.26 144.639 18.1 144.079 16.76C143.519 15.42 143.239 13.95 143.239 12.35C143.239 10.75 143.519 9.28 144.079 7.94C144.659 6.6 145.469 5.45 146.509 4.49C147.549 3.51 148.779 2.75 150.199 2.21C151.639 1.67 153.219 1.4 154.939 1.4C155.919 1.4 156.879 1.52 157.819 1.76C158.779 1.98 159.679 2.33 160.519 2.81C161.379 3.27 162.159 3.86 162.859 4.58L158.989 9.11C158.709 8.77 158.369 8.46 157.969 8.18C157.589 7.9 157.139 7.68 156.619 7.52C156.119 7.34 155.539 7.25 154.879 7.25C154.199 7.25 153.549 7.37 152.929 7.61C152.329 7.83 151.799 8.16 151.339 8.6C150.899 9.04 150.549 9.58 150.289 10.22C150.029 10.86 149.899 11.6 149.899 12.44C149.899 13.2 150.029 13.89 150.289 14.51C150.549 15.13 150.919 15.66 151.399 16.1C151.879 16.54 152.459 16.88 153.139 17.12C153.819 17.36 154.579 17.48 155.419 17.48C156.019 17.48 156.589 17.39 157.129 17.21C157.669 17.03 158.159 16.8 158.599 16.52C159.039 16.22 159.419 15.89 159.739 15.53L162.829 20.39C162.309 20.95 161.619 21.45 160.759 21.89C159.899 22.33 158.949 22.68 157.909 22.94C156.869 23.18 155.819 23.3 154.759 23.3ZM175.221 23.27C173.881 23.27 172.691 22.92 171.651 22.22C170.611 21.5 169.791 20.52 169.191 19.28C168.591 18.02 168.291 16.58 168.291 14.96C168.291 13.32 168.581 11.88 169.161 10.64C169.761 9.38 170.581 8.4 171.621 7.7C172.681 6.98 173.901 6.62 175.281 6.62C176.001 6.62 176.661 6.72 177.261 6.92C177.861 7.12 178.391 7.4 178.851 7.76C179.311 8.12 179.711 8.54 180.051 9.02C180.391 9.48 180.681 9.98 180.921 10.52L179.691 10.49V6.95H185.661V23H179.541V19.07L180.891 19.19C180.691 19.77 180.411 20.31 180.051 20.81C179.711 21.31 179.301 21.74 178.821 22.1C178.341 22.46 177.801 22.75 177.201 22.97C176.601 23.17 175.941 23.27 175.221 23.27ZM176.961 18.32C177.541 18.32 178.031 18.19 178.431 17.93C178.851 17.67 179.161 17.29 179.361 16.79C179.581 16.29 179.691 15.68 179.691 14.96C179.691 14.24 179.581 13.63 179.361 13.13C179.161 12.61 178.851 12.22 178.431 11.96C178.031 11.7 177.541 11.57 176.961 11.57C176.381 11.57 175.891 11.7 175.491 11.96C175.091 12.22 174.781 12.61 174.561 13.13C174.361 13.63 174.261 14.24 174.261 14.96C174.261 15.68 174.361 16.29 174.561 16.79C174.781 17.29 175.091 17.67 175.491 17.93C175.891 18.19 176.381 18.32 176.961 18.32ZM194.052 23V6.95H199.692L200.052 12.29L198.702 11.45C198.962 10.53 199.372 9.71 199.932 8.99C200.492 8.25 201.162 7.67 201.942 7.25C202.742 6.83 203.592 6.62 204.492 6.62C204.852 6.62 205.192 6.65 205.512 6.71C205.832 6.75 206.142 6.81 206.442 6.89L204.762 13.64C204.562 13.5 204.242 13.37 203.802 13.25C203.382 13.13 202.922 13.07 202.422 13.07C202.062 13.07 201.732 13.13 201.432 13.25C201.152 13.35 200.912 13.51 200.712 13.73C200.532 13.95 200.392 14.21 200.292 14.51C200.192 14.81 200.142 15.16 200.142 15.56V23H194.052ZM220.143 23.3C218.283 23.3 216.683 22.94 215.343 22.22C214.003 21.5 212.973 20.52 212.253 19.28C211.533 18.02 211.173 16.58 211.173 14.96C211.173 13.76 211.373 12.65 211.773 11.63C212.173 10.61 212.733 9.73 213.453 8.99C214.193 8.23 215.053 7.65 216.033 7.25C217.033 6.83 218.123 6.62 219.303 6.62C220.483 6.62 221.553 6.83 222.513 7.25C223.493 7.65 224.333 8.23 225.033 8.99C225.733 9.73 226.263 10.61 226.623 11.63C227.003 12.65 227.173 13.76 227.133 14.96L227.103 16.22H214.533L213.843 13.37H222.273L221.703 13.97V13.43C221.703 13.05 221.603 12.72 221.403 12.44C221.223 12.14 220.963 11.91 220.623 11.75C220.283 11.59 219.883 11.51 219.423 11.51C218.843 11.51 218.353 11.63 217.953 11.87C217.553 12.11 217.243 12.45 217.023 12.89C216.823 13.33 216.723 13.86 216.723 14.48C216.723 15.2 216.873 15.83 217.173 16.37C217.493 16.91 217.953 17.33 218.553 17.63C219.173 17.93 219.933 18.08 220.833 18.08C221.433 18.08 221.943 18.01 222.363 17.87C222.803 17.71 223.263 17.46 223.743 17.12L226.533 21.05C225.793 21.63 225.063 22.08 224.343 22.4C223.643 22.72 222.943 22.95 222.243 23.09C221.563 23.23 220.863 23.3 220.143 23.3Z" fill="white"/>
</svg>
