<svg width="555" height="43" viewBox="0 0 555 43" fill="none" xmlns="http://www.w3.org/2000/svg">
<path d="M1.96 16V2H4.08L9.18 10.3L8.16 10.28L13.32 2H15.32V16H13.16V10.26C13.16 9.06 13.1867 7.98 13.24 7.02C13.3067 6.06 13.4133 5.10667 13.56 4.16L13.84 4.9L9.26 11.98H7.94L3.5 4.98L3.72 4.16C3.86667 5.05333 3.96667 5.97333 4.02 6.92C4.08667 7.85333 4.12 8.96667 4.12 10.26V16H1.96ZM29.1652 16.2C28.2985 16.2 27.5052 15.96 26.7852 15.48C26.0785 15 25.5118 14.3467 25.0852 13.52C24.6585 12.6933 24.4452 11.76 24.4452 10.72C24.4452 9.66667 24.6585 8.73333 25.0852 7.92C25.5252 7.09333 26.1118 6.44667 26.8452 5.98C27.5918 5.51333 28.4252 5.28 29.3452 5.28C29.8918 5.28 30.3918 5.36 30.8452 5.52C31.2985 5.68 31.6918 5.90667 32.0252 6.2C32.3718 6.48 32.6518 6.80667 32.8652 7.18C33.0918 7.55333 33.2318 7.95333 33.2852 8.38L32.8252 8.22V5.5H34.9052V16H32.8252V13.5L33.3052 13.36C33.2252 13.72 33.0585 14.0733 32.8052 14.42C32.5652 14.7533 32.2518 15.0533 31.8652 15.32C31.4918 15.5867 31.0718 15.8 30.6052 15.96C30.1518 16.12 29.6718 16.2 29.1652 16.2ZM29.7052 14.3C30.3318 14.3 30.8852 14.1467 31.3652 13.84C31.8452 13.5333 32.2185 13.1133 32.4852 12.58C32.7652 12.0333 32.9052 11.4133 32.9052 10.72C32.9052 10.04 32.7652 9.43333 32.4852 8.9C32.2185 8.36667 31.8452 7.94667 31.3652 7.64C30.8852 7.33333 30.3318 7.18 29.7052 7.18C29.0918 7.18 28.5452 7.33333 28.0652 7.64C27.5985 7.94667 27.2252 8.36667 26.9452 8.9C26.6785 9.43333 26.5452 10.04 26.5452 10.72C26.5452 11.4133 26.6785 12.0333 26.9452 12.58C27.2252 13.1133 27.5985 13.5333 28.0652 13.84C28.5452 14.1467 29.0918 14.3 29.7052 14.3ZM44.1814 16V5.5H46.2414V7.66L45.8814 7.9C46.0147 7.43333 46.2747 7.00667 46.6614 6.62C47.0481 6.22 47.5081 5.9 48.0414 5.66C48.5747 5.40667 49.1214 5.28 49.6814 5.28C50.4814 5.28 51.1481 5.44 51.6814 5.76C52.2147 6.06667 52.6147 6.54 52.8814 7.18C53.1481 7.82 53.2814 8.62667 53.2814 9.6V16H51.2214V9.74C51.2214 9.14 51.1414 8.64667 50.9814 8.26C50.8214 7.86 50.5747 7.57333 50.2414 7.4C49.9081 7.21333 49.4947 7.13333 49.0014 7.16C48.6014 7.16 48.2347 7.22667 47.9014 7.36C47.5681 7.48 47.2747 7.65333 47.0214 7.88C46.7814 8.10667 46.5881 8.37333 46.4414 8.68C46.3081 8.97333 46.2414 9.29333 46.2414 9.64V16H45.2214C45.0481 16 44.8747 16 44.7014 16C44.5281 16 44.3547 16 44.1814 16ZM66.5159 16.2C65.6493 16.2 64.8559 15.96 64.1359 15.48C63.4293 15 62.8626 14.3467 62.4359 13.52C62.0093 12.6933 61.7959 11.76 61.7959 10.72C61.7959 9.66667 62.0093 8.73333 62.4359 7.92C62.8759 7.09333 63.4626 6.44667 64.1959 5.98C64.9426 5.51333 65.7759 5.28 66.6959 5.28C67.2426 5.28 67.7426 5.36 68.1959 5.52C68.6493 5.68 69.0426 5.90667 69.3759 6.2C69.7226 6.48 70.0026 6.80667 70.2159 7.18C70.4426 7.55333 70.5826 7.95333 70.6359 8.38L70.1759 8.22V5.5H72.2559V16H70.1759V13.5L70.6559 13.36C70.5759 13.72 70.4093 14.0733 70.1559 14.42C69.9159 14.7533 69.6026 15.0533 69.2159 15.32C68.8426 15.5867 68.4226 15.8 67.9559 15.96C67.5026 16.12 67.0226 16.2 66.5159 16.2ZM67.0559 14.3C67.6826 14.3 68.2359 14.1467 68.7159 13.84C69.1959 13.5333 69.5693 13.1133 69.8359 12.58C70.1159 12.0333 70.2559 11.4133 70.2559 10.72C70.2559 10.04 70.1159 9.43333 69.8359 8.9C69.5693 8.36667 69.1959 7.94667 68.7159 7.64C68.2359 7.33333 67.6826 7.18 67.0559 7.18C66.4426 7.18 65.8959 7.33333 65.4159 7.64C64.9493 7.94667 64.5759 8.36667 64.2959 8.9C64.0293 9.43333 63.8959 10.04 63.8959 10.72C63.8959 11.4133 64.0293 12.0333 64.2959 12.58C64.5759 13.1133 64.9493 13.5333 65.4159 13.84C65.8959 14.1467 66.4426 14.3 67.0559 14.3ZM86.2322 20.6C85.4855 20.6 84.7389 20.48 83.9922 20.24C83.2589 20.0133 82.6655 19.7133 82.2122 19.34L82.9722 17.74C83.2389 17.94 83.5522 18.1133 83.9122 18.26C84.2722 18.42 84.6522 18.54 85.0522 18.62C85.4522 18.7133 85.8455 18.76 86.2322 18.76C86.9655 18.76 87.5789 18.64 88.0722 18.4C88.5655 18.16 88.9389 17.8067 89.1922 17.34C89.4455 16.8733 89.5722 16.2933 89.5722 15.6V13.58L89.7922 13.72C89.7255 14.1333 89.5055 14.5333 89.1322 14.92C88.7722 15.2933 88.3189 15.6 87.7722 15.84C87.2255 16.08 86.6655 16.2 86.0922 16.2C85.0922 16.2 84.1989 15.9667 83.4122 15.5C82.6389 15.02 82.0255 14.3733 81.5722 13.56C81.1189 12.7333 80.8922 11.7933 80.8922 10.74C80.8922 9.68667 81.1122 8.75333 81.5522 7.94C82.0055 7.11333 82.6189 6.46667 83.3922 6C84.1789 5.52 85.0589 5.28 86.0322 5.28C86.4322 5.28 86.8189 5.33333 87.1922 5.44C87.5655 5.53333 87.9122 5.67333 88.2322 5.86C88.5522 6.03333 88.8389 6.22667 89.0922 6.44C89.3455 6.65333 89.5522 6.88 89.7122 7.12C89.8722 7.36 89.9722 7.58667 90.0122 7.8L89.5722 7.96V5.5H91.6322V15.36C91.6322 16.2 91.5055 16.94 91.2522 17.58C91.0122 18.2333 90.6589 18.78 90.1922 19.22C89.7255 19.6733 89.1589 20.0133 88.4922 20.24C87.8255 20.48 87.0722 20.6 86.2322 20.6ZM86.3122 14.3C86.9655 14.3 87.5455 14.1467 88.0522 13.84C88.5589 13.5333 88.9522 13.1133 89.2322 12.58C89.5122 12.0467 89.6522 11.4333 89.6522 10.74C89.6522 10.0467 89.5055 9.43333 89.2122 8.9C88.9322 8.35333 88.5389 7.92667 88.0322 7.62C87.5389 7.31333 86.9655 7.16 86.3122 7.16C85.6722 7.16 85.0989 7.32 84.5922 7.64C84.0989 7.94667 83.7055 8.37333 83.4122 8.92C83.1322 9.45333 82.9922 10.06 82.9922 10.74C82.9922 11.42 83.1322 12.0333 83.4122 12.58C83.7055 13.1133 84.0989 13.5333 84.5922 13.84C85.0989 14.1467 85.6722 14.3 86.3122 14.3ZM105.82 16.2C104.74 16.2 103.78 15.9733 102.94 15.52C102.114 15.0533 101.46 14.42 100.98 13.62C100.514 12.82 100.28 11.9 100.28 10.86C100.28 10.0333 100.414 9.28 100.68 8.6C100.947 7.92 101.314 7.33333 101.78 6.84C102.26 6.33333 102.827 5.94667 103.48 5.68C104.147 5.4 104.867 5.26 105.64 5.26C106.32 5.26 106.954 5.39333 107.54 5.66C108.127 5.91333 108.634 6.26667 109.06 6.72C109.5 7.17333 109.834 7.71333 110.06 8.34C110.3 8.95333 110.414 9.62667 110.4 10.36L110.38 11.24H101.8L101.34 9.6H108.6L108.3 9.94V9.46C108.26 9.02 108.114 8.62667 107.86 8.28C107.607 7.93333 107.287 7.66 106.9 7.46C106.514 7.26 106.094 7.16 105.64 7.16C104.92 7.16 104.314 7.3 103.82 7.58C103.327 7.84667 102.954 8.24667 102.7 8.78C102.447 9.3 102.32 9.94667 102.32 10.72C102.32 11.4533 102.474 12.0933 102.78 12.64C103.087 13.1733 103.52 13.5867 104.08 13.88C104.64 14.1733 105.287 14.32 106.02 14.32C106.54 14.32 107.02 14.2333 107.46 14.06C107.914 13.8867 108.4 13.5733 108.92 13.12L109.96 14.58C109.64 14.9 109.247 15.18 108.78 15.42C108.327 15.66 107.84 15.8533 107.32 16C106.814 16.1333 106.314 16.2 105.82 16.2ZM122.539 16.2C121.659 16.2 120.866 16.0467 120.159 15.74C119.453 15.4333 118.866 14.98 118.399 14.38L119.799 13.18C120.199 13.6467 120.633 13.9867 121.099 14.2C121.579 14.4 122.119 14.5 122.719 14.5C122.959 14.5 123.179 14.4733 123.379 14.42C123.593 14.3533 123.773 14.26 123.919 14.14C124.079 14.02 124.199 13.88 124.279 13.72C124.359 13.5467 124.399 13.36 124.399 13.16C124.399 12.8133 124.273 12.5333 124.019 12.32C123.886 12.2267 123.673 12.1267 123.379 12.02C123.099 11.9 122.733 11.78 122.279 11.66C121.506 11.46 120.873 11.2333 120.379 10.98C119.886 10.7267 119.506 10.44 119.239 10.12C119.039 9.86667 118.893 9.59333 118.799 9.3C118.706 8.99333 118.659 8.66 118.659 8.3C118.659 7.86 118.753 7.46 118.939 7.1C119.139 6.72667 119.406 6.40667 119.739 6.14C120.086 5.86 120.486 5.64667 120.939 5.5C121.406 5.35333 121.899 5.28 122.419 5.28C122.913 5.28 123.399 5.34667 123.879 5.48C124.373 5.61333 124.826 5.80667 125.239 6.06C125.653 6.31333 125.999 6.61333 126.279 6.96L125.099 8.26C124.846 8.00667 124.566 7.78667 124.259 7.6C123.966 7.4 123.666 7.24667 123.359 7.14C123.053 7.03333 122.773 6.98 122.519 6.98C122.239 6.98 121.986 7.00667 121.759 7.06C121.533 7.11333 121.339 7.19333 121.179 7.3C121.033 7.40667 120.919 7.54 120.839 7.7C120.759 7.86 120.719 8.04 120.719 8.24C120.733 8.41333 120.773 8.58 120.839 8.74C120.919 8.88667 121.026 9.01333 121.159 9.12C121.306 9.22667 121.526 9.34 121.819 9.46C122.113 9.58 122.486 9.69333 122.939 9.8C123.606 9.97333 124.153 10.1667 124.579 10.38C125.019 10.58 125.366 10.8133 125.619 11.08C125.886 11.3333 126.073 11.6267 126.179 11.96C126.286 12.2933 126.339 12.6667 126.339 13.08C126.339 13.68 126.166 14.22 125.819 14.7C125.486 15.1667 125.033 15.5333 124.459 15.8C123.886 16.0667 123.246 16.2 122.539 16.2ZM151.475 16.2C150.502 16.2 149.628 15.96 148.855 15.48C148.095 15 147.488 14.3467 147.035 13.52C146.595 12.6933 146.375 11.7667 146.375 10.74C146.375 9.71333 146.595 8.78667 147.035 7.96C147.488 7.13333 148.095 6.48 148.855 6C149.628 5.52 150.502 5.28 151.475 5.28C152.408 5.28 153.255 5.47333 154.015 5.86C154.788 6.23333 155.375 6.74667 155.775 7.4L154.635 8.8C154.422 8.49333 154.148 8.21333 153.815 7.96C153.482 7.70667 153.128 7.50667 152.755 7.36C152.382 7.21333 152.022 7.14 151.675 7.14C151.035 7.14 150.462 7.3 149.955 7.62C149.462 7.92667 149.068 8.35333 148.775 8.9C148.482 9.44667 148.335 10.06 148.335 10.74C148.335 11.42 148.488 12.0333 148.795 12.58C149.102 13.1133 149.508 13.54 150.015 13.86C150.522 14.18 151.082 14.34 151.695 14.34C152.055 14.34 152.402 14.28 152.735 14.16C153.082 14.04 153.415 13.86 153.735 13.62C154.055 13.38 154.355 13.0867 154.635 12.74L155.775 14.14C155.348 14.74 154.735 15.2333 153.935 15.62C153.148 16.0067 152.328 16.2 151.475 16.2ZM168.838 16.2C167.811 16.2 166.891 15.9667 166.078 15.5C165.278 15.02 164.645 14.3733 164.178 13.56C163.711 12.7333 163.478 11.7933 163.478 10.74C163.478 9.68667 163.711 8.75333 164.178 7.94C164.645 7.11333 165.278 6.46667 166.078 6C166.891 5.52 167.811 5.28 168.838 5.28C169.851 5.28 170.758 5.52 171.558 6C172.371 6.46667 173.011 7.11333 173.478 7.94C173.945 8.75333 174.178 9.68667 174.178 10.74C174.178 11.7933 173.945 12.7333 173.478 13.56C173.011 14.3733 172.371 15.02 171.558 15.5C170.758 15.9667 169.851 16.2 168.838 16.2ZM168.838 14.32C169.465 14.32 170.025 14.1667 170.518 13.86C171.011 13.54 171.398 13.1133 171.678 12.58C171.958 12.0333 172.091 11.42 172.078 10.74C172.091 10.0467 171.958 9.43333 171.678 8.9C171.398 8.35333 171.011 7.92667 170.518 7.62C170.025 7.31333 169.465 7.16 168.838 7.16C168.211 7.16 167.645 7.32 167.138 7.64C166.645 7.94667 166.258 8.37333 165.978 8.92C165.698 9.45333 165.565 10.06 165.578 10.74C165.565 11.42 165.698 12.0333 165.978 12.58C166.258 13.1133 166.645 13.54 167.138 13.86C167.645 14.1667 168.211 14.32 168.838 14.32ZM182.783 16V5.5H184.863V7.74L184.483 7.98C184.589 7.63333 184.756 7.3 184.983 6.98C185.223 6.66 185.509 6.38 185.843 6.14C186.189 5.88667 186.556 5.68667 186.943 5.54C187.343 5.39333 187.749 5.32 188.163 5.32C188.763 5.32 189.289 5.42 189.743 5.62C190.196 5.82 190.569 6.12 190.863 6.52C191.156 6.92 191.369 7.42 191.503 8.02L191.183 7.94L191.323 7.6C191.469 7.29333 191.669 7.00667 191.923 6.74C192.189 6.46 192.489 6.21333 192.823 6C193.156 5.78667 193.509 5.62 193.883 5.5C194.256 5.38 194.623 5.32 194.983 5.32C195.769 5.32 196.416 5.48 196.923 5.8C197.443 6.12 197.829 6.60667 198.083 7.26C198.349 7.91333 198.483 8.72667 198.483 9.7V16H196.403V9.82C196.403 9.22 196.323 8.73333 196.163 8.36C196.016 7.97333 195.789 7.68667 195.483 7.5C195.176 7.31333 194.783 7.22 194.303 7.22C193.929 7.22 193.576 7.28667 193.243 7.42C192.923 7.54 192.643 7.71333 192.403 7.94C192.163 8.16667 191.976 8.43333 191.843 8.74C191.709 9.03333 191.643 9.36 191.643 9.72V16H189.563V9.78C189.563 9.23333 189.483 8.77333 189.323 8.4C189.163 8.01333 188.929 7.72 188.623 7.52C188.316 7.32 187.943 7.22 187.503 7.22C187.129 7.22 186.783 7.28667 186.463 7.42C186.143 7.54 185.863 7.71333 185.623 7.94C185.383 8.15333 185.196 8.41333 185.063 8.72C184.929 9.01333 184.863 9.33333 184.863 9.68V16H182.783ZM207.601 16V5.5H209.681V7.74L209.301 7.98C209.407 7.63333 209.574 7.3 209.801 6.98C210.041 6.66 210.327 6.38 210.661 6.14C211.007 5.88667 211.374 5.68667 211.761 5.54C212.161 5.39333 212.567 5.32 212.981 5.32C213.581 5.32 214.107 5.42 214.561 5.62C215.014 5.82 215.387 6.12 215.681 6.52C215.974 6.92 216.187 7.42 216.321 8.02L216.001 7.94L216.141 7.6C216.287 7.29333 216.487 7.00667 216.741 6.74C217.007 6.46 217.307 6.21333 217.641 6C217.974 5.78667 218.327 5.62 218.701 5.5C219.074 5.38 219.441 5.32 219.801 5.32C220.587 5.32 221.234 5.48 221.741 5.8C222.261 6.12 222.647 6.60667 222.901 7.26C223.167 7.91333 223.301 8.72667 223.301 9.7V16H221.221V9.82C221.221 9.22 221.141 8.73333 220.981 8.36C220.834 7.97333 220.607 7.68667 220.301 7.5C219.994 7.31333 219.601 7.22 219.121 7.22C218.747 7.22 218.394 7.28667 218.061 7.42C217.741 7.54 217.461 7.71333 217.221 7.94C216.981 8.16667 216.794 8.43333 216.661 8.74C216.527 9.03333 216.461 9.36 216.461 9.72V16H214.381V9.78C214.381 9.23333 214.301 8.77333 214.141 8.4C213.981 8.01333 213.747 7.72 213.441 7.52C213.134 7.32 212.761 7.22 212.321 7.22C211.947 7.22 211.601 7.28667 211.281 7.42C210.961 7.54 210.681 7.71333 210.441 7.94C210.201 8.15333 210.014 8.41333 209.881 8.72C209.747 9.01333 209.681 9.33333 209.681 9.68V16H207.601ZM236.139 16.2C235.392 16.2 234.739 16.0267 234.179 15.68C233.632 15.3333 233.205 14.8467 232.899 14.22C232.605 13.5933 232.459 12.8467 232.459 11.98V5.5H234.519V11.42C234.519 12.0333 234.612 12.5667 234.799 13.02C234.999 13.46 235.279 13.8 235.639 14.04C236.012 14.28 236.459 14.4 236.979 14.4C237.365 14.4 237.719 14.34 238.039 14.22C238.359 14.0867 238.632 13.9067 238.859 13.68C239.099 13.4533 239.285 13.18 239.419 12.86C239.552 12.54 239.619 12.1933 239.619 11.82V5.5H241.679V16H239.619V13.8L239.979 13.56C239.819 14.0533 239.545 14.5 239.159 14.9C238.785 15.3 238.339 15.62 237.819 15.86C237.299 16.0867 236.739 16.2 236.139 16.2ZM250.968 16V5.5H253.028V7.66L252.668 7.9C252.801 7.43333 253.061 7.00667 253.448 6.62C253.835 6.22 254.295 5.9 254.828 5.66C255.361 5.40667 255.908 5.28 256.468 5.28C257.268 5.28 257.935 5.44 258.468 5.76C259.001 6.06667 259.401 6.54 259.668 7.18C259.935 7.82 260.068 8.62667 260.068 9.6V16H258.008V9.74C258.008 9.14 257.928 8.64667 257.768 8.26C257.608 7.86 257.361 7.57333 257.028 7.4C256.695 7.21333 256.281 7.13333 255.788 7.16C255.388 7.16 255.021 7.22667 254.688 7.36C254.355 7.48 254.061 7.65333 253.808 7.88C253.568 8.10667 253.375 8.37333 253.228 8.68C253.095 8.97333 253.028 9.29333 253.028 9.64V16H252.008C251.835 16 251.661 16 251.488 16C251.315 16 251.141 16 250.968 16ZM269.603 16V5.5H271.663V16H269.603ZM270.603 3.18C270.163 3.18 269.823 3.06667 269.583 2.84C269.343 2.61333 269.223 2.29333 269.223 1.88C269.223 1.49333 269.343 1.18 269.583 0.94C269.836 0.699999 270.176 0.579999 270.603 0.579999C271.043 0.579999 271.383 0.693333 271.623 0.92C271.863 1.14667 271.983 1.46667 271.983 1.88C271.983 2.26667 271.856 2.58 271.603 2.82C271.363 3.06 271.029 3.18 270.603 3.18ZM285.689 16.2C284.716 16.2 283.842 15.96 283.069 15.48C282.309 15 281.702 14.3467 281.249 13.52C280.809 12.6933 280.589 11.7667 280.589 10.74C280.589 9.71333 280.809 8.78667 281.249 7.96C281.702 7.13333 282.309 6.48 283.069 6C283.842 5.52 284.716 5.28 285.689 5.28C286.622 5.28 287.469 5.47333 288.229 5.86C289.002 6.23333 289.589 6.74667 289.989 7.4L288.849 8.8C288.636 8.49333 288.362 8.21333 288.029 7.96C287.696 7.70667 287.342 7.50667 286.969 7.36C286.596 7.21333 286.236 7.14 285.889 7.14C285.249 7.14 284.676 7.3 284.169 7.62C283.676 7.92667 283.282 8.35333 282.989 8.9C282.696 9.44667 282.549 10.06 282.549 10.74C282.549 11.42 282.702 12.0333 283.009 12.58C283.316 13.1133 283.722 13.54 284.229 13.86C284.736 14.18 285.296 14.34 285.909 14.34C286.269 14.34 286.616 14.28 286.949 14.16C287.296 14.04 287.629 13.86 287.949 13.62C288.269 13.38 288.569 13.0867 288.849 12.74L289.989 14.14C289.562 14.74 288.949 15.2333 288.149 15.62C287.362 16.0067 286.542 16.2 285.689 16.2ZM302.372 16.2C301.506 16.2 300.712 15.96 299.992 15.48C299.286 15 298.719 14.3467 298.292 13.52C297.866 12.6933 297.652 11.76 297.652 10.72C297.652 9.66667 297.866 8.73333 298.292 7.92C298.732 7.09333 299.319 6.44667 300.052 5.98C300.799 5.51333 301.632 5.28 302.552 5.28C303.099 5.28 303.599 5.36 304.052 5.52C304.506 5.68 304.899 5.90667 305.232 6.2C305.579 6.48 305.859 6.80667 306.072 7.18C306.299 7.55333 306.439 7.95333 306.492 8.38L306.032 8.22V5.5H308.112V16H306.032V13.5L306.512 13.36C306.432 13.72 306.266 14.0733 306.012 14.42C305.772 14.7533 305.459 15.0533 305.072 15.32C304.699 15.5867 304.279 15.8 303.812 15.96C303.359 16.12 302.879 16.2 302.372 16.2ZM302.912 14.3C303.539 14.3 304.092 14.1467 304.572 13.84C305.052 13.5333 305.426 13.1133 305.692 12.58C305.972 12.0333 306.112 11.4133 306.112 10.72C306.112 10.04 305.972 9.43333 305.692 8.9C305.426 8.36667 305.052 7.94667 304.572 7.64C304.092 7.33333 303.539 7.18 302.912 7.18C302.299 7.18 301.752 7.33333 301.272 7.64C300.806 7.94667 300.432 8.36667 300.152 8.9C299.886 9.43333 299.752 10.04 299.752 10.72C299.752 11.4133 299.886 12.0333 300.152 12.58C300.432 13.1133 300.806 13.5333 301.272 13.84C301.752 14.1467 302.299 14.3 302.912 14.3ZM318.688 16V2.82H320.748V16H318.688ZM316.508 7.5V5.5H323.188V7.5H316.508ZM331.804 16V5.5H333.864V16H331.804ZM332.804 3.18C332.364 3.18 332.024 3.06667 331.784 2.84C331.544 2.61333 331.424 2.29333 331.424 1.88C331.424 1.49333 331.544 1.18 331.784 0.94C332.038 0.699999 332.378 0.579999 332.804 0.579999C333.244 0.579999 333.584 0.693333 333.824 0.92C334.064 1.14667 334.184 1.46667 334.184 1.88C334.184 2.26667 334.058 2.58 333.804 2.82C333.564 3.06 333.231 3.18 332.804 3.18ZM348.151 16.2C347.124 16.2 346.204 15.9667 345.391 15.5C344.591 15.02 343.957 14.3733 343.491 13.56C343.024 12.7333 342.791 11.7933 342.791 10.74C342.791 9.68667 343.024 8.75333 343.491 7.94C343.957 7.11333 344.591 6.46667 345.391 6C346.204 5.52 347.124 5.28 348.151 5.28C349.164 5.28 350.071 5.52 350.871 6C351.684 6.46667 352.324 7.11333 352.791 7.94C353.257 8.75333 353.491 9.68667 353.491 10.74C353.491 11.7933 353.257 12.7333 352.791 13.56C352.324 14.3733 351.684 15.02 350.871 15.5C350.071 15.9667 349.164 16.2 348.151 16.2ZM348.151 14.32C348.777 14.32 349.337 14.1667 349.831 13.86C350.324 13.54 350.711 13.1133 350.991 12.58C351.271 12.0333 351.404 11.42 351.391 10.74C351.404 10.0467 351.271 9.43333 350.991 8.9C350.711 8.35333 350.324 7.92667 349.831 7.62C349.337 7.31333 348.777 7.16 348.151 7.16C347.524 7.16 346.957 7.32 346.451 7.64C345.957 7.94667 345.571 8.37333 345.291 8.92C345.011 9.45333 344.877 10.06 344.891 10.74C344.877 11.42 345.011 12.0333 345.291 12.58C345.571 13.1133 345.957 13.54 346.451 13.86C346.957 14.1667 347.524 14.32 348.151 14.32ZM362.135 16V5.5H364.195V7.66L363.835 7.9C363.969 7.43333 364.229 7.00667 364.615 6.62C365.002 6.22 365.462 5.9 365.995 5.66C366.529 5.40667 367.075 5.28 367.635 5.28C368.435 5.28 369.102 5.44 369.635 5.76C370.169 6.06667 370.569 6.54 370.835 7.18C371.102 7.82 371.235 8.62667 371.235 9.6V16H369.175V9.74C369.175 9.14 369.095 8.64667 368.935 8.26C368.775 7.86 368.529 7.57333 368.195 7.4C367.862 7.21333 367.449 7.13333 366.955 7.16C366.555 7.16 366.189 7.22667 365.855 7.36C365.522 7.48 365.229 7.65333 364.975 7.88C364.735 8.10667 364.542 8.37333 364.395 8.68C364.262 8.97333 364.195 9.29333 364.195 9.64V16H363.175C363.002 16 362.829 16 362.655 16C362.482 16 362.309 16 362.135 16ZM380.75 19.58L379.99 18.66C380.457 18.3933 380.837 18.0867 381.13 17.74C381.423 17.3933 381.57 17.0933 381.57 16.84C381.57 16.7067 381.537 16.5733 381.47 16.44C381.403 16.32 381.263 16.1467 381.05 15.92C380.783 15.6667 380.61 15.4533 380.53 15.28C380.45 15.1067 380.41 14.92 380.41 14.72C380.41 14.4 380.523 14.1467 380.75 13.96C380.977 13.76 381.27 13.66 381.63 13.66C381.963 13.66 382.263 13.76 382.53 13.96C382.81 14.1467 383.023 14.4133 383.17 14.76C383.33 15.0933 383.41 15.48 383.41 15.92C383.41 16.32 383.343 16.7067 383.21 17.08C383.077 17.4533 382.89 17.8 382.65 18.12C382.41 18.44 382.13 18.7267 381.81 18.98C381.49 19.2333 381.137 19.4333 380.75 19.58ZM408.887 16.2C407.861 16.2 406.941 15.9667 406.127 15.5C405.327 15.02 404.694 14.3733 404.227 13.56C403.761 12.7333 403.527 11.7933 403.527 10.74C403.527 9.68667 403.761 8.75333 404.227 7.94C404.694 7.11333 405.327 6.46667 406.127 6C406.941 5.52 407.861 5.28 408.887 5.28C409.901 5.28 410.807 5.52 411.607 6C412.421 6.46667 413.061 7.11333 413.527 7.94C413.994 8.75333 414.227 9.68667 414.227 10.74C414.227 11.7933 413.994 12.7333 413.527 13.56C413.061 14.3733 412.421 15.02 411.607 15.5C410.807 15.9667 409.901 16.2 408.887 16.2ZM408.887 14.32C409.514 14.32 410.074 14.1667 410.567 13.86C411.061 13.54 411.447 13.1133 411.727 12.58C412.007 12.0333 412.141 11.42 412.127 10.74C412.141 10.0467 412.007 9.43333 411.727 8.9C411.447 8.35333 411.061 7.92667 410.567 7.62C410.074 7.31333 409.514 7.16 408.887 7.16C408.261 7.16 407.694 7.32 407.187 7.64C406.694 7.94667 406.307 8.37333 406.027 8.92C405.747 9.45333 405.614 10.06 405.627 10.74C405.614 11.42 405.747 12.0333 406.027 12.58C406.307 13.1133 406.694 13.54 407.187 13.86C407.694 14.1667 408.261 14.32 408.887 14.32ZM426.552 16.2C425.805 16.2 425.152 16.0267 424.592 15.68C424.045 15.3333 423.619 14.8467 423.312 14.22C423.019 13.5933 422.872 12.8467 422.872 11.98V5.5H424.932V11.42C424.932 12.0333 425.025 12.5667 425.212 13.02C425.412 13.46 425.692 13.8 426.052 14.04C426.425 14.28 426.872 14.4 427.392 14.4C427.779 14.4 428.132 14.34 428.452 14.22C428.772 14.0867 429.045 13.9067 429.272 13.68C429.512 13.4533 429.699 13.18 429.832 12.86C429.965 12.54 430.032 12.1933 430.032 11.82V5.5H432.092V16H430.032V13.8L430.392 13.56C430.232 14.0533 429.959 14.5 429.572 14.9C429.199 15.3 428.752 15.62 428.232 15.86C427.712 16.0867 427.152 16.2 426.552 16.2ZM442.681 16V2.82H444.741V16H442.681ZM440.501 7.5V5.5H447.181V7.5H440.501ZM455.457 16V5.5H457.537V8.8L457.337 8C457.484 7.49333 457.731 7.03333 458.077 6.62C458.437 6.20667 458.844 5.88 459.297 5.64C459.764 5.4 460.244 5.28 460.737 5.28C460.964 5.28 461.177 5.3 461.377 5.34C461.591 5.38 461.757 5.42667 461.877 5.48L461.337 7.72C461.177 7.65333 460.997 7.6 460.797 7.56C460.611 7.50667 460.424 7.48 460.237 7.48C459.877 7.48 459.531 7.55333 459.197 7.7C458.877 7.83333 458.591 8.02667 458.337 8.28C458.097 8.52 457.904 8.80667 457.757 9.14C457.611 9.46 457.537 9.81333 457.537 10.2V16H455.457ZM474.374 16.2C473.294 16.2 472.334 15.9733 471.494 15.52C470.668 15.0533 470.014 14.42 469.534 13.62C469.068 12.82 468.834 11.9 468.834 10.86C468.834 10.0333 468.968 9.28 469.234 8.6C469.501 7.92 469.868 7.33333 470.334 6.84C470.814 6.33333 471.381 5.94667 472.034 5.68C472.701 5.4 473.421 5.26 474.194 5.26C474.874 5.26 475.508 5.39333 476.094 5.66C476.681 5.91333 477.188 6.26667 477.614 6.72C478.054 7.17333 478.388 7.71333 478.614 8.34C478.854 8.95333 478.968 9.62667 478.954 10.36L478.934 11.24H470.354L469.894 9.6H477.154L476.854 9.94V9.46C476.814 9.02 476.668 8.62667 476.414 8.28C476.161 7.93333 475.841 7.66 475.454 7.46C475.068 7.26 474.648 7.16 474.194 7.16C473.474 7.16 472.868 7.3 472.374 7.58C471.881 7.84667 471.508 8.24667 471.254 8.78C471.001 9.3 470.874 9.94667 470.874 10.72C470.874 11.4533 471.028 12.0933 471.334 12.64C471.641 13.1733 472.074 13.5867 472.634 13.88C473.194 14.1733 473.841 14.32 474.574 14.32C475.094 14.32 475.574 14.2333 476.014 14.06C476.468 13.8867 476.954 13.5733 477.474 13.12L478.514 14.58C478.194 14.9 477.801 15.18 477.334 15.42C476.881 15.66 476.394 15.8533 475.874 16C475.368 16.1333 474.868 16.2 474.374 16.2ZM491.633 16.2C490.766 16.2 489.973 15.96 489.253 15.48C488.546 15 487.98 14.3467 487.553 13.52C487.126 12.6933 486.913 11.76 486.913 10.72C486.913 9.66667 487.126 8.73333 487.553 7.92C487.993 7.09333 488.58 6.44667 489.313 5.98C490.06 5.51333 490.893 5.28 491.813 5.28C492.36 5.28 492.86 5.36 493.313 5.52C493.766 5.68 494.16 5.90667 494.493 6.2C494.84 6.48 495.12 6.80667 495.333 7.18C495.56 7.55333 495.7 7.95333 495.753 8.38L495.293 8.22V5.5H497.373V16H495.293V13.5L495.773 13.36C495.693 13.72 495.526 14.0733 495.273 14.42C495.033 14.7533 494.72 15.0533 494.333 15.32C493.96 15.5867 493.54 15.8 493.073 15.96C492.62 16.12 492.14 16.2 491.633 16.2ZM492.173 14.3C492.8 14.3 493.353 14.1467 493.833 13.84C494.313 13.5333 494.686 13.1133 494.953 12.58C495.233 12.0333 495.373 11.4133 495.373 10.72C495.373 10.04 495.233 9.43333 494.953 8.9C494.686 8.36667 494.313 7.94667 493.833 7.64C493.353 7.33333 492.8 7.18 492.173 7.18C491.56 7.18 491.013 7.33333 490.533 7.64C490.066 7.94667 489.693 8.36667 489.413 8.9C489.146 9.43333 489.013 10.04 489.013 10.72C489.013 11.4133 489.146 12.0333 489.413 12.58C489.693 13.1133 490.066 13.5333 490.533 13.84C491.013 14.1467 491.56 14.3 492.173 14.3ZM511.109 16.2C510.136 16.2 509.263 15.96 508.489 15.48C507.729 15 507.123 14.3467 506.669 13.52C506.229 12.6933 506.009 11.7667 506.009 10.74C506.009 9.71333 506.229 8.78667 506.669 7.96C507.123 7.13333 507.729 6.48 508.489 6C509.263 5.52 510.136 5.28 511.109 5.28C512.043 5.28 512.889 5.47333 513.649 5.86C514.423 6.23333 515.009 6.74667 515.409 7.4L514.269 8.8C514.056 8.49333 513.783 8.21333 513.449 7.96C513.116 7.70667 512.763 7.50667 512.389 7.36C512.016 7.21333 511.656 7.14 511.309 7.14C510.669 7.14 510.096 7.3 509.589 7.62C509.096 7.92667 508.703 8.35333 508.409 8.9C508.116 9.44667 507.969 10.06 507.969 10.74C507.969 11.42 508.123 12.0333 508.429 12.58C508.736 13.1133 509.143 13.54 509.649 13.86C510.156 14.18 510.716 14.34 511.329 14.34C511.689 14.34 512.036 14.28 512.369 14.16C512.716 14.04 513.049 13.86 513.369 13.62C513.689 13.38 513.989 13.0867 514.269 12.74L515.409 14.14C514.983 14.74 514.369 15.2333 513.569 15.62C512.783 16.0067 511.963 16.2 511.109 16.2ZM523.753 16V1.2H525.813V7.66L525.453 7.9C525.586 7.43333 525.846 7.00667 526.233 6.62C526.619 6.22 527.079 5.9 527.613 5.66C528.146 5.40667 528.693 5.28 529.253 5.28C530.053 5.28 530.719 5.44 531.253 5.76C531.786 6.06667 532.186 6.54 532.453 7.18C532.719 7.82 532.853 8.62667 532.853 9.6V16H530.793V9.74C530.793 9.14 530.713 8.64667 530.553 8.26C530.393 7.86 530.146 7.57333 529.813 7.4C529.479 7.21333 529.066 7.13333 528.573 7.16C528.173 7.16 527.806 7.22667 527.473 7.36C527.139 7.48 526.846 7.65333 526.593 7.88C526.353 8.10667 526.159 8.37333 526.013 8.68C525.879 8.97333 525.813 9.29333 525.813 9.64V16H524.793C524.619 16 524.446 16 524.273 16C524.099 16 523.926 16 523.753 16ZM542.367 19.58L541.607 18.66C542.074 18.3933 542.454 18.0867 542.747 17.74C543.04 17.3933 543.187 17.0933 543.187 16.84C543.187 16.7067 543.154 16.5733 543.087 16.44C543.02 16.32 542.88 16.1467 542.667 15.92C542.4 15.6667 542.227 15.4533 542.147 15.28C542.067 15.1067 542.027 14.92 542.027 14.72C542.027 14.4 542.14 14.1467 542.367 13.96C542.594 13.76 542.887 13.66 543.247 13.66C543.58 13.66 543.88 13.76 544.147 13.96C544.427 14.1467 544.64 14.4133 544.787 14.76C544.947 15.0933 545.027 15.48 545.027 15.92C545.027 16.32 544.96 16.7067 544.827 17.08C544.694 17.4533 544.507 17.8 544.267 18.12C544.027 18.44 543.747 18.7267 543.427 18.98C543.107 19.2333 542.754 19.4333 542.367 19.58ZM4.94 38.2C4.06 38.2 3.26667 38.0467 2.56 37.74C1.85333 37.4333 1.26667 36.98 0.8 36.38L2.2 35.18C2.6 35.6467 3.03333 35.9867 3.5 36.2C3.98 36.4 4.52 36.5 5.12 36.5C5.36 36.5 5.58 36.4733 5.78 36.42C5.99333 36.3533 6.17333 36.26 6.32 36.14C6.48 36.02 6.6 35.88 6.68 35.72C6.76 35.5467 6.8 35.36 6.8 35.16C6.8 34.8133 6.67333 34.5333 6.42 34.32C6.28667 34.2267 6.07333 34.1267 5.78 34.02C5.5 33.9 5.13333 33.78 4.68 33.66C3.90667 33.46 3.27333 33.2333 2.78 32.98C2.28667 32.7267 1.90667 32.44 1.64 32.12C1.44 31.8667 1.29333 31.5933 1.2 31.3C1.10667 30.9933 1.06 30.66 1.06 30.3C1.06 29.86 1.15333 29.46 1.34 29.1C1.54 28.7267 1.80667 28.4067 2.14 28.14C2.48667 27.86 2.88667 27.6467 3.34 27.5C3.80667 27.3533 4.3 27.28 4.82 27.28C5.31333 27.28 5.8 27.3467 6.28 27.48C6.77333 27.6133 7.22667 27.8067 7.64 28.06C8.05333 28.3133 8.4 28.6133 8.68 28.96L7.5 30.26C7.24667 30.0067 6.96667 29.7867 6.66 29.6C6.36667 29.4 6.06667 29.2467 5.76 29.14C5.45333 29.0333 5.17333 28.98 4.92 28.98C4.64 28.98 4.38667 29.0067 4.16 29.06C3.93333 29.1133 3.74 29.1933 3.58 29.3C3.43333 29.4067 3.32 29.54 3.24 29.7C3.16 29.86 3.12 30.04 3.12 30.24C3.13333 30.4133 3.17333 30.58 3.24 30.74C3.32 30.8867 3.42667 31.0133 3.56 31.12C3.70667 31.2267 3.92667 31.34 4.22 31.46C4.51333 31.58 4.88667 31.6933 5.34 31.8C6.00667 31.9733 6.55333 32.1667 6.98 32.38C7.42 32.58 7.76667 32.8133 8.02 33.08C8.28667 33.3333 8.47333 33.6267 8.58 33.96C8.68667 34.2933 8.74 34.6667 8.74 35.08C8.74 35.68 8.56667 36.22 8.22 36.7C7.88667 37.1667 7.43333 37.5333 6.86 37.8C6.28667 38.0667 5.64667 38.2 4.94 38.2ZM17.4103 42.4V27.5H19.4903V29.9L19.1703 29.72C19.2503 29.32 19.477 28.94 19.8503 28.58C20.2236 28.2067 20.677 27.9067 21.2103 27.68C21.757 27.44 22.317 27.32 22.8903 27.32C23.837 27.32 24.677 27.5533 25.4103 28.02C26.1436 28.4867 26.7236 29.1267 27.1503 29.94C27.577 30.7533 27.7903 31.6867 27.7903 32.74C27.7903 33.78 27.577 34.7133 27.1503 35.54C26.737 36.3533 26.1636 37 25.4303 37.48C24.697 37.9467 23.8703 38.18 22.9503 38.18C22.337 38.18 21.7436 38.06 21.1703 37.82C20.597 37.5667 20.1103 37.2467 19.7103 36.86C19.3103 36.4733 19.0636 36.0733 18.9703 35.66L19.4903 35.38V42.4H17.4103ZM22.6103 36.28C23.2236 36.28 23.7703 36.1267 24.2503 35.82C24.7303 35.5133 25.1103 35.0933 25.3903 34.56C25.6703 34.0267 25.8103 33.42 25.8103 32.74C25.8103 32.06 25.6703 31.46 25.3903 30.94C25.1236 30.4067 24.7503 29.9867 24.2703 29.68C23.7903 29.3733 23.237 29.22 22.6103 29.22C21.9836 29.22 21.4303 29.3733 20.9503 29.68C20.4703 29.9733 20.0903 30.3867 19.8103 30.92C19.5303 31.4533 19.3903 32.06 19.3903 32.74C19.3903 33.42 19.5303 34.0267 19.8103 34.56C20.0903 35.0933 20.4703 35.5133 20.9503 35.82C21.4303 36.1267 21.9836 36.28 22.6103 36.28ZM41.1475 38.2C40.1208 38.2 39.2008 37.9667 38.3875 37.5C37.5875 37.02 36.9542 36.3733 36.4875 35.56C36.0208 34.7333 35.7875 33.7933 35.7875 32.74C35.7875 31.6867 36.0208 30.7533 36.4875 29.94C36.9542 29.1133 37.5875 28.4667 38.3875 28C39.2008 27.52 40.1208 27.28 41.1475 27.28C42.1608 27.28 43.0675 27.52 43.8675 28C44.6808 28.4667 45.3208 29.1133 45.7875 29.94C46.2542 30.7533 46.4875 31.6867 46.4875 32.74C46.4875 33.7933 46.2542 34.7333 45.7875 35.56C45.3208 36.3733 44.6808 37.02 43.8675 37.5C43.0675 37.9667 42.1608 38.2 41.1475 38.2ZM41.1475 36.32C41.7742 36.32 42.3342 36.1667 42.8275 35.86C43.3208 35.54 43.7075 35.1133 43.9875 34.58C44.2675 34.0333 44.4008 33.42 44.3875 32.74C44.4008 32.0467 44.2675 31.4333 43.9875 30.9C43.7075 30.3533 43.3208 29.9267 42.8275 29.62C42.3342 29.3133 41.7742 29.16 41.1475 29.16C40.5208 29.16 39.9542 29.32 39.4475 29.64C38.9542 29.9467 38.5675 30.3733 38.2875 30.92C38.0075 31.4533 37.8742 32.06 37.8875 32.74C37.8742 33.42 38.0075 34.0333 38.2875 34.58C38.5675 35.1133 38.9542 35.54 39.4475 35.86C39.9542 36.1667 40.5208 36.32 41.1475 36.32ZM55.1322 38V27.5H57.1922V29.66L56.8322 29.9C56.9655 29.4333 57.2255 29.0067 57.6122 28.62C57.9989 28.22 58.4589 27.9 58.9922 27.66C59.5255 27.4067 60.0722 27.28 60.6322 27.28C61.4322 27.28 62.0989 27.44 62.6322 27.76C63.1655 28.0667 63.5655 28.54 63.8322 29.18C64.0989 29.82 64.2322 30.6267 64.2322 31.6V38H62.1722V31.74C62.1722 31.14 62.0922 30.6467 61.9322 30.26C61.7722 29.86 61.5255 29.5733 61.1922 29.4C60.8589 29.2133 60.4455 29.1333 59.9522 29.16C59.5522 29.16 59.1855 29.2267 58.8522 29.36C58.5189 29.48 58.2255 29.6533 57.9722 29.88C57.7322 30.1067 57.5389 30.3733 57.3922 30.68C57.2589 30.9733 57.1922 31.2933 57.1922 31.64V38H56.1722C55.9989 38 55.8255 38 55.6522 38C55.4789 38 55.3055 38 55.1322 38ZM76.9267 38.2C76.0467 38.2 75.2534 38.0467 74.5467 37.74C73.8401 37.4333 73.2534 36.98 72.7867 36.38L74.1867 35.18C74.5867 35.6467 75.0201 35.9867 75.4867 36.2C75.9667 36.4 76.5067 36.5 77.1067 36.5C77.3467 36.5 77.5667 36.4733 77.7667 36.42C77.9801 36.3533 78.1601 36.26 78.3067 36.14C78.4667 36.02 78.5867 35.88 78.6667 35.72C78.7467 35.5467 78.7867 35.36 78.7867 35.16C78.7867 34.8133 78.6601 34.5333 78.4067 34.32C78.2734 34.2267 78.0601 34.1267 77.7667 34.02C77.4867 33.9 77.1201 33.78 76.6667 33.66C75.8934 33.46 75.2601 33.2333 74.7667 32.98C74.2734 32.7267 73.8934 32.44 73.6267 32.12C73.4267 31.8667 73.2801 31.5933 73.1867 31.3C73.0934 30.9933 73.0467 30.66 73.0467 30.3C73.0467 29.86 73.1401 29.46 73.3267 29.1C73.5267 28.7267 73.7934 28.4067 74.1267 28.14C74.4734 27.86 74.8734 27.6467 75.3267 27.5C75.7934 27.3533 76.2867 27.28 76.8067 27.28C77.3001 27.28 77.7867 27.3467 78.2667 27.48C78.7601 27.6133 79.2134 27.8067 79.6267 28.06C80.0401 28.3133 80.3867 28.6133 80.6667 28.96L79.4867 30.26C79.2334 30.0067 78.9534 29.7867 78.6467 29.6C78.3534 29.4 78.0534 29.2467 77.7467 29.14C77.4401 29.0333 77.1601 28.98 76.9067 28.98C76.6267 28.98 76.3734 29.0067 76.1467 29.06C75.9201 29.1133 75.7267 29.1933 75.5667 29.3C75.4201 29.4067 75.3067 29.54 75.2267 29.7C75.1467 29.86 75.1067 30.04 75.1067 30.24C75.1201 30.4133 75.1601 30.58 75.2267 30.74C75.3067 30.8867 75.4134 31.0133 75.5467 31.12C75.6934 31.2267 75.9134 31.34 76.2067 31.46C76.5001 31.58 76.8734 31.6933 77.3267 31.8C77.9934 31.9733 78.5401 32.1667 78.9667 32.38C79.4067 32.58 79.7534 32.8133 80.0067 33.08C80.2734 33.3333 80.4601 33.6267 80.5667 33.96C80.6734 34.2933 80.7267 34.6667 80.7267 35.08C80.7267 35.68 80.5534 36.22 80.2067 36.7C79.8734 37.1667 79.4201 37.5333 78.8467 37.8C78.2734 38.0667 77.6334 38.2 76.9267 38.2ZM94.117 38.2C93.0904 38.2 92.1704 37.9667 91.357 37.5C90.557 37.02 89.9237 36.3733 89.457 35.56C88.9904 34.7333 88.757 33.7933 88.757 32.74C88.757 31.6867 88.9904 30.7533 89.457 29.94C89.9237 29.1133 90.557 28.4667 91.357 28C92.1704 27.52 93.0904 27.28 94.117 27.28C95.1304 27.28 96.037 27.52 96.837 28C97.6504 28.4667 98.2904 29.1133 98.757 29.94C99.2237 30.7533 99.457 31.6867 99.457 32.74C99.457 33.7933 99.2237 34.7333 98.757 35.56C98.2904 36.3733 97.6504 37.02 96.837 37.5C96.037 37.9667 95.1304 38.2 94.117 38.2ZM94.117 36.32C94.7437 36.32 95.3037 36.1667 95.797 35.86C96.2904 35.54 96.677 35.1133 96.957 34.58C97.237 34.0333 97.3704 33.42 97.357 32.74C97.3704 32.0467 97.237 31.4333 96.957 30.9C96.677 30.3533 96.2904 29.9267 95.797 29.62C95.3037 29.3133 94.7437 29.16 94.117 29.16C93.4904 29.16 92.9237 29.32 92.417 29.64C91.9237 29.9467 91.537 30.3733 91.257 30.92C90.977 31.4533 90.8437 32.06 90.857 32.74C90.8437 33.42 90.977 34.0333 91.257 34.58C91.537 35.1133 91.9237 35.54 92.417 35.86C92.9237 36.1667 93.4904 36.32 94.117 36.32ZM108.102 38V27.5H110.182V30.8L109.982 30C110.128 29.4933 110.375 29.0333 110.722 28.62C111.082 28.2067 111.488 27.88 111.942 27.64C112.408 27.4 112.888 27.28 113.382 27.28C113.608 27.28 113.822 27.3 114.022 27.34C114.235 27.38 114.402 27.4267 114.522 27.48L113.982 29.72C113.822 29.6533 113.642 29.6 113.442 29.56C113.255 29.5067 113.068 29.48 112.882 29.48C112.522 29.48 112.175 29.5533 111.842 29.7C111.522 29.8333 111.235 30.0267 110.982 30.28C110.742 30.52 110.548 30.8067 110.402 31.14C110.255 31.46 110.182 31.8133 110.182 32.2V38H108.102ZM126.068 38.2C125.188 38.2 124.395 38.0467 123.688 37.74C122.981 37.4333 122.395 36.98 121.928 36.38L123.328 35.18C123.728 35.6467 124.161 35.9867 124.628 36.2C125.108 36.4 125.648 36.5 126.248 36.5C126.488 36.5 126.708 36.4733 126.908 36.42C127.121 36.3533 127.301 36.26 127.448 36.14C127.608 36.02 127.728 35.88 127.808 35.72C127.888 35.5467 127.928 35.36 127.928 35.16C127.928 34.8133 127.801 34.5333 127.548 34.32C127.415 34.2267 127.201 34.1267 126.908 34.02C126.628 33.9 126.261 33.78 125.808 33.66C125.035 33.46 124.401 33.2333 123.908 32.98C123.415 32.7267 123.035 32.44 122.768 32.12C122.568 31.8667 122.421 31.5933 122.328 31.3C122.235 30.9933 122.188 30.66 122.188 30.3C122.188 29.86 122.281 29.46 122.468 29.1C122.668 28.7267 122.935 28.4067 123.268 28.14C123.615 27.86 124.015 27.6467 124.468 27.5C124.935 27.3533 125.428 27.28 125.948 27.28C126.441 27.28 126.928 27.3467 127.408 27.48C127.901 27.6133 128.355 27.8067 128.768 28.06C129.181 28.3133 129.528 28.6133 129.808 28.96L128.628 30.26C128.375 30.0067 128.095 29.7867 127.788 29.6C127.495 29.4 127.195 29.2467 126.888 29.14C126.581 29.0333 126.301 28.98 126.048 28.98C125.768 28.98 125.515 29.0067 125.288 29.06C125.061 29.1133 124.868 29.1933 124.708 29.3C124.561 29.4067 124.448 29.54 124.368 29.7C124.288 29.86 124.248 30.04 124.248 30.24C124.261 30.4133 124.301 30.58 124.368 30.74C124.448 30.8867 124.555 31.0133 124.688 31.12C124.835 31.2267 125.055 31.34 125.348 31.46C125.641 31.58 126.015 31.6933 126.468 31.8C127.135 31.9733 127.681 32.1667 128.108 32.38C128.548 32.58 128.895 32.8133 129.148 33.08C129.415 33.3333 129.601 33.6267 129.708 33.96C129.815 34.2933 129.868 34.6667 129.868 35.08C129.868 35.68 129.695 36.22 129.348 36.7C129.015 37.1667 128.561 37.5333 127.988 37.8C127.415 38.0667 126.775 38.2 126.068 38.2ZM138.538 38V23.2H140.598V29.66L140.238 29.9C140.372 29.4333 140.632 29.0067 141.018 28.62C141.405 28.22 141.865 27.9 142.398 27.66C142.932 27.4067 143.478 27.28 144.038 27.28C144.838 27.28 145.505 27.44 146.038 27.76C146.572 28.0667 146.972 28.54 147.238 29.18C147.505 29.82 147.638 30.6267 147.638 31.6V38H145.578V31.74C145.578 31.14 145.498 30.6467 145.338 30.26C145.178 29.86 144.932 29.5733 144.598 29.4C144.265 29.2133 143.852 29.1333 143.358 29.16C142.958 29.16 142.592 29.2267 142.258 29.36C141.925 29.48 141.632 29.6533 141.378 29.88C141.138 30.1067 140.945 30.3733 140.798 30.68C140.665 30.9733 140.598 31.2933 140.598 31.64V38H139.578C139.405 38 139.232 38 139.058 38C138.885 38 138.712 38 138.538 38ZM157.173 38V27.5H159.233V38H157.173ZM158.173 25.18C157.733 25.18 157.393 25.0667 157.153 24.84C156.913 24.6133 156.793 24.2933 156.793 23.88C156.793 23.4933 156.913 23.18 157.153 22.94C157.406 22.7 157.746 22.58 158.173 22.58C158.613 22.58 158.953 22.6933 159.193 22.92C159.433 23.1467 159.553 23.4667 159.553 23.88C159.553 24.2667 159.426 24.58 159.173 24.82C158.933 25.06 158.6 25.18 158.173 25.18ZM168.799 42.4V27.5H170.879V29.9L170.559 29.72C170.639 29.32 170.866 28.94 171.239 28.58C171.613 28.2067 172.066 27.9067 172.599 27.68C173.146 27.44 173.706 27.32 174.279 27.32C175.226 27.32 176.066 27.5533 176.799 28.02C177.533 28.4867 178.113 29.1267 178.539 29.94C178.966 30.7533 179.179 31.6867 179.179 32.74C179.179 33.78 178.966 34.7133 178.539 35.54C178.126 36.3533 177.553 37 176.819 37.48C176.086 37.9467 175.259 38.18 174.339 38.18C173.726 38.18 173.133 38.06 172.559 37.82C171.986 37.5667 171.499 37.2467 171.099 36.86C170.699 36.4733 170.453 36.0733 170.359 35.66L170.879 35.38V42.4H168.799ZM173.999 36.28C174.613 36.28 175.159 36.1267 175.639 35.82C176.119 35.5133 176.499 35.0933 176.779 34.56C177.059 34.0267 177.199 33.42 177.199 32.74C177.199 32.06 177.059 31.46 176.779 30.94C176.513 30.4067 176.139 29.9867 175.659 29.68C175.179 29.3733 174.626 29.22 173.999 29.22C173.373 29.22 172.819 29.3733 172.339 29.68C171.859 29.9733 171.479 30.3867 171.199 30.92C170.919 31.4533 170.779 32.06 170.779 32.74C170.779 33.42 170.919 34.0267 171.199 34.56C171.479 35.0933 171.859 35.5133 172.339 35.82C172.819 36.1267 173.373 36.28 173.999 36.28ZM191.317 38.2C190.437 38.2 189.643 38.0467 188.937 37.74C188.23 37.4333 187.643 36.98 187.177 36.38L188.577 35.18C188.977 35.6467 189.41 35.9867 189.877 36.2C190.357 36.4 190.897 36.5 191.497 36.5C191.737 36.5 191.957 36.4733 192.157 36.42C192.37 36.3533 192.55 36.26 192.697 36.14C192.857 36.02 192.977 35.88 193.057 35.72C193.137 35.5467 193.177 35.36 193.177 35.16C193.177 34.8133 193.05 34.5333 192.797 34.32C192.663 34.2267 192.45 34.1267 192.157 34.02C191.877 33.9 191.51 33.78 191.057 33.66C190.283 33.46 189.65 33.2333 189.157 32.98C188.663 32.7267 188.283 32.44 188.017 32.12C187.817 31.8667 187.67 31.5933 187.577 31.3C187.483 30.9933 187.437 30.66 187.437 30.3C187.437 29.86 187.53 29.46 187.717 29.1C187.917 28.7267 188.183 28.4067 188.517 28.14C188.863 27.86 189.263 27.6467 189.717 27.5C190.183 27.3533 190.677 27.28 191.197 27.28C191.69 27.28 192.177 27.3467 192.657 27.48C193.15 27.6133 193.603 27.8067 194.017 28.06C194.43 28.3133 194.777 28.6133 195.057 28.96L193.877 30.26C193.623 30.0067 193.343 29.7867 193.037 29.6C192.743 29.4 192.443 29.2467 192.137 29.14C191.83 29.0333 191.55 28.98 191.297 28.98C191.017 28.98 190.763 29.0067 190.537 29.06C190.31 29.1133 190.117 29.1933 189.957 29.3C189.81 29.4067 189.697 29.54 189.617 29.7C189.537 29.86 189.497 30.04 189.497 30.24C189.51 30.4133 189.55 30.58 189.617 30.74C189.697 30.8867 189.803 31.0133 189.937 31.12C190.083 31.2267 190.303 31.34 190.597 31.46C190.89 31.58 191.263 31.6933 191.717 31.8C192.383 31.9733 192.93 32.1667 193.357 32.38C193.797 32.58 194.143 32.8133 194.397 33.08C194.663 33.3333 194.85 33.6267 194.957 33.96C195.063 34.2933 195.117 34.6667 195.117 35.08C195.117 35.68 194.943 36.22 194.597 36.7C194.263 37.1667 193.81 37.5333 193.237 37.8C192.663 38.0667 192.023 38.2 191.317 38.2ZM204.107 41.58L203.347 40.66C203.814 40.3933 204.194 40.0867 204.487 39.74C204.78 39.3933 204.927 39.0933 204.927 38.84C204.927 38.7067 204.894 38.5733 204.827 38.44C204.76 38.32 204.62 38.1467 204.407 37.92C204.14 37.6667 203.967 37.4533 203.887 37.28C203.807 37.1067 203.767 36.92 203.767 36.72C203.767 36.4 203.88 36.1467 204.107 35.96C204.334 35.76 204.627 35.66 204.987 35.66C205.32 35.66 205.62 35.76 205.887 35.96C206.167 36.1467 206.38 36.4133 206.527 36.76C206.687 37.0933 206.767 37.48 206.767 37.92C206.767 38.32 206.7 38.7067 206.567 39.08C206.434 39.4533 206.247 39.8 206.007 40.12C205.767 40.44 205.487 40.7267 205.167 40.98C204.847 41.2333 204.494 41.4333 204.107 41.58ZM231.564 38.2C230.698 38.2 229.904 37.96 229.184 37.48C228.478 37 227.911 36.3467 227.484 35.52C227.058 34.6933 226.844 33.76 226.844 32.72C226.844 31.6667 227.058 30.7333 227.484 29.92C227.924 29.0933 228.511 28.4467 229.244 27.98C229.991 27.5133 230.824 27.28 231.744 27.28C232.291 27.28 232.791 27.36 233.244 27.52C233.698 27.68 234.091 27.9067 234.424 28.2C234.771 28.48 235.051 28.8067 235.264 29.18C235.491 29.5533 235.631 29.9533 235.684 30.38L235.224 30.22V27.5H237.304V38H235.224V35.5L235.704 35.36C235.624 35.72 235.458 36.0733 235.204 36.42C234.964 36.7533 234.651 37.0533 234.264 37.32C233.891 37.5867 233.471 37.8 233.004 37.96C232.551 38.12 232.071 38.2 231.564 38.2ZM232.104 36.3C232.731 36.3 233.284 36.1467 233.764 35.84C234.244 35.5333 234.618 35.1133 234.884 34.58C235.164 34.0333 235.304 33.4133 235.304 32.72C235.304 32.04 235.164 31.4333 234.884 30.9C234.618 30.3667 234.244 29.9467 233.764 29.64C233.284 29.3333 232.731 29.18 232.104 29.18C231.491 29.18 230.944 29.3333 230.464 29.64C229.998 29.9467 229.624 30.3667 229.344 30.9C229.078 31.4333 228.944 32.04 228.944 32.72C228.944 33.4133 229.078 34.0333 229.344 34.58C229.624 35.1133 229.998 35.5333 230.464 35.84C230.944 36.1467 231.491 36.3 232.104 36.3ZM246.581 38V27.5H248.641V29.66L248.281 29.9C248.414 29.4333 248.674 29.0067 249.061 28.62C249.447 28.22 249.907 27.9 250.441 27.66C250.974 27.4067 251.521 27.28 252.081 27.28C252.881 27.28 253.547 27.44 254.081 27.76C254.614 28.0667 255.014 28.54 255.281 29.18C255.547 29.82 255.681 30.6267 255.681 31.6V38H253.621V31.74C253.621 31.14 253.541 30.6467 253.381 30.26C253.221 29.86 252.974 29.5733 252.641 29.4C252.307 29.2133 251.894 29.1333 251.401 29.16C251.001 29.16 250.634 29.2267 250.301 29.36C249.967 29.48 249.674 29.6533 249.421 29.88C249.181 30.1067 248.987 30.3733 248.841 30.68C248.707 30.9733 248.641 31.2933 248.641 31.64V38H247.621C247.447 38 247.274 38 247.101 38C246.927 38 246.754 38 246.581 38ZM269.255 38.2C268.295 38.2 267.435 37.9667 266.675 37.5C265.928 37.02 265.335 36.3733 264.895 35.56C264.455 34.7333 264.235 33.7933 264.235 32.74C264.235 31.6867 264.448 30.7533 264.875 29.94C265.315 29.1133 265.908 28.4667 266.655 28C267.402 27.52 268.248 27.28 269.195 27.28C269.715 27.28 270.215 27.3667 270.695 27.54C271.188 27.7 271.628 27.9267 272.015 28.22C272.402 28.5 272.702 28.8133 272.915 29.16C273.142 29.4933 273.255 29.8333 273.255 30.18L272.655 30.22V23.2H274.715V38H272.655V35.5H273.055C273.055 35.82 272.948 36.14 272.735 36.46C272.522 36.7667 272.235 37.0533 271.875 37.32C271.528 37.5867 271.122 37.8 270.655 37.96C270.202 38.12 269.735 38.2 269.255 38.2ZM269.535 36.42C270.162 36.42 270.715 36.26 271.195 35.94C271.675 35.62 272.048 35.1867 272.315 34.64C272.595 34.08 272.735 33.4467 272.735 32.74C272.735 32.0333 272.595 31.4067 272.315 30.86C272.048 30.3 271.675 29.86 271.195 29.54C270.715 29.22 270.162 29.06 269.535 29.06C268.908 29.06 268.355 29.22 267.875 29.54C267.395 29.86 267.015 30.3 266.735 30.86C266.468 31.4067 266.335 32.0333 266.335 32.74C266.335 33.4467 266.468 34.08 266.735 34.64C267.015 35.1867 267.395 35.62 267.875 35.94C268.355 36.26 268.908 36.42 269.535 36.42ZM300.856 38.2C299.776 38.2 298.816 37.9733 297.976 37.52C297.15 37.0533 296.496 36.42 296.016 35.62C295.55 34.82 295.316 33.9 295.316 32.86C295.316 32.0333 295.45 31.28 295.716 30.6C295.983 29.92 296.35 29.3333 296.816 28.84C297.296 28.3333 297.863 27.9467 298.516 27.68C299.183 27.4 299.903 27.26 300.676 27.26C301.356 27.26 301.99 27.3933 302.576 27.66C303.163 27.9133 303.67 28.2667 304.096 28.72C304.536 29.1733 304.87 29.7133 305.096 30.34C305.336 30.9533 305.45 31.6267 305.436 32.36L305.416 33.24H296.836L296.376 31.6H303.636L303.336 31.94V31.46C303.296 31.02 303.15 30.6267 302.896 30.28C302.643 29.9333 302.323 29.66 301.936 29.46C301.55 29.26 301.13 29.16 300.676 29.16C299.956 29.16 299.35 29.3 298.856 29.58C298.363 29.8467 297.99 30.2467 297.736 30.78C297.483 31.3 297.356 31.9467 297.356 32.72C297.356 33.4533 297.51 34.0933 297.816 34.64C298.123 35.1733 298.556 35.5867 299.116 35.88C299.676 36.1733 300.323 36.32 301.056 36.32C301.576 36.32 302.056 36.2333 302.496 36.06C302.95 35.8867 303.436 35.5733 303.956 35.12L304.996 36.58C304.676 36.9 304.283 37.18 303.816 37.42C303.363 37.66 302.876 37.8533 302.356 38C301.85 38.1333 301.35 38.2 300.856 38.2ZM317.32 38L312.88 27.5H315.1L318.3 35.36L317.92 35.54L321.34 27.5H323.46L318.8 38H317.32ZM336.352 38.2C335.272 38.2 334.312 37.9733 333.472 37.52C332.645 37.0533 331.992 36.42 331.512 35.62C331.045 34.82 330.812 33.9 330.812 32.86C330.812 32.0333 330.945 31.28 331.212 30.6C331.478 29.92 331.845 29.3333 332.312 28.84C332.792 28.3333 333.358 27.9467 334.012 27.68C334.678 27.4 335.398 27.26 336.172 27.26C336.852 27.26 337.485 27.3933 338.072 27.66C338.658 27.9133 339.165 28.2667 339.592 28.72C340.032 29.1733 340.365 29.7133 340.592 30.34C340.832 30.9533 340.945 31.6267 340.932 32.36L340.912 33.24H332.332L331.872 31.6H339.132L338.832 31.94V31.46C338.792 31.02 338.645 30.6267 338.392 30.28C338.138 29.9333 337.818 29.66 337.432 29.46C337.045 29.26 336.625 29.16 336.172 29.16C335.452 29.16 334.845 29.3 334.352 29.58C333.858 29.8467 333.485 30.2467 333.232 30.78C332.978 31.3 332.852 31.9467 332.852 32.72C332.852 33.4533 333.005 34.0933 333.312 34.64C333.618 35.1733 334.052 35.5867 334.612 35.88C335.172 36.1733 335.818 36.32 336.552 36.32C337.072 36.32 337.552 36.2333 337.992 36.06C338.445 35.8867 338.932 35.5733 339.452 35.12L340.492 36.58C340.172 36.9 339.778 37.18 339.312 37.42C338.858 37.66 338.372 37.8533 337.852 38C337.345 38.1333 336.845 38.2 336.352 38.2ZM349.57 38V27.5H351.63V29.66L351.27 29.9C351.404 29.4333 351.664 29.0067 352.05 28.62C352.437 28.22 352.897 27.9 353.43 27.66C353.964 27.4067 354.51 27.28 355.07 27.28C355.87 27.28 356.537 27.44 357.07 27.76C357.604 28.0667 358.004 28.54 358.27 29.18C358.537 29.82 358.67 30.6267 358.67 31.6V38H356.61V31.74C356.61 31.14 356.53 30.6467 356.37 30.26C356.21 29.86 355.964 29.5733 355.63 29.4C355.297 29.2133 354.884 29.1333 354.39 29.16C353.99 29.16 353.624 29.2267 353.29 29.36C352.957 29.48 352.664 29.6533 352.41 29.88C352.17 30.1067 351.977 30.3733 351.83 30.68C351.697 30.9733 351.63 31.2933 351.63 31.64V38H350.61C350.437 38 350.264 38 350.09 38C349.917 38 349.744 38 349.57 38ZM369.165 38V24.82H371.225V38H369.165ZM366.985 29.5V27.5H373.665V29.5H366.985ZM393.946 42.4V27.5H396.026V29.9L395.706 29.72C395.786 29.32 396.013 28.94 396.386 28.58C396.76 28.2067 397.213 27.9067 397.746 27.68C398.293 27.44 398.853 27.32 399.426 27.32C400.373 27.32 401.213 27.5533 401.946 28.02C402.68 28.4867 403.26 29.1267 403.686 29.94C404.113 30.7533 404.326 31.6867 404.326 32.74C404.326 33.78 404.113 34.7133 403.686 35.54C403.273 36.3533 402.7 37 401.966 37.48C401.233 37.9467 400.406 38.18 399.486 38.18C398.873 38.18 398.28 38.06 397.706 37.82C397.133 37.5667 396.646 37.2467 396.246 36.86C395.846 36.4733 395.6 36.0733 395.506 35.66L396.026 35.38V42.4H393.946ZM399.146 36.28C399.76 36.28 400.306 36.1267 400.786 35.82C401.266 35.5133 401.646 35.0933 401.926 34.56C402.206 34.0267 402.346 33.42 402.346 32.74C402.346 32.06 402.206 31.46 401.926 30.94C401.66 30.4067 401.286 29.9867 400.806 29.68C400.326 29.3733 399.773 29.22 399.146 29.22C398.52 29.22 397.966 29.3733 397.486 29.68C397.006 29.9733 396.626 30.3867 396.346 30.92C396.066 31.4533 395.926 32.06 395.926 32.74C395.926 33.42 396.066 34.0267 396.346 34.56C396.626 35.0933 397.006 35.5133 397.486 35.82C397.966 36.1267 398.52 36.28 399.146 36.28ZM412.963 38V27.5H415.043V30.8L414.843 30C414.99 29.4933 415.237 29.0333 415.583 28.62C415.943 28.2067 416.35 27.88 416.803 27.64C417.27 27.4 417.75 27.28 418.243 27.28C418.47 27.28 418.683 27.3 418.883 27.34C419.097 27.38 419.263 27.4267 419.383 27.48L418.843 29.72C418.683 29.6533 418.503 29.6 418.303 29.56C418.117 29.5067 417.93 29.48 417.743 29.48C417.383 29.48 417.037 29.5533 416.703 29.7C416.383 29.8333 416.097 30.0267 415.843 30.28C415.603 30.52 415.41 30.8067 415.263 31.14C415.117 31.46 415.043 31.8133 415.043 32.2V38H412.963ZM431.701 38.2C430.674 38.2 429.754 37.9667 428.941 37.5C428.141 37.02 427.507 36.3733 427.041 35.56C426.574 34.7333 426.341 33.7933 426.341 32.74C426.341 31.6867 426.574 30.7533 427.041 29.94C427.507 29.1133 428.141 28.4667 428.941 28C429.754 27.52 430.674 27.28 431.701 27.28C432.714 27.28 433.621 27.52 434.421 28C435.234 28.4667 435.874 29.1133 436.341 29.94C436.807 30.7533 437.041 31.6867 437.041 32.74C437.041 33.7933 436.807 34.7333 436.341 35.56C435.874 36.3733 435.234 37.02 434.421 37.5C433.621 37.9667 432.714 38.2 431.701 38.2ZM431.701 36.32C432.327 36.32 432.887 36.1667 433.381 35.86C433.874 35.54 434.261 35.1133 434.541 34.58C434.821 34.0333 434.954 33.42 434.941 32.74C434.954 32.0467 434.821 31.4333 434.541 30.9C434.261 30.3533 433.874 29.9267 433.381 29.62C432.887 29.3133 432.327 29.16 431.701 29.16C431.074 29.16 430.507 29.32 430.001 29.64C429.507 29.9467 429.121 30.3733 428.841 30.92C428.561 31.4533 428.427 32.06 428.441 32.74C428.427 33.42 428.561 34.0333 428.841 34.58C429.121 35.1133 429.507 35.54 430.001 35.86C430.507 36.1667 431.074 36.32 431.701 36.32ZM445.645 38V27.5H447.725V29.74L447.345 29.98C447.452 29.6333 447.619 29.3 447.845 28.98C448.085 28.66 448.372 28.38 448.705 28.14C449.052 27.8867 449.419 27.6867 449.805 27.54C450.205 27.3933 450.612 27.32 451.025 27.32C451.625 27.32 452.152 27.42 452.605 27.62C453.059 27.82 453.432 28.12 453.725 28.52C454.019 28.92 454.232 29.42 454.365 30.02L454.045 29.94L454.185 29.6C454.332 29.2933 454.532 29.0067 454.785 28.74C455.052 28.46 455.352 28.2133 455.685 28C456.019 27.7867 456.372 27.62 456.745 27.5C457.119 27.38 457.485 27.32 457.845 27.32C458.632 27.32 459.279 27.48 459.785 27.8C460.305 28.12 460.692 28.6067 460.945 29.26C461.212 29.9133 461.345 30.7267 461.345 31.7V38H459.265V31.82C459.265 31.22 459.185 30.7333 459.025 30.36C458.879 29.9733 458.652 29.6867 458.345 29.5C458.039 29.3133 457.645 29.22 457.165 29.22C456.792 29.22 456.439 29.2867 456.105 29.42C455.785 29.54 455.505 29.7133 455.265 29.94C455.025 30.1667 454.839 30.4333 454.705 30.74C454.572 31.0333 454.505 31.36 454.505 31.72V38H452.425V31.78C452.425 31.2333 452.345 30.7733 452.185 30.4C452.025 30.0133 451.792 29.72 451.485 29.52C451.179 29.32 450.805 29.22 450.365 29.22C449.992 29.22 449.645 29.2867 449.325 29.42C449.005 29.54 448.725 29.7133 448.485 29.94C448.245 30.1533 448.059 30.4133 447.925 30.72C447.792 31.0133 447.725 31.3333 447.725 31.68V38H445.645ZM475.223 38.2C474.197 38.2 473.277 37.9667 472.463 37.5C471.663 37.02 471.03 36.3733 470.563 35.56C470.097 34.7333 469.863 33.7933 469.863 32.74C469.863 31.6867 470.097 30.7533 470.563 29.94C471.03 29.1133 471.663 28.4667 472.463 28C473.277 27.52 474.197 27.28 475.223 27.28C476.237 27.28 477.143 27.52 477.943 28C478.757 28.4667 479.397 29.1133 479.863 29.94C480.33 30.7533 480.563 31.6867 480.563 32.74C480.563 33.7933 480.33 34.7333 479.863 35.56C479.397 36.3733 478.757 37.02 477.943 37.5C477.143 37.9667 476.237 38.2 475.223 38.2ZM475.223 36.32C475.85 36.32 476.41 36.1667 476.903 35.86C477.397 35.54 477.783 35.1133 478.063 34.58C478.343 34.0333 478.477 33.42 478.463 32.74C478.477 32.0467 478.343 31.4333 478.063 30.9C477.783 30.3533 477.397 29.9267 476.903 29.62C476.41 29.3133 475.85 29.16 475.223 29.16C474.597 29.16 474.03 29.32 473.523 29.64C473.03 29.9467 472.643 30.3733 472.363 30.92C472.083 31.4533 471.95 32.06 471.963 32.74C471.95 33.42 472.083 34.0333 472.363 34.58C472.643 35.1133 473.03 35.54 473.523 35.86C474.03 36.1667 474.597 36.32 475.223 36.32ZM490.508 38V24.82H492.568V38H490.508ZM488.328 29.5V27.5H495.008V29.5H488.328ZM503.624 38V27.5H505.684V38H503.624ZM504.624 25.18C504.184 25.18 503.844 25.0667 503.604 24.84C503.364 24.6133 503.244 24.2933 503.244 23.88C503.244 23.4933 503.364 23.18 503.604 22.94C503.857 22.7 504.197 22.58 504.624 22.58C505.064 22.58 505.404 22.6933 505.644 22.92C505.884 23.1467 506.004 23.4667 506.004 23.88C506.004 24.2667 505.877 24.58 505.624 24.82C505.384 25.06 505.05 25.18 504.624 25.18ZM519.97 38.2C518.944 38.2 518.024 37.9667 517.21 37.5C516.41 37.02 515.777 36.3733 515.31 35.56C514.844 34.7333 514.61 33.7933 514.61 32.74C514.61 31.6867 514.844 30.7533 515.31 29.94C515.777 29.1133 516.41 28.4667 517.21 28C518.024 27.52 518.944 27.28 519.97 27.28C520.984 27.28 521.89 27.52 522.69 28C523.504 28.4667 524.144 29.1133 524.61 29.94C525.077 30.7533 525.31 31.6867 525.31 32.74C525.31 33.7933 525.077 34.7333 524.61 35.56C524.144 36.3733 523.504 37.02 522.69 37.5C521.89 37.9667 520.984 38.2 519.97 38.2ZM519.97 36.32C520.597 36.32 521.157 36.1667 521.65 35.86C522.144 35.54 522.53 35.1133 522.81 34.58C523.09 34.0333 523.224 33.42 523.21 32.74C523.224 32.0467 523.09 31.4333 522.81 30.9C522.53 30.3533 522.144 29.9267 521.65 29.62C521.157 29.3133 520.597 29.16 519.97 29.16C519.344 29.16 518.777 29.32 518.27 29.64C517.777 29.9467 517.39 30.3733 517.11 30.92C516.83 31.4533 516.697 32.06 516.71 32.74C516.697 33.42 516.83 34.0333 517.11 34.58C517.39 35.1133 517.777 35.54 518.27 35.86C518.777 36.1667 519.344 36.32 519.97 36.32ZM533.955 38V27.5H536.015V29.66L535.655 29.9C535.788 29.4333 536.048 29.0067 536.435 28.62C536.821 28.22 537.281 27.9 537.815 27.66C538.348 27.4067 538.895 27.28 539.455 27.28C540.255 27.28 540.921 27.44 541.455 27.76C541.988 28.0667 542.388 28.54 542.655 29.18C542.921 29.82 543.055 30.6267 543.055 31.6V38H540.995V31.74C540.995 31.14 540.915 30.6467 540.755 30.26C540.595 29.86 540.348 29.5733 540.015 29.4C539.681 29.2133 539.268 29.1333 538.775 29.16C538.375 29.16 538.008 29.2267 537.675 29.36C537.341 29.48 537.048 29.6533 536.795 29.88C536.555 30.1067 536.361 30.3733 536.215 30.68C536.081 30.9733 536.015 31.2933 536.015 31.64V38H534.995C534.821 38 534.648 38 534.475 38C534.301 38 534.128 38 533.955 38ZM553.089 38.22C552.649 38.22 552.309 38.0933 552.069 37.84C551.829 37.5733 551.709 37.2 551.709 36.72C551.709 36.28 551.836 35.92 552.089 35.64C552.343 35.36 552.676 35.22 553.089 35.22C553.529 35.22 553.869 35.3533 554.109 35.62C554.349 35.8733 554.469 36.24 554.469 36.72C554.469 37.16 554.343 37.52 554.089 37.8C553.836 38.08 553.503 38.22 553.089 38.22Z" fill="white"/>
</svg>
