<svg width="342" height="26" viewBox="0 0 342 26" fill="none" xmlns="http://www.w3.org/2000/svg">
<path d="M7.38 25V9.52H0.9V4H20.52V9.52H13.86V25H7.38ZM32.4977 25.3C30.6377 25.3 29.0377 24.94 27.6977 24.22C26.3577 23.5 25.3277 22.52 24.6077 21.28C23.8877 20.02 23.5277 18.58 23.5277 16.96C23.5277 15.76 23.7277 14.65 24.1277 13.63C24.5277 12.61 25.0877 11.73 25.8077 10.99C26.5477 10.23 27.4077 9.65 28.3877 9.25C29.3877 8.83 30.4777 8.62 31.6577 8.62C32.8377 8.62 33.9077 8.83 34.8677 9.25C35.8477 9.65 36.6877 10.23 37.3877 10.99C38.0877 11.73 38.6177 12.61 38.9777 13.63C39.3577 14.65 39.5277 15.76 39.4877 16.96L39.4577 18.22H26.8877L26.1977 15.37H34.6277L34.0577 15.97V15.43C34.0577 15.05 33.9577 14.72 33.7577 14.44C33.5777 14.14 33.3177 13.91 32.9777 13.75C32.6377 13.59 32.2377 13.51 31.7777 13.51C31.1977 13.51 30.7077 13.63 30.3077 13.87C29.9077 14.11 29.5977 14.45 29.3777 14.89C29.1777 15.33 29.0777 15.86 29.0777 16.48C29.0777 17.2 29.2277 17.83 29.5277 18.37C29.8477 18.91 30.3077 19.33 30.9077 19.63C31.5277 19.93 32.2877 20.08 33.1877 20.08C33.7877 20.08 34.2977 20.01 34.7177 19.87C35.1577 19.71 35.6177 19.46 36.0977 19.12L38.8877 23.05C38.1477 23.63 37.4177 24.08 36.6977 24.4C35.9977 24.72 35.2977 24.95 34.5977 25.09C33.9177 25.23 33.2177 25.3 32.4977 25.3ZM53.7359 25.3C52.1159 25.3 50.6659 24.94 49.3859 24.22C48.1259 23.5 47.1259 22.52 46.3859 21.28C45.6659 20.02 45.3059 18.58 45.3059 16.96C45.3059 15.34 45.6659 13.91 46.3859 12.67C47.1259 11.41 48.1259 10.42 49.3859 9.7C50.6659 8.98 52.1159 8.62 53.7359 8.62C55.1759 8.62 56.5059 8.84 57.7259 9.28C58.9459 9.72 59.9359 10.36 60.6959 11.2L57.3959 15.1C57.1759 14.86 56.9159 14.64 56.6159 14.44C56.3159 14.24 55.9759 14.09 55.5959 13.99C55.2159 13.87 54.7759 13.81 54.2759 13.81C53.6759 13.81 53.1459 13.94 52.6859 14.2C52.2459 14.46 51.9059 14.83 51.6659 15.31C51.4259 15.77 51.3059 16.31 51.3059 16.93C51.3059 17.53 51.4159 18.07 51.6359 18.55C51.8759 19.01 52.2159 19.38 52.6559 19.66C53.1159 19.94 53.6559 20.08 54.2759 20.08C54.7759 20.08 55.2159 20.03 55.5959 19.93C55.9759 19.83 56.3159 19.69 56.6159 19.51C56.9159 19.31 57.1759 19.08 57.3959 18.82L60.6659 22.75C59.9259 23.57 58.9459 24.2 57.7259 24.64C56.5059 25.08 55.1759 25.3 53.7359 25.3ZM67.2879 25V2.8H73.2279V12.19L71.9379 12.55C72.1579 11.79 72.5479 11.12 73.1079 10.54C73.6879 9.94 74.3779 9.47 75.1779 9.13C75.9779 8.79 76.8279 8.62 77.7279 8.62C78.9279 8.62 79.9479 8.87 80.7879 9.37C81.6279 9.87 82.2579 10.61 82.6779 11.59C83.1179 12.55 83.3379 13.72 83.3379 15.1V25H77.2479V15.61C77.2479 15.17 77.1779 14.8 77.0379 14.5C76.8979 14.2 76.6879 13.97 76.4079 13.81C76.1279 13.65 75.7979 13.57 75.4179 13.57C75.1179 13.57 74.8379 13.62 74.5779 13.72C74.3379 13.8 74.1279 13.93 73.9479 14.11C73.7679 14.29 73.6279 14.49 73.5279 14.71C73.4279 14.93 73.3779 15.18 73.3779 15.46V25H70.3479C69.5879 25 68.9479 25 68.4279 25C67.9279 25 67.5479 25 67.2879 25ZM91.4391 25V8.95H97.0791L97.3791 12.19L96.0891 12.55C96.3091 11.79 96.6991 11.12 97.2591 10.54C97.8391 9.94 98.5291 9.47 99.3291 9.13C100.129 8.79 100.979 8.62 101.879 8.62C103.079 8.62 104.099 8.87 104.939 9.37C105.779 9.87 106.409 10.61 106.829 11.59C107.269 12.55 107.489 13.72 107.489 15.1V25H101.399V15.61C101.399 15.17 101.329 14.8 101.189 14.5C101.049 14.2 100.839 13.97 100.559 13.81C100.279 13.65 99.9491 13.57 99.5691 13.57C99.2691 13.57 98.9891 13.62 98.7291 13.72C98.4891 13.8 98.2791 13.93 98.0991 14.11C97.9191 14.29 97.7791 14.49 97.6791 14.71C97.5791 14.93 97.5291 15.18 97.5291 15.46V25H94.4991C93.7391 25 93.0991 25 92.5791 25C92.0791 25 91.6991 25 91.4391 25ZM115.68 25V8.95H121.77V25H115.68ZM118.74 6.04C117.66 6.04 116.81 5.79 116.19 5.29C115.59 4.79 115.29 4.08 115.29 3.16C115.29 2.32 115.6 1.63 116.22 1.09C116.84 0.549998 117.68 0.279998 118.74 0.279998C119.82 0.279998 120.66 0.529999 121.26 1.03C121.88 1.53 122.19 2.24 122.19 3.16C122.19 4 121.88 4.69 121.26 5.23C120.64 5.77 119.8 6.04 118.74 6.04ZM137.509 25.3C135.889 25.3 134.439 24.94 133.159 24.22C131.899 23.5 130.899 22.52 130.159 21.28C129.439 20.02 129.079 18.58 129.079 16.96C129.079 15.34 129.439 13.91 130.159 12.67C130.899 11.41 131.899 10.42 133.159 9.7C134.439 8.98 135.889 8.62 137.509 8.62C138.949 8.62 140.279 8.84 141.499 9.28C142.719 9.72 143.709 10.36 144.469 11.2L141.169 15.1C140.949 14.86 140.689 14.64 140.389 14.44C140.089 14.24 139.749 14.09 139.369 13.99C138.989 13.87 138.549 13.81 138.049 13.81C137.449 13.81 136.919 13.94 136.459 14.2C136.019 14.46 135.679 14.83 135.439 15.31C135.199 15.77 135.079 16.31 135.079 16.93C135.079 17.53 135.189 18.07 135.409 18.55C135.649 19.01 135.989 19.38 136.429 19.66C136.889 19.94 137.429 20.08 138.049 20.08C138.549 20.08 138.989 20.03 139.369 19.93C139.749 19.83 140.089 19.69 140.389 19.51C140.689 19.31 140.949 19.08 141.169 18.82L144.439 22.75C143.699 23.57 142.719 24.2 141.499 24.64C140.279 25.08 138.949 25.3 137.509 25.3ZM156.791 25.27C155.451 25.27 154.261 24.92 153.221 24.22C152.181 23.5 151.361 22.52 150.761 21.28C150.161 20.02 149.861 18.58 149.861 16.96C149.861 15.32 150.151 13.88 150.731 12.64C151.331 11.38 152.151 10.4 153.191 9.7C154.251 8.98 155.471 8.62 156.851 8.62C157.571 8.62 158.231 8.72 158.831 8.92C159.431 9.12 159.961 9.4 160.421 9.76C160.881 10.12 161.281 10.54 161.621 11.02C161.961 11.48 162.251 11.98 162.491 12.52L161.261 12.49V8.95H167.231V25H161.111V21.07L162.461 21.19C162.261 21.77 161.981 22.31 161.621 22.81C161.281 23.31 160.871 23.74 160.391 24.1C159.911 24.46 159.371 24.75 158.771 24.97C158.171 25.17 157.511 25.27 156.791 25.27ZM158.531 20.32C159.111 20.32 159.601 20.19 160.001 19.93C160.421 19.67 160.731 19.29 160.931 18.79C161.151 18.29 161.261 17.68 161.261 16.96C161.261 16.24 161.151 15.63 160.931 15.13C160.731 14.61 160.421 14.22 160.001 13.96C159.601 13.7 159.111 13.57 158.531 13.57C157.951 13.57 157.461 13.7 157.061 13.96C156.661 14.22 156.351 14.61 156.131 15.13C155.931 15.63 155.831 16.24 155.831 16.96C155.831 17.68 155.931 18.29 156.131 18.79C156.351 19.29 156.661 19.67 157.061 19.93C157.461 20.19 157.951 20.32 158.531 20.32ZM175.622 25V2.8H181.712V25H175.622ZM220.183 25L218.593 23.38L215.773 20.86L211.963 16.99C210.963 15.97 210.163 15.08 209.563 14.32C208.983 13.54 208.553 12.85 208.273 12.25C207.993 11.65 207.803 11.11 207.703 10.63C207.623 10.13 207.583 9.67 207.583 9.25C207.583 8.13 207.883 7.13 208.483 6.25C209.083 5.37 209.913 4.68 210.973 4.18C212.053 3.66 213.293 3.4 214.693 3.4C215.773 3.4 216.793 3.57 217.753 3.91C218.713 4.23 219.533 4.69 220.213 5.29C220.913 5.89 221.403 6.6 221.683 7.42L216.793 10.24C216.493 9.5 216.203 9.03 215.923 8.83C215.643 8.61 215.323 8.5 214.963 8.5C214.683 8.5 214.433 8.55 214.213 8.65C213.993 8.75 213.823 8.9 213.703 9.1C213.583 9.3 213.523 9.54 213.523 9.82C213.523 10.18 213.703 10.64 214.063 11.2C214.423 11.76 214.883 12.36 215.443 13C216.003 13.62 216.573 14.22 217.153 14.8C217.733 15.38 218.243 15.88 218.683 16.3L219.493 17.08L222.463 19.66L227.563 25H220.183ZM212.953 25.3C211.273 25.3 209.773 25 208.453 24.4C207.133 23.8 206.093 22.97 205.333 21.91C204.573 20.85 204.193 19.65 204.193 18.31C204.193 16.95 204.603 15.69 205.423 14.53C206.263 13.35 207.513 12.46 209.173 11.86L212.953 15.22C211.973 15.44 211.213 15.8 210.673 16.3C210.153 16.78 209.893 17.36 209.893 18.04C209.893 18.6 210.023 19.08 210.283 19.48C210.563 19.86 210.963 20.15 211.483 20.35C212.003 20.55 212.633 20.65 213.373 20.65C214.093 20.65 214.773 20.5 215.413 20.2C216.073 19.88 216.653 19.44 217.153 18.88C217.653 18.32 218.053 17.65 218.353 16.87C218.673 16.07 218.863 15.19 218.923 14.23H224.683C224.503 15.55 224.173 16.78 223.693 17.92C223.233 19.04 222.643 20.06 221.923 20.98C221.223 21.88 220.403 22.66 219.463 23.32C218.543 23.96 217.533 24.45 216.433 24.79C215.353 25.13 214.193 25.3 212.953 25.3ZM245.093 25L253.523 4H258.623L266.993 25H260.573L257.213 15.82C256.993 15.2 256.803 14.67 256.643 14.23C256.483 13.79 256.343 13.38 256.223 13C256.103 12.6 255.983 12.18 255.863 11.74C255.743 11.28 255.623 10.74 255.503 10.12H256.523C256.403 10.74 256.283 11.28 256.163 11.74C256.043 12.18 255.913 12.6 255.773 13C255.653 13.38 255.503 13.79 255.323 14.23C255.163 14.67 254.973 15.2 254.753 15.82L251.393 25H245.093ZM249.293 21.88L251.183 17.47H260.933L262.643 21.88H249.293ZM272.856 25V19.75H276.546V9.25H272.856V4H286.716V9.25H283.026V19.75H286.716V25H272.856ZM295.575 25V4H301.155L308.805 16.45L304.275 16.42L312.015 4H317.415V25H311.175V19.99C311.175 18.19 311.215 16.57 311.295 15.13C311.395 13.69 311.555 12.26 311.775 10.84L312.495 12.73L307.425 20.59H305.445L300.465 12.73L301.215 10.84C301.435 12.18 301.585 13.56 301.665 14.98C301.765 16.38 301.815 18.05 301.815 19.99V25H295.575ZM326.406 25V4H332.886V19.48H341.886V25H326.406Z" fill="white"/>
</svg>
